<svg width="409" height="375" viewBox="0 0 409 375" fill="none" xmlns="http://www.w3.org/2000/svg">
<path d="M359.961 187.693C375.98 196.942 376.083 211.94 360.168 221.189C344.253 230.438 318.341 230.438 302.322 221.189C286.303 211.94 286.237 196.942 302.152 187.693C318.067 178.444 343.942 178.444 359.961 187.693Z" fill="#156BC9"/>
<path d="M355.39 202.578C354.918 207.826 349.979 211.39 345.523 213.31C340.671 215.401 335.335 216.245 330.07 216.177C324.696 216.108 319.21 215.08 314.365 212.696C310.137 210.616 305.649 206.842 305.664 201.709C305.654 205.446 305.915 208.535 308.609 211.453C312.076 215.21 317.297 217.233 322.208 218.247C331.789 220.225 344.835 219.269 352.113 211.894C355.041 208.927 355.441 205.798 355.452 201.851C355.442 202.094 355.421 202.336 355.39 202.578Z" fill="#C8CCDA"/>
<path d="M348.098 191.577C357.851 197.208 357.913 206.338 348.224 211.969C338.535 217.6 322.759 217.6 313.007 211.969C303.254 206.338 303.214 197.208 312.904 191.577C322.593 185.947 338.345 185.947 348.098 191.577Z" fill="#D4D9DF"/>
<path d="M334.993 180.194L334.932 201.955L331.125 204.168L331.186 182.407L334.993 180.194Z" fill="#E1E8F2"/>
<path d="M331.186 182.407L331.125 204.168L327.293 201.955L327.355 180.194L331.186 182.407Z" fill="#C8CCDA"/>
<path d="M334.993 180.194L331.186 182.407L327.355 180.194L331.161 177.982L334.993 180.194Z" fill="#4DA5DC"/>
<path d="M364.943 165.22C364.937 165.242 364.931 165.265 364.924 165.287C364.89 165.398 364.845 165.508 364.784 165.614C364.777 165.627 364.767 165.639 364.759 165.652C364.702 165.744 364.632 165.832 364.555 165.919C364.528 165.949 364.502 165.979 364.472 166.008C364.373 166.106 364.265 166.202 364.137 166.291L326.791 192.269C326.682 192.345 326.55 192.402 326.427 192.466C326.269 192.548 326.104 192.625 325.927 192.689C325.808 192.732 325.687 192.772 325.561 192.807C325.454 192.836 325.347 192.864 325.236 192.888C325.016 192.934 324.792 192.977 324.558 193.001H324.554C324.275 193.029 323.988 193.038 323.699 193.033C323.688 193.033 323.677 193.034 323.666 193.033C323.382 193.027 323.095 193.003 322.809 192.966C322.792 192.964 322.776 192.963 322.759 192.96C322.496 192.924 322.236 192.87 321.979 192.808C321.925 192.795 321.871 192.783 321.818 192.768C321.55 192.697 321.286 192.614 321.033 192.513C320.755 192.403 320.488 192.276 320.237 192.131L283.338 170.827C282.289 170.221 281.76 169.455 281.762 168.732L281.75 173.081C281.748 173.803 282.277 174.57 283.326 175.176L320.225 196.48C320.476 196.625 320.743 196.752 321.021 196.862C321.023 196.863 321.025 196.864 321.027 196.865C321.238 196.948 321.456 197.022 321.678 197.085C321.72 197.097 321.763 197.105 321.806 197.116C321.86 197.13 321.914 197.143 321.968 197.156C322.054 197.177 322.14 197.202 322.227 197.22C322.39 197.254 322.554 197.282 322.718 197.305C322.728 197.306 322.738 197.307 322.748 197.308C322.765 197.31 322.782 197.312 322.798 197.314C322.926 197.331 323.055 197.347 323.183 197.357C323.334 197.369 323.485 197.377 323.634 197.381C323.641 197.381 323.647 197.381 323.654 197.381C323.665 197.381 323.676 197.381 323.687 197.381C323.82 197.383 323.953 197.384 324.084 197.379C324.238 197.374 324.39 197.364 324.539 197.349C324.542 197.349 324.544 197.349 324.547 197.348H324.549C324.721 197.331 324.89 197.307 325.056 197.278C325.115 197.267 325.167 197.248 325.224 197.236C325.335 197.213 325.442 197.185 325.549 197.155C325.624 197.134 325.705 197.122 325.777 197.098C325.827 197.082 325.866 197.054 325.915 197.037C326.093 196.973 326.256 196.897 326.415 196.814C326.475 196.783 326.547 196.764 326.604 196.73C326.664 196.694 326.723 196.656 326.78 196.617L364.126 170.639C364.228 170.568 364.321 170.494 364.404 170.417C364.425 170.398 364.44 170.377 364.46 170.357C364.489 170.328 364.516 170.298 364.543 170.268C364.572 170.235 364.608 170.204 364.634 170.17C364.677 170.115 364.713 170.058 364.748 170.001C364.756 169.988 364.766 169.976 364.773 169.964C364.776 169.958 364.781 169.953 364.784 169.947C364.825 169.874 364.86 169.8 364.888 169.725C364.899 169.696 364.904 169.667 364.913 169.638C364.92 169.615 364.927 169.592 364.933 169.569C364.939 169.545 364.949 169.521 364.954 169.497C364.97 169.417 364.979 169.336 364.981 169.254C364.981 169.241 364.982 169.229 364.982 169.216L364.994 164.867C364.991 164.985 364.972 165.103 364.943 165.22Z" fill="#E39A00"/>
<path d="M363.415 162.763C365.198 163.792 365.512 165.333 364.136 166.29L326.79 192.268C325.234 193.343 322.224 193.277 320.237 192.13L283.338 170.826C281.34 169.672 281.228 167.935 283.079 167.031L327.805 145.314C329.453 144.514 332.113 144.691 333.896 145.72L363.415 162.763Z" fill="#DCC900"/>
<path d="M372.482 98.2197L334.883 76.3687L336.941 76.4477L374.541 98.2987L372.482 98.2197Z" fill="#EFD600"/>
<path d="M359.6 167.107C359.588 144.872 362.739 121.606 371.307 100.98C371.683 100.074 372.747 98.7516 372.162 98.0326C371.852 97.6526 371.011 97.3636 370.589 97.1186C368.487 95.8976 366.385 94.6756 364.284 93.4546C358.354 90.0086 352.424 86.5626 346.494 83.1166C342.624 80.8676 338.754 78.6186 334.884 76.3696C325.633 97.1256 322.279 120.723 322.013 143.304C321.998 144.589 321.601 146.475 322.682 147.356C323.061 147.665 323.584 147.881 324.007 148.126C326.033 149.303 328.059 150.481 330.085 151.658C336.084 155.144 342.083 158.631 348.082 162.117C352.096 164.45 356.109 166.782 360.123 169.114C359.469 168.734 359.6 167.74 359.6 167.107Z" fill="#E39A00"/>
<path d="M372.485 98.2197L374.544 98.2987C373.879 100.051 361.247 133.339 366.757 163.415C366.976 164.569 366.14 166.254 365.004 166.91L361.405 168.988C360.417 169.558 359.609 169.11 359.605 167.976C359.547 159.475 360.156 125.879 372.485 98.2197Z" fill="#EFBD00"/>
<path d="M289.472 60.4257C289.472 60.4257 287.202 59.3777 286.329 60.7747C285.456 62.1717 286.678 63.9177 287.202 66.5377C287.726 69.1577 289.297 72.8247 289.297 72.8247L295.758 63.0457L289.472 60.4257Z" fill="#BF483E"/>
<path d="M282.421 123.138C279.721 122.185 278.305 119.225 279.257 116.525L286.359 96.397C287.312 93.697 290.272 92.281 292.972 93.233C295.672 94.186 297.088 97.1471 296.136 99.8461L289.034 119.974C288.082 122.674 285.121 124.091 282.421 123.138Z" fill="#E1E8F2"/>
<path d="M296.707 87.0876C296.707 87.0876 296.761 87.2256 296.766 87.4606C296.782 88.3286 296.726 90.5656 296.8 91.4826C296.871 92.3626 298.108 93.6986 300.441 93.2566C302.774 92.8146 306.581 91.1646 307.432 88.1526C307.241 87.6746 306.537 82.4806 306.432 79.8496L296.707 87.0876Z" fill="#E16B40"/>
<path d="M288.02 71.3259C288.152 63.9409 293.139 58.9189 299.808 59.3379C299.808 59.3379 306.88 58.8609 311 64.4489C315.12 70.0359 311.448 75.9379 309.089 79.6669C308.088 81.2039 307.335 82.3858 306.861 83.1378C306.691 83.4198 306.525 83.7059 306.343 83.9669C306.31 84.0199 306.293 84.0479 306.293 84.0479L306.285 84.0429C304.635 86.3619 302.548 87.8699 300.95 88.6539C298.293 89.9589 294.904 90.0399 292.797 88.4369C290.689 86.8329 287.888 78.7119 288.02 71.3259Z" fill="#FF8654"/>
<path d="M304.997 208.506C304.997 208.506 304.039 210.952 301.474 212.908C298.91 214.864 297.531 216.62 297.73 217.804C297.93 218.989 299.807 219.281 302.3 218.708C304.793 218.135 305.799 215.072 307.452 214.032C309.104 212.992 311.153 212.494 311.595 211.505C312.038 210.516 310.845 207.062 310.845 207.062L304.997 208.506Z" fill="#E1E8F2"/>
<path d="M324.685 211.887C324.685 211.887 324.813 213.998 323.777 215.086C322.742 216.175 322.103 217.806 320.303 218.871C318.502 219.936 317.593 221.765 317.767 222.802C317.942 223.839 322.214 223.88 324.434 222.591C326.654 221.303 328.622 217.62 329.584 217.001C330.546 216.382 331.086 215.072 331.109 214.306C331.133 213.54 330.065 210.827 330.065 210.827L324.685 211.887Z" fill="#E1E8F2"/>
<path d="M325.008 138.576C325.008 138.576 326.03 149.154 325.959 156.267C325.888 163.38 331.775 209.256 330.548 211.313C329.322 213.37 327.065 213.554 324.705 211.926C322.345 210.297 310.964 154.434 310.964 154.434L302.625 142.677L325.008 138.576Z" fill="#514C51"/>
<path d="M295.133 138.276C295.133 138.276 301.614 194.758 304.109 207.741C304.759 211.592 310.782 211.185 311.614 207.084C312.445 202.984 309.423 147.136 307.631 140.127C305.839 133.119 295.172 133.091 295.133 138.276Z" fill="#514C51"/>
<path d="M306.316 85.5527C306.316 85.5527 319.261 91.8587 320.867 94.4117C322.472 96.9647 324.006 104.566 322.484 110.062C320.962 115.558 324.994 134.155 324.755 137.966C324.516 141.777 314.823 144.602 308.505 144.45C302.187 144.299 294.04 141.121 293.068 133.948C292.096 126.775 289.7 113.498 288.77 110.35C287.839 107.202 286.9 99.0587 287.479 93.3957C287.601 92.2007 291.241 90.3547 291.241 90.3547C291.241 90.3547 294.845 86.9907 306.316 85.5527Z" fill="#FF8654"/>
<path d="M291.391 124.777C292.022 128.418 292.763 132.758 293.137 135.517C294.109 142.69 302.886 145.696 309.203 145.847C315.521 145.998 325.213 143.173 325.452 139.362C325.691 135.551 321.659 116.954 323.181 111.458C323.932 108.748 323.937 105.527 323.559 102.651L315.488 101.114C315.49 101.115 310.396 125.212 291.391 124.777Z" fill="#FF6D2B"/>
<path d="M318.284 126.654C315.426 126.483 313.249 124.027 313.42 121.169L314.697 99.8628C314.868 97.0048 317.324 94.8268 320.182 94.9988C323.04 95.1698 325.218 97.6258 325.046 100.484L323.769 121.79C323.597 124.648 321.141 126.826 318.284 126.654Z" fill="#E1E8F2"/>
<path d="M321.935 119.687C323.553 122.049 322.949 125.275 320.587 126.893L302.977 138.954C300.615 140.572 297.389 139.968 295.771 137.606C294.153 135.244 294.757 132.018 297.119 130.4L314.729 118.339C317.091 116.721 320.317 117.325 321.935 119.687Z" fill="#E1E8F2"/>
<path d="M307.013 86.9497C297.233 88.1757 293.183 90.7947 292.199 91.5417C292.456 93.5077 292.936 96.0727 293.835 98.3197C295.581 102.686 300.122 114.735 300.122 114.735C300.122 114.735 303.789 103.21 306.758 98.1447C308.847 94.5807 310.932 91.1967 311.987 89.5007C309.257 88.0447 307.013 86.9497 307.013 86.9497Z" fill="#E1E8F2"/>
<path d="M296.707 87.0876C296.707 87.0876 296.761 87.2256 296.766 87.4606C296.782 88.3286 296.726 90.5656 296.8 91.4826C296.871 92.3626 298.108 93.6986 300.441 93.2566C302.774 92.8146 306.581 91.1646 307.432 88.1526C307.241 87.6746 306.537 82.4806 306.432 79.8496L296.707 87.0876Z" fill="#FF8654"/>
<path d="M288.02 71.3259C288.152 63.9409 293.139 58.9189 299.808 59.3379C299.808 59.3379 306.88 58.8609 311 64.4489C315.12 70.0359 311.448 75.9379 309.089 79.6669C308.088 81.2039 307.335 82.3858 306.861 83.1378C306.691 83.4198 306.525 83.7059 306.343 83.9669C306.31 84.0199 306.293 84.0479 306.293 84.0479L306.285 84.0429C304.635 86.3619 302.548 87.8699 300.95 88.6539C298.293 89.9589 294.904 90.0399 292.797 88.4369C290.689 86.8329 287.888 78.7119 288.02 71.3259Z" fill="#FF9F75"/>
<path d="M299.074 95.6431L297.793 97.8551L298.026 99.2521L296.688 105.686C298.411 110.2 300.122 114.736 300.122 114.736C300.122 114.736 300.779 112.673 301.758 109.919L300.005 99.4851L300.704 98.2041L299.074 95.6431Z" fill="#852200"/>
<path d="M306.409 72.6497C305.361 75.6187 305.187 75.9677 305.187 77.1897C305.187 78.4117 305.012 82.7778 305.012 82.7778L306.758 81.7298C306.758 81.7298 307.076 79.5817 308.052 77.6877C308.57 76.6817 309.944 76.3107 311.12 76.1817C312.624 73.2187 313.653 69.6728 311.999 66.1468L305.536 65.4897C305.536 65.4897 307.457 69.6817 306.409 72.6497Z" fill="#FF895F"/>
<path d="M313.917 68.4587C313.917 68.4587 314.092 65.1407 311.996 62.3467C309.9 59.5527 309.027 58.6797 303.439 57.4567C297.851 56.2347 293.66 58.5047 291.04 58.3297C288.421 58.1547 287.547 58.1547 287.547 58.1547C287.547 58.1547 287.547 61.8217 289.643 63.7427C291.739 65.6637 293.485 67.5847 297.851 67.2357C302.217 66.8867 306.059 67.0607 306.582 67.7597C307.106 68.4587 307.106 70.3787 308.503 71.0777C309.9 71.7767 311.646 72.2997 312.694 72.4747C313.743 72.6497 314.791 70.9037 313.917 68.4587Z" fill="#CE5E4A"/>
<path d="M368.17 284.536C371.406 286.404 371.423 289.424 368.208 291.293L228.139 372.692C224.924 374.56 219.71 374.56 216.474 372.692L2.43817 249.343C-0.79783 247.475 -0.814832 244.455 2.40017 242.586L142.469 161.187C145.684 159.319 150.898 159.319 154.133 161.187L368.17 284.536Z" fill="#156BC9"/>
<path d="M82.2162 311.761C66.8182 320.651 66.7192 335.068 82.0172 343.958C97.3152 352.848 122.222 352.848 137.62 343.958C153.018 335.068 153.081 320.651 137.783 311.761C122.485 302.871 97.6142 302.871 82.2162 311.761Z" fill="#156BC9"/>
<path d="M361.106 321.54C376.504 330.43 376.603 344.847 361.305 353.737C346.007 362.627 321.1 362.627 305.702 353.737C290.304 344.847 290.241 330.43 305.539 321.54C320.837 312.65 345.709 312.65 361.106 321.54Z" fill="#156BC9"/>
<path d="M201.633 239.561L201.489 290.406L192.594 295.575L192.738 244.73L201.633 239.561Z" fill="#3EABFF"/>
<path d="M192.738 244.73L192.594 295.575L183.641 290.406L183.785 239.561L192.738 244.73Z" fill="#1991DB"/>
<path d="M201.633 239.561L192.738 244.73L183.785 239.561L192.68 234.392L201.633 239.561Z" fill="#4DA5DC"/>
<path d="M390.089 209.311C390.08 209.34 390.074 209.37 390.064 209.4C389.973 209.661 389.837 209.917 389.67 210.168C389.64 210.213 389.612 210.258 389.579 210.302C389.398 210.551 389.181 210.792 388.924 211.024C388.755 211.176 388.541 211.314 388.339 211.457C388.169 211.577 388.024 211.706 387.831 211.818L247.762 293.217C247.266 293.505 246.711 293.733 246.135 293.933C245.932 294.003 245.723 294.064 245.513 294.123C245.242 294.199 244.969 294.27 244.689 294.328C244.36 294.396 244.028 294.458 243.688 294.5C243.606 294.51 243.525 294.525 243.443 294.534C240.866 294.811 238.103 294.374 236.098 293.217L236.078 300.291C238.056 301.433 240.771 301.868 243.318 301.614V301.623C243.353 301.62 243.388 301.612 243.423 301.608C243.505 301.599 243.585 301.584 243.667 301.574C243.902 301.544 244.138 301.518 244.369 301.476C244.472 301.458 244.567 301.422 244.669 301.401C244.95 301.343 245.221 301.272 245.493 301.196C245.637 301.156 245.791 301.132 245.931 301.087C245.997 301.066 246.051 301.028 246.116 301.006C246.693 300.807 247.247 300.579 247.743 300.29L387.812 218.891C387.846 218.871 387.88 218.851 387.913 218.831C388.068 218.738 388.177 218.63 388.317 218.532C388.52 218.389 388.735 218.25 388.905 218.096C388.921 218.082 388.945 218.069 388.961 218.055C389.154 217.877 389.325 217.693 389.473 217.505C389.506 217.463 389.529 217.418 389.56 217.376C389.593 217.331 389.621 217.286 389.651 217.241C389.702 217.165 389.761 217.09 389.805 217.013C389.892 216.859 389.965 216.702 390.024 216.545C390.033 216.522 390.036 216.498 390.044 216.474C390.054 216.444 390.06 216.414 390.07 216.384C390.102 216.283 390.137 216.183 390.157 216.081C390.188 215.924 390.206 215.766 390.211 215.609C390.212 215.585 390.212 215.561 390.212 215.537L390.232 208.463C390.23 208.748 390.177 209.031 390.089 209.311Z" fill="#3EABFF"/>
<path d="M387.792 205.062C391.028 206.93 391.045 209.95 387.83 211.819L247.761 293.218C244.546 295.086 239.332 295.086 236.096 293.218L44.485 182.053C41.249 180.185 41.232 177.165 44.447 175.296L184.516 93.8971C187.731 92.0291 192.945 92.0291 196.18 93.8971L387.792 205.062Z" fill="#7CCCFF"/>
<path d="M242.425 294.61C242.144 294.62 241.863 294.621 241.582 294.614C241.311 294.607 241.04 294.593 240.771 294.57C240.502 294.548 240.235 294.518 239.97 294.481C239.695 294.442 239.422 294.395 239.153 294.339C238.861 294.279 238.574 294.208 238.293 294.128C237.948 294.03 237.613 293.917 237.29 293.789C236.87 293.623 236.47 293.432 236.096 293.217L44.4854 182.053C42.8574 181.113 42.0444 179.881 42.0474 178.651L42.0274 185.725C42.0234 186.955 42.8374 188.187 44.4654 189.127L236.077 300.291C236.451 300.507 236.85 300.697 237.271 300.863C237.594 300.991 237.929 301.103 238.274 301.202C238.555 301.282 238.843 301.352 239.135 301.413C239.404 301.469 239.676 301.516 239.952 301.555C240.217 301.593 240.484 301.622 240.753 301.644C241.022 301.666 241.293 301.681 241.564 301.687C241.845 301.694 242.126 301.693 242.407 301.683C242.713 301.673 243.017 301.652 243.32 301.622L243.34 294.548C243.035 294.579 242.73 294.6 242.425 294.61Z" fill="#3EABFF"/>
<path d="M304.71 310.784C304.71 310.784 305.947 314.651 305.019 316.816C304.091 318.981 301.616 318.672 299.76 318.672C297.904 318.672 295.893 318.517 293.883 318.827C291.872 319.136 294.502 322.848 298.214 323.776C301.926 324.704 302.854 323.931 306.102 325.168C309.35 326.405 311.825 325.477 313.062 324.704C314.299 323.931 315.691 321.147 315.073 319.909C314.454 318.672 312.598 315.424 312.444 314.186C312.289 312.949 311.825 310.474 311.825 310.474L304.71 310.784Z" fill="#2F3B40"/>
<path d="M336.843 272.349C336.843 272.349 303.317 267.169 298.368 270.571C293.419 273.974 297.131 299.648 298.987 304.906C300.843 310.165 300.843 314.804 303.627 315.732C306.411 316.66 310.123 315.423 311.979 313.567C313.835 311.711 309.814 296.863 311.051 290.677C312.288 284.49 318.166 292.224 326.827 288.202C335.487 284.182 338.818 276.602 336.843 272.349Z" fill="#494549"/>
<path d="M357.282 335.849C356.828 340.893 352.081 344.319 347.798 346.164C343.134 348.174 338.005 348.985 332.945 348.92C327.78 348.854 322.506 347.866 317.849 345.574C313.785 343.574 309.471 339.947 309.485 335.013C309.475 338.605 309.727 341.574 312.316 344.379C315.649 347.99 320.667 349.935 325.388 350.909C334.597 352.81 347.137 351.892 354.133 344.802C356.948 341.95 357.332 338.943 357.343 335.149C357.331 335.383 357.312 335.616 357.282 335.849Z" fill="#C8CCDA"/>
<path d="M350.272 325.274C359.646 330.686 359.707 339.463 350.393 344.876C341.079 350.288 325.916 350.288 316.542 344.876C307.167 339.464 307.129 330.687 316.443 325.274C325.756 319.862 340.898 319.862 350.272 325.274Z" fill="#D4D9DF"/>
<path d="M337.676 314.333L337.617 335.25L333.957 337.377L334.017 316.46L337.676 314.333Z" fill="#E1E8F2"/>
<path d="M334.016 316.46L333.956 337.377L330.273 335.25L330.332 314.333L334.016 316.46Z" fill="#C8CCDA"/>
<path d="M337.675 314.333L334.016 316.46L330.332 314.333L333.992 312.207L337.675 314.333Z" fill="#4DA5DC"/>
<path d="M370.609 301.714L370.595 306.712C370.595 306.724 370.595 306.736 370.594 306.748L370.608 301.75C370.609 301.738 370.609 301.726 370.609 301.714Z" fill="#948700"/>
<path d="M370.607 301.75L370.593 306.748C370.591 306.827 370.582 306.907 370.566 306.987L370.58 301.989C370.596 301.909 370.605 301.829 370.607 301.75Z" fill="#998C00"/>
<path d="M370.581 301.988L370.567 306.986C370.551 307.068 370.527 307.15 370.496 307.232L370.51 302.234C370.541 302.152 370.564 302.07 370.581 301.988Z" fill="#9E9000"/>
<path d="M370.51 302.234L370.496 307.232C370.464 307.318 370.423 307.404 370.375 307.49L370.389 302.492C370.437 302.406 370.478 302.32 370.51 302.234Z" fill="#A39500"/>
<path d="M370.389 302.491L370.375 307.489C370.321 307.584 370.258 307.679 370.184 307.772L370.198 302.774C370.272 302.682 370.335 302.587 370.389 302.491Z" fill="#A89A00"/>
<path d="M370.198 302.775L370.184 307.773C370.096 307.885 369.995 307.994 369.879 308.101L369.893 303.103C370.009 302.996 370.111 302.886 370.198 302.775Z" fill="#AD9E00"/>
<path d="M369.89 303.103L369.876 308.101C369.696 308.267 369.484 308.425 369.238 308.573L369.252 303.575C369.498 303.427 369.711 303.268 369.89 303.103Z" fill="#B3A300"/>
<path d="M369.255 303.575L369.241 308.573C369.22 308.586 369.198 308.599 369.176 308.611L369.19 303.613C369.212 303.6 369.234 303.587 369.255 303.575Z" fill="#B8A800"/>
<path d="M295.47 299.695C295.392 299.657 295.317 299.618 295.246 299.577C294.581 299.193 294.25 298.671 294.252 298.121L294.238 303.119C294.237 303.668 294.567 304.19 295.232 304.575C295.303 304.616 295.378 304.655 295.456 304.693L336.697 324.614L336.711 319.616L295.47 299.695Z" fill="#E39A00"/>
<path d="M369.189 303.613L342.287 319.247C341.904 319.47 341.47 319.641 341.019 319.775C340.945 319.797 340.868 319.812 340.792 319.831C340.37 319.94 339.935 320.021 339.499 320.052C339.476 320.054 339.452 320.055 339.429 320.057C338.946 320.087 338.466 320.069 338.013 320C338.002 319.998 337.991 319.996 337.98 319.994C337.519 319.92 337.086 319.796 336.709 319.616L336.695 324.614C336.776 324.653 336.859 324.689 336.945 324.723C337.075 324.774 337.209 324.819 337.349 324.859C337.468 324.893 337.59 324.923 337.714 324.948C337.796 324.965 337.881 324.978 337.965 324.992C337.976 324.994 337.987 324.996 337.998 324.998C338.021 325.002 338.043 325.007 338.066 325.01C338.184 325.027 338.305 325.04 338.427 325.05C338.552 325.06 338.679 325.067 338.806 325.07C338.943 325.073 339.082 325.073 339.221 325.068C339.285 325.066 339.349 325.059 339.413 325.055C339.437 325.053 339.46 325.052 339.485 325.05C339.554 325.045 339.623 325.043 339.692 325.036C339.885 325.017 340.077 324.99 340.268 324.955C340.441 324.924 340.608 324.872 340.777 324.828C340.854 324.808 340.929 324.794 341.005 324.771C341.056 324.756 341.109 324.749 341.16 324.732C341.557 324.604 341.933 324.441 342.274 324.243L369.176 308.609C370.108 308.067 370.592 307.371 370.594 306.71L370.608 301.712C370.605 302.375 370.121 303.071 369.189 303.613Z" fill="#E39A00"/>
<path d="M335.079 276.428C335.15 276.469 335.218 276.512 335.283 276.557L369.808 300.38C371.075 301.262 370.809 302.67 369.189 303.612L342.287 319.246C340.666 320.188 338.235 320.346 336.709 319.615L295.468 299.695C295.39 299.657 295.315 299.618 295.244 299.577C293.783 298.734 293.938 297.228 295.669 296.222L329.287 276.685C331.019 275.679 333.619 275.585 335.079 276.428Z" fill="#DCC900"/>
<path d="M285.221 322.539C285.221 322.539 286.458 326.406 285.53 328.571C284.602 330.736 282.127 330.427 280.271 330.427C278.415 330.427 276.404 330.272 274.394 330.582C272.383 330.891 275.013 334.603 278.725 335.531C282.437 336.459 283.365 335.686 286.613 336.923C289.861 338.16 292.336 337.232 293.573 336.459C294.81 335.686 296.202 332.902 295.584 331.664C294.965 330.427 293.109 327.179 292.955 325.941C292.8 324.704 292.336 322.229 292.336 322.229L285.221 322.539Z" fill="#2F3B40"/>
<path d="M307.336 273.356C307.336 273.356 301.768 274.903 293.107 276.449C284.446 277.996 276.403 284.492 277.331 293.462C278.259 302.432 282.59 323.467 283.518 324.704C284.446 325.941 285.065 327.179 290.014 326.251C294.963 325.323 294.963 323.467 294.963 322.23C294.963 320.993 293.107 301.892 293.107 298.18C293.107 298.18 292.658 294.152 294.499 293.772C296.34 293.392 307.645 296.247 315.688 298.103C323.731 299.959 330.536 295.319 332.392 292.226C334.248 289.133 337.96 289.751 340.125 286.967C342.29 284.183 342.29 271.501 337.65 267.17C333.01 262.839 307.336 273.356 307.336 273.356Z" fill="#514C51"/>
<path d="M342.305 265.878L378.446 244.876L380.418 247.232L344.277 268.235L342.305 265.878Z" fill="#EFD600"/>
<path d="M372.624 301.216C372.314 296.46 371.504 291.788 371.396 287.001C371.279 281.845 371.53 276.692 372.238 271.582C373.386 263.289 375.61 254.229 380.416 247.232C371.728 252.281 363.039 257.33 354.351 262.379C352.075 263.702 349.798 265.025 347.521 266.348C346.531 266.923 345.202 267.434 344.34 268.197C343.775 268.696 343.381 269.647 343.021 270.294C341.958 272.202 341.055 274.199 340.26 276.232C338.539 280.634 337.319 285.235 336.514 289.891C335.551 295.468 335.165 301.134 335.234 306.79C335.271 309.832 335.423 312.879 335.723 315.907C335.869 317.382 336.036 318.857 336.228 320.327C336.333 321.133 336.953 322.941 335.98 323.507C347.325 316.914 358.67 310.321 370.015 303.728C371.028 303.139 372.711 302.627 372.624 301.216Z" fill="#EFBD00"/>
<path d="M342.305 265.878L344.277 268.235C343.63 269.177 331.347 287.072 336.462 321.992C336.655 323.334 335.855 324.016 334.764 323.385L331.304 321.388C330.355 320.84 329.582 319.527 329.574 318.43C329.576 310.216 330.343 278.705 342.305 265.878Z" fill="#E39A00"/>
<path d="M299.94 154.093L283.132 144.342L262.961 156.064L279.81 165.792L299.94 154.093Z" fill="#3EABFF"/>
<path d="M197.939 224.518L173.986 238.438L157.137 228.71L181.09 214.79L197.939 224.518Z" fill="#3EABFF"/>
<path d="M197.705 217.803L197.696 221.22L173.734 235.145L173.743 231.729L197.705 217.803Z" fill="#D4D9DF"/>
<path d="M173.745 231.728L173.736 235.145L156.887 225.417L156.896 222L173.745 231.728Z" fill="#C8CCDA"/>
<path d="M197.706 217.803L173.744 231.729L156.895 222.001L180.857 208.076L197.706 217.803Z" fill="#E1E8F2"/>
<path d="M235.424 242.95L235.414 243.572L211.453 257.497L211.462 256.875L235.424 242.95Z" fill="#E16B40"/>
<path d="M211.463 256.874L211.454 257.496L194.605 247.77L194.614 247.146L211.463 256.874Z" fill="#E16B40"/>
<path d="M235.424 242.95L211.462 256.875L194.613 247.147L218.575 233.222L235.424 242.95Z" fill="#FF8654"/>
<path d="M225.731 243.947L213.153 251.256L204.309 246.15L216.887 238.841L225.731 243.947Z" fill="#E1E8F2"/>
<path d="M196.739 238.814C197.052 238.994 197.053 239.287 196.743 239.467L186.36 245.501C186.049 245.682 185.546 245.682 185.233 245.501L178.829 241.804C178.517 241.624 178.515 241.332 178.825 241.151L189.208 235.117C189.518 234.937 190.023 234.937 190.335 235.117L196.739 238.814Z" fill="#514C51"/>
<path d="M196.974 239.166C196.973 239.174 196.973 239.183 196.971 239.191C196.97 239.198 196.968 239.205 196.966 239.211C196.964 239.219 196.962 239.227 196.959 239.235C196.957 239.242 196.954 239.248 196.951 239.254C196.947 239.262 196.944 239.271 196.939 239.279C196.936 239.285 196.932 239.291 196.928 239.297C196.922 239.306 196.916 239.316 196.909 239.325C196.905 239.33 196.901 239.336 196.896 239.341C196.886 239.353 196.875 239.365 196.862 239.377C196.857 239.381 196.853 239.386 196.849 239.39C196.841 239.397 196.833 239.403 196.825 239.41C196.818 239.416 196.81 239.422 196.802 239.428C196.793 239.435 196.783 239.441 196.773 239.447C196.763 239.454 196.753 239.46 196.743 239.467L186.36 245.501C186.325 245.521 186.288 245.538 186.249 245.554C186.239 245.558 186.228 245.562 186.218 245.566C186.194 245.575 186.168 245.582 186.143 245.589C186.117 245.596 186.09 245.603 186.063 245.609C186.031 245.616 185.999 245.621 185.966 245.626C185.958 245.627 185.95 245.628 185.942 245.629C185.898 245.634 185.853 245.636 185.808 245.636C185.801 245.636 185.794 245.636 185.787 245.636C185.743 245.636 185.698 245.633 185.655 245.629C185.648 245.628 185.642 245.628 185.635 245.627C185.592 245.622 185.549 245.614 185.507 245.605C185.499 245.603 185.492 245.601 185.484 245.599C185.446 245.59 185.409 245.578 185.373 245.565C185.367 245.563 185.36 245.561 185.354 245.558C185.311 245.541 185.27 245.522 185.232 245.501L178.828 241.804C178.71 241.736 178.637 241.652 178.607 241.564C178.597 241.535 178.592 241.505 178.592 241.475L178.59 241.842C178.59 241.857 178.591 241.872 178.594 241.887C178.611 241.991 178.688 242.092 178.826 242.171L185.23 245.868C185.266 245.889 185.305 245.907 185.345 245.923C185.347 245.924 185.349 245.924 185.351 245.925C185.357 245.927 185.364 245.929 185.37 245.932C185.393 245.94 185.417 245.949 185.441 245.956C185.454 245.96 185.467 245.962 185.48 245.966C185.488 245.968 185.495 245.97 185.503 245.972C185.51 245.974 185.517 245.976 185.524 245.977C185.55 245.982 185.576 245.987 185.603 245.991C185.612 245.992 185.622 245.993 185.631 245.994C185.638 245.995 185.644 245.995 185.651 245.996C185.661 245.997 185.671 245.999 185.68 245.999C185.706 246.001 185.732 246.003 185.758 246.003C185.766 246.003 185.774 246.003 185.783 246.003C185.79 246.003 185.797 246.003 185.804 246.003C185.816 246.003 185.828 246.003 185.84 246.003C185.87 246.002 185.899 246 185.928 245.997C185.931 245.997 185.935 245.996 185.938 245.996C185.946 245.995 185.954 245.994 185.962 245.993C185.985 245.99 186.008 245.988 186.03 245.984C186.04 245.982 186.049 245.979 186.059 245.977C186.086 245.971 186.113 245.964 186.139 245.957C186.153 245.953 186.168 245.951 186.181 245.947C186.192 245.943 186.203 245.939 186.214 245.935C186.225 245.931 186.235 245.927 186.245 245.923C186.284 245.907 186.322 245.89 186.356 245.87L196.739 239.836C196.742 239.834 196.746 239.832 196.749 239.83C196.756 239.825 196.763 239.821 196.77 239.816C196.78 239.81 196.79 239.803 196.799 239.797C196.807 239.791 196.814 239.785 196.821 239.779C196.829 239.772 196.838 239.766 196.846 239.759C196.848 239.758 196.849 239.756 196.851 239.755C196.854 239.752 196.856 239.749 196.859 239.746C196.871 239.734 196.882 239.722 196.893 239.71C196.895 239.707 196.898 239.705 196.901 239.702C196.903 239.699 196.904 239.697 196.906 239.694C196.913 239.685 196.919 239.676 196.925 239.666C196.927 239.662 196.931 239.658 196.933 239.654C196.934 239.652 196.935 239.65 196.936 239.648C196.94 239.64 196.944 239.631 196.948 239.623C196.95 239.618 196.953 239.613 196.955 239.609C196.956 239.607 196.956 239.606 196.956 239.604C196.959 239.596 196.961 239.588 196.963 239.58C196.964 239.575 196.967 239.569 196.968 239.564V239.56C196.97 239.552 196.97 239.543 196.971 239.535C196.972 239.53 196.973 239.524 196.973 239.519C196.973 239.517 196.973 239.514 196.973 239.512L196.975 239.145C196.976 239.151 196.975 239.158 196.974 239.166Z" fill="#3D3B36"/>
<path d="M195.795 238.93C195.895 238.988 195.895 239.082 195.796 239.14L187.088 244.2C186.988 244.258 186.825 244.258 186.726 244.2L180.958 240.87C180.858 240.812 180.857 240.718 180.957 240.66L189.665 235.6C189.765 235.542 189.927 235.542 190.028 235.6L195.795 238.93Z" fill="url(#paint0_linear_928_54541)"/>
<path d="M183.575 243.141C183.685 243.205 183.686 243.308 183.576 243.372L183.432 243.456C183.322 243.52 183.144 243.52 183.034 243.456L182.157 242.949C182.047 242.885 182.046 242.782 182.156 242.718L182.3 242.634C182.41 242.57 182.588 242.57 182.698 242.634L183.575 243.141Z" fill="#DCDCDC"/>
<path d="M264.978 258.372C264.665 258.553 264.664 258.845 264.974 259.025L275.357 265.059C275.668 265.24 276.171 265.24 276.484 265.059L282.888 261.362C283.2 261.182 283.202 260.89 282.892 260.709L272.509 254.675C272.199 254.495 271.694 254.495 271.382 254.675L264.978 258.372Z" fill="#514C51"/>
<path d="M264.744 258.725C264.745 258.733 264.745 258.742 264.747 258.75C264.748 258.757 264.75 258.764 264.752 258.77C264.754 258.778 264.756 258.786 264.759 258.794C264.761 258.801 264.764 258.807 264.767 258.813C264.771 258.821 264.774 258.83 264.779 258.838C264.782 258.844 264.786 258.85 264.79 258.856C264.796 258.865 264.802 258.875 264.809 258.884C264.813 258.889 264.817 258.895 264.822 258.9C264.832 258.912 264.844 258.924 264.856 258.936C264.861 258.94 264.865 258.945 264.869 258.949C264.877 258.956 264.885 258.962 264.893 258.969C264.9 258.975 264.907 258.981 264.915 258.987C264.924 258.994 264.934 259 264.944 259.006C264.954 259.013 264.963 259.019 264.974 259.025L275.357 265.059C275.392 265.079 275.429 265.096 275.468 265.112C275.478 265.116 275.489 265.12 275.499 265.124C275.523 265.133 275.549 265.14 275.574 265.147C275.6 265.154 275.627 265.161 275.654 265.167C275.686 265.174 275.718 265.18 275.75 265.184C275.758 265.185 275.766 265.187 275.774 265.187C275.818 265.192 275.863 265.194 275.908 265.195C275.915 265.195 275.922 265.195 275.929 265.195C275.973 265.195 276.018 265.192 276.061 265.188C276.068 265.187 276.074 265.187 276.081 265.186C276.124 265.181 276.167 265.173 276.209 265.164C276.217 265.162 276.224 265.16 276.232 265.158C276.27 265.149 276.307 265.137 276.343 265.124C276.349 265.122 276.356 265.12 276.362 265.117C276.405 265.1 276.446 265.081 276.484 265.06L282.888 261.363C283.006 261.295 283.079 261.211 283.109 261.123C283.119 261.094 283.124 261.064 283.124 261.034L283.126 261.401C283.126 261.416 283.125 261.431 283.122 261.445C283.105 261.549 283.028 261.65 282.89 261.729L276.486 265.426C276.45 265.447 276.411 265.465 276.371 265.481C276.369 265.482 276.367 265.482 276.365 265.483C276.359 265.485 276.352 265.487 276.346 265.49C276.323 265.498 276.299 265.507 276.275 265.514C276.262 265.518 276.249 265.52 276.236 265.524C276.228 265.526 276.221 265.528 276.213 265.53C276.206 265.532 276.199 265.534 276.192 265.535C276.166 265.54 276.14 265.545 276.113 265.549C276.104 265.55 276.094 265.551 276.085 265.552C276.078 265.553 276.072 265.553 276.065 265.554C276.055 265.555 276.045 265.557 276.036 265.557C276.01 265.559 275.984 265.561 275.958 265.561C275.95 265.561 275.942 265.561 275.933 265.561C275.926 265.561 275.919 265.561 275.912 265.561C275.9 265.561 275.888 265.561 275.876 265.561C275.846 265.56 275.817 265.558 275.788 265.555C275.785 265.555 275.781 265.554 275.778 265.554C275.77 265.553 275.762 265.552 275.754 265.551C275.731 265.548 275.709 265.546 275.686 265.542C275.676 265.54 275.667 265.537 275.657 265.535C275.63 265.529 275.603 265.522 275.577 265.515C275.563 265.511 275.548 265.509 275.535 265.504C275.524 265.5 275.513 265.496 275.502 265.492C275.492 265.488 275.481 265.484 275.471 265.48C275.432 265.464 275.394 265.447 275.36 265.427L264.977 259.393C264.974 259.391 264.97 259.389 264.967 259.387C264.96 259.383 264.953 259.378 264.946 259.373C264.936 259.367 264.926 259.361 264.917 259.354C264.909 259.348 264.902 259.342 264.895 259.336C264.887 259.329 264.878 259.323 264.871 259.316C264.869 259.315 264.866 259.312 264.866 259.312C264.863 259.309 264.861 259.306 264.858 259.303C264.846 259.291 264.835 259.279 264.824 259.267C264.822 259.264 264.819 259.262 264.817 259.259C264.815 259.256 264.813 259.254 264.812 259.251C264.805 259.242 264.799 259.233 264.793 259.223C264.79 259.219 264.787 259.215 264.785 259.211C264.784 259.209 264.783 259.207 264.782 259.205C264.778 259.197 264.774 259.189 264.77 259.18C264.768 259.175 264.765 259.17 264.763 259.165C264.762 259.163 264.762 259.162 264.762 259.16C264.759 259.152 264.757 259.144 264.755 259.136C264.754 259.131 264.751 259.125 264.75 259.12L264.749 259.116C264.748 259.108 264.747 259.099 264.746 259.091C264.745 259.086 264.744 259.08 264.744 259.075C264.744 259.073 264.744 259.07 264.744 259.068L264.742 258.701C264.742 258.709 264.743 258.717 264.744 258.725Z" fill="#3D3B36"/>
<path d="M265.923 258.489C265.823 258.547 265.823 258.641 265.922 258.699L274.63 263.759C274.73 263.817 274.892 263.817 274.992 263.759L280.76 260.429C280.861 260.371 280.861 260.277 280.761 260.219L272.053 255.159C271.953 255.101 271.791 255.101 271.69 255.159L265.923 258.489Z" fill="url(#paint1_linear_928_54541)"/>
<path d="M278.142 262.699C278.032 262.763 278.031 262.866 278.141 262.93L278.285 263.014C278.395 263.078 278.573 263.078 278.683 263.014L279.56 262.507C279.67 262.443 279.671 262.34 279.561 262.276L279.417 262.192C279.307 262.128 279.129 262.128 279.019 262.192L278.142 262.699Z" fill="#DCDCDC"/>
<path d="M270.482 227.153C270.479 227.118 270.481 227.084 270.484 227.049L270.508 226.019C270.529 226.275 270.72 226.544 271.078 226.761L288.497 237.37C289.202 237.799 290.281 237.869 290.908 237.527L318.235 222.592C318.503 222.445 318.644 222.247 318.664 222.035H318.666L318.64 223.14C318.633 223.365 318.491 223.577 318.209 223.731L290.882 238.666C290.255 239.009 289.176 238.939 288.471 238.51L271.052 227.901C270.696 227.684 270.504 227.417 270.482 227.162V227.153Z" fill="#3D3B36"/>
<path d="M310.991 216.868L318.096 221.195C318.801 221.624 318.863 222.25 318.237 222.592L290.91 237.527C290.283 237.87 289.204 237.799 288.499 237.37L281.391 233.042L310.991 216.868Z" fill="url(#paint2_linear_928_54541)"/>
<path d="M318.096 221.195C318.439 221.404 318.627 221.659 318.66 221.906C318.65 222.128 318.515 222.337 318.236 222.489L290.909 237.424C290.282 237.767 289.203 237.696 288.498 237.267L281.48 232.993L310.99 216.867L318.096 221.195Z" fill="#F1F1F1"/>
<path d="M281.388 233.042L271.077 226.762C270.372 226.333 270.309 225.707 270.936 225.365L298.263 210.43C298.89 210.087 299.97 210.158 300.674 210.587L310.987 216.868L281.388 233.042Z" fill="#9EADD3"/>
<path d="M306.593 228.714L302.135 231.15C302.015 231.215 302.012 231.325 302.128 231.396L307.018 228.723C306.903 228.653 306.713 228.649 306.593 228.714Z" fill="url(#paint3_linear_928_54541)"/>
<path d="M296.461 211.77L273.354 224.399L273.047 224.212L296.154 211.583L296.461 211.77Z" fill="#1E1E1E"/>
<path opacity="0.4" d="M306.031 225.193L302.358 222.956C302.139 222.823 301.778 222.815 301.552 222.939L292.412 227.934C292.186 228.058 292.18 228.266 292.399 228.399L296.072 230.636L306.031 225.193Z" fill="#9EADD3"/>
<g opacity="0.4">
<path d="M301.124 228.05L296.223 230.729L298.211 231.94C298.43 232.073 298.791 232.081 299.017 231.957L303.508 229.502L301.124 228.05Z" fill="#9EADD3"/>
<path d="M301.281 227.964L303.666 229.416L308.157 226.962C308.383 226.838 308.389 226.63 308.17 226.497L306.182 225.286L301.281 227.964Z" fill="#9EADD3"/>
</g>
<path opacity="0.6" d="M292.405 228.135L301.545 223.14C301.771 223.016 302.132 223.024 302.351 223.157L305.852 225.289L306.029 225.192L302.356 222.955C302.137 222.822 301.776 222.814 301.55 222.938L292.41 227.933C292.25 228.02 292.203 228.149 292.264 228.265C292.292 228.217 292.337 228.172 292.405 228.135Z" fill="#9EADD3"/>
<path opacity="0.6" d="M301.119 228.252L303.331 229.599L303.508 229.503L301.124 228.05L296.223 230.729L296.395 230.834L301.119 228.252Z" fill="#9EADD3"/>
<path opacity="0.6" d="M306.178 225.488L308.166 226.699C308.231 226.738 308.273 226.784 308.299 226.833C308.365 226.721 308.324 226.591 308.171 226.497L306.182 225.286L301.281 227.964L301.453 228.069L306.178 225.488Z" fill="#9EADD3"/>
<path d="M277.06 226.899L275.693 227.646C275.609 227.692 275.465 227.682 275.371 227.625L274.096 226.848C274.002 226.791 273.994 226.707 274.077 226.662L275.444 225.915C275.528 225.869 275.672 225.879 275.766 225.936L277.041 226.713C277.136 226.77 277.144 226.854 277.06 226.899Z" fill="#1E1E1E"/>
<path d="M278.911 225.888L277.543 226.635C277.46 226.681 277.316 226.671 277.222 226.614L275.947 225.837C275.853 225.78 275.845 225.696 275.928 225.651L277.295 224.904C277.379 224.858 277.523 224.868 277.617 224.925L278.892 225.702C278.986 225.759 278.994 225.842 278.911 225.888Z" fill="#1E1E1E"/>
<path d="M280.762 224.877L279.395 225.624C279.311 225.67 279.167 225.66 279.074 225.603L277.799 224.826C277.705 224.769 277.697 224.685 277.78 224.64L279.147 223.893C279.231 223.847 279.375 223.857 279.469 223.914L280.744 224.691C280.837 224.748 280.846 224.831 280.762 224.877Z" fill="#1E1E1E"/>
<path d="M282.612 223.866L281.244 224.613C281.16 224.659 281.017 224.649 280.922 224.592L279.647 223.815C279.553 223.758 279.545 223.674 279.628 223.629L280.995 222.882C281.079 222.836 281.223 222.846 281.317 222.903L282.592 223.68C282.687 223.737 282.696 223.82 282.612 223.866Z" fill="#1E1E1E"/>
<path d="M284.461 222.855L283.094 223.602C283.01 223.648 282.866 223.638 282.773 223.581L281.498 222.804C281.404 222.747 281.396 222.663 281.479 222.618L282.846 221.871C282.93 221.825 283.074 221.835 283.167 221.892L284.442 222.669C284.536 222.725 284.545 222.809 284.461 222.855Z" fill="#1E1E1E"/>
<path d="M286.314 221.843L284.947 222.59C284.863 222.636 284.719 222.626 284.625 222.569L283.35 221.792C283.256 221.735 283.248 221.651 283.331 221.606L284.699 220.859C284.783 220.813 284.926 220.823 285.021 220.88L286.296 221.657C286.389 221.714 286.397 221.798 286.314 221.843Z" fill="#1E1E1E"/>
<path d="M288.161 220.832L286.793 221.579C286.709 221.625 286.566 221.615 286.472 221.558L285.197 220.781C285.103 220.724 285.095 220.64 285.178 220.595L286.545 219.848C286.629 219.802 286.773 219.812 286.866 219.869L288.141 220.646C288.236 220.703 288.244 220.786 288.161 220.832Z" fill="#1E1E1E"/>
<path d="M290.012 219.821L288.645 220.568C288.561 220.614 288.417 220.604 288.324 220.547L287.049 219.77C286.955 219.713 286.947 219.629 287.03 219.584L288.398 218.837C288.481 218.791 288.625 218.801 288.719 218.858L289.994 219.635C290.087 219.692 290.096 219.775 290.012 219.821Z" fill="#1E1E1E"/>
<path d="M291.861 218.81L290.494 219.557C290.41 219.603 290.266 219.593 290.172 219.536L288.897 218.759C288.803 218.702 288.795 218.618 288.878 218.573L290.245 217.826C290.329 217.78 290.473 217.79 290.566 217.847L291.841 218.624C291.936 218.681 291.945 218.764 291.861 218.81Z" fill="#1E1E1E"/>
<path d="M293.712 217.799L292.345 218.546C292.261 218.592 292.117 218.582 292.023 218.525L290.748 217.748C290.654 217.691 290.646 217.607 290.729 217.562L292.097 216.815C292.181 216.769 292.324 216.779 292.418 216.836L293.693 217.613C293.788 217.669 293.796 217.753 293.712 217.799Z" fill="#1E1E1E"/>
<path d="M295.564 216.787L294.197 217.534C294.113 217.58 293.969 217.57 293.875 217.513L292.6 216.736C292.506 216.679 292.498 216.595 292.581 216.55L293.949 215.803C294.033 215.757 294.176 215.767 294.27 215.824L295.545 216.601C295.639 216.658 295.647 216.742 295.564 216.787Z" fill="#1E1E1E"/>
<path d="M297.411 215.776L296.043 216.523C295.959 216.569 295.816 216.559 295.722 216.502L294.447 215.725C294.353 215.668 294.345 215.584 294.428 215.539L295.795 214.792C295.879 214.746 296.023 214.756 296.117 214.813L297.392 215.59C297.486 215.647 297.494 215.73 297.411 215.776Z" fill="#1E1E1E"/>
<path d="M299.263 214.765L297.896 215.512C297.812 215.558 297.668 215.548 297.574 215.491L296.299 214.714C296.205 214.657 296.197 214.573 296.28 214.528L297.647 213.781C297.731 213.735 297.875 213.745 297.969 213.802L299.244 214.579C299.338 214.636 299.347 214.719 299.263 214.765Z" fill="#1E1E1E"/>
<path d="M301.949 213.297L299.746 214.501C299.662 214.547 299.518 214.537 299.425 214.48L298.15 213.703C298.056 213.646 298.048 213.562 298.131 213.517L300.334 212.313C300.418 212.267 300.562 212.277 300.655 212.334L301.93 213.111C302.024 213.168 302.033 213.251 301.949 213.297Z" fill="#1E1E1E"/>
<path d="M300.757 214.15L302.124 213.403C302.208 213.357 302.352 213.367 302.446 213.424L303.721 214.201C303.815 214.258 303.823 214.342 303.74 214.387L302.373 215.134C302.289 215.18 302.145 215.17 302.052 215.113L300.777 214.336C300.682 214.28 300.673 214.196 300.757 214.15Z" fill="#1E1E1E"/>
<path d="M298.906 215.162L300.273 214.415C300.357 214.369 300.501 214.379 300.595 214.436L301.87 215.213C301.964 215.27 301.972 215.354 301.889 215.399L300.521 216.146C300.437 216.192 300.294 216.182 300.2 216.125L298.925 215.348C298.83 215.291 298.822 215.207 298.906 215.162Z" fill="#1E1E1E"/>
<path d="M297.053 216.173L298.421 215.426C298.504 215.38 298.649 215.39 298.742 215.447L300.017 216.224C300.111 216.281 300.119 216.365 300.036 216.41L298.669 217.157C298.585 217.203 298.441 217.193 298.348 217.136L297.073 216.359C296.978 216.302 296.97 216.218 297.053 216.173Z" fill="#1E1E1E"/>
<path d="M295.206 217.184L296.573 216.437C296.657 216.391 296.801 216.401 296.895 216.458L298.17 217.235C298.264 217.292 298.272 217.376 298.189 217.421L296.822 218.168C296.738 218.214 296.594 218.204 296.5 218.147L295.225 217.37C295.131 217.313 295.123 217.23 295.206 217.184Z" fill="#1E1E1E"/>
<path d="M293.355 218.195L294.722 217.448C294.806 217.402 294.95 217.412 295.043 217.469L296.318 218.246C296.412 218.303 296.42 218.387 296.337 218.432L294.969 219.179C294.886 219.225 294.742 219.215 294.648 219.158L293.373 218.381C293.28 218.324 293.271 218.241 293.355 218.195Z" fill="#1E1E1E"/>
<path d="M291.503 219.206L292.871 218.459C292.954 218.413 293.098 218.423 293.192 218.48L294.467 219.257C294.561 219.314 294.569 219.398 294.486 219.443L293.119 220.19C293.035 220.236 292.891 220.226 292.797 220.169L291.522 219.392C291.428 219.335 291.419 219.252 291.503 219.206Z" fill="#1E1E1E"/>
<path d="M289.656 220.217L291.023 219.47C291.107 219.424 291.251 219.434 291.345 219.491L292.62 220.268C292.714 220.325 292.722 220.409 292.639 220.454L291.271 221.201C291.187 221.247 291.044 221.237 290.95 221.18L289.675 220.403C289.58 220.347 289.572 220.263 289.656 220.217Z" fill="#1E1E1E"/>
<path d="M287.803 221.229L289.171 220.482C289.255 220.436 289.398 220.446 289.493 220.503L290.768 221.28C290.862 221.337 290.87 221.421 290.787 221.466L289.42 222.213C289.336 222.259 289.192 222.249 289.098 222.192L287.823 221.415C287.728 221.358 287.72 221.274 287.803 221.229Z" fill="#1E1E1E"/>
<path d="M285.952 222.24L287.319 221.493C287.403 221.447 287.547 221.457 287.641 221.514L288.916 222.291C289.01 222.348 289.018 222.432 288.935 222.477L287.568 223.224C287.484 223.27 287.34 223.26 287.246 223.203L285.971 222.426C285.877 222.369 285.869 222.286 285.952 222.24Z" fill="#1E1E1E"/>
<path d="M284.104 223.251L285.471 222.504C285.555 222.458 285.699 222.468 285.793 222.525L287.068 223.302C287.162 223.359 287.17 223.443 287.087 223.488L285.72 224.235C285.636 224.281 285.493 224.271 285.399 224.214L284.124 223.437C284.029 223.38 284.02 223.297 284.104 223.251Z" fill="#1E1E1E"/>
<path d="M282.253 224.262L283.621 223.515C283.705 223.469 283.848 223.479 283.942 223.536L285.217 224.313C285.311 224.37 285.319 224.454 285.236 224.499L283.869 225.246C283.785 225.292 283.641 225.282 283.547 225.225L282.272 224.448C282.178 224.391 282.169 224.308 282.253 224.262Z" fill="#1E1E1E"/>
<path d="M280.402 225.273L281.769 224.526C281.853 224.48 281.997 224.49 282.09 224.547L283.365 225.324C283.459 225.381 283.467 225.465 283.384 225.51L282.017 226.257C281.933 226.303 281.789 226.293 281.696 226.236L280.421 225.459C280.326 225.402 280.318 225.319 280.402 225.273Z" fill="#1E1E1E"/>
<path d="M278.553 226.285L279.92 225.538C280.004 225.492 280.148 225.502 280.242 225.559L281.517 226.336C281.611 226.393 281.619 226.477 281.536 226.522L280.169 227.269C280.086 227.315 279.941 227.305 279.848 227.248L278.573 226.471C278.478 226.414 278.47 226.33 278.553 226.285Z" fill="#1E1E1E"/>
<path d="M275.866 227.753L278.069 226.549C278.153 226.503 278.297 226.513 278.391 226.57L279.666 227.347C279.76 227.404 279.768 227.488 279.685 227.533L277.482 228.737C277.398 228.783 277.254 228.773 277.16 228.716L275.885 227.939C275.791 227.882 275.783 227.798 275.866 227.753Z" fill="#1E1E1E"/>
<path d="M301.21 215.97L303.913 214.493C303.997 214.447 304.141 214.457 304.235 214.514L305.51 215.291C305.604 215.348 305.612 215.432 305.529 215.477L302.826 216.954C302.742 217 302.598 216.99 302.504 216.933L301.229 216.156C301.135 216.099 301.126 216.016 301.21 215.97Z" fill="#1E1E1E"/>
<path d="M277.671 228.834L280.374 227.357C280.458 227.311 280.601 227.321 280.695 227.378L281.97 228.155C282.064 228.212 282.072 228.296 281.989 228.341L279.286 229.818C279.202 229.864 279.058 229.854 278.965 229.797L277.69 229.02C277.596 228.963 277.587 228.88 277.671 228.834Z" fill="#1E1E1E"/>
<path d="M299.358 216.981L300.725 216.234C300.809 216.188 300.953 216.198 301.046 216.255L302.321 217.032C302.415 217.089 302.424 217.173 302.34 217.218L300.973 217.965C300.889 218.011 300.745 218.001 300.652 217.944L299.377 217.167C299.283 217.11 299.274 217.027 299.358 216.981Z" fill="#1E1E1E"/>
<path d="M297.507 217.992L298.874 217.245C298.958 217.199 299.102 217.209 299.195 217.266L300.47 218.043C300.564 218.1 300.572 218.184 300.489 218.229L299.122 218.976C299.038 219.022 298.894 219.012 298.801 218.955L297.526 218.178C297.431 218.122 297.423 218.038 297.507 217.992Z" fill="#1E1E1E"/>
<path d="M295.659 219.004L297.026 218.257C297.11 218.211 297.254 218.221 297.348 218.278L298.623 219.055C298.717 219.112 298.725 219.196 298.642 219.241L297.274 219.988C297.19 220.034 297.047 220.024 296.953 219.967L295.678 219.19C295.584 219.133 295.576 219.049 295.659 219.004Z" fill="#1E1E1E"/>
<path d="M293.808 220.015L295.176 219.268C295.26 219.222 295.403 219.232 295.498 219.289L296.773 220.066C296.867 220.123 296.875 220.207 296.792 220.252L295.425 220.999C295.341 221.045 295.197 221.035 295.103 220.978L293.828 220.201C293.733 220.144 293.724 220.061 293.808 220.015Z" fill="#1E1E1E"/>
<path d="M291.956 221.026L293.323 220.279C293.407 220.233 293.551 220.243 293.645 220.3L294.92 221.077C295.014 221.134 295.022 221.218 294.939 221.263L293.572 222.01C293.488 222.056 293.344 222.046 293.25 221.989L291.975 221.212C291.881 221.155 291.872 221.072 291.956 221.026Z" fill="#1E1E1E"/>
<path d="M290.108 222.037L291.475 221.29C291.559 221.244 291.703 221.254 291.797 221.311L293.072 222.088C293.166 222.145 293.174 222.229 293.091 222.274L291.724 223.021C291.64 223.067 291.497 223.057 291.402 223L290.127 222.223C290.033 222.166 290.024 222.083 290.108 222.037Z" fill="#1E1E1E"/>
<path d="M288.256 223.048L289.624 222.301C289.707 222.255 289.852 222.265 289.946 222.322L291.22 223.099C291.314 223.156 291.322 223.24 291.239 223.285L289.872 224.032C289.788 224.078 289.644 224.068 289.55 224.011L288.275 223.234C288.181 223.178 288.173 223.094 288.256 223.048Z" fill="#1E1E1E"/>
<path d="M286.409 224.06L287.776 223.313C287.86 223.267 288.004 223.277 288.098 223.334L289.373 224.111C289.467 224.168 289.475 224.252 289.392 224.297L288.024 225.044C287.941 225.09 287.797 225.08 287.703 225.023L286.428 224.246C286.334 224.189 286.326 224.105 286.409 224.06Z" fill="#1E1E1E"/>
<path d="M284.558 225.071L285.926 224.324C286.01 224.278 286.154 224.288 286.247 224.345L287.522 225.122C287.616 225.179 287.624 225.263 287.541 225.308L286.174 226.055C286.09 226.101 285.946 226.091 285.852 226.034L284.577 225.257C284.483 225.2 284.474 225.116 284.558 225.071Z" fill="#1E1E1E"/>
<path d="M282.706 226.082L284.073 225.335C284.157 225.289 284.301 225.299 284.395 225.356L285.67 226.133C285.764 226.19 285.772 226.274 285.689 226.319L284.322 227.066C284.238 227.112 284.094 227.102 284.001 227.045L282.726 226.268C282.631 226.211 282.622 226.128 282.706 226.082Z" fill="#1E1E1E"/>
<path d="M280.855 227.093L282.222 226.346C282.306 226.3 282.45 226.31 282.544 226.367L283.819 227.144C283.913 227.201 283.921 227.285 283.838 227.33L282.47 228.077C282.386 228.123 282.243 228.113 282.148 228.056L280.873 227.279C280.779 227.222 280.771 227.139 280.855 227.093Z" fill="#1E1E1E"/>
<path d="M302.081 217.562L305.703 215.583C305.787 215.537 305.93 215.547 306.024 215.604L307.299 216.381C307.393 216.438 307.401 216.522 307.318 216.567L303.697 218.546C303.614 218.592 303.469 218.582 303.376 218.525L302.101 217.748C302.006 217.691 301.997 217.608 302.081 217.562Z" fill="#1E1E1E"/>
<path d="M300.23 218.573L301.598 217.826C301.681 217.78 301.825 217.79 301.919 217.847L303.194 218.624C303.288 218.681 303.296 218.765 303.213 218.81L301.845 219.557C301.761 219.603 301.618 219.593 301.523 219.536L300.248 218.759C300.155 218.702 300.146 218.619 300.23 218.573Z" fill="#1E1E1E"/>
<path d="M298.378 219.584L299.745 218.837C299.829 218.791 299.973 218.801 300.066 218.858L301.341 219.635C301.435 219.692 301.443 219.776 301.36 219.821L299.993 220.568C299.909 220.614 299.765 220.604 299.671 220.547L298.396 219.77C298.302 219.713 298.294 219.63 298.378 219.584Z" fill="#1E1E1E"/>
<path d="M296.53 220.596L297.897 219.849C297.981 219.803 298.125 219.813 298.219 219.87L299.494 220.647C299.588 220.704 299.596 220.788 299.513 220.833L298.146 221.58C298.062 221.626 297.918 221.616 297.824 221.559L296.549 220.782C296.455 220.725 296.447 220.641 296.53 220.596Z" fill="#1E1E1E"/>
<path d="M294.678 221.607L296.045 220.86C296.129 220.814 296.273 220.824 296.367 220.881L297.642 221.658C297.736 221.715 297.744 221.799 297.661 221.844L296.294 222.591C296.21 222.637 296.066 222.627 295.972 222.57L294.697 221.793C294.603 221.736 294.595 221.652 294.678 221.607Z" fill="#1E1E1E"/>
<path d="M292.827 222.618L294.194 221.871C294.277 221.825 294.422 221.835 294.515 221.892L295.79 222.669C295.884 222.726 295.892 222.81 295.809 222.855L294.442 223.602C294.358 223.648 294.214 223.638 294.121 223.581L292.846 222.804C292.752 222.747 292.743 222.664 292.827 222.618Z" fill="#1E1E1E"/>
<path d="M290.98 223.629L292.347 222.882C292.431 222.836 292.575 222.846 292.669 222.903L293.944 223.68C294.038 223.737 294.046 223.821 293.963 223.866L292.595 224.613C292.511 224.659 292.368 224.649 292.273 224.592L290.998 223.815C290.905 223.758 290.896 223.675 290.98 223.629Z" fill="#1E1E1E"/>
<path d="M289.128 224.64L290.496 223.893C290.58 223.847 290.723 223.857 290.817 223.914L292.092 224.691C292.186 224.748 292.194 224.832 292.111 224.877L290.744 225.624C290.66 225.67 290.516 225.66 290.422 225.603L289.147 224.826C289.053 224.769 289.045 224.686 289.128 224.64Z" fill="#1E1E1E"/>
<path d="M287.276 225.651L288.643 224.904C288.727 224.858 288.871 224.868 288.965 224.925L290.24 225.702C290.334 225.759 290.342 225.843 290.259 225.888L288.892 226.636C288.808 226.682 288.664 226.672 288.57 226.615L287.295 225.837C287.201 225.78 287.193 225.696 287.276 225.651Z" fill="#1E1E1E"/>
<path d="M285.429 226.663L286.796 225.916C286.88 225.87 287.024 225.88 287.118 225.937L288.393 226.714C288.487 226.771 288.495 226.855 288.412 226.9L287.044 227.647C286.96 227.693 286.817 227.683 286.722 227.626L285.447 226.849C285.354 226.792 285.345 226.708 285.429 226.663Z" fill="#1E1E1E"/>
<path d="M283.577 227.673L284.944 226.926C285.028 226.88 285.172 226.89 285.266 226.947L286.541 227.724C286.635 227.781 286.643 227.865 286.56 227.91L285.193 228.657C285.109 228.703 284.965 228.693 284.871 228.636L283.596 227.859C283.502 227.802 283.493 227.719 283.577 227.673Z" fill="#1E1E1E"/>
<path d="M279.459 229.924L283.095 227.938C283.179 227.892 283.322 227.902 283.416 227.959L284.691 228.736C284.785 228.793 284.794 228.877 284.711 228.922L281.075 230.908C280.991 230.954 280.848 230.944 280.755 230.887L279.48 230.111C279.385 230.053 279.376 229.97 279.459 229.924Z" fill="#1E1E1E"/>
<path d="M289.066 226.741L297.834 221.949C297.918 221.903 298.062 221.913 298.155 221.97L299.43 222.747C299.524 222.804 299.532 222.888 299.449 222.933L290.681 227.725C290.597 227.771 290.453 227.761 290.359 227.704L289.084 226.927C288.991 226.871 288.982 226.787 289.066 226.741Z" fill="#1E1E1E"/>
<path d="M300.573 220.454L301.94 219.707C302.024 219.661 302.168 219.671 302.262 219.728L303.537 220.505C303.631 220.562 303.639 220.646 303.556 220.691L302.188 221.438C302.105 221.484 301.961 221.474 301.867 221.417L300.592 220.64C300.498 220.583 300.489 220.499 300.573 220.454Z" fill="#1E1E1E"/>
<path d="M298.319 221.686L300.09 220.718C300.174 220.672 300.317 220.682 300.411 220.739L301.686 221.516C301.78 221.573 301.788 221.657 301.705 221.702L299.934 222.67C299.85 222.716 299.706 222.706 299.613 222.649L298.338 221.872C298.244 221.815 298.235 221.731 298.319 221.686Z" fill="#1E1E1E"/>
<path d="M286.331 228.237L284.964 228.984C284.88 229.03 284.889 229.113 284.983 229.17L286.258 229.947C286.352 230.004 286.496 230.013 286.58 229.968L287.947 229.221C288.031 229.175 288.022 229.092 287.928 229.035L286.653 228.258C286.559 228.201 286.415 228.191 286.331 228.237Z" fill="#1E1E1E"/>
<path d="M288.583 227.005L286.812 227.973C286.728 228.019 286.737 228.102 286.831 228.159L288.106 228.936C288.2 228.993 288.344 229.002 288.427 228.957L290.198 227.989C290.282 227.943 290.273 227.86 290.179 227.803L288.904 227.026C288.811 226.969 288.667 226.959 288.583 227.005Z" fill="#1E1E1E"/>
<path d="M306.124 217.42L307.491 216.673C307.575 216.627 307.719 216.637 307.813 216.694L309.088 217.471C309.182 217.528 309.19 217.612 309.107 217.657L307.739 218.404C307.655 218.45 307.512 218.44 307.418 218.383L306.143 217.606C306.048 217.549 306.04 217.466 306.124 217.42Z" fill="#1E1E1E"/>
<path d="M304.272 218.431L305.639 217.684C305.723 217.638 305.866 217.648 305.961 217.705L307.236 218.482C307.33 218.539 307.338 218.623 307.255 218.668L305.888 219.415C305.804 219.461 305.66 219.451 305.566 219.394L304.291 218.617C304.197 218.56 304.189 218.477 304.272 218.431Z" fill="#1E1E1E"/>
<path d="M302.421 219.442L303.788 218.695C303.872 218.649 304.016 218.659 304.11 218.716L305.385 219.493C305.479 219.55 305.487 219.634 305.404 219.679L304.037 220.426C303.953 220.472 303.809 220.462 303.715 220.405L302.44 219.628C302.346 219.571 302.338 219.488 302.421 219.442Z" fill="#1E1E1E"/>
<path d="M281.249 231.014L284.48 229.248C284.564 229.202 284.707 229.212 284.802 229.269L286.077 230.046C286.171 230.103 286.179 230.187 286.096 230.232L282.865 231.998C282.781 232.044 282.638 232.034 282.544 231.977L281.269 231.2C281.174 231.143 281.165 231.06 281.249 231.014Z" fill="#1E1E1E"/>
<path d="M275.27 225.809L273.903 226.556C273.819 226.602 273.675 226.592 273.581 226.535L272.947 226.149C272.853 226.092 272.845 226.008 272.928 225.963L274.295 225.216C274.379 225.17 274.523 225.18 274.617 225.237L275.251 225.623C275.345 225.68 275.353 225.764 275.27 225.809Z" fill="#1E1E1E"/>
<path d="M277.122 224.798L275.755 225.545C275.671 225.591 275.527 225.581 275.433 225.524L274.799 225.138C274.705 225.081 274.697 224.997 274.78 224.952L276.147 224.205C276.231 224.159 276.375 224.169 276.469 224.226L277.103 224.612C277.197 224.669 277.206 224.752 277.122 224.798Z" fill="#1E1E1E"/>
<path d="M278.97 223.787L277.602 224.534C277.518 224.58 277.375 224.57 277.281 224.513L276.647 224.127C276.553 224.07 276.545 223.986 276.628 223.941L277.995 223.194C278.079 223.148 278.222 223.158 278.316 223.215L278.95 223.601C279.046 223.658 279.054 223.741 278.97 223.787Z" fill="#1E1E1E"/>
<path d="M280.82 222.776L279.453 223.523C279.37 223.569 279.225 223.559 279.132 223.502L278.498 223.116C278.404 223.059 278.396 222.975 278.479 222.93L279.846 222.183C279.93 222.137 280.074 222.147 280.167 222.204L280.801 222.59C280.895 222.647 280.903 222.73 280.82 222.776Z" fill="#1E1E1E"/>
<path d="M282.673 221.765L281.306 222.512C281.222 222.558 281.078 222.548 280.984 222.491L280.35 222.105C280.256 222.048 280.248 221.964 280.331 221.919L281.698 221.172C281.781 221.126 281.926 221.136 282.019 221.193L282.653 221.579C282.748 221.635 282.756 221.719 282.673 221.765Z" fill="#1E1E1E"/>
<path d="M284.52 220.753L283.152 221.5C283.069 221.546 282.925 221.536 282.831 221.479L282.197 221.093C282.103 221.036 282.095 220.952 282.178 220.907L283.545 220.16C283.629 220.114 283.773 220.124 283.867 220.181L284.501 220.567C284.595 220.624 284.604 220.708 284.52 220.753Z" fill="#1E1E1E"/>
<path d="M286.371 219.742L285.004 220.489C284.921 220.535 284.776 220.525 284.683 220.468L284.049 220.082C283.955 220.025 283.947 219.941 284.03 219.896L285.397 219.149C285.481 219.103 285.625 219.113 285.719 219.17L286.353 219.556C286.446 219.613 286.455 219.697 286.371 219.742Z" fill="#1E1E1E"/>
<path d="M288.22 218.731L286.853 219.478C286.769 219.524 286.625 219.514 286.531 219.457L285.897 219.071C285.803 219.014 285.795 218.93 285.878 218.885L287.246 218.138C287.33 218.092 287.473 218.102 287.567 218.159L288.201 218.545C288.296 218.602 288.304 218.685 288.22 218.731Z" fill="#1E1E1E"/>
<path d="M290.071 217.72L288.704 218.467C288.62 218.513 288.476 218.503 288.382 218.446L287.748 218.06C287.654 218.003 287.646 217.919 287.729 217.874L289.096 217.127C289.18 217.081 289.324 217.091 289.417 217.148L290.051 217.534C290.146 217.591 290.154 217.674 290.071 217.72Z" fill="#1E1E1E"/>
<path d="M291.923 216.709L290.556 217.456C290.472 217.502 290.328 217.492 290.234 217.435L289.6 217.049C289.506 216.992 289.498 216.908 289.581 216.863L290.948 216.116C291.032 216.07 291.176 216.08 291.27 216.137L291.904 216.523C291.998 216.58 292.006 216.663 291.923 216.709Z" fill="#1E1E1E"/>
<path d="M293.774 215.698L292.407 216.445C292.323 216.491 292.179 216.481 292.085 216.424L291.451 216.038C291.357 215.981 291.349 215.897 291.432 215.852L292.799 215.105C292.882 215.059 293.027 215.069 293.12 215.126L293.754 215.512C293.849 215.569 293.858 215.652 293.774 215.698Z" fill="#1E1E1E"/>
<path d="M295.621 214.686L294.254 215.433C294.171 215.479 294.026 215.469 293.933 215.412L293.299 215.026C293.205 214.969 293.197 214.885 293.28 214.84L294.648 214.093C294.732 214.047 294.875 214.057 294.969 214.114L295.603 214.5C295.696 214.557 295.705 214.641 295.621 214.686Z" fill="#1E1E1E"/>
<path d="M297.473 213.675L296.106 214.422C296.022 214.468 295.878 214.458 295.784 214.401L295.15 214.015C295.056 213.958 295.048 213.874 295.131 213.829L296.498 213.082C296.582 213.036 296.725 213.046 296.82 213.103L297.454 213.489C297.549 213.546 297.557 213.63 297.473 213.675Z" fill="#1E1E1E"/>
<path d="M300.161 212.207L297.958 213.411C297.874 213.457 297.73 213.447 297.636 213.39L297.002 213.004C296.908 212.947 296.9 212.863 296.983 212.818L299.186 211.614C299.27 211.568 299.414 211.578 299.508 211.635L300.142 212.021C300.236 212.078 300.244 212.161 300.161 212.207Z" fill="#1E1E1E"/>
<path d="M270.966 227.293C270.865 227.453 277.086 231.392 278.876 232.517C280.666 233.642 290.059 238.912 290.16 238.752C290.261 238.592 281.031 233.061 279.241 231.937C277.45 230.812 271.066 227.133 270.966 227.293Z" fill="url(#paint4_linear_928_54541)"/>
<path d="M260.451 201.93L286.937 188.257C287.357 188.039 287.816 187.986 288.244 188.069L288.246 188.068C288.246 188.068 288.253 188.07 288.263 188.073C288.379 188.097 288.492 188.13 288.602 188.173C288.945 188.278 289.443 188.439 289.651 188.554C289.818 188.646 289.837 189.076 289.814 189.482L298.066 208.68C298.261 209.133 298.08 209.659 297.648 209.896L270.327 224.76L270.692 225.073C270.692 225.073 270.363 225.607 269.993 225.652C269.623 225.697 268.893 225.276 268.893 225.276C268.603 225.213 268.344 225.016 268.217 224.719L259.532 204.511C259.114 203.542 259.516 202.416 260.451 201.93Z" fill="#514C51"/>
<path d="M268.855 225.366C268.529 225.29 268.257 225.063 268.125 224.756L259.44 204.548C259.006 203.539 259.43 202.351 260.404 201.845L286.89 188.172C287.311 187.953 287.781 187.884 288.25 187.972H288.251L288.281 187.978C288.403 188.003 288.522 188.038 288.629 188.08C288.999 188.193 289.485 188.352 289.697 188.469C289.808 188.53 289.951 188.701 289.911 189.464L298.154 208.642C298.369 209.143 298.171 209.718 297.693 209.981L270.495 224.778L270.816 225.053L270.773 225.123C270.759 225.146 270.415 225.697 270.003 225.747C269.981 225.75 269.959 225.751 269.935 225.751C269.553 225.751 268.954 225.422 268.855 225.366ZM270.157 224.742L297.6 209.811C297.99 209.597 298.152 209.126 297.976 208.717L289.715 189.498L289.716 189.475C289.757 188.76 289.629 188.652 289.603 188.637C289.449 188.552 289.083 188.42 288.565 188.262C288.462 188.221 288.353 188.189 288.242 188.167L288.224 188.163C287.795 188.08 287.364 188.142 286.979 188.343L260.493 202.016C259.608 202.476 259.223 203.555 259.617 204.472L268.302 224.68C268.411 224.934 268.639 225.121 268.91 225.181L268.938 225.191C269.133 225.304 269.698 225.59 269.978 225.555C270.207 225.527 270.445 225.253 270.561 225.089L270.157 224.742Z" fill="black"/>
<path d="M264.757 207.969C264.744 207.976 264.73 207.967 264.715 207.951C264.761 207.951 264.78 207.956 264.757 207.969Z" fill="url(#paint5_linear_928_54541)"/>
<path d="M269.29 225.072C269.513 225.591 270.135 225.805 270.63 225.533L298.722 210.249C299.154 210.012 299.335 209.485 299.14 209.033L290.788 189.602C290.326 188.528 289.049 188.072 288.011 188.611L261.525 202.284C260.59 202.77 260.189 203.896 260.605 204.864" fill="#1E1E1E"/>
<path d="M270.477 225.249C270.664 225.249 270.85 225.201 271.015 225.11L298.209 210.315C298.717 210.036 298.928 209.424 298.699 208.892L290.614 190.082C290.275 189.295 289.503 188.786 288.645 188.786C288.3 188.786 287.968 188.867 287.659 189.028L262.019 202.264C261.029 202.779 260.599 203.984 261.039 205.009L269.447 224.572C269.625 224.983 270.029 225.249 270.477 225.249Z" fill="url(#paint6_linear_928_54541)"/>
<path d="M298.525 208.968L290.44 190.158C289.993 189.118 288.756 188.677 287.752 189.199L262.112 202.435C261.207 202.906 260.818 203.995 261.221 204.932L269.629 224.495C269.845 224.997 270.447 225.204 270.926 224.941L298.121 210.146C298.538 209.916 298.713 209.407 298.525 208.968Z" fill="#514C51"/>
<path d="M296.867 208.796L289.498 191.652C289.09 190.704 287.963 190.302 287.048 190.778L263.679 202.842C262.854 203.271 262.5 204.264 262.867 205.118L270.53 222.948C270.727 223.406 271.275 223.595 271.712 223.354L296.498 209.869C296.879 209.659 297.039 209.195 296.867 208.796Z" fill="#1AE5FF"/>
<path d="M250.529 154.547L169.34 201.729L112.23 168.756L193.419 121.575L250.529 154.547Z" fill="#E1E8F2"/>
<path opacity="0.32" d="M167.121 184.513C181.809 184.513 193.715 177.873 193.715 169.682C193.715 161.491 181.809 154.851 167.121 154.851C152.434 154.851 140.527 161.491 140.527 169.682C140.527 177.873 152.434 184.513 167.121 184.513Z" fill="#94A3C0"/>
<path d="M180.777 149.889L180.768 152.934L166.953 160.963L166.961 157.918L180.777 149.889Z" fill="#FF5668"/>
<path d="M166.962 157.918L166.954 160.963L149.457 155.808L149.466 152.763L166.962 157.918Z" fill="#E02D66"/>
<path d="M180.78 149.889L166.965 157.918L149.469 152.762C154.353 147.175 166.145 144.954 175.808 147.801C177.739 148.37 179.244 149.003 180.78 149.889Z" fill="#FF9A00"/>
<path d="M190.922 164.124C190.704 168.091 187.677 171.095 184.493 173.079C181.023 175.242 176.929 176.418 172.906 176.982C168.922 177.54 164.849 177.49 160.879 176.854C156.884 176.214 152.891 174.922 149.484 172.703C146.388 170.687 143.449 167.58 143.46 163.65C143.458 164.476 143.455 165.301 143.453 166.126C143.45 167.052 143.42 167.974 143.603 168.889C144.255 172.139 146.802 174.645 149.482 176.389C152.822 178.562 156.718 179.838 160.629 180.496C164.568 181.158 168.613 181.226 172.573 180.705C176.593 180.177 180.627 179.037 184.14 176.972C187.287 175.122 190.32 172.263 190.848 168.475C190.966 167.63 190.933 166.771 190.935 165.92C190.937 165.182 190.939 164.445 190.941 163.707C190.94 163.846 190.929 163.985 190.922 164.124Z" fill="#6C2ABB"/>
<path d="M183.942 153.933C193.228 159.294 193.275 167.987 184.05 173.348C174.824 178.709 159.819 178.709 150.533 173.348C143.104 169.059 141.36 162.812 146.084 157.408L167.236 163.641L183.942 153.933Z" fill="#7F5EFF"/>
<path d="M202.481 132.646L198.957 134.694C195.759 132.948 190.732 132.978 187.621 134.787C187.557 134.824 187.497 134.863 187.435 134.901L183.887 132.853C183.95 132.815 184.012 132.777 184.076 132.74C189.132 129.8 197.324 129.769 202.481 132.646Z" fill="#7CCCFF"/>
<path d="M203.025 132.966C207.211 135.587 207.644 139.492 204.312 142.367L200.655 140.256C202.122 138.576 201.734 136.49 199.496 135.017L203.025 132.966Z" fill="#7CCCFF"/>
<path d="M203.853 142.736C203.505 143 203.123 143.255 202.706 143.497C197.722 146.393 189.694 146.465 184.527 143.714L188.055 141.664C191.26 143.286 196.124 143.216 199.162 141.45C199.584 141.205 199.947 140.939 200.255 140.658L203.853 142.736Z" fill="#3EABFF"/>
<path d="M186.93 135.243C184.522 137.056 184.714 139.655 187.495 141.353L183.971 143.401C179.233 140.569 179.026 136.14 183.366 133.185L186.93 135.243Z" fill="#3EABFF"/>
<path d="M233.088 158.08C233.523 158.331 233.526 158.732 233.093 158.983C232.661 159.234 231.969 159.234 231.534 158.983L209.36 146.181C208.924 145.93 208.922 145.529 209.355 145.278C209.788 145.027 210.479 145.027 210.914 145.278L233.088 158.08Z" fill="#D4D9DF"/>
<path d="M217.769 152.194C218.196 152.441 218.199 152.85 217.774 153.097C217.341 153.348 216.634 153.348 216.207 153.102L206.797 147.669C206.362 147.418 206.367 147.013 206.8 146.761C207.225 146.514 207.924 146.51 208.359 146.761L217.769 152.194Z" fill="#D4D9DF"/>
<path d="M220.688 156.655C221.123 156.906 221.134 157.311 220.701 157.563C220.268 157.814 219.569 157.81 219.134 157.558L204.41 149.057C203.975 148.806 203.972 148.405 204.405 148.154C204.838 147.903 205.529 147.903 205.964 148.154L220.688 156.655Z" fill="#D4D9DF"/>
<path d="M270.087 139.882C270.087 139.882 268.923 141.628 268.457 142.21C267.991 142.792 263.684 146.168 262.52 146.867C261.356 147.566 264.848 150.243 267.177 150.36C269.505 150.476 270.67 146.518 271.95 146.635C271.95 146.635 270.786 147.799 271.135 148.614C271.484 149.429 272.532 148.614 272.998 148.032C273.464 147.45 274.395 146.286 274.861 145.005C275.327 143.724 274.977 141.28 274.977 141.28L270.087 139.882Z" fill="#FF9F75"/>
<path d="M285.962 114.337C288.508 115.646 289.511 118.771 288.202 121.317L278.443 140.3C277.134 142.846 274.009 143.849 271.463 142.54C268.917 141.231 267.914 138.106 269.223 135.56L278.982 116.577C280.291 114.031 283.416 113.028 285.962 114.337Z" fill="#E1E8F2"/>
<path d="M303.064 144.188L279.111 158.108L262.262 148.38L286.215 134.461L303.064 144.188Z" fill="#E1E8F2"/>
<path d="M297.507 140.925C297.876 140.187 298.491 139.204 298.982 138.466C299.474 137.728 299.474 136.745 298.49 135.638C297.506 134.532 296.523 134.655 295.908 135.023C295.908 135.023 294.801 135.884 294.064 135.884C293.326 135.884 290.99 135.884 290.621 136.007C290.252 136.13 288.408 137.114 289.023 137.728C289.638 138.343 290.375 138.22 291.236 138.097C292.097 137.974 293.173 138.77 293.542 138.892" fill="#FF9F75"/>
<path d="M282.971 152.587C283.175 152.705 283.176 152.892 282.973 153.01C282.77 153.128 282.447 153.128 282.243 153.01L271.861 147.016C271.657 146.898 271.656 146.711 271.859 146.593C272.062 146.475 272.385 146.475 272.589 146.593L282.971 152.587Z" fill="#D4D9DF"/>
<path d="M275.798 149.832C275.998 149.948 275.999 150.139 275.8 150.255C275.597 150.373 275.266 150.373 275.066 150.257L270.66 147.713C270.456 147.595 270.459 147.406 270.661 147.288C270.86 147.172 271.187 147.17 271.391 147.288L275.798 149.832Z" fill="#D4D9DF"/>
<path d="M277.166 151.92C277.37 152.038 277.375 152.227 277.172 152.345C276.969 152.463 276.642 152.461 276.438 152.343L269.544 148.363C269.34 148.245 269.339 148.058 269.542 147.94C269.745 147.822 270.068 147.822 270.272 147.94L277.166 151.92Z" fill="#D4D9DF"/>
<path d="M264.673 82.2028C266.123 83.0398 267.293 85.0668 267.288 86.7328L267.194 119.934C267.189 121.6 266.011 122.271 264.562 121.434L215.97 93.3798C214.52 92.5428 213.35 90.5158 213.355 88.8498L213.449 55.6488C213.454 53.9828 214.632 53.3118 216.082 54.1488L264.673 82.2028Z" fill="#7CCCFF"/>
<path d="M228.783 69.4178C224.307 66.8328 220.069 67.4928 218.319 71.5658C216.128 76.6578 218.619 85.2348 223.893 91.1678L225.117 88.3198C221.544 84.1518 219.881 78.2608 221.396 74.7398C222.631 71.8688 225.617 71.4048 228.773 73.2268C229.542 73.6708 230.321 74.2508 231.088 74.9648L232.311 72.1168C231.145 70.9948 229.956 70.0948 228.783 69.4178Z" fill="#F1F1F1"/>
<path d="M232.31 72.1147L231.088 74.9608C231.281 75.1408 231.474 75.3287 231.664 75.5257C235.725 79.7097 237.708 86.1367 236.097 89.8867C236.038 90.0207 235.976 90.1497 235.908 90.2767C235.885 90.3227 235.859 90.3668 235.833 90.4108C234.658 92.4778 232.408 92.9827 229.914 91.9827C229.525 91.8277 229.128 91.6338 228.728 91.4028C228.621 91.3408 228.515 91.2768 228.408 91.2108C228.213 91.0898 228.064 90.9888 227.918 90.8898L227.851 90.8427C227.531 90.6167 227.213 90.3707 226.892 90.0977C226.853 90.0637 226.813 90.0288 226.771 89.9928C226.653 89.8888 226.535 89.7828 226.417 89.6738C226.373 89.6338 226.33 89.5938 226.286 89.5508C226.132 89.4058 225.979 89.2547 225.827 89.0997C225.581 88.8457 225.346 88.5857 225.115 88.3197L223.891 91.1678C224.124 91.4288 224.36 91.6898 224.603 91.9388C224.821 92.1618 225.039 92.3768 225.259 92.5838C225.32 92.6428 225.382 92.7018 225.446 92.7598C225.613 92.9148 225.782 93.0657 225.951 93.2137C226.007 93.2637 226.064 93.3138 226.12 93.3618C226.574 93.7478 227.03 94.1027 227.484 94.4207C227.52 94.4477 227.556 94.4708 227.592 94.4948C227.8 94.6418 228.007 94.7758 228.213 94.9068L228.285 94.9507C228.427 95.0387 228.568 95.1227 228.709 95.2047C229.045 95.3987 229.379 95.5747 229.712 95.7327C229.963 95.8517 230.2 95.9528 230.436 96.0468C234.242 97.5568 237.649 96.6038 239.173 93.0578C241.459 87.7408 238.643 78.6187 232.887 72.6847C232.695 72.4877 232.503 72.2977 232.31 72.1147Z" fill="#3EABFF"/>
<path d="M249.809 87.813L249.806 88.684C249.805 89.197 249.248 89.517 248.804 89.259L244.695 86.875C244.489 86.755 244.362 86.535 244.363 86.296L244.365 85.425C244.367 84.912 244.923 84.592 245.367 84.85L249.476 87.234C249.683 87.353 249.809 87.574 249.809 87.813Z" fill="white"/>
<path d="M262.809 99.647L262.806 100.52C262.804 101.033 262.249 101.352 261.805 101.096L244.686 91.212C244.479 91.092 244.351 90.871 244.352 90.632L244.355 89.759C244.356 89.246 244.912 88.927 245.356 89.183L262.475 99.067C262.682 99.187 262.81 99.408 262.809 99.647Z" fill="white"/>
<g opacity="0.53">
<path d="M255.725 104.246L255.723 105.119C255.721 105.632 255.166 105.951 254.722 105.695L244.661 99.8858C244.454 99.7668 244.327 99.5448 244.328 99.3058L244.33 98.4328C244.332 97.9198 244.887 97.6008 245.331 97.8568L255.392 103.666C255.599 103.786 255.726 104.007 255.725 104.246Z" fill="#3EABFF"/>
</g>
<path d="M260.141 102.451L260.139 103.324C260.137 103.837 259.582 104.156 259.138 103.9L244.673 95.5489C244.466 95.4299 244.339 95.2079 244.34 94.9689L244.342 94.0959C244.343 93.5829 244.899 93.2639 245.343 93.5199L259.808 101.871C260.014 101.991 260.141 102.212 260.141 102.451Z" fill="#3EABFF"/>
<path d="M383.349 160.502V162.177C383.349 163.164 382.281 163.782 381.425 163.289L373.51 158.729C373.112 158.5 372.867 158.077 372.867 157.618V155.943C372.867 154.956 373.935 154.338 374.79 154.831L382.706 159.391C383.103 159.62 383.348 160.043 383.349 160.502Z" fill="#1CE5FF"/>
<path d="M408.415 183.182V184.861C408.415 185.847 407.349 186.465 406.494 185.974L373.516 167.069C373.117 166.841 372.871 166.416 372.871 165.957V164.278C372.871 163.292 373.937 162.674 374.792 163.164L407.77 182.07C408.169 182.298 408.415 182.722 408.415 183.182Z" fill="#1CE5FF"/>
<g opacity="0.53">
<path d="M394.823 192.068V193.747C394.823 194.733 393.757 195.351 392.902 194.86L373.52 183.749C373.121 183.52 372.875 183.096 372.875 182.636V180.957C372.875 179.971 373.94 179.353 374.796 179.844L394.178 190.955C394.577 191.183 394.823 191.608 394.823 192.068Z" fill="#1CE5FF"/>
</g>
<path d="M403.302 188.591L403.303 190.27C403.303 191.256 402.237 191.874 401.382 191.383L373.517 175.409C373.119 175.181 372.872 174.756 372.872 174.296L372.871 172.617C372.871 171.631 373.937 171.013 374.792 171.504L402.657 187.478C403.056 187.706 403.302 188.131 403.302 188.591Z" fill="#1CE5FF"/>
<path d="M37.3165 152.707C36.3915 153.241 35.6415 154.54 35.6445 155.604C35.6475 156.677 36.4025 157.108 37.3275 156.573C38.2615 156.034 39.0115 154.735 39.0085 153.661C39.0045 152.598 38.2495 152.168 37.3165 152.707Z" fill="#7CCCFF"/>
<path d="M42.2234 151.199C42.2424 151.387 42.2524 151.584 42.2534 151.789C42.2534 151.956 42.2474 152.126 42.2354 152.297C42.0234 155.313 39.9094 158.816 37.3394 160.3C34.6244 161.868 32.4114 160.597 32.4024 157.477C32.3934 154.357 34.5914 150.549 37.3074 148.981C39.8454 147.515 41.9504 148.516 42.2234 151.199ZM37.3364 159.196C39.5244 157.933 41.3004 154.857 41.2934 152.342C41.2864 149.838 39.4984 148.819 37.3104 150.083C35.1304 151.341 33.3554 154.417 33.3624 156.921C33.3694 159.436 35.1574 160.455 37.3364 159.196Z" fill="#7CCCFF"/>
<path d="M91.3557 103.531L91.3577 104.088L91.3887 115.129L71.9377 126.359L65.2827 137.886L42.2227 151.199C42.2417 151.387 42.2527 151.584 42.2527 151.789C42.2527 151.957 42.2467 152.126 42.2347 152.297L65.6827 138.759L72.3377 127.232L92.3507 115.678L92.3157 103.534L92.3147 102.977L91.3557 103.531Z" fill="#7CCCFF"/>
<path d="M78.6641 72.1469L81.9461 77.9959L86.9541 75.1049L83.6721 69.2559L78.6641 72.1469Z" fill="url(#paint7_linear_928_54541)"/>
<path d="M69.7031 77.3197L72.9851 83.1697L77.9931 80.2777L74.7101 74.4287L69.7031 77.3197Z" fill="url(#paint8_linear_928_54541)"/>
<path d="M60.7422 82.4931L64.0242 88.343L69.0322 85.4521L65.7492 79.6021L60.7422 82.4931Z" fill="url(#paint9_linear_928_54541)"/>
<path d="M97.5092 86.1519L93.8672 91.0019L93.8812 95.9909L130.223 75.0089L130.201 67.2769L97.5092 86.1519Z" fill="url(#paint10_linear_928_54541)"/>
<path d="M42.9142 104.124C41.9892 104.658 41.2392 105.957 41.2422 107.031C41.2452 108.094 42.0002 108.524 42.9252 107.99C43.8592 107.451 44.6092 106.152 44.6062 105.088C44.6022 104.015 43.8482 103.585 42.9142 104.124Z" fill="#7CCCFF"/>
<path d="M47.825 102.673C47.841 102.847 47.85 103.028 47.85 103.216C47.851 103.401 47.843 103.587 47.829 103.776C47.597 106.78 45.492 110.242 42.937 111.717C40.222 113.285 38.009 112.024 38 108.903C37.991 105.782 40.189 101.965 42.905 100.397C45.457 98.9238 47.573 99.9528 47.825 102.673ZM42.934 110.614C45.122 109.351 46.898 106.275 46.891 103.77C46.884 101.256 45.097 100.237 42.908 101.5C40.729 102.758 38.953 105.834 38.96 108.348C38.967 110.853 40.755 111.872 42.934 110.614Z" fill="url(#paint11_linear_928_54541)"/>
<path d="M175.564 69.5247C178.28 67.9567 180.501 69.2127 180.51 72.3337C180.519 75.4537 178.312 79.2767 175.596 80.8447C173.044 82.3177 170.936 81.2837 170.685 78.5637C170.669 78.3897 170.66 78.2087 170.66 78.0207C170.659 77.8357 170.667 77.6487 170.681 77.4607C170.912 74.4577 173.009 70.9997 175.564 69.5247ZM175.594 79.7407C177.782 78.4777 179.558 75.4017 179.551 72.8877C179.544 70.3837 177.756 69.3647 175.568 70.6277C173.389 71.8857 171.613 74.9617 171.62 77.4667C171.627 79.9807 173.414 80.9997 175.594 79.7407Z" fill="#7CCCFF"/>
<path d="M144.238 96.3707L144.244 98.3877L167.31 85.0707L167.304 83.0537L144.238 96.3707Z" fill="#7CCCFF"/>
<path d="M159.512 92.6609L160.356 94.2039L167.327 90.1788L167.321 88.1519L159.512 92.6609Z" fill="#7CCCFF"/>
<path d="M47.8242 102.673C47.8402 102.847 47.8492 103.028 47.8492 103.216C47.8502 103.4 47.8422 103.587 47.8282 103.776L86.6062 81.3879L86.6782 106.789L91.3572 104.088L91.3552 103.531L92.3152 102.977L92.3162 103.534L118.668 88.3199L136.343 98.3919L170.685 78.5649C170.669 78.3909 170.66 78.2099 170.66 78.0219C170.66 77.8379 170.667 77.6509 170.682 77.4619L136.739 97.0589L119.064 86.9869L87.6352 105.133L87.5632 79.7319L47.8242 102.673Z" fill="#7CCCFF"/>
<path d="M175.578 73.2517C174.653 73.7857 173.903 75.0847 173.906 76.1487C173.909 77.2217 174.664 77.6517 175.589 77.1177C176.523 76.5787 177.273 75.2797 177.27 74.2057C177.267 73.1427 176.512 72.7117 175.578 73.2517Z" fill="#7CCCFF"/>
<path d="M150.245 57.421C151.533 56.677 152.583 57.275 152.587 58.756L152.613 68.071C152.617 69.559 151.575 71.357 150.286 72.101C148.998 72.845 147.948 72.254 147.944 70.766L147.918 61.451C147.915 59.971 148.957 58.165 150.245 57.421Z" fill="#1CE5FF"/>
<path d="M159.554 39.399C160.842 38.655 161.892 39.253 161.896 40.734L161.958 62.677C161.962 64.165 160.92 65.963 159.631 66.707C158.343 67.451 157.293 66.86 157.289 65.372L157.227 43.43C157.224 41.948 158.266 40.143 159.554 39.399Z" fill="#1CE5FF"/>
<path d="M168.921 42.0507C170.209 41.3067 171.259 41.9047 171.263 43.3927L171.302 57.2807C171.306 58.7687 170.264 60.5667 168.975 61.3107C167.687 62.0547 166.637 61.4637 166.633 59.9757L166.594 46.0877C166.59 44.6007 167.633 42.7947 168.921 42.0507Z" fill="#1CE5FF"/>
<path d="M178.202 15.19C179.49 14.446 180.54 15.044 180.544 16.525L180.644 51.887C180.648 53.375 179.606 55.173 178.317 55.917C177.022 56.664 175.979 56.07 175.975 54.582L175.875 19.22C175.871 17.74 176.907 15.938 178.202 15.19Z" fill="#1CE5FF"/>
<path d="M187.521 0.319899C188.809 -0.424101 189.859 0.173898 189.863 1.6549L189.99 46.4929C189.994 47.9809 188.952 49.7789 187.663 50.5229C186.368 51.2709 185.319 50.6799 185.315 49.1919L185.188 4.3539C185.184 2.8729 186.226 1.0669 187.521 0.319899Z" fill="#1CE5FF"/>
<path d="M271.484 208.919H247.734V242.913H271.484V208.919Z" fill="#E1E8F2"/>
<path d="M272.578 235.888C272.578 235.888 271.302 234.728 269.91 234.496C268.518 234.264 263.066 234.844 261.21 233.8C259.354 232.756 259.47 229.044 260.978 228.116C262.486 227.188 266.082 227.768 268.634 227.652C271.186 227.536 269.214 223.128 270.722 222.664C272.23 222.2 272.578 223.36 272.926 224.636C273.274 225.912 273.274 228.928 274.318 230.088C275.362 231.248 277.334 232.06 277.334 232.06L272.578 235.888Z" fill="#FF8654"/>
<path d="M346.752 245.601C344.03 247.044 340.654 246.008 339.21 243.286L328.448 222.993C327.005 220.271 328.041 216.895 330.763 215.451C333.485 214.008 336.861 215.044 338.305 217.766L349.066 238.059C350.51 240.781 349.473 244.158 346.752 245.601Z" fill="#392869"/>
<path d="M304.343 271.936C305.174 276.089 317.681 279.302 324.603 278.194C331.525 277.086 340.413 272.891 340.167 264.865C340.167 264.865 339.785 233.597 339.785 227.288C339.785 220.98 335.817 216.31 335.817 216.31C335.817 216.31 331.941 211.88 319.758 214.372C319.758 214.372 309.832 216.534 305.264 223.872C305.264 223.872 301.44 230.797 302.492 247.619C303.542 264.442 304.343 271.936 304.343 271.936Z" fill="#392869"/>
<path d="M329.269 205.471C329.269 205.471 328.217 211.604 329.269 214.408C329.444 215.81 323.311 220.541 317.879 219.315C314.725 218.614 314.9 217.037 314.9 217.037C314.9 217.037 317.529 212.656 317.178 208.45C316.827 204.245 325.588 204.595 329.269 205.471Z" fill="#FF7C40"/>
<path d="M308.766 193.117C308.766 201.102 315.239 207.574 323.223 207.574C331.208 207.574 337.68 201.101 337.68 193.117C337.68 185.133 331.207 178.66 323.223 178.66C315.238 178.66 308.766 185.133 308.766 193.117Z" fill="#FF8654"/>
<path d="M308.767 194.081C308.767 194.081 308.592 208.563 311.746 211.486C314.9 214.409 319.742 208.749 327.485 206.935C335.227 204.945 321.209 189.888 321.209 189.888L308.767 194.081Z" fill="#FF8654"/>
<path d="M314.571 180.914C314.571 180.914 309.369 182.045 307.785 189.962C308.464 193.355 313.214 190.641 315.023 195.164C316.832 199.688 317.963 201.045 317.963 201.045L319.094 200.593C319.094 200.593 319.094 196.974 320.678 196.974C322.261 196.974 322.713 201.271 321.809 203.081C320.904 204.89 318.868 205.795 318.868 205.795C318.868 205.795 321.13 209.64 322.261 210.093C323.392 210.546 327.463 209.641 329.047 208.962C330.63 208.283 333.571 205.117 335.832 201.498C338.094 197.879 340.129 191.546 338.772 187.248C337.415 182.95 334.248 181.82 334.248 181.82C334.248 181.82 332.439 179.332 329.272 178.201C326.106 177.069 320.225 176.616 314.571 180.914Z" fill="#5D4270"/>
<path d="M312.086 217.405L315.856 215.294C315.856 215.294 325.507 214.389 328.975 212.127L330.785 214.691C330.785 214.691 328.372 219.365 322.19 219.969C316.008 220.572 313.143 218.16 313.143 218.16L312.086 217.405Z" fill="#E1E8F2"/>
<path d="M293.057 246.653C291.785 248.485 289.268 248.939 287.436 247.667L273.775 238.183C271.943 236.911 271.489 234.394 272.76 232.562C274.032 230.73 276.549 230.276 278.381 231.548L292.042 241.032C293.875 242.304 294.329 244.821 293.057 246.653Z" fill="#E1E8F2"/>
<path d="M296.446 254.76C293.628 253.515 292.353 250.221 293.598 247.403L302.881 226.393C304.126 223.575 307.42 222.3 310.238 223.545C313.056 224.79 314.331 228.084 313.086 230.902L303.803 251.912C302.558 254.73 299.264 256.005 296.446 254.76Z" fill="#392869"/>
<path d="M302.146 253.399C300.389 255.93 296.913 256.557 294.383 254.8L275.515 241.701C272.984 239.944 272.357 236.468 274.114 233.937C275.871 231.406 279.347 230.779 281.878 232.536L300.746 245.635C303.276 247.392 303.903 250.868 302.146 253.399Z" fill="#392869"/>
<path d="M316.738 197.47C316.738 197.47 317.886 201.736 316.574 204.525C315.261 207.314 313.129 207.314 312.472 206.822C311.816 206.33 310.339 203.541 308.699 203.377C307.222 203.213 309.191 213.549 312.308 213.713C315.425 213.877 316.738 211.908 317.722 210.268C318.706 208.627 319.199 198.619 319.199 198.619L316.738 197.47Z" fill="#5D4270"/>
<path d="M142.788 283.528C142.788 283.528 135.33 308.849 133.884 315.017C133.884 315.017 134.996 316.389 137.793 317.401C140.589 318.413 143.208 319.159 143.833 320.665C144.458 322.171 138.653 323.562 136.122 322.372C133.591 321.182 129.07 321.904 127.027 320.579C125.824 318.498 127.851 314.059 128.114 312.728C128.376 311.397 128.324 292.951 130.392 287.137C132.46 281.323 131.446 283.175 132.398 274.837C133.35 266.496 145.839 264.541 142.788 283.528Z" fill="#FF9F75"/>
<path d="M127.167 315.478C127.167 315.478 128.486 315.508 130.175 316.878C131.864 318.248 134.783 319.514 136.467 319.155C138.151 318.796 138.072 318.319 137.76 317.566C137.836 317.178 140.056 317.903 141.165 318.41C142.275 318.917 144.052 320.131 144.287 320.984C144.356 321.804 141.755 323.308 138.995 323.282C136.235 323.257 132.949 321.803 132.029 321.794C131.109 321.786 130.558 322.829 129.715 322.721C128.872 322.612 127.342 322.484 126.919 321.997C126.496 321.51 126.3 318.707 126.618 317.386C126.936 316.067 127.167 315.478 127.167 315.478Z" fill="#E1E8F2"/>
<path d="M86.0415 326.069C86.4955 331.113 91.2425 334.539 95.5255 336.384C100.189 338.394 105.318 339.205 110.378 339.14C115.543 339.074 120.817 338.086 125.474 335.794C129.538 333.794 133.852 330.167 133.838 325.233C133.848 328.825 133.596 331.794 131.007 334.599C127.674 338.21 122.656 340.155 117.935 341.129C108.726 343.03 96.1865 342.112 89.1905 335.022C86.3755 332.17 85.9915 329.163 85.9805 325.369C85.9925 325.604 86.0115 325.837 86.0415 326.069Z" fill="#C8CCDA"/>
<path d="M93.053 315.495C83.679 320.907 83.618 329.684 92.932 335.097C102.246 340.509 117.409 340.509 126.783 335.097C136.157 329.685 136.196 320.908 126.883 315.495C117.569 310.082 102.427 310.082 93.053 315.495Z" fill="#D4D9DF"/>
<path d="M105.648 304.554L105.707 325.471L109.367 327.597L109.307 306.681L105.648 304.554Z" fill="#E1E8F2"/>
<path d="M109.309 306.681L109.369 327.597L113.052 325.471L112.993 304.554L109.309 306.681Z" fill="#C8CCDA"/>
<path d="M105.648 304.554L109.307 306.681L112.991 304.554L109.331 302.428L105.648 304.554Z" fill="#4DA5DC"/>
<path d="M72.7148 291.935L72.7288 296.933C72.7288 296.945 72.7288 296.957 72.7298 296.969L72.7158 291.971C72.7148 291.958 72.7148 291.946 72.7148 291.935Z" fill="#948700"/>
<path d="M72.7148 291.97L72.7288 296.968C72.7308 297.047 72.7398 297.127 72.7558 297.207L72.7418 292.209C72.7258 292.129 72.7168 292.05 72.7148 291.97Z" fill="#998C00"/>
<path d="M72.7422 292.208L72.7562 297.206C72.7722 297.288 72.7962 297.37 72.8272 297.452L72.8132 292.454C72.7822 292.372 72.7592 292.29 72.7422 292.208Z" fill="#9E9000"/>
<path d="M72.8125 292.455L72.8265 297.453C72.8585 297.539 72.8995 297.625 72.9475 297.711L72.9335 292.713C72.8855 292.627 72.8445 292.541 72.8125 292.455Z" fill="#A39500"/>
<path d="M72.9336 292.711L72.9476 297.709C73.0016 297.804 73.0656 297.899 73.1386 297.992L73.1246 292.994C73.0506 292.901 72.9876 292.807 72.9336 292.711Z" fill="#A89A00"/>
<path d="M73.125 292.996L73.139 297.994C73.227 298.106 73.328 298.215 73.444 298.322L73.43 293.324C73.314 293.217 73.212 293.107 73.125 292.996Z" fill="#AD9E00"/>
<path d="M73.4297 293.323L73.4437 298.321C73.6227 298.487 73.8357 298.645 74.0807 298.793L74.0667 293.795C73.8217 293.648 73.6087 293.489 73.4297 293.323Z" fill="#B3A300"/>
<path d="M74.0664 293.794L74.0804 298.792C74.1014 298.805 74.1234 298.818 74.1454 298.83L74.1314 293.832C74.1094 293.82 74.0874 293.807 74.0664 293.794Z" fill="#B8A800"/>
<path d="M147.854 289.916C147.932 289.878 148.007 289.839 148.078 289.798C148.743 289.414 149.073 288.892 149.072 288.342L149.086 293.34C149.087 293.889 148.757 294.412 148.092 294.796C148.021 294.837 147.947 294.876 147.868 294.914L106.627 314.834L106.613 309.836L147.854 289.916Z" fill="#E39A00"/>
<path d="M74.1318 293.834L101.034 309.468C101.417 309.691 101.851 309.862 102.303 309.996C102.377 310.018 102.454 310.033 102.53 310.053C102.952 310.162 103.387 310.243 103.823 310.274C103.847 310.276 103.87 310.277 103.893 310.279C104.376 310.309 104.856 310.291 105.309 310.222C105.32 310.22 105.331 310.218 105.342 310.216C105.803 310.142 106.236 310.018 106.613 309.838L106.627 314.836C106.546 314.875 106.463 314.911 106.377 314.945C106.247 314.996 106.112 315.041 105.973 315.081C105.854 315.115 105.732 315.145 105.608 315.17C105.526 315.187 105.441 315.2 105.357 315.214C105.346 315.216 105.335 315.218 105.324 315.22C105.301 315.223 105.279 315.229 105.256 315.232C105.138 315.249 105.017 315.262 104.895 315.272C104.77 315.282 104.643 315.289 104.516 315.292C104.379 315.296 104.24 315.295 104.101 315.29C104.037 315.288 103.973 315.281 103.909 315.277C103.885 315.276 103.862 315.274 103.837 315.272C103.768 315.267 103.699 315.265 103.63 315.258C103.437 315.239 103.245 315.212 103.054 315.177C102.881 315.146 102.714 315.094 102.545 315.05C102.468 315.03 102.393 315.016 102.318 314.993C102.267 314.978 102.213 314.971 102.163 314.954C101.766 314.826 101.39 314.663 101.049 314.465L74.1468 298.831C73.2148 298.289 72.7308 297.593 72.7288 296.932L72.7148 291.934C72.7158 292.596 73.1998 293.292 74.1318 293.834Z" fill="#E39A00"/>
<path d="M108.242 266.649C108.171 266.69 108.103 266.733 108.038 266.778L73.5133 290.601C72.2463 291.483 72.5123 292.891 74.1323 293.833L101.034 309.467C102.655 310.409 105.086 310.567 106.612 309.836L147.853 289.915C147.931 289.877 148.006 289.838 148.077 289.797C149.537 288.954 149.383 287.448 147.652 286.442L114.034 266.906C112.302 265.9 109.702 265.806 108.242 266.649Z" fill="#DCC900"/>
<path d="M129.475 220.95C125.232 214.135 116.014 212.128 116.014 212.128C104.699 209.813 101.099 213.928 101.099 213.928C101.099 213.928 97.4141 218.265 97.4141 224.124C97.4141 228.142 101.635 239.736 101.924 248.935C101.804 255.313 99.9201 265.977 99.7591 267.598C99.4421 270.762 108.162 279.878 127.782 274.815C129.997 273.549 130.947 271.966 130.947 271.966L131.16 248.249C131.248 246.922 131.338 245.542 131.431 244.06C132.406 228.437 129.475 220.95 129.475 220.95Z" fill="#159BEB"/>
<path d="M107.179 203.861C107.179 203.861 108.156 209.557 107.179 212.161C107.016 213.463 112.713 217.858 117.758 216.718C120.688 216.067 120.525 214.602 120.525 214.602C120.525 214.602 118.084 210.533 118.409 206.627C118.734 202.722 110.596 203.047 107.179 203.861Z" fill="#FF9F75"/>
<path d="M126.221 192.387C126.221 199.803 120.209 205.814 112.794 205.814C105.378 205.814 99.3672 199.803 99.3672 192.387C99.3672 184.971 105.378 178.96 112.794 178.96C120.209 178.96 126.221 184.971 126.221 192.387Z" fill="#FF8654"/>
<path d="M126.222 193.282C126.222 193.282 126.643 205.958 123.714 208.673C120.784 211.387 116.029 206.905 108.838 205.221C101.647 203.373 114.667 189.389 114.667 189.389L126.222 193.282Z" fill="#FF9F75"/>
<path d="M123.138 214.945L119.637 212.984C119.637 212.984 110.674 212.144 107.453 210.043L105.773 212.424C105.773 212.424 108.013 216.766 113.755 217.326C119.497 217.886 122.158 215.645 122.158 215.645L123.138 214.945Z" fill="white"/>
<path d="M116.389 177.094C116.389 177.094 127.281 179 127.825 188.803C127.553 196.427 121.29 198.061 120.473 198.878C119.656 199.695 117.75 196.155 115.844 199.695C113.938 203.235 116.661 204.052 117.75 205.413C118.294 206.775 116.116 208.408 113.938 208.681C111.76 208.953 111.045 211.405 107.454 210.043C103.863 208.681 103.318 204.869 100.595 201.057C97.8723 197.245 96.7833 189.348 99.7783 183.63C102.775 177.911 112.849 176.549 116.389 177.094Z" fill="#852200"/>
<path d="M160.703 229.464C160.703 229.464 162.272 224.395 163.358 223.309C164.444 222.223 168.789 220.895 169.754 221.499C170.719 222.103 169.03 223.189 169.03 223.189C169.03 223.189 171.323 223.672 171.323 224.999C171.323 226.327 169.151 227.654 169.151 227.654C169.151 227.654 168.306 231.275 166.375 231.999C164.444 232.723 163.237 233.447 163.237 233.447L160.703 229.464Z" fill="#FF9F75"/>
<path d="M124.627 216.274C124.627 216.274 130.505 218.987 133.671 224.187C136.836 229.387 142.263 240.014 143.393 240.918C144.523 241.822 157.863 229.613 159.672 228.709C161.481 228.031 164.646 230.518 163.968 233.909C163.29 237.301 147.915 250.188 143.619 251.771C139.323 253.354 127.114 240.24 123.497 234.362C119.879 228.483 119.427 217.404 124.627 216.274Z" fill="#159BEB"/>
<path d="M104.773 187.731C104.773 191.203 101.958 194.018 98.4862 194.018C95.0142 194.018 92.1992 191.203 92.1992 187.731C92.1992 184.259 95.0142 181.444 98.4862 181.444C101.958 181.444 104.773 184.259 104.773 187.731Z" fill="#852200"/>
<path d="M130.945 271.967L131.113 253.302C126.844 252.876 123.873 248.073 123.052 237.675C122.004 224.403 118.512 223.705 104.891 219.514C101.832 218.573 99.7291 218.552 98.3001 219.079C97.7901 220.546 97.4141 222.256 97.4141 224.124C97.4141 228.142 101.635 239.736 101.923 248.935C101.804 255.313 99.9191 265.977 99.7581 267.598C99.5361 269.817 103.766 274.958 113.076 276.088L129.706 273.402C130.556 272.609 130.945 271.967 130.945 271.967Z" fill="#0B83CE"/>
<path d="M164.843 289.481C164.843 289.481 162.422 315.766 162.196 322.097C162.196 322.097 163.553 323.228 166.492 323.68C169.431 324.132 172.144 324.358 173.049 325.715C173.953 327.072 168.527 329.559 165.814 328.88C163.101 328.202 158.805 329.784 156.544 328.88C154.961 327.071 156.092 322.323 156.092 320.967C156.092 319.611 152.475 301.523 153.379 295.418C154.283 289.314 153.647 291.327 152.969 282.962C152.29 274.596 164.165 270.263 164.843 289.481Z" fill="#FF9F75"/>
<path d="M155.697 323.85C155.697 323.85 156.997 323.624 158.919 324.641C160.841 325.658 163.95 326.337 165.532 325.658C167.115 324.98 166.945 324.528 166.493 323.849C166.493 323.453 168.81 323.736 169.997 324.019C171.184 324.302 173.162 325.149 173.558 325.941C173.784 326.732 171.523 328.711 168.81 329.219C166.097 329.728 162.592 328.936 161.688 329.106C160.784 329.276 160.445 330.406 159.597 330.463C158.749 330.52 157.223 330.689 156.714 330.293C156.205 329.897 155.47 327.184 155.527 325.828C155.584 324.471 155.697 323.85 155.697 323.85Z" fill="#E1E8F2"/>
<path d="M100.114 259.678C100.114 259.678 110.592 269.457 131.547 263.636V267.827C131.547 267.827 131.547 267.361 135.04 267.827C138.533 268.293 141.56 267.594 144.354 267.827C147.148 268.06 152.27 270.621 155.53 273.182C158.79 275.743 160.885 280.4 160.885 282.03C160.885 283.66 159.488 288.317 158.557 288.782C157.626 289.248 149.469 288.717 146.213 289.332C142.957 289.947 136.437 293.905 127.589 294.836C118.741 295.767 107.332 293.206 101.744 288.549C96.1563 283.892 97.7863 272.25 98.4843 268.292C99.1833 264.335 100.114 259.678 100.114 259.678Z" fill="#0046A6"/>
<path d="M101.015 256.099L64.8743 235.096L62.9023 237.453L99.0433 258.456L101.015 256.099Z" fill="#EFD600"/>
<path d="M70.6943 291.437C71.0043 286.681 71.8133 282.009 71.9223 277.222C72.0393 272.066 71.7883 266.913 71.0803 261.803C69.9323 253.51 67.7083 244.45 62.9023 237.453C71.5903 242.502 80.2793 247.551 88.9673 252.6C91.2443 253.923 93.5203 255.246 95.7973 256.569C96.7873 257.145 98.1163 257.655 98.9783 258.418C99.5433 258.917 99.9373 259.868 100.297 260.514C101.36 262.422 102.263 264.419 103.058 266.452C104.779 270.854 105.999 275.455 106.804 280.111C107.767 285.688 108.153 291.354 108.084 297.01C108.047 300.052 107.895 303.099 107.595 306.127C107.449 307.602 107.282 309.077 107.09 310.546C106.985 311.352 106.365 313.16 107.338 313.726C95.9933 307.133 84.6483 300.54 73.3033 293.947C72.2903 293.359 70.6073 292.848 70.6943 291.437Z" fill="#EFBD00"/>
<path d="M101.015 256.099L99.043 258.456C99.689 259.398 111.973 277.293 106.858 312.213C106.665 313.555 107.465 314.236 108.556 313.606L112.016 311.609C112.965 311.061 113.738 309.748 113.746 308.651C113.744 300.437 112.977 268.925 101.015 256.099Z" fill="#E39A00"/>
<defs>
<linearGradient id="paint0_linear_928_54541" x1="182.24" y1="248.316" x2="190.389" y2="237.14" gradientUnits="userSpaceOnUse">
<stop stop-color="#574BAA"/>
<stop offset="1" stop-color="#3EABFF"/>
</linearGradient>
<linearGradient id="paint1_linear_928_54541" x1="279.479" y1="267.874" x2="271.329" y2="256.698" gradientUnits="userSpaceOnUse">
<stop stop-color="#574BAA"/>
<stop offset="1" stop-color="#3EABFF"/>
</linearGradient>
<linearGradient id="paint2_linear_928_54541" x1="297.743" y1="219.367" x2="302.003" y2="234.463" gradientUnits="userSpaceOnUse">
<stop stop-color="#D0D3D4"/>
<stop offset="0.1236" stop-color="#889299"/>
<stop offset="0.1492" stop-color="#929BA1"/>
<stop offset="0.2727" stop-color="#BCC0C3"/>
<stop offset="0.3695" stop-color="#D6D7D8"/>
<stop offset="0.427" stop-color="#E0E0E0"/>
<stop offset="0.4651" stop-color="#D5D6D6"/>
<stop offset="0.5325" stop-color="#B7BBBC"/>
<stop offset="0.621" stop-color="#879092"/>
<stop offset="0.7264" stop-color="#455558"/>
<stop offset="0.736" stop-color="#3F4F52"/>
<stop offset="0.7986" stop-color="#6C7577"/>
<stop offset="0.8939" stop-color="#AAABAA"/>
<stop offset="0.9636" stop-color="#D1CCCA"/>
<stop offset="1" stop-color="#E6E2DF"/>
</linearGradient>
<linearGradient id="paint3_linear_928_54541" x1="302.493" y1="227.984" x2="305.636" y2="231.127" gradientUnits="userSpaceOnUse">
<stop stop-color="#D0D3D4"/>
<stop offset="0.1236" stop-color="#889299"/>
<stop offset="0.1492" stop-color="#929BA1"/>
<stop offset="0.2727" stop-color="#BCC0C3"/>
<stop offset="0.3695" stop-color="#D6D7D8"/>
<stop offset="0.427" stop-color="#E0E0E0"/>
<stop offset="0.4651" stop-color="#D5D6D6"/>
<stop offset="0.5325" stop-color="#B7BBBC"/>
<stop offset="0.621" stop-color="#879092"/>
<stop offset="0.7264" stop-color="#455558"/>
<stop offset="0.736" stop-color="#3F4F52"/>
<stop offset="0.7986" stop-color="#6C7577"/>
<stop offset="0.8939" stop-color="#AAABAA"/>
<stop offset="0.9636" stop-color="#D1CCCA"/>
<stop offset="1" stop-color="#E6E2DF"/>
</linearGradient>
<linearGradient id="paint4_linear_928_54541" x1="289.987" y1="239.025" x2="271.063" y2="227.138" gradientUnits="userSpaceOnUse">
<stop stop-color="#555555" stop-opacity="0"/>
<stop offset="0.5076" stop-color="#4C4C4C"/>
<stop offset="1" stop-color="#5C5C5C" stop-opacity="0"/>
</linearGradient>
<linearGradient id="paint5_linear_928_54541" x1="265.806" y1="202.634" x2="264.844" y2="207.447" gradientUnits="userSpaceOnUse">
<stop stop-color="#555555" stop-opacity="0"/>
<stop offset="0.4067" stop-color="#606466" stop-opacity="0.7932"/>
<stop offset="0.5127" stop-color="#63696B"/>
<stop offset="1" stop-color="#5C5C5C" stop-opacity="0"/>
</linearGradient>
<linearGradient id="paint6_linear_928_54541" x1="298.792" y1="207.018" x2="260.868" y2="207.018" gradientUnits="userSpaceOnUse">
<stop stop-color="#D0D3D4"/>
<stop offset="0.1236" stop-color="#889299"/>
<stop offset="0.1492" stop-color="#929BA1"/>
<stop offset="0.2727" stop-color="#BCC0C3"/>
<stop offset="0.3695" stop-color="#D6D7D8"/>
<stop offset="0.427" stop-color="#E0E0E0"/>
<stop offset="0.4651" stop-color="#D5D6D6"/>
<stop offset="0.5325" stop-color="#B7BBBC"/>
<stop offset="0.621" stop-color="#879092"/>
<stop offset="0.7264" stop-color="#455558"/>
<stop offset="0.736" stop-color="#3F4F52"/>
<stop offset="0.7986" stop-color="#6C7577"/>
<stop offset="0.8939" stop-color="#AAABAA"/>
<stop offset="0.9636" stop-color="#D1CCCA"/>
<stop offset="1" stop-color="#E6E2DF"/>
</linearGradient>
<linearGradient id="paint7_linear_928_54541" x1="107.847" y1="6.31717" x2="42.4843" y2="182.032" gradientUnits="userSpaceOnUse">
<stop stop-color="#05CCFF"/>
<stop offset="0.2003" stop-color="#05C7FF"/>
<stop offset="0.4427" stop-color="#05B8FF"/>
<stop offset="0.7068" stop-color="#04A0FF"/>
<stop offset="0.9848" stop-color="#047EFF"/>
<stop offset="1" stop-color="#047CFF"/>
</linearGradient>
<linearGradient id="paint8_linear_928_54541" x1="101.665" y1="4.01881" x2="36.3033" y2="179.732" gradientUnits="userSpaceOnUse">
<stop stop-color="#05CCFF"/>
<stop offset="0.2003" stop-color="#05C7FF"/>
<stop offset="0.4427" stop-color="#05B8FF"/>
<stop offset="0.7068" stop-color="#04A0FF"/>
<stop offset="0.9848" stop-color="#047EFF"/>
<stop offset="1" stop-color="#047CFF"/>
</linearGradient>
<linearGradient id="paint9_linear_928_54541" x1="95.4827" y1="1.72198" x2="30.1228" y2="177.43" gradientUnits="userSpaceOnUse">
<stop stop-color="#05CCFF"/>
<stop offset="0.2003" stop-color="#05C7FF"/>
<stop offset="0.4427" stop-color="#05B8FF"/>
<stop offset="0.7068" stop-color="#04A0FF"/>
<stop offset="0.9848" stop-color="#047EFF"/>
<stop offset="1" stop-color="#047CFF"/>
</linearGradient>
<linearGradient id="paint10_linear_928_54541" x1="136.593" y1="17.0118" x2="71.2315" y2="192.724" gradientUnits="userSpaceOnUse">
<stop stop-color="#05CCFF"/>
<stop offset="0.2003" stop-color="#05C7FF"/>
<stop offset="0.4427" stop-color="#05B8FF"/>
<stop offset="0.7068" stop-color="#04A0FF"/>
<stop offset="0.9848" stop-color="#047EFF"/>
<stop offset="1" stop-color="#047CFF"/>
</linearGradient>
<linearGradient id="paint11_linear_928_54541" x1="83.4076" y1="-2.77242" x2="18.0458" y2="172.94" gradientUnits="userSpaceOnUse">
<stop stop-color="#05CCFF"/>
<stop offset="0.2003" stop-color="#05C7FF"/>
<stop offset="0.4427" stop-color="#05B8FF"/>
<stop offset="0.7068" stop-color="#04A0FF"/>
<stop offset="0.9848" stop-color="#047EFF"/>
<stop offset="1" stop-color="#047CFF"/>
</linearGradient>
</defs>
</svg>
