<?xml version="1.0" encoding="UTF-8"?><svg id="a" xmlns="http://www.w3.org/2000/svg" viewBox="0 0 100 100"><defs><style>.b{fill:#4b3db6;}.c{fill:#ffe01b;}.d{fill:#fff7de;}.e{fill:#2ea08a;}.f{fill:none;stroke:#1c1e21;stroke-miterlimit:10;stroke-width:1.3px;}.g{fill:#34c6aa;}</style></defs><path class="f" d="M8.58,33.76v28.55c0,8.41,6.82,15.22,15.22,15.22h.05"/><rect class="d" x="23.85" y="22.18" width="75.3" height="77.06" rx="6.71" ry="6.71"/><path class="f" d="M27.88,6.95h30.87c8.41,0,15.22,6.82,15.22,15.22h0"/><g><rect class="c" x="36.3" y="35.36" width="21.77" height="21.77" rx="3.92" ry="3.92"/><rect class="b" x="64.92" y="35.36" width="21.77" height="21.77" rx="3.92" ry="3.92"/><rect class="c" x="36.3" y="65.05" width="50.4" height="7.84" rx="3.92" ry="3.92"/><rect class="b" x="36.3" y="78.21" width="50.4" height="7.84" rx="3.92" ry="3.92"/></g><g><path class="g" d="M23.85,0S15,14.73,.39,14.73c0,0-.22,24.44,23.46,39.26"/><path class="e" d="M23.85,0s8.85,14.73,23.46,14.73c0,0,.22,24.44-23.46,39.26"/></g></svg>