<svg id="Layer_1" data-name="Layer 1" xmlns="http://www.w3.org/2000/svg" viewBox="0 0 150 150"><defs><style>.cls-1{fill:#f7f7eb;}.cls-2{fill:#d8b627;}.cls-3{fill:#3eb096;}.cls-4{fill:#ffe01b;}.cls-5{fill:none;stroke:#1c1e21;stroke-miterlimit:10;}.cls-6{fill:#fff;}.cls-7{fill:#573bd3;}.cls-8{fill:#3d2db2;}</style></defs><rect class="cls-1" x="18.03" y="54.73" width="122.71" height="84.52"/><path class="cls-2" d="M25.18,34.38H133.58a7.16,7.16,0,0,1,7.16,7.16V54.73a0,0,0,0,1,0,0H18a0,0,0,0,1,0,0V41.54A7.16,7.16,0,0,1,25.18,34.38Z"/><rect class="cls-3" x="83.22" y="66.08" width="40.85" height="33.2"/><rect class="cls-4" x="30.94" y="66.08" width="40.85" height="33.2"/><rect class="cls-5" x="30.94" y="109.12" width="93.13" height="7.04"/><rect class="cls-5" x="30.94" y="123.83" width="93.13" height="7.04"/><circle class="cls-6" cx="130.72" cy="44.56" r="3.91"/><circle class="cls-6" cx="119.44" cy="44.56" r="3.91"/><circle class="cls-6" cx="108.16" cy="44.56" r="3.91"/><path class="cls-7" d="M43.73,4S30.85,29,7,30.5c0,0,2.23,39.91,42.44,61.59"/><path class="cls-8" d="M43.73,4s16,23.1,39.85,21.55c0,0,3,39.86-34.12,66.57"/></svg>