<svg id="Layer_1" data-name="Layer 1" xmlns="http://www.w3.org/2000/svg" xmlns:xlink="http://www.w3.org/1999/xlink" viewBox="0 0 100 100"><defs><style>.cls-1,.cls-3{fill:none;}.cls-2{clip-path:url(#clip-path);}.cls-3{stroke:#3f2d10;stroke-miterlimit:10;stroke-width:1.26px;}.cls-4{fill:#3eb096;}.cls-5{fill:#4b3db6;opacity:0.25;}</style><clipPath id="clip-path"><rect class="cls-1" x="-120" y="1.01" width="100" height="98.99"/></clipPath></defs><g class="cls-2"><circle class="cls-3" cx="-48.28" cy="71.65" r="66.07"/></g><path class="cls-4" d="M33,85.52c-.6,0-1.17.14-1.75.21a.24.24,0,0,0-.24.2c-.27.68-.55,1.35-.84,2a.27.27,0,0,0,0,.34l1.2,1.49,0,0a.74.74,0,0,1-.09,1L29.22,93l0,0a.73.73,0,0,1-1,0c-.5-.39-1-.78-1.5-1.2a.27.27,0,0,0-.32,0c-.67.29-1.34.56-2,.83a.27.27,0,0,0-.2.26c-.07.6-.16,1.16-.21,1.75a1,1,0,0,1-.55.88h-3.6a1,1,0,0,1-.56-.89c0-.6-.13-1.2-.21-1.77a.32.32,0,0,0-.18-.2c-.68-.3-1.38-.6-2.06-.87a.24.24,0,0,0-.3,0L14.91,93l0,0a.73.73,0,0,1-1-.09h0L11.7,90.84a.1.1,0,0,1,0,0,.73.73,0,0,1,0-1h0q.6-.77,1.2-1.5a.3.3,0,0,0,0-.35c-.29-.66-.56-1.32-.83-2a.28.28,0,0,0-.25-.16l-1.87-.22H9.87a.76.76,0,0,1-.69-.82h0V81.64a.77.77,0,0,1,.77-.75h0l1.89-.23c.13,0,.18-.07.22-.19.28-.68.56-1.37.85-2a.24.24,0,0,0,0-.3l-1.2-1.51,0,0a.73.73,0,0,1,.1-1h0c.71-.72,1.42-1.43,2.14-2.14l0,0a.74.74,0,0,1,1,0h0c.51.39,1,.78,1.5,1.2a.29.29,0,0,0,.33,0c.67-.3,1.35-.6,2-.84.11,0,.19-.09.19-.22.07-.6.15-1.25.22-1.88v-.1a.76.76,0,0,1,.84-.68h3a.74.74,0,0,1,.76.74h0c.07.6.16,1.26.23,1.89a.24.24,0,0,0,.18.24c.69.27,1.38.55,2.05.85a.26.26,0,0,0,.32,0c.5-.39,1-.78,1.51-1.2l0,0a.75.75,0,0,1,1.05.11l2.09,2.1.07.06a.74.74,0,0,1,0,1h0c-.39.49-.78,1-1.2,1.49a.29.29,0,0,0,0,.33c.29.67.57,1.34.84,2a.27.27,0,0,0,.24.21c.6.06,1.17.16,1.76.2a1,1,0,0,1,.88.55V85A1,1,0,0,1,33,85.52Zm-11.5-6.35a4,4,0,1,0,4,4A4,4,0,0,0,21.52,79.17Z"/><path class="cls-5" d="M96.63,69.77c-1.55.1-3,.35-4.5.52a.69.69,0,0,0-.64.51c-.69,1.76-1.4,3.49-2.16,5.23a.73.73,0,0,0,.11.88c1,1.26,2,2.55,3.09,3.84l.09.11a1.91,1.91,0,0,1-.24,2.68L86.84,89l-.09.11a1.9,1.9,0,0,1-2.67,0c-1.3-1-2.58-2-3.87-3.09a.68.68,0,0,0-.83-.11c-1.72.74-3.46,1.45-5.21,2.15a.66.66,0,0,0-.51.64c-.17,1.55-.42,3-.54,4.52a2.51,2.51,0,0,1-1.42,2.27H62.42A2.5,2.5,0,0,1,61,93.24c-.11-1.54-.34-3.09-.56-4.56a.79.79,0,0,0-.44-.52c-1.77-.78-3.56-1.55-5.32-2.24a.63.63,0,0,0-.77.1L50,89.12l-.1.07A1.88,1.88,0,0,1,47.25,89l0,0-5.5-5.51a.27.27,0,0,1-.11-.1,1.89,1.89,0,0,1,0-2.67h0q1.55-1.95,3.09-3.85a.77.77,0,0,0,.09-.89c-.75-1.7-1.45-3.42-2.14-5.15a.7.7,0,0,0-.64-.42c-1.54-.18-3.21-.4-4.82-.57a.49.49,0,0,1-.17,0,2,2,0,0,1-1.78-2.1V59.77a2,2,0,0,1,2-1.94h0c1.62-.18,3.24-.4,4.86-.58.36,0,.47-.19.59-.5q1.06-2.64,2.18-5.27a.62.62,0,0,0,0-.77L41.76,46.8l-.11-.12A1.88,1.88,0,0,1,41.9,44h0c1.83-1.85,3.65-3.68,5.51-5.5l.09-.11a1.89,1.89,0,0,1,2.67,0h0c1.3,1,2.6,2,3.87,3.09a.71.71,0,0,0,.83.1c1.73-.76,3.48-1.55,5.22-2.17.3-.11.5-.21.5-.57.18-1.55.4-3.21.57-4.82v-.26A2,2,0,0,1,63.34,32h7.83a1.93,1.93,0,0,1,2,1.92v0c.18,1.55.42,3.25.59,4.87a.6.6,0,0,0,.47.6c1.77.71,3.54,1.42,5.28,2.2a.69.69,0,0,0,.83-.13c1.28-1,2.57-2,3.88-3.09l.11-.11a1.93,1.93,0,0,1,2.7.28L92.36,44l.19.17a1.91,1.91,0,0,1,0,2.69v0c-1,1.28-2,2.58-3.1,3.84a.74.74,0,0,0-.09.85c.76,1.72,1.47,3.47,2.17,5.21a.67.67,0,0,0,.63.53c1.55.15,3,.42,4.51.52a2.48,2.48,0,0,1,2.27,1.43v9.27A2.5,2.5,0,0,1,96.63,69.77ZM67,53.4A10.32,10.32,0,1,0,77.35,63.72,10.33,10.33,0,0,0,67,53.4Z"/><path class="cls-3" d="M98,55.52A52.94,52.94,0,0,1,86.09,43c-.27-.39-.71-1-.71-1s.52-.51.81-.81A57,57,0,0,1,98,32m0-14.48a67.34,67.34,0,0,0-12.33,7c-2.51,1.78-4.69,3.7-7.32,5.79-.36-.46-.59-.68-.88-1a63.84,63.84,0,0,0-11-11.15C56.88,10.69,46.35,5.7,33.94,5.48S11.15,12.25,6.94,24c-.86,2.4-1.38,4.92-2.06,7.39l-.63,7.4c.13,1.79.2,3.59.41,5.37C5.94,54.77,11.06,62.66,21,67.08a36,36,0,0,0,18,2.66c11.2-1,21.2-5.13,30.28-11.6,2.51-1.79,4.83-3.82,7.42-5.88.25.38.49.79.77,1.15A65.33,65.33,0,0,0,94.9,69.08c1,.62,2,1.21,3.08,1.78M36.77,57a27,27,0,0,1-7.65-.66C22.72,54.85,19,50.63,18,44.23a31.2,31.2,0,0,1,1.34-15.77c2.71-7.7,9.14-11.18,17.87-9.93A39.43,39.43,0,0,1,51.1,23.36,52.46,52.46,0,0,1,68.63,39.42c.27.38.51.79.86,1.34C60.36,50,49.83,56.08,36.77,57Z"/></svg>