<svg xmlns="http://www.w3.org/2000/svg" width="166.365" height="99.59" viewBox="0 0 166.365 99.59">
  <g id="Group_10232" data-name="Group 10232" transform="translate(-551.151 -8259.819)">
    <path id="Path_31253" data-name="Path 31253" d="M108.671,87.365A117.718,117.718,0,0,1,38.549,66.358,111.769,111.769,0,0,1,25.734,56.185l-.727-.727c-.5-.694-1.189-1.321-.4-2.279s1.453-.694,2.345-.2a132.312,132.312,0,0,0,12.65,6.606A164.783,164.783,0,0,0,81.851,72.8a158.244,158.244,0,0,0,88.982-10.371l.958-.363c1.453-.5,3.072-.661,3.931.958s-.2,2.642-1.453,3.567a100.74,100.74,0,0,1-27.877,14.269A109,109,0,0,1,108.671,87.365Z" transform="translate(526.9 8272.008)" fill="#fc9a05"/>
    <path id="Path_31254" data-name="Path 31254" d="M59.72,71.588Q62.4,60.061,65.071,48.666c1.024-4.36,2.048-8.654,3.1-12.948a2.543,2.543,0,0,1,2.807-2.279H75.31c2.907,0,3.3.33,4.063,3.1,1.486,5.846,2.708,11.527,4.1,17.307l4.063,18a15.293,15.293,0,0,0,2.411-6.606c2.51-9.546,4.888-19.091,7.366-28.6.76-2.907,1.189-3.3,4.195-3.3h3.468c2.411,0,2.774.462,2.015,2.741-1.519,4.855-3.006,9.711-4.558,14.566-2.907,9.248-5.813,18.4-8.654,27.679-1.123,3.765-1.321,3.9-5.318,3.9-5.549,0-5.648,0-6.969-5.252-2.51-9.909-4.855-20.115-7.3-30.156a3.3,3.3,0,0,0-.958-1.751c-.4,1.453-.76,2.907-1.123,4.459-2.378,9.909-4.723,19.818-7.1,29.727-.661,2.708-1.255,3.1-4.1,3.1h-3.3c-2.907,0-3.5-.33-4.36-3.1-2.642-8.588-5.186-17.175-7.828-25.8q-2.312-7.795-4.723-15.623c-.2-.628-.4-1.288-.528-1.916-.363-2.147,0-2.444,2.048-2.477h4.228a3.072,3.072,0,0,1,3.534,2.477h0v.231q2.675,10.4,5.318,20.875c1.255,4.789,2.444,9.711,3.7,14.566Z" transform="translate(563.267 8227.802)" fill="#263241"/>
    <path id="Path_31255" data-name="Path 31255" d="M66.451,60.13v8.885a14.269,14.269,0,0,0,2.015,8.191,2.411,2.411,0,0,1,0,3.3h0a2.378,2.378,0,0,1-.892.5c-.4.231-.793.528-1.156.793-3.3,2.246-4.1,2.015-6.606-1.321-.727-1.09-.991-3.006-2.048-3.1s-1.85,1.519-2.808,2.345a20.181,20.181,0,0,1-18.6,4.063A13.938,13.938,0,0,1,26.65,67.463,15.392,15.392,0,0,1,39.862,54.714a39.635,39.635,0,0,1,15.656.859c1.585.363,1.751,0,1.751-1.453a47,47,0,0,0-.429-6.606c-.694-4.36-3.964-6.837-9.347-7.167a32.8,32.8,0,0,0-13.41,2.477l-2.246,1.156c-1.222.5-2.015,0-2.015-1.222,0-5.153-.694-5.219,3.931-7.068a35.639,35.639,0,0,1,21.2-1.916A14.6,14.6,0,0,1,66.418,47.216C66.616,51.576,66.286,56.2,66.451,60.13Zm-18.86.76a21.107,21.107,0,0,0-5.582.562A7.828,7.828,0,0,0,36,70.105a6.8,6.8,0,0,0,5.747,7.035,12.683,12.683,0,0,0,15.128-9.612,12.915,12.915,0,0,0,.231-4.063,1.42,1.42,0,0,0-1.09-1.585h-.231a50.633,50.633,0,0,0-8.356-.991Z" transform="translate(531.698 8226.94)" fill="#263241"/>
    <path id="Path_31256" data-name="Path 31256" d="M77.866,84.831a34.582,34.582,0,0,1-13.608-3.006,5.846,5.846,0,0,1-2.378-7.1c.628-1.255,1.751-.694,2.642-.33a37.719,37.719,0,0,0,8.456,2.51,24.31,24.31,0,0,0,10.8-.363,6.276,6.276,0,0,0,5.12-6.606,5.285,5.285,0,0,0-3.1-4.624,53.573,53.573,0,0,0-10.4-3.732,20.313,20.313,0,0,1-9.909-5.549,13.443,13.443,0,0,1,6.243-21.5,28.868,28.868,0,0,1,21.073.859,5.285,5.285,0,0,1,2.543,6.87c-.562,1.288-1.552,1.024-2.543.528a28.075,28.075,0,0,0-13.212-2.312,14.3,14.3,0,0,0-3.931.76,5.384,5.384,0,0,0-4.1,4.558,5.483,5.483,0,0,0,2.907,5.945,40.131,40.131,0,0,0,7.663,3.006c2.411.826,4.921,1.453,7.3,2.444a12.386,12.386,0,0,1,8.72,10.371,13.674,13.674,0,0,1-6.11,13.74,23.418,23.418,0,0,1-14.17,3.534Z" transform="translate(612.634 8226.88)" fill="#263241"/>
    <path id="Path_31257" data-name="Path 31257" d="M77.4,58.189a93.641,93.641,0,0,0-10.074.958c-.694,0-1.618.231-2.015-.595s.429-1.453,1.057-1.982a23.451,23.451,0,0,1,8.918-3.9,40.263,40.263,0,0,1,16.515-.4c4.03.694,4.657,1.453,4.459,5.417a34.383,34.383,0,0,1-8.852,21.634,14.038,14.038,0,0,1-1.883,1.817c-.661.462-1.321,1.255-2.246.528s-.2-1.453,0-2.147A87.4,87.4,0,0,0,88.07,64.96,10.6,10.6,0,0,0,88.3,63.21c0-3.3-.694-4.393-4-4.822-1.189,0-2.411-.2-3.567-.264S78.524,58.189,77.4,58.189Z" transform="translate(621.224 8269.872)" fill="#fc9a05"/>
  </g>
</svg>
