<svg id="Layer_1" data-name="Layer 1" xmlns="http://www.w3.org/2000/svg" xmlns:xlink="http://www.w3.org/1999/xlink" viewBox="0 0 607.7 143.22"><defs><style>.cls-1,.cls-10,.cls-7,.cls-8{fill:none;}.cls-2{fill:#2a3a51;}.cls-3{fill:#0f3772;}.cls-4{fill:#1e35a5;}.cls-4,.cls-9{opacity:0.99;}.cls-5{opacity:0.46;}.cls-6{clip-path:url(#clip-path);}.cls-7,.cls-8{stroke:#44aad8;stroke-linecap:round;}.cls-10,.cls-7,.cls-8{stroke-miterlimit:10;}.cls-7{stroke-width:2.4px;}.cls-8{stroke-width:2.04px;}.cls-9{fill:#4867d8;}.cls-10{stroke:#fff;stroke-width:0.87px;}.cls-11{fill:#fff;}.cls-12{opacity:0.5;fill:url(#linear-gradient);}.cls-13{fill:url(#linear-gradient-2);}.cls-14{fill:url(#linear-gradient-3);}.cls-15,.cls-16{fill:#231f20;}.cls-15{opacity:0.6;}</style><clipPath id="clip-path"><path class="cls-1" d="M133.85,28.13V69.05c0,18.47-4,50-50.23,68.9C37.4,115,33.38,83.15,33.38,64.67V23.76L83.6,11.52Z"/></clipPath><linearGradient id="linear-gradient" x1="73.47" y1="241.71" x2="90.35" y2="266.12" gradientTransform="matrix(1, 0.03, 0, 1, 19.52, -195.24)" gradientUnits="userSpaceOnUse"><stop offset="0.53" stop-color="#4c4c4c"/><stop offset="0.77" stop-color="#4c4c4c" stop-opacity="0.58"/><stop offset="1" stop-color="#4c4c4c" stop-opacity="0"/></linearGradient><linearGradient id="linear-gradient-2" x1="57.91" y1="224.03" x2="38.74" y2="253.61" gradientTransform="matrix(1, 0.03, 0, 1, 19.52, -195.24)" gradientUnits="userSpaceOnUse"><stop offset="0.37" stop-color="#4c4c4c"/><stop offset="0.62" stop-color="#4c4c4c" stop-opacity="0.58"/><stop offset="1" stop-color="#4c4c4c" stop-opacity="0"/></linearGradient><linearGradient id="linear-gradient-3" x1="61.55" y1="94.31" x2="151.05" y2="29.41" gradientUnits="userSpaceOnUse"><stop offset="0.18" stop-color="#5738e9"/><stop offset="0.56" stop-color="#f83ffd"/><stop offset="0.9" stop-color="#edc04f"/></linearGradient></defs><path class="cls-2" d="M229,60.68q4.41,4.41,4.4,12.3V95.89h-9.86V74.32q0-4.57-2.33-7a8.35,8.35,0,0,0-6.34-2.43,8.48,8.48,0,0,0-6.38,2.43q-2.35,2.43-2.36,7V95.89h-9.87V74.32q0-4.57-2.32-7a8.38,8.38,0,0,0-6.35-2.43,8.59,8.59,0,0,0-6.45,2.43q-2.35,2.43-2.36,7V95.89H168.9v-39h9.87v4.72a13.16,13.16,0,0,1,4.9-3.87,15.28,15.28,0,0,1,6.59-1.41,16.9,16.9,0,0,1,8.18,1.94A13.53,13.53,0,0,1,204,63.75a14.19,14.19,0,0,1,5.54-5.43,15.78,15.78,0,0,1,7.86-2Q224.58,56.28,229,60.68Z"/><path class="cls-2" d="M278.78,79.32H250.24a9.7,9.7,0,0,0,3,6.63,9.13,9.13,0,0,0,6.41,2.4,8.05,8.05,0,0,0,7.82-4.73h10.65a17.78,17.78,0,0,1-6.49,9.27,18.92,18.92,0,0,1-11.77,3.63A20.32,20.32,0,0,1,249.71,94a17.68,17.68,0,0,1-7-7.08,21.71,21.71,0,0,1-2.5-10.58,22.06,22.06,0,0,1,2.47-10.64,17.23,17.23,0,0,1,6.9-7,22.25,22.25,0,0,1,20.2-.07,16.9,16.9,0,0,1,6.83,6.81,20.55,20.55,0,0,1,2.43,10.11A22.93,22.93,0,0,1,278.78,79.32Zm-9.94-6.62a7.82,7.82,0,0,0-2.74-6.1,9.79,9.79,0,0,0-6.56-2.29,9,9,0,0,0-6.17,2.22,9.78,9.78,0,0,0-3.06,6.17Z"/><path class="cls-2" d="M297.74,65V83.84a3.75,3.75,0,0,0,.95,2.85,4.69,4.69,0,0,0,3.21.88h4.58v8.32h-6.2q-12.48,0-12.48-12.12V65h-4.65V56.84h4.65V47.19h9.94v9.65h8.74V65Z"/><path class="cls-2" d="M313.42,65.72a17.37,17.37,0,0,1,6.42-7,17.1,17.1,0,0,1,9.05-2.46A16,16,0,0,1,336.54,58a15.4,15.4,0,0,1,5.25,4.44V56.84h9.94V95.89h-9.94V90.18a14.63,14.63,0,0,1-5.25,4.54,16,16,0,0,1-7.72,1.8,16.5,16.5,0,0,1-9-2.54,17.72,17.72,0,0,1-6.42-7.15,23,23,0,0,1-2.36-10.61A22.68,22.68,0,0,1,313.42,65.72Zm27,4.48a10,10,0,0,0-3.8-4,10.16,10.16,0,0,0-5.15-1.37,9.88,9.88,0,0,0-8.84,5.25,12.14,12.14,0,0,0-1.45,6.09,12.59,12.59,0,0,0,1.45,6.17,10.4,10.4,0,0,0,3.8,4,9.65,9.65,0,0,0,5,1.41,10.26,10.26,0,0,0,5.15-1.37,10,10,0,0,0,3.8-4,14.18,14.18,0,0,0,0-12.33Z"/><path class="cls-2" d="M367.73,94.8a15.3,15.3,0,0,1-6-4.69,11.87,11.87,0,0,1-2.43-6.56h9.94a5.36,5.36,0,0,0,2.22,3.74,7.7,7.7,0,0,0,4.83,1.48,7.52,7.52,0,0,0,4.4-1.13,3.4,3.4,0,0,0,1.59-2.89,3,3,0,0,0-1.94-2.85,36.06,36.06,0,0,0-6.17-2.08A51.58,51.58,0,0,1,367,77.63a12.4,12.4,0,0,1-4.8-3.45,9.26,9.26,0,0,1-2-6.27A10.15,10.15,0,0,1,362.05,62a12.5,12.5,0,0,1,5.36-4.23,20.11,20.11,0,0,1,8.21-1.55q7,0,11.14,3.49a13,13,0,0,1,4.58,9.41h-9.45a5.1,5.1,0,0,0-1.94-3.7A7.17,7.17,0,0,0,375.34,64a7.28,7.28,0,0,0-4.13,1,3.15,3.15,0,0,0-1.44,2.75,3.23,3.23,0,0,0,2,3,30.45,30.45,0,0,0,6.14,2.08,50.31,50.31,0,0,1,7,2.19,12.36,12.36,0,0,1,4.76,3.48,9.62,9.62,0,0,1,2.08,6.24,10.28,10.28,0,0,1-1.87,6.06,12.32,12.32,0,0,1-5.35,4.2,20.33,20.33,0,0,1-8.15,1.51A20.56,20.56,0,0,1,367.73,94.8Z"/><path class="cls-2" d="M435.81,79.32H407.26a9.75,9.75,0,0,0,3,6.63,9.09,9.09,0,0,0,6.41,2.4,8.06,8.06,0,0,0,7.82-4.73h10.65a17.78,17.78,0,0,1-6.49,9.27,18.94,18.94,0,0,1-11.77,3.63A20.32,20.32,0,0,1,406.74,94a17.62,17.62,0,0,1-7-7.08,21.71,21.71,0,0,1-2.5-10.58,22.17,22.17,0,0,1,2.46-10.64,17.32,17.32,0,0,1,6.91-7,22.23,22.23,0,0,1,20.19-.07,16.86,16.86,0,0,1,6.84,6.81,20.55,20.55,0,0,1,2.43,10.11A22.93,22.93,0,0,1,435.81,79.32Zm-9.94-6.62a7.83,7.83,0,0,0-2.75-6.1,9.76,9.76,0,0,0-6.55-2.29,9,9,0,0,0-6.17,2.22,9.73,9.73,0,0,0-3.06,6.17Z"/><path class="cls-2" d="M443.21,65.76a17.59,17.59,0,0,1,6.84-7.05,19.76,19.76,0,0,1,10-2.5,19.24,19.24,0,0,1,12,3.63A17.6,17.6,0,0,1,478.45,70H467.81A7.79,7.79,0,0,0,465,66a8.35,8.35,0,0,0-5-1.44,8.14,8.14,0,0,0-6.69,3.06c-1.65,2-2.47,5-2.47,8.7s.82,6.59,2.47,8.64A8.14,8.14,0,0,0,460,88.06q6,0,7.83-5.35h10.64A18,18,0,0,1,472,92.79a18.91,18.91,0,0,1-12,3.73,19.76,19.76,0,0,1-10-2.5,17.59,17.59,0,0,1-6.84-7,21.94,21.94,0,0,1-2.47-10.61A21.93,21.93,0,0,1,443.21,65.76Z"/><path class="cls-2" d="M522.57,56.84V95.89h-9.94V91a13,13,0,0,1-5,4A15.44,15.44,0,0,1,501,96.38a16.45,16.45,0,0,1-8.1-1.94,13.63,13.63,0,0,1-5.54-5.71,18.93,18.93,0,0,1-2-9V56.84h9.86v21.5q0,4.65,2.33,7.15a8.22,8.22,0,0,0,6.34,2.5,8.34,8.34,0,0,0,6.42-2.5q2.32-2.51,2.32-7.15V56.84Z"/><path class="cls-2" d="M547.13,58a13.89,13.89,0,0,1,7-1.76V66.64h-2.61q-4.65,0-7,2.18t-2.36,7.62V95.89H532.3v-39h9.86V62.9A13.93,13.93,0,0,1,547.13,58Z"/><path class="cls-2" d="M596.79,79.32H568.24a9.74,9.74,0,0,0,3,6.63,9.13,9.13,0,0,0,6.41,2.4,8.06,8.06,0,0,0,7.83-4.73h10.64a17.82,17.82,0,0,1-6.48,9.27,18.94,18.94,0,0,1-11.77,3.63A20.36,20.36,0,0,1,567.71,94a17.59,17.59,0,0,1-7-7.08,21.72,21.72,0,0,1-2.51-10.58,22.06,22.06,0,0,1,2.47-10.64,17.26,17.26,0,0,1,6.91-7,22.23,22.23,0,0,1,20.19-.07,16.92,16.92,0,0,1,6.84,6.81,20.55,20.55,0,0,1,2.43,10.11A24.06,24.06,0,0,1,596.79,79.32Zm-9.94-6.62a7.86,7.86,0,0,0-2.75-6.1,9.79,9.79,0,0,0-6.56-2.29,8.93,8.93,0,0,0-6.16,2.22,9.79,9.79,0,0,0-3.07,6.17Z"/><path class="cls-3" d="M137.26,25.93V66.84c0,18.48-4,50-50.24,68.91-46.22-23-50.23-54.81-50.24-73.28V21.56L87,9.32Z"/><path class="cls-4" d="M133.85,28.13V69.05c0,18.47-4,50-50.23,68.9C37.4,115,33.38,83.15,33.38,64.67V23.76L83.6,11.52Z"/><path class="cls-4" d="M133.85,28.13V69.05c0,18.47-4,50-50.23,68.9C37.4,115,33.38,83.15,33.38,64.67V23.76L83.6,11.52Z"/><g class="cls-5"><g class="cls-6"><line class="cls-7" x1="79.48" y1="8.56" x2="83.44" y2="8.26"/><path class="cls-7" d="M77.29,16.45s9.17-3.53,14.45,1.65,4.38,11.54,7.61,20.68,11,19.69,23.32,23.46a26.49,26.49,0,0,0,14.6.31"/><path class="cls-7" d="M98.32,15.72a27.39,27.39,0,0,1,5,10.28"/><ellipse class="cls-7" cx="103.93" cy="29.91" rx="3.56" ry="3.84" transform="translate(-4.2 31.87) rotate(-17.09)"/><ellipse class="cls-7" cx="52.54" cy="35.63" rx="3.56" ry="3.84" transform="translate(-8.15 17.02) rotate(-17.09)"/><ellipse class="cls-7" cx="41.39" cy="48.14" rx="3.56" ry="3.84" transform="translate(-12.32 14.29) rotate(-17.09)"/><ellipse class="cls-7" cx="69.93" cy="76.12" rx="3.56" ry="3.84" transform="translate(-19.28 23.91) rotate(-17.09)"/><ellipse class="cls-7" cx="113.51" cy="110.12" rx="3.56" ry="3.84" transform="translate(-27.35 38.23) rotate(-17.09)"/><ellipse class="cls-7" cx="65.99" cy="111.52" rx="3.56" ry="3.84" transform="translate(-29.86 24.32) rotate(-17.09)"/><path class="cls-7" d="M105.56,37.11A27.47,27.47,0,0,0,108,42"/><path class="cls-7" d="M111.46,47.25s5,7.28,12.65,8.91,10.91-.38,12.28-3.65a7.64,7.64,0,0,0-6.7-10.36c-6.77-.7-12.17-6.91-13.39-15.93"/><path class="cls-7" d="M124.16,28.26a8.93,8.93,0,0,0,4.69,5.61c3.88,1.91,6.48,2.47,8.41,3.92"/><path class="cls-7" d="M109,23a87.87,87.87,0,0,0,2.46,11c1.46,4.54,5.86,11.83,12.71,14.15A21.23,21.23,0,0,0,131,49.32"/><path class="cls-7" d="M116.12,66.94s5.36,3.67,18.94,3.13"/><path class="cls-7" d="M94.84,45s3.4,9.31,10.29,14.65"/><ellipse class="cls-7" cx="108.1" cy="62.26" rx="3.13" ry="3.37" transform="translate(-13.52 34.52) rotate(-17.09)"/><path class="cls-7" d="M83.6,29.5a55,55,0,0,0,3.81,14.76c3.19,7.65,5.89,14,18.16,24.75,8.49,7.42,21.48,8.3,28.68,8.14"/><path class="cls-7" d="M92.5,39s-1.67-7.39-2.33-10.76-3.53-6.65-7.6-6-6,4.1-5.29,9.35S80.84,49,87.53,58.84,107.18,84,132.42,84.24"/><line class="cls-7" x1="72.39" y1="13.28" x2="74.47" y2="14.26"/><line class="cls-7" x1="64.81" y1="17.64" x2="72.91" y2="21.02"/><path class="cls-7" d="M44.92,20.81s22.24,4.93,26.52,7.09"/><path class="cls-7" d="M31.71,27.55S53.92,24.12,74,37.12"/><path class="cls-7" d="M31.25,34.74A86.63,86.63,0,0,1,49,34.81"/><path class="cls-7" d="M60.37,37.92s9,3.42,15.56,8.38"/><path class="cls-7" d="M95.07,129.78a44.18,44.18,0,0,1-5.7,9.28"/><path class="cls-7" d="M93.55,76.69A65.64,65.64,0,0,1,100,102.52a57.94,57.94,0,0,1-3,22.62"/><path class="cls-7" d="M31.25,41.65s21-4.17,39.54,9.35C79,57,85.41,63.43,90.12,70.67"/><path class="cls-8" d="M37.58,48a49.25,49.25,0,0,0-5.87.67"/><path class="cls-8" d="M74.09,61.12A52.1,52.1,0,0,0,48.9,48.72"/><path class="cls-8" d="M81.23,139.54a54.06,54.06,0,0,0,12.33-34.88A58.41,58.41,0,0,0,79.83,67"/><path class="cls-8" d="M86.85,106.23c0-.61,0-1.24,0-1.86,0-26.16-20-48.23-44.62-49.3a41.15,41.15,0,0,0-9.79.72"/><path class="cls-8" d="M75.68,135.27a46.16,46.16,0,0,0,10.55-22.82"/><path class="cls-8" d="M62.25,68.64a37.79,37.79,0,0,0-20-6.85,36,36,0,0,0-9.79.92"/><path class="cls-8" d="M70.47,131.13a40.2,40.2,0,0,0,10.08-27,43.78,43.78,0,0,0-8-25.23"/><path class="cls-8" d="M70.27,89.26c-5-11.25-15.68-19.32-28-19.85a28.74,28.74,0,0,0-8.13.78"/><path class="cls-8" d="M64.88,126.09a32.58,32.58,0,0,0,8.49-22.31,35.46,35.46,0,0,0-1.21-9.21"/><path class="cls-8" d="M67.07,103.51v-.58c-.3-14.29-11.29-26.25-24.81-26.83a23,23,0,0,0-7,.75"/><path class="cls-8" d="M60.26,121.34A25.18,25.18,0,0,0,64.57,115"/><path class="cls-8" d="M37.45,83.68a17,17,0,0,1,4.81-.48c10,.44,18.12,9.4,18.12,20a19,19,0,0,1-4.56,12.55l-2.09,1.85"/><path class="cls-8" d="M40.63,90.86a11.14,11.14,0,0,1,1.64-.06c6,.27,10.94,5.68,10.95,12.1a11.7,11.7,0,0,1-1.89,6.45l-2.49,3.29"/><path class="cls-8" d="M47.08,102.64a5.24,5.24,0,0,0-4.81-5.33"/><path class="cls-8" d="M102.77,82.32A97.86,97.86,0,0,1,106.27,97"/><path class="cls-8" d="M106.73,102.68s.8,15-4,26.69"/><path class="cls-8" d="M110.19,83.72a148,148,0,0,1,3,17.12"/><line class="cls-8" x1="112.97" y1="114.48" x2="112.1" y2="120.53"/><path class="cls-8" d="M118,87.41a131.47,131.47,0,0,1,2.09,22"/><path class="cls-8" d="M124.75,88.39s.69,3.86,1.56,10.56"/></g></g><polygon class="cls-9" points="33.38 23.76 36.79 21.56 87.01 9.32 83.6 11.52 33.38 23.76"/><path class="cls-10" d="M127.85,33.7v36c0,16.26-3.54,44-44.24,60.68C42.91,110.2,39.38,82.14,39.38,65.87v-36L83.6,19.06Z"/><polygon class="cls-11" points="114.53 42.31 114.52 92.13 97.93 107.2 97.94 71.77 83.67 86.88 69.73 64.27 69.71 106.23 52.69 89.76 52.71 36.69 69.74 42.37 83.68 62.63 98.48 40.34 98.51 40.34 114.53 42.31"/><polygon class="cls-12" points="97.94 71.77 114.53 54.41 114.52 73.98 97.94 85.76 97.94 71.77"/><polygon class="cls-13" points="69.73 64.27 52.71 36.69 52.7 61.02 69.72 74.83 69.73 64.27"/><path class="cls-14" d="M99.3,97.22c-43.79,21.3-84.16,28.54-90.19,16.18-3.72-7.64,6.55-21,25.26-35.08.06.34.11.69.17,1-15.32,12.54-23.48,24.09-20.61,30,4.94,10.16,42,2.34,82.69-17.47s69.74-44.12,64.8-54.29c-2.22-4.58-11.22-6-24.16-4.44v-1.5c16.05-2.81,27.45-1.5,30.42,4.62C173.7,48.62,143.08,75.92,99.3,97.22Z"/><path class="cls-15" d="M133,81.82A70.57,70.57,0,0,1,131.63,89,240.43,240.43,0,0,1,99,108a232.56,232.56,0,0,1-38.76,15c-1.55-1.3-3-2.61-4.37-3.92a233.8,233.8,0,0,0,40.82-15.69A237.12,237.12,0,0,0,133,81.82Z"/><polygon class="cls-16" points="133.02 81.82 136.08 81.82 134.62 88.35 131.63 88.96 133.02 81.82"/></svg>