<?xml version="1.0" encoding="UTF-8"?><svg id="a" xmlns="http://www.w3.org/2000/svg" xmlns:xlink="http://www.w3.org/1999/xlink" viewBox="0 0 100 100"><defs><style>.f{fill:#00816d;}.g{fill:#4b3db6;}.h{fill:#ffe01b;}.i{stroke:#4b3db6;}.i,.j,.k,.l{stroke-miterlimit:10;}.i,.j,.l{fill:none;}.i,.l{stroke-width:2.06px;}.m{fill:#3eb096;}.n{fill:url(#d);}.o{fill:url(#e);}.j{stroke:#1c1e21;stroke-width:1.28px;}.k{filter:url(#b);stroke:#004f40;stroke-width:1.18px;}.k,.p{fill:#feffff;}.p{opacity:.25;}.q{fill:#005b4a;}.l{stroke:#3eb096;}</style><filter id="b" filterUnits="userSpaceOnUse"><feOffset dx="0" dy="2.33"/><feGaussianBlur result="c" stdDeviation="1.67"/><feFlood flood-color="#000" flood-opacity="1"/><feComposite in2="c" operator="in"/><feComposite in="SourceGraphic"/></filter><linearGradient id="d" x1="852.18" y1="1181.94" x2="852.18" y2="1171.91" gradientTransform="translate(-764.43 -1160.96)" gradientUnits="userSpaceOnUse"><stop offset="0" stop-color="#000" stop-opacity="0"/><stop offset=".73" stop-color="#231f20"/></linearGradient><linearGradient id="e" x1="872.56" x2="872.56" gradientTransform="translate(-805.2 -1160.96)" xlink:href="#d"/></defs><polyline class="j" points="94.16 45.59 94.16 96.02 5.54 96.02 5.54 12.88"/><polygon class="g" points="67.36 12.88 4.97 12.88 4.97 4.43 71.28 4.43 67.36 12.88"/><g><rect class="g" x="9.59" y="21.38" width="15.06" height="4.76" rx="2.38" ry="2.38"/><rect class="h" x="9.59" y="33.67" width="21.47" height="4.76" rx="2.38" ry="2.38"/><rect class="h" x="35.99" y="33.67" width="9.27" height="4.76" rx="2.38" ry="2.38"/><rect class="g" x="9.59" y="43.21" width="21.47" height="4.76" rx="2.38" ry="2.38"/><rect class="g" x="35.99" y="43.21" width="11.83" height="4.76" rx="2.38" ry="2.38"/></g><g><polygon class="m" points="19.1 55.4 9.49 72.05 28.72 72.05 19.1 55.4"/><polygon class="g" points="42.91 55.4 33.29 72.05 52.52 72.05 42.91 55.4"/><polygon class="g" points="19.2 77.75 9.59 94.4 28.82 94.4 19.2 77.75"/><polyline class="l" points="54.34 92.3 44.72 79.84 35.11 92.3"/><polyline class="i" points="80.78 92.3 71.17 79.84 61.55 92.3"/><path class="h" d="M84.44,68.04h-24.04c-1.49,0-2.46-.97-2.46-2.16h0c0-1.19,.97-2.16,2.16-2.16h24.04c1.19,0,2.16,.97,2.16,2.16h0c0,1.19-.97,2.16-1.86,2.16Z"/></g><g><rect class="f" x="57.67" y="21.13" width="39.78" height="36.29" rx="2.74" ry="2.74"/><path class="q" d="M78.93,45.06l2.25,5.75h-7.24l2.25-5.75c-1.66-.57-2.85-2.14-2.85-4,0-2.33,1.89-4.23,4.23-4.23s4.22,1.89,4.22,4.23c0,1.85-1.19,3.43-2.85,4Z"/><path class="k" d="M78.93,41.34l2.25,5.75h-7.24l2.25-5.75c-1.66-.57-2.85-2.14-2.85-4,0-2.33,1.89-4.23,4.23-4.23s4.22,1.89,4.22,4.23c0,1.85-1.19,3.43-2.85,4Z"/><path class="p" d="M97.44,40.59v5.91c-5.28,0-9.56,4.28-9.56,9.56,0,.47,.03,.92,.1,1.37h-5.95c-.04-.45-.06-.91-.06-1.37,0-8.54,6.92-15.46,15.46-15.47Z"/><path class="p" d="M73.33,23.82c0,8.54-6.92,15.46-15.46,15.46-.07,0-.13,0-.2,0v-4.93c.07,0,.13,0,.2,0,5.82,0,10.53-4.72,10.53-10.53,0-.93-.12-1.83-.35-2.68h5.05c.15,.87,.23,1.77,.23,2.68Z"/><path class="f" d="M90.24,13.49v7.65h-4.99v-7.65c0-4.25-3.45-7.7-7.7-7.7s-7.7,3.45-7.7,7.7v7.65h-4.99v-7.65c0-7,5.68-12.68,12.69-12.68s12.69,5.68,12.69,12.68Z"/><rect class="n" x="85.26" y="19.04" width="4.99" height="2.1" transform="translate(175.5 40.17) rotate(180)"/><rect class="o" x="64.87" y="19.04" width="4.99" height="2.1" transform="translate(134.72 40.17) rotate(180)"/></g></svg>