<svg id="Layer_1" data-name="Layer 1" xmlns="http://www.w3.org/2000/svg" viewBox="0 0 150 150"><defs><style>.cls-1{fill:#573bd3;}.cls-2{fill:#3d2db2;}.cls-3{fill:#fff;}.cls-4{fill:#231f20;opacity:0.5;}.cls-5,.cls-8{fill:none;stroke-miterlimit:10;}.cls-5{stroke:#1c1e21;}.cls-6{fill:#3eb096;}.cls-7{fill:#fbe104;}.cls-8{stroke:#fff;stroke-width:2.08px;}</style></defs><path class="cls-1" d="M59.7,7.11s-19.31,37.44-55,39.76c0,0,3.35,59.8,63.61,92.3Z"/><path class="cls-2" d="M59.7,7.11s24,34.62,59.71,32.3c0,0,4.43,59.74-51.13,99.76Z"/><polygon class="cls-3" points="98.92 43.99 65.57 101.17 33.54 85.67 50.12 63.95 63.76 80.11 98.92 43.99"/><polygon class="cls-4" points="103.85 38.91 65.73 104.29 31.86 87.89 31.87 87.88 33.61 85.59 65.64 101.09 98.99 43.91 103.81 38.95 103.85 38.91"/><path class="cls-4" d="M114.37,75.34A119.94,119.94,0,0,1,76.24,133a37,37,0,0,1,38.13-57.64Z"/><polygon class="cls-5" points="117.73 47.05 94.82 33.74 90.82 11.38 130.17 17.4 142.04 26.25 117.73 47.05"/><polyline class="cls-5" points="142.04 26.25 107.48 29.8 90.82 11.38"/><polyline class="cls-5" points="117.73 47.05 107.48 29.8 130.17 17.4"/><line class="cls-5" x1="94.82" y1="33.74" x2="107.48" y2="29.8"/><circle class="cls-6" cx="139.56" cy="27.08" r="5.77"/><circle class="cls-6" cx="90.82" cy="11.38" r="3.26"/><circle class="cls-7" cx="106.32" cy="111.45" r="31.43"/><circle class="cls-7" cx="106.32" cy="111.45" r="31.43"/><polygon class="cls-2" points="101.43 134.58 101.43 94.86 87.2 109.1 96.05 109.1 96.05 134.58 101.43 134.58"/><polygon class="cls-2" points="118.85 128.91 118.85 89.19 104.61 103.42 113.47 103.42 113.47 128.91 118.85 128.91"/><path class="cls-8" d="M79.93,130.21s-14.26-20,2-39.66c9.78-11.82,22.68-12.32,31.44-10.82"/></svg>