<svg id="Layer_1" data-name="Layer 1" xmlns="http://www.w3.org/2000/svg" viewBox="0 0 150 150"><defs><style>.cls-1{fill:#3d2db2;}.cls-2{fill:#ffe01b;}.cls-3{fill:#fff;opacity:0.5;}.cls-4{fill:none;stroke:#1c1e21;stroke-miterlimit:10;}</style></defs><path class="cls-1" d="M75,19.09s-22.7,0-37,9.14c0,0,5.26,20.21-14.61,18.87,0,0-7.12,75.79,51.61,87.92"/><path class="cls-2" d="M75,19.09s22.7,0,37,9.14c0,0-5.27,20.21,14.6,18.87,0,0,7.12,75.79-51.61,87.92"/><circle class="cls-3" cx="75" cy="77.06" r="34.59"/><path class="cls-4" d="M75,146.63C4.51,132.07,13.05,41.09,13.05,41.09c23.86,1.62,17.53-22.64,17.53-22.64C47.75,7.53,75,7.48,75,7.48s27.25,0,44.42,11c0,0-6.33,24.26,17.53,22.64C137,41.09,145.49,132.07,75,146.63Z"/><path class="cls-1" d="M84.22,85.28l1.22,1.5c.33.4.66.82,1.09,1.36a14.92,14.92,0,0,0,4.06-13.27c-1.3-7.12-5.8-11.35-13-13.09l1.2-7.72c8.54,1.76,14.68,6.35,17.94,14.24,4,9.72,1.79,18.42-5.28,26.16l2.37,3.09L78.42,99.78C80.38,94.87,82.26,90.19,84.22,85.28Z"/><path class="cls-2" d="M58.84,60.22l-2.35-3.1L72,55,66.1,69.44l-2.23-2.76c-7.15,6.57-6.17,21.91,7.58,26.06l-1.78,7.55c-7.28-1.9-12.73-6-15.77-12.79C49.37,77.42,51.43,68.32,58.84,60.22Z"/></svg>