<svg id="Layer_1" data-name="Layer 1" xmlns="http://www.w3.org/2000/svg" viewBox="0 0 150 150"><defs><style>.cls-1{fill:#ffe01b;}.cls-2{fill:#573bd3;}.cls-3,.cls-5,.cls-8{fill:none;stroke-miterlimit:10;}.cls-3{stroke:#573bd3;}.cls-4{fill:#3eb096;}.cls-5{stroke:#ffe01b;stroke-width:2.18px;}.cls-6{fill:#00816d;}.cls-7{opacity:0.5;}.cls-8{stroke:#fff;}</style></defs><polygon class="cls-1" points="87.64 27.48 96.21 11.37 79.56 11.4 87.64 27.48"/><polygon class="cls-2" points="67.03 27.52 75.59 11.41 58.94 11.45 67.03 27.52"/><polygon class="cls-2" points="13.88 27.63 22.44 11.52 5.79 11.55 13.88 27.63"/><path class="cls-2" d="M125.56,18.12l23.31,0a.63.63,0,0,1,.61.69h0a.67.67,0,0,1-.63.69l-23.31.05a.65.65,0,0,1-.62-.69h0A.68.68,0,0,1,125.56,18.12Z"/><path class="cls-2" d="M29.3,18.32l23.31-.05a.65.65,0,0,1,.61.69h0a.68.68,0,0,1-.63.7l-23.32,0a.64.64,0,0,1-.61-.69h0A.68.68,0,0,1,29.3,18.32Z"/><polygon class="cls-2" points="98.24 27.45 96.59 27.46 104.44 11.35 106.09 11.35 98.24 27.45"/><polygon class="cls-2" points="105.59 27.44 103.94 27.44 111.8 11.34 113.45 11.34 105.59 27.44"/><polygon class="cls-2" points="112.95 27.43 111.3 27.43 119.15 11.32 120.8 11.32 112.95 27.43"/><polygon class="cls-2" points="108.75 58.94 117.31 42.83 100.67 42.87 108.75 58.94"/><polygon class="cls-2" points="88.14 58.98 96.7 42.88 80.05 42.91 88.14 58.98"/><polygon class="cls-1" points="34.98 59.09 43.55 42.98 26.9 43.02 34.98 59.09"/><path class="cls-2" d="M50.4,49.78l23.31-.05a.66.66,0,0,1,.62.7h0a.68.68,0,0,1-.64.69l-23.31.05a.65.65,0,0,1-.61-.69h0A.68.68,0,0,1,50.4,49.78Z"/><polygon class="cls-2" points="119.35 58.92 117.7 58.92 125.55 42.82 127.2 42.81 119.35 58.92"/><polygon class="cls-2" points="126.7 58.9 125.05 58.91 132.9 42.8 134.55 42.8 126.7 58.9"/><polyline class="cls-3" points="26.41 87.22 34.49 103.29 43.06 87.18"/><polyline class="cls-3" points="5.79 87.26 13.88 103.33 22.44 87.22"/><polygon class="cls-2" points="109.42 103.44 117.99 87.33 101.34 87.36 109.42 103.44"/><path class="cls-2" d="M124.84,94.13l23.31,0a.64.64,0,0,1,.61.69h0a.66.66,0,0,1-.63.7l-23.31,0a.65.65,0,0,1-.61-.7h0A.67.67,0,0,1,124.84,94.13Z"/><polygon class="cls-2" points="45.09 103.27 43.44 103.27 51.29 87.17 52.94 87.16 45.09 103.27"/><polygon class="cls-4" points="52.45 103.25 50.8 103.25 58.65 87.15 60.3 87.15 52.45 103.25"/><polygon class="cls-1" points="127.23 137.06 135.8 120.95 119.15 120.99 127.23 137.06"/><polygon class="cls-2" points="74.08 137.17 82.65 121.06 66 121.09 74.08 137.17"/><polyline class="cls-5" points="35.75 121.16 43.83 137.23 52.4 121.12"/><polyline class="cls-5" points="12.85 121.2 20.93 137.28 29.5 121.17"/><path class="cls-2" d="M89.5,127.86l23.31,0a.64.64,0,0,1,.61.69h0a.66.66,0,0,1-.63.7l-23.31.05a.65.65,0,0,1-.61-.7h0A.67.67,0,0,1,89.5,127.86Z"/><path class="cls-4" d="M72.24,24.37S56,55.79,26,57.74c0,0,2.81,50.22,53.41,77.5"/><path class="cls-6" d="M72.24,24.37s20.15,29.06,50.14,27.11c0,0,3.71,50.15-42.93,83.76"/><g class="cls-7"><path class="cls-8" d="M78.89,128.44C34.5,104.5,32,60.45,32,60.45c26.31-1.71,40.53-29.28,40.53-29.28s17.67,25.5,44,23.79C116.55,55,119.81,99,78.89,128.44Z"/></g></svg>