<svg id="Layer_1" data-name="Layer 1" xmlns="http://www.w3.org/2000/svg" xmlns:xlink="http://www.w3.org/1999/xlink" viewBox="0 0 500 360"><defs><style>.cls-1{fill:url(#linear-gradient);}.cls-2{fill:url(#linear-gradient-2);}.cls-3{fill:url(#linear-gradient-3);}.cls-4{fill:url(#linear-gradient-4);}.cls-27,.cls-31,.cls-5,.cls-9{fill:none;}.cls-5{stroke:#3f2d10;stroke-width:0.9px;}.cls-31,.cls-5,.cls-9{stroke-miterlimit:10;}.cls-6{fill:#ff9852;}.cls-7{fill:#16b798;}.cls-8{fill:#655fd6;}.cls-31,.cls-9{stroke:#1c1e21;}.cls-9{stroke-width:0.75px;}.cls-10{fill:#f44545;}.cls-11{fill:#d8b627;}.cls-12{fill:#c4a422;}.cls-13{fill:#ffe01b;}.cls-14{fill:#34c6aa;}.cls-15{fill:#17a388;}.cls-16{fill:#24d3b2;}.cls-17,.cls-29{fill:#fff;}.cls-18{fill:#157764;}.cls-19{fill:url(#linear-gradient-5);}.cls-20{fill:url(#linear-gradient-6);}.cls-21{fill:#f1f2f2;}.cls-22{fill:#0562e8;}.cls-23{fill:#ed9a15;}.cls-24{fill:#a7a9ac;}.cls-25{fill:#a8c6cc;}.cls-26{fill:#3dba85;}.cls-27{stroke:#fff;stroke-linecap:round;stroke-linejoin:round;stroke-width:1.36px;}.cls-28{fill:#00816d;}.cls-29,.cls-30{opacity:0.25;}.cls-30{fill:#231f20;}.cls-31{stroke-width:2px;}</style><linearGradient id="linear-gradient" x1="3241.77" y1="310.05" x2="3201.35" y2="313.48" gradientTransform="matrix(-1, 0, 0, 1, 3258.27, 0)" gradientUnits="userSpaceOnUse"><stop offset="0.01" stop-color="#786ef4"/><stop offset="1" stop-color="#573bd3"/></linearGradient><linearGradient id="linear-gradient-2" x1="2749.67" y1="357.35" x2="2848.31" y2="312.6" xlink:href="#linear-gradient"/><linearGradient id="linear-gradient-3" x1="2835.46" y1="302.94" x2="2903.95" y2="301.11" xlink:href="#linear-gradient"/><linearGradient id="linear-gradient-4" x1="3176" y1="368.3" x2="2808.87" y2="153.68" xlink:href="#linear-gradient"/><linearGradient id="linear-gradient-5" x1="417.17" y1="87.66" x2="468.44" y2="87.66" gradientUnits="userSpaceOnUse"><stop offset="0" stop-color="#f4cd2a"/><stop offset="1" stop-color="#d28d0d"/></linearGradient><linearGradient id="linear-gradient-6" x1="417.17" y1="101.57" x2="468.44" y2="101.57" xlink:href="#linear-gradient-5"/></defs><path class="cls-1" d="M130.3,344.88H18.51A15.87,15.87,0,0,1,3.4,324.07a65.15,65.15,0,0,1,126.9,20.81Z"/><path class="cls-2" d="M481.43,344.88H369.65a65.14,65.14,0,0,1,126.89-20.81A15.86,15.86,0,0,1,481.43,344.88Z"/><path class="cls-3" d="M434.77,344.86a90.41,90.41,0,1,0-180.81,0"/><path class="cls-4" d="M344.37,344.86a148.91,148.91,0,0,0-297.81,0"/><polygon class="cls-5" points="73.74 230.26 27.96 235.06 30.25 191.52 40.04 213.49 73.74 230.26"/><line class="cls-5" x1="27.96" y1="235.07" x2="40.04" y2="213.49"/><circle class="cls-6" cx="28.83" cy="234.98" r="3.83"/><circle class="cls-7" cx="40.32" cy="212.85" r="3.83"/><circle class="cls-8" cx="73.62" cy="230.52" r="3.83"/><circle class="cls-7" cx="30.25" cy="191.52" r="3.83"/><polygon class="cls-9" points="228.62 54.69 272.02 63.84 257.03 103.08 254.55 80.04 228.62 54.69"/><line class="cls-9" x1="272.02" y1="63.84" x2="254.55" y2="80.04"/><circle class="cls-6" cx="271.2" cy="63.66" r="3.69"/><circle class="cls-7" cx="254.11" cy="80.55" r="3.69"/><circle class="cls-8" cx="228.8" cy="54.49" r="3.69"/><circle class="cls-7" cx="257.03" cy="103.08" r="3.69"/><polyline class="cls-9" points="375.31 141.51 375.31 187.7 345.02 187.7 345.02 253.91"/><polyline class="cls-9" points="389.62 141.55 389.62 201.5 359.33 201.5 359.33 255.01"/><circle class="cls-10" cx="389.62" cy="177.58" r="5.05"/><circle class="cls-7" cx="361.15" cy="187.69" r="5.05"/><path class="cls-11" d="M324.74,141.53h-47.1a6.68,6.68,0,0,1-6.37-8.76,27.45,27.45,0,0,1,53.47,8.76Z"/><path class="cls-12" d="M472.69,141.53h-47.1a27.45,27.45,0,0,1,53.47-8.76A6.68,6.68,0,0,1,472.69,141.53Z"/><path class="cls-11" d="M453,141.53a38.1,38.1,0,1,0-76.19,0"/><path class="cls-13" d="M414.94,141.53a62.75,62.75,0,1,0-125.49,0"/><path class="cls-14" d="M335,48H440.67A4.32,4.32,0,0,1,445,52.34v74.85a0,0,0,0,1,0,0H330.7a0,0,0,0,1,0,0V52.34A4.32,4.32,0,0,1,335,48Z"/><rect class="cls-15" x="296.66" y="127.19" width="148.33" height="4.35"/><rect class="cls-16" x="330.7" y="112.94" width="114.29" height="14.25"/><rect class="cls-17" x="335.36" y="53.44" width="104.97" height="69.98" rx="0.93"/><circle class="cls-17" cx="387.84" cy="51.07" r="0.98"/><path class="cls-18" d="M359.59,127.19h29.81a0,0,0,0,1,0,0v1a1.22,1.22,0,0,1-1.22,1.22H360.82a1.22,1.22,0,0,1-1.22-1.22v-1A0,0,0,0,1,359.59,127.19Z"/><rect class="cls-19" x="417.17" y="82.32" width="51.27" height="10.69"/><rect class="cls-20" x="417.17" y="96.22" width="51.27" height="10.69"/><rect class="cls-10" x="417.17" y="69.14" width="51.27" height="10.69"/><circle class="cls-21" cx="422.27" cy="87.66" r="3.23"/><circle class="cls-21" cx="431.24" cy="87.66" r="3.23"/><circle class="cls-21" cx="422.27" cy="101.77" r="3.23"/><circle class="cls-21" cx="431.24" cy="101.77" r="3.23"/><circle class="cls-21" cx="422.27" cy="74.47" r="3.23"/><circle class="cls-21" cx="431.24" cy="74.47" r="3.23"/><circle class="cls-22" cx="422.27" cy="87.66" r="1.73"/><circle class="cls-23" cx="431.24" cy="87.66" r="1.73"/><circle class="cls-24" cx="422.27" cy="101.77" r="1.73"/><circle class="cls-25" cx="422.27" cy="74.47" r="1.73"/><circle class="cls-22" cx="431.24" cy="101.77" r="1.73"/><circle class="cls-26" cx="431.24" cy="74.47" r="1.73"/><path class="cls-17" d="M442.31,86.68h11.62a.94.94,0,0,1,.95.95h0a1,1,0,0,1-.95,1H442.31a1,1,0,0,1-1-1h0a1,1,0,0,1,.95-1h0Z"/><path class="cls-17" d="M442.31,100.81h11.62a1,1,0,0,1,.95,1h0a1,1,0,0,1-.95,1H442.31a1,1,0,0,1-1-1h0A1,1,0,0,1,442.31,100.81Z"/><path class="cls-17" d="M457.87,100.81h6.59a1,1,0,0,1,1,1h0a1,1,0,0,1-1,1h-6.59a1,1,0,0,1-.95-1h0A1,1,0,0,1,457.87,100.81Z"/><path class="cls-17" d="M457.87,86.68h6.59a1,1,0,0,1,1,.95h0a1,1,0,0,1-1,1h-6.59a1,1,0,0,1-.95-1h0A1,1,0,0,1,457.87,86.68Z"/><path class="cls-17" d="M457.87,73.54h6.59a1,1,0,0,1,1,.95h0a1,1,0,0,1-.95,1h-6.6a1,1,0,0,1-.95-1h0A1,1,0,0,1,457.87,73.54Z"/><path class="cls-17" d="M442.31,73.54h11.62a1,1,0,0,1,.95.95h0a1,1,0,0,1-.95,1H442.31a1,1,0,0,1-1-1h0a1,1,0,0,1,.95-1Z"/><rect class="cls-8" x="344.95" y="60.88" width="59.09" height="18.08" rx="4.43" transform="translate(748.87 140.5) rotate(-179.9)"/><line class="cls-27" x1="370.91" y1="67.71" x2="392.58" y2="67.75"/><line class="cls-27" x1="370.9" y1="72.11" x2="398.37" y2="72.16"/><circle class="cls-17" cx="354.84" cy="68.88" r="2.58"/><rect class="cls-28" x="344.95" y="86.3" width="59.09" height="18.08" rx="4.43" transform="translate(748.82 191.36) rotate(-179.9)"/><line class="cls-27" x1="370.91" y1="93.13" x2="392.58" y2="93.17"/><line class="cls-27" x1="370.9" y1="97.54" x2="398.37" y2="97.58"/><circle class="cls-17" cx="354.84" cy="94.31" r="2.58"/><rect class="cls-15" x="305.78" y="72.14" width="37.87" height="23.23"/><polygon class="cls-29" points="305.78 72.14 324.71 83.76 343.65 72.14 305.78 72.14"/><path class="cls-30" d="M87.24,242.61s21.94,25,41.84,34.47c0,0,32.66-11.88,83.36-80.17C212.44,196.91,142.53,184.63,87.24,242.61Z"/><path class="cls-13" d="M130.33,21.61S90.57,87,25.52,86.66c0,0-1.55,108.84,103.56,175.42"/><path class="cls-31" d="M129.08,262.08C234.88,196.6,234.46,87.75,234.46,87.75c-65.05-.34-104.13-66.14-104.13-66.14Z"/><circle class="cls-7" cx="129.31" cy="261.12" r="6.5"/><circle class="cls-7" cx="130.33" cy="21.61" r="6.5"/><circle class="cls-7" cx="25.52" cy="87.22" r="6.5"/><circle class="cls-7" cx="234.46" cy="87.22" r="6.5"/></svg>