<svg id="Layer_1" data-name="Layer 1" xmlns="http://www.w3.org/2000/svg" viewBox="0 0 70 70"><defs><style>.cls-1{fill:none;stroke:#1c1e21;stroke-linejoin:bevel;stroke-width:2.75px;}</style></defs><path class="cls-1" d="M9,53.7A32,32,0,0,1,29.41,3.5"/><path class="cls-1" d="M29.41,66.5a31.82,31.82,0,0,1-17.27-9.12"/><path class="cls-1" d="M40.6,3.5A31.41,31.41,0,0,1,53.7,9"/><path class="cls-1" d="M57.38,12.14A32,32,0,0,1,40.6,66.5"/><path class="cls-1" d="M21.43,16.16A23.22,23.22,0,0,1,57.86,30.94"/><path class="cls-1" d="M12.14,30.94a23.09,23.09,0,0,1,6.62-12.53"/><path class="cls-1" d="M57.86,39.07a23,23,0,0,1-4,9.5"/><path class="cls-1" d="M51.59,51.24A23.21,23.21,0,0,1,12.14,39.07"/><rect class="cls-1" x="25.63" y="25.35" width="19.3" height="19.3" transform="translate(35.08 -14.7) rotate(45)"/></svg>