<svg xmlns="http://www.w3.org/2000/svg" width="172.207" height="123.564" viewBox="0 0 172.207 123.564">
  <g id="Cloud_Native_Security_08_Icon-Fill-Container" data-name="Cloud Native Security_08_Icon-Fill-Container" transform="translate(-17.09 -48.7)">
    <path id="Path_31258" data-name="Path 31258" d="M46.96,41.32" transform="translate(30.762 37.988)" fill="none" stroke="#3f2d10" stroke-linecap="round" stroke-width="1.33"/>
    <circle id="Ellipse_716" data-name="Ellipse 716" cx="5.555" cy="5.555" r="5.555" transform="translate(64.197 159.833)" fill="#3eb096"/>
    <path id="Path_13676" data-name="Path 13676" d="M17.128,112.637c1.093-2.987,2.962-5.084,6.356-5.389a24.508,24.508,0,0,1,3.813,0c1,0,1.271-.267,1.271-1.271V91.791c0-2.733,1.4-4.106,4.157-4.118H48.067c1.271,0,1.487-.369,1.462-1.525V72.393c0-2.809,1.4-4.195,4.22-4.207h36.57c1.169,0,1.525-.267,1.513-1.474-.076-4.487,0-8.987,0-13.474,0-3.19,1.36-4.538,4.525-4.538H111.61c3.407,0,4.678,1.208,4.69,4.64V85.867c0,1.462.381,1.818,1.83,1.792,5.084-.1,10.169,0,15.253,0,2.784,0,4.157,1.271,4.195,4.106.076,4.678,0,9.355,0,13.982,0,1.055.165,1.385,1.347,1.271a34.676,34.676,0,0,0,8.9-2.364c.559-.254.813-.445.419-1.131-4.856-8.555-3.89-17.1.178-25.6a36.293,36.293,0,0,1,2.758-4.512c.407-.6.686-.813,1.449-.381,7.233,4.118,12.05,10.016,13.728,18.266.229,1.106.788,1.03,1.614.915a33.532,33.532,0,0,1,15.253.941,16.753,16.753,0,0,1,5.453,2.962,1.271,1.271,0,0,1,.483,1.665c-2.695,7.538-8.135,12.152-15.609,14.554a27.468,27.468,0,0,1-9.47,1.271,1.462,1.462,0,0,0-1.652,1.119,108.819,108.819,0,0,1-13.8,25.422c-11.605,15.419-27.087,24.774-45.7,29.235a105.412,105.412,0,0,1-17.8,2.644c-.953.28-1.945-.127-2.885.242h-8.9a10.626,10.626,0,0,0-2.771-.153,68.64,68.64,0,0,1-24.507-4.4c-9.8-3.572-16.69-10.36-21.469-19.486a68.729,68.729,0,0,1-7.156-23.986,35.591,35.591,0,0,1-.216-5.707,13.728,13.728,0,0,0-.14-3.063Z" transform="translate(0 0)" fill="#2854a0"/>
    <path id="Path_13677" data-name="Path 13677" d="M17.362,104.452a.521.521,0,0,1-.242,0V101.3a6.355,6.355,0,0,1,.242,3.152Z" transform="translate(0.008 14.26)" fill="#6685bb"/>
    <path id="Path_13678" data-name="Path 13678" d="M59.08,145.974v-.242a5.174,5.174,0,0,1,2.911.242Z" transform="translate(11.384 26.277)" fill="#7994c4"/>
    <path id="Path_13679" data-name="Path 13679" d="M68.33,145.966a6.356,6.356,0,0,1,2.885-.242v.242Z" transform="translate(13.892 26.286)" fill="#b9c7e0"/>
    <path id="Path_13680" data-name="Path 13680" d="M61.521,144.94a1.513,1.513,0,0,0,.559-2.3c-.61-.966-1.436-.852-2.352-.305-7.779,4.589-16.232,6.012-25.168,5.58-2.949-.14-4.3-1.843-5.631-4a63.4,63.4,0,0,1-8.5-24.939,73.354,73.354,0,0,1-.826-10.8q0-3.813,3.813-3.813H134.94a31.879,31.879,0,0,0,13.83-3.089l.636-.318c2.733-1.538,2.784-1.576,1.131-4.144a19.817,19.817,0,0,1-3.292-10.639,27.253,27.253,0,0,1,4.131-14.643c.419-.712.826-.686,1.373-.28,5.2,3.953,8.9,8.9,9.9,15.482a9.676,9.676,0,0,0,.242,1.271c.292,2.148.28,2.123,2.466,1.691,5.834-1.131,11.618-1.271,17.3.89,2.542.991,2.733,1.271,1.271,3.585a20.973,20.973,0,0,1-14.91,9.9,31.218,31.218,0,0,1-7.385.28,1.754,1.754,0,0,0-2.072,1.373,106.252,106.252,0,0,1-13.982,26.325,72.8,72.8,0,0,1-32.617,24.723,89.448,89.448,0,0,1-22.244,5.478l-7.22.788c.089-.623-.483-.5-.763-.61a43.84,43.84,0,0,1-16.257-10.881,29.719,29.719,0,0,1-4.957-6.6Z" transform="translate(0.68 6.034)" fill="#2495ec"/>
    <path id="Path_13681" data-name="Path 13681" d="M58.3,129.16a1.042,1.042,0,0,1,.636.521,43.993,43.993,0,0,0,22.092,17.071c-.114.394-.534.178-.712.419a136,136,0,0,1-19.067-.508,67.153,67.153,0,0,1-21.228-5.478,30.863,30.863,0,0,1-8.555-6A45.264,45.264,0,0,0,58.3,129.16Z" transform="translate(3.899 21.813)" fill="#fefefe"/>
    <path id="Path_13682" data-name="Path 13682" d="M54.174,66.553H60.9a2,2,0,0,1,2.212,2.072V80.789a1.945,1.945,0,0,1-2.123,2.046H47.107a1.843,1.843,0,0,1-2-1.97v-12.3c0-1.36.661-1.983,2.046-2.008C49.5,66.54,51.835,66.553,54.174,66.553Z" transform="translate(7.595 4.837)" fill="#2495ec"/>
    <path id="Path_13683" data-name="Path 13683" d="M54.143,81.9H60.88c1.627,0,2.237.623,2.25,2.25V95.754c0,1.691-.75,2.428-2.466,2.441H47.622c-1.8,0-2.542-.737-2.542-2.542v-11.3c0-1.919.559-2.542,2.453-2.542Z" transform="translate(7.588 8.976)" fill="#2495ec"/>
    <path id="Path_13684" data-name="Path 13684" d="M70.873,66.55h6.584c1.754,0,2.364.585,2.377,2.275V80.558c0,1.691-.623,2.288-2.364,2.288H64.428c-1.894,0-2.542-.712-2.618-2.542V69.143c0-1.881.725-2.542,2.542-2.542Z" transform="translate(12.124 4.839)" fill="#2495ec"/>
    <path id="Path_13685" data-name="Path 13685" d="M70.945,81.88h6.724c1.551,0,2.174.623,2.186,2.174V95.938a2.021,2.021,0,0,1-2.212,2.224h-13.6a2.008,2.008,0,0,1-2.2-2.25q0-5.873,0-11.745c0-1.741.623-2.275,2.364-2.288Z" transform="translate(12.129 8.995)" fill="#2495ec"/>
    <path id="Path_13686" data-name="Path 13686" d="M37.669,81.884h6.686A1.78,1.78,0,0,1,46.4,83.727a81.681,81.681,0,0,1,0,12.838,1.627,1.627,0,0,1-1.818,1.6H30.678a1.983,1.983,0,0,1-2.046-2.148V84.134c0-1.551.623-2.174,2.161-2.186C33.093,81.859,35.381,81.884,37.669,81.884Z" transform="translate(3.127 8.991)" fill="#2495ec"/>
    <path id="Path_13687" data-name="Path 13687" d="M87.52,66.551H94.1c1.589,0,2.148.585,2.161,2.148V80.711c0,1.551-.572,2.123-2.174,2.135H80.631c-1.6,0-2.148-.585-2.161-2.148V68.687c0-1.551.585-2.123,2.174-2.135C82.957,66.538,85.232,66.551,87.52,66.551Z" transform="translate(16.641 4.838)" fill="#2495ec"/>
    <path id="Path_13688" data-name="Path 13688" d="M87.342,81.88h6.737c1.64,0,2.174.508,2.186,2.1V95.989c0,1.563-.61,2.174-2.161,2.186H80.644c-1.6,0-2.161-.6-2.174-2.148V84.015c0-1.614.534-2.123,2.148-2.135Z" transform="translate(16.641 8.995)" fill="#2495ec"/>
    <path id="Path_13689" data-name="Path 13689" d="M104.017,81.88h6.877c1.513,0,2.059.547,2.059,2.072V95.977c0,1.563-.6,2.186-2.135,2.2H97.356c-1.652,0-2.186-.585-2.186-2.275V84.028c0-1.614.521-2.135,2.123-2.148Z" transform="translate(21.168 8.995)" fill="#2495ec"/>
    <path id="Path_13690" data-name="Path 13690" d="M87.38,67.536H80.644c-1.589,0-2.161-.585-2.174-2.135V53.388c0-1.576.559-2.135,2.161-2.148H94.092c1.6,0,2.161.572,2.174,2.135V65.387c0,1.563-.572,2.123-2.161,2.148C91.855,67.561,89.618,67.536,87.38,67.536Z" transform="translate(16.641 0.689)" fill="#2495ec"/>
    <path id="Path_13691" data-name="Path 13691" d="M61.859,126.487a5.618,5.618,0,1,1,3.982-1.655A5.644,5.644,0,0,1,61.859,126.487Z" transform="translate(10.6 18.029)" fill="#fefefe"/>
    <path id="Path_13692" data-name="Path 13692" d="M49.255,74.02v3.724c0,.483,0,.979-.7,1s-.788-.369-.775-.915V70.092c0-.47.089-.826.686-.852s.788.369.788.915Q49.242,72.075,49.255,74.02Z" transform="translate(8.32 5.568)" fill="#2854a0"/>
    <path id="Path_13693" data-name="Path 13693" d="M53.084,74.019v3.813c0,.508,0,.953-.725.966s-.75-.432-.75-.953V70.206c0-.521,0-.966.737-.966s.737.432.737.953Z" transform="translate(9.359 5.569)" fill="#2854a0"/>
    <path id="Path_13694" data-name="Path 13694" d="M55.45,73.93V70.206c0-.508,0-.966.712-.966s.763.419.763.941v7.627c0,.508,0,.966-.725.979s-.763-.419-.75-.953Z" transform="translate(10.399 5.569)" fill="#2854a0"/>
    <path id="Path_13695" data-name="Path 13695" d="M49.255,89.3v3.724c0,.534,0,1.093-.763,1.068s-.712-.623-.712-1.131V85.681c0-.572-.076-1.271.763-1.271s.7.75.7,1.271C49.255,86.927,49.255,88.122,49.255,89.3Z" transform="translate(8.32 9.681)" fill="#2854a1"/>
    <path id="Path_13696" data-name="Path 13696" d="M53.084,89.352v3.813c0,.559-.14.915-.8.89s-.674-.419-.674-.877v-7.83c0-.534.178-.966.8-.928s.674.458.674.928Z" transform="translate(9.359 9.683)" fill="#2854a1"/>
    <path id="Path_13697" data-name="Path 13697" d="M56.925,89.377V93.1c0,.483,0,.966-.7.991s-.788-.381-.775-.915V85.462c0-.508,0-1.017.7-1.042s.775.547.775,1.106Z" transform="translate(10.399 9.684)" fill="#2854a1"/>
    <path id="Path_13698" data-name="Path 13698" d="M64.483,73.858V70.274c0-.47,0-.979.661-1.03a.788.788,0,0,1,.966.8v7.868a.814.814,0,0,1-.966.826c-.712,0-.674-.534-.674-1.017Z" transform="translate(12.845 5.564)" fill="#2856a3"/>
    <path id="Path_13699" data-name="Path 13699" d="M68.324,73.935V70.21c0-.508,0-.953.725-.979a.814.814,0,0,1,.915.877v7.728a.852.852,0,0,1-1.042.89c-.737-.076-.61-.623-.61-1.068C68.312,76.413,68.324,75.168,68.324,73.935Z" transform="translate(13.884 5.564)" fill="#2856a3"/>
    <path id="Path_13700" data-name="Path 13700" d="M73.856,74.019V77.6c0,.572-.114,1.169-.928,1.195s-.75-.674-.763-1.271V70.511c0-.521-.229-1.271.7-1.271s.966.661.979,1.271C73.881,71.668,73.856,72.812,73.856,74.019Z" transform="translate(14.925 5.569)" fill="#2856a3"/>
    <path id="Path_13701" data-name="Path 13701" d="M72.155,89.353v-3.7c0-.521-.064-1.144.661-1.271s.991.6,1,1.131v7.627c0,.572-.33.839-.915.852s-.775-.369-.775-.915C72.168,91.921,72.155,90.637,72.155,89.353Z" transform="translate(14.922 9.67)" fill="#2856a3"/>
    <path id="Path_13702" data-name="Path 13702" d="M64.48,89.227V85.515c0-.483,0-1,.636-1.093s.928.458.991.979a24.408,24.408,0,0,1,.076,2.542v5.084c0,.6-.216.991-.9,1.017s-.8-.47-.8-1.03C64.493,91.782,64.48,90.5,64.48,89.227Z" transform="translate(12.848 9.682)" fill="#2856a3"/>
    <path id="Path_13703" data-name="Path 13703" d="M68.331,89.286V85.473c0-.521.076-1,.7-1.042a.852.852,0,0,1,.9.915c0,2.707,0,5.4,0,8.11,0,.508-.445.661-.928.661a.7.7,0,0,1-.725-.814Z" transform="translate(13.878 9.686)" fill="#2856a3"/>
    <path id="Path_13704" data-name="Path 13704" d="M36.662,89.368v3.813c0,.559-.14.915-.8.89a.8.8,0,0,1-.89-.877V85.212a.763.763,0,0,1,.9-.839c.6,0,.788.419.788.966C36.649,86.712,36.662,88.046,36.662,89.368Z" transform="translate(4.846 9.667)" fill="#2856a3"/>
    <path id="Path_13705" data-name="Path 13705" d="M32.821,89.294v3.813c0,.508,0,.966-.712.966s-.979-.305-.979-.941V85.315c0-.559.229-.928.839-.915s.864.445.852,1.042Z" transform="translate(3.806 9.678)" fill="#2856a3"/>
    <path id="Path_13706" data-name="Path 13706" d="M38.8,89.078V85.506c0-.559.076-1.08.8-1.106s.915.483.915,1.131v7.55c0,.585,0,1.055-.826,1.017s-.877-.432-.877-1.03Z" transform="translate(5.886 9.678)" fill="#2856a3"/>
    <path id="Path_13707" data-name="Path 13707" d="M88.63,73.921V70.336c0-.636,0-1.131.89-1.106s.839.445.826,1.03v7.449c0,.585,0,1.017-.826,1.042s-.9-.47-.89-1.106C88.643,76.4,88.63,75.154,88.63,73.921Z" transform="translate(19.395 5.566)" fill="#2855a2"/>
    <path id="Path_13708" data-name="Path 13708" d="M84.8,73.844v-3.7c0-.559.153-.9.8-.915s.928.242.928.915v7.627c0,.674-.28.928-.941.915s-.788-.369-.788-.928Z" transform="translate(18.357 5.566)" fill="#2857a4"/>
    <path id="Path_13709" data-name="Path 13709" d="M82.665,73.881v3.813c0,.61-.1,1-.839,1.017S81,78.394,81,77.822V70.284c0-.6.1-1,.839-1s.89.343.877.966C82.652,71.466,82.665,72.648,82.665,73.881Z" transform="translate(17.327 5.579)" fill="#2856a3"/>
    <path id="Path_13710" data-name="Path 13710" d="M82.676,89.241v3.813c0,.6-.1,1.017-.839,1.017s-.89-.356-.877-.979V85.352c0-.623.229-1.017.915-.991s.8.407.8.966Z" transform="translate(17.316 9.667)" fill="#2856a3"/>
    <path id="Path_13711" data-name="Path 13711" d="M86.509,89.366v3.813c0,.559-.153.9-.8.915s-.928-.254-.928-.928v-7.83c0-.547.191-.928.788-.966s.928.356.915.979Z" transform="translate(18.351 9.67)" fill="#2857a4"/>
    <path id="Path_13712" data-name="Path 13712" d="M88.63,89.23V85.506c0-.572.089-1.08.8-1.106s.915.5.915,1.131v7.627c0,.623-.153.979-.877.979s-.852-.419-.839-1.017C88.643,91.811,88.63,90.514,88.63,89.23Z" transform="translate(19.395 9.678)" fill="#2856a3"/>
    <path id="Path_13713" data-name="Path 13713" d="M97.663,89.3V85.482c0-.61.178-1.055.877-1.042s.852.47.839,1.055v7.741c0,.559-.153.89-.8.915s-.941-.28-.928-.941C97.676,91.876,97.663,90.58,97.663,89.3Z" transform="translate(21.84 9.689)" fill="#2855a2"/>
    <path id="Path_13714" data-name="Path 13714" d="M103.206,89.37v3.724c0,.6-.1,1-.839,1.017s-.89-.356-.877-.979V85.392c0-.623.229-1.017.915-.991s.8.407.8.953Z" transform="translate(22.881 9.678)" fill="#2855a2"/>
    <path id="Path_13715" data-name="Path 13715" d="M107.039,89.345v3.724c0,.6-.076,1.03-.826,1.042s-.9-.318-.9-.966V85.417c0-.623.216-1.042.9-1.017s.826.508.826,1.08Z" transform="translate(23.917 9.678)" fill="#2855a2"/>
    <path id="Path_13716" data-name="Path 13716" d="M81,58.679V54.865c0-.559.14-.9.8-.915s.928.267.928.928v7.728c0,.61-.165,1.055-.864,1.055s-.852-.47-.852-1.068C81,61.259,81,59.962,81,58.679Z" transform="translate(17.327 1.423)" fill="#2856a3"/>
    <path id="Path_13717" data-name="Path 13717" d="M84.8,58.78V54.967c0-.6.089-1.017.839-1.017s.89.33.89.966v7.627c0,.636-.114,1.182-.9,1.144s-.826-.636-.826-1.271Z" transform="translate(18.357 1.423)" fill="#2857a4"/>
    <path id="Path_13718" data-name="Path 13718" d="M90.366,58.659V62.37c0,.61,0,1.271-.814,1.271s-.9-.508-.9-1.157V55.049c0-.636,0-1.131.89-1.119s.826.6.826,1.182Z" transform="translate(19.4 1.418)" fill="#2855a2"/>
    <path id="Path_13719" data-name="Path 13719" d="M64.4,119.676a3.165,3.165,0,0,1-2.542,3.915,3.241,3.241,0,0,1-3.648-2.542,3.165,3.165,0,0,1,2.453-3.89c.712-.153,1.424-.445,1.169.928S62.7,120.044,64.4,119.676Z" transform="translate(11.121 18.523)" fill="#2954a1"/>
  </g>
</svg>
