<svg id="Layer_1" data-name="Layer 1" xmlns="http://www.w3.org/2000/svg" viewBox="0 0 150 150"><defs><style>.cls-1{fill:#3d2db2;}.cls-2{fill:#fbe104;}.cls-3{fill:none;stroke:#1c1e21;stroke-miterlimit:10;}.cls-4{fill:#336ce5;}.cls-5{fill:#fdfeff;}.cls-6{fill:#3f2d10;}</style></defs><path class="cls-1" d="M48,22.65c-1.31-.13-2.63-.25-3.94-.39a.18.18,0,0,1-.15-.12,16.24,16.24,0,0,0-1.78-3.56c-.08-.12,0-.19,0-.27.83-1.33,1.67-2.65,2.5-4l.16-.27-6.3-5.58L36.7,9.9l-2.18,1.73a.2.2,0,0,1-.25,0,19.83,19.83,0,0,0-3.74-1.26.2.2,0,0,1-.17-.17L29.25,5.56s0-.1-.06-.17L25,5.68l.51,7.52A15.32,15.32,0,0,1,27.6,43.77h0l.5,7.38,4.3-.29.21-2.24c.08-.88.17-1.77.25-2.65a.32.32,0,0,1,.25-.32,19.26,19.26,0,0,0,3.43-1.71.24.24,0,0,1,.29,0L41,46.49l.16.09,5.5-6.3-.88-1.07-2.31-2.83a.24.24,0,0,1,0-.3,17.24,17.24,0,0,0,1.25-3.71c0-.13.1-.15.2-.17l3.1-.69,1.71-.38-.57-8.36Z"/><path class="cls-2" d="M23.39,4.47S16.35,18.13,3.31,19A43.8,43.8,0,0,0,26.53,52.67"/><path class="cls-1" d="M145,115.87l-3.9-.38a.26.26,0,0,1-.15-.12,15.91,15.91,0,0,0-1.75-3.53c-.09-.11,0-.18,0-.26l2.46-3.92.16-.26-6.22-5.53c-.59.48-1.18.94-1.76,1.4L131.75,105a.2.2,0,0,1-.25,0,19.16,19.16,0,0,0-3.7-1.24.19.19,0,0,1-.16-.17c-.37-1.54-.73-3.08-1.1-4.61a1.15,1.15,0,0,0-.06-.17l-4.12.28.5,7.44a15.13,15.13,0,1,1,2,30.2h0l.49,7.28,4.25-.28.21-2.21c.08-.87.17-1.75.25-2.62a.31.31,0,0,1,.24-.32,18.81,18.81,0,0,0,3.39-1.69.23.23,0,0,1,.28,0l4.09,2.52.17.09,5.43-6.22-.87-1.07-2.28-2.79a.24.24,0,0,1,0-.3,16.6,16.6,0,0,0,1.23-3.66.21.21,0,0,1,.2-.17l3.07-.68,1.68-.37-.56-8.27Z"/><path class="cls-2" d="M120.76,97.91s-7,13.5-19.85,14.33a43.3,43.3,0,0,0,22.94,33.29"/><polyline class="cls-3" points="110.12 123.3 22.55 123.3 22.55 133.48 101.8 133.48 101.8 143.65 10.94 143.65 10.94 111.17 88.21 111.17 88.21 85.74 140.21 85.74 140.21 72.83 81.15 72.83 81.15 94.81 20.5 94.81 20.5 72.04 68.5 72.04 68.5 57.96 138.41 57.96 138.41 12.17 55.91 12.17 55.91 21.17 132.15 21.17 132.15 33.3 120.14 33.3 120.14 47.03 81.02 47.03 80.76 33.3 35.11 33.3"/><path class="cls-4" d="M74.83,128.47H55.34a8.57,8.57,0,0,1-2.52-.3,7.1,7.1,0,0,1-3.57-2.47l-7.42-9.23q-8.51-10.56-17-21.13A7,7,0,0,1,23.37,89q4.35-18.88,8.68-37.77a7.07,7.07,0,0,1,4-5.07L71.51,29.27a7.11,7.11,0,0,1,6.49.09c5.17,2.49,10.36,5,15.54,7.43C100,39.88,106.46,43,112.94,46a7.39,7.39,0,0,1,4.33,5.36c2.44,10.75,4.94,21.49,7.42,32.23.42,1.85.83,3.7,1.27,5.55a6.7,6.7,0,0,1-1.36,6q-2.85,3.57-5.72,7.12Q109.49,114,100.1,125.64a7.05,7.05,0,0,1-5.85,2.8c-6.47,0-13,0-19.42,0ZM73,49.26v.28a2.29,2.29,0,0,1-.55,2,.7.7,0,0,0-.14.34c-.16.66-.16.66-.81.75l-.44.08a27.32,27.32,0,0,0-13.42,5.51,24.6,24.6,0,0,0-2.9,2.59c-.26.27-.46.34-.74.07a.68.68,0,0,0-.62-.22,1.82,1.82,0,0,1-1.56-.56c-.36-.32-.72-.63-1.06-.95-.83-.76-1.57-1.61-2.35-2.42a3.94,3.94,0,0,0-1.85-1.22,2.07,2.07,0,0,0-2.64,1.75,2.31,2.31,0,0,0,.77,1.95,9.25,9.25,0,0,0,1.91,1.31A22.39,22.39,0,0,1,50,62.74a1.64,1.64,0,0,1,.62,1,1.24,1.24,0,0,0,.34.73c.42.39.4.41.09.9a27.71,27.71,0,0,0-2.6,5.3,26.92,26.92,0,0,0-1.65,11A15.71,15.71,0,0,0,47,83.63c.05.33,0,.6-.39.65a1,1,0,0,0-.72.49,2,2,0,0,1-1.25.74,25.8,25.8,0,0,1-3.71.48,13.68,13.68,0,0,0-1.57.15,3.19,3.19,0,0,0-1.76.74,2,2,0,0,0-.69,2,2.06,2.06,0,0,0,1.57,1.55,2.44,2.44,0,0,0,1.11.05,10.44,10.44,0,0,0,2.2-.7,23.8,23.8,0,0,1,3.78-1.22,1.55,1.55,0,0,1,1.16.11,1.18,1.18,0,0,0,1.06.15c.23-.08.38,0,.44.26s.1.28.15.42a27.65,27.65,0,0,0,6.49,10.31,27.35,27.35,0,0,0,5,4c.47.3.66.29.34.93a.86.86,0,0,0,0,.72,1.47,1.47,0,0,1-.11,1.29,24.59,24.59,0,0,1-2.23,3.72,8,8,0,0,0-1,1.75,2.33,2.33,0,0,0,.14,2.16,2.12,2.12,0,0,0,3.59-.07,5.62,5.62,0,0,0,.8-1.76c.28-1.09.7-2.14,1.06-3.2a7,7,0,0,1,.7-1.49,1.11,1.11,0,0,1,.59-.54,1.22,1.22,0,0,0,.86-.76c.11-.27.31-.29.55-.17l.35.13a27.61,27.61,0,0,0,14.69,1,28.52,28.52,0,0,0,3.75-1c.56-.19.56-.19.87.28.09.14.16.33.35.37.79.19,1.08.83,1.36,1.48a30.84,30.84,0,0,1,1.39,3.95,4.83,4.83,0,0,0,1,1.93,2.16,2.16,0,0,0,2.58.58,2.21,2.21,0,0,0,1.08-2.49,4.83,4.83,0,0,0-.22-.64,8,8,0,0,0-.92-1.54,23.74,23.74,0,0,1-2.2-3.65,1.54,1.54,0,0,1-.17-1.23,1.11,1.11,0,0,0,0-.93.39.39,0,0,1,.22-.6c.14-.07.26-.16.39-.24a27.81,27.81,0,0,0,8.59-8.65A25.94,25.94,0,0,0,101,89.3c.13-.4.31-.6.74-.46a.58.58,0,0,0,.57-.07,1.77,1.77,0,0,1,1.58-.19A26.16,26.16,0,0,1,108,90a5.15,5.15,0,0,0,2.47.5,2.06,2.06,0,0,0,1.93-2.24,2.33,2.33,0,0,0-1.73-2,9.88,9.88,0,0,0-2.36-.33,22.68,22.68,0,0,1-3.93-.55,1.55,1.55,0,0,1-1-.63,1.16,1.16,0,0,0-.77-.54c-.27-.06-.35-.23-.32-.49.05-.5.11-1,.14-1.49a28.06,28.06,0,0,0-2-12.32,27,27,0,0,0-2.42-4.65c-.18-.28-.28-.51.07-.74a1,1,0,0,0,.47-.88,1.09,1.09,0,0,1,.38-.72c.25-.23.52-.46.8-.67a27.89,27.89,0,0,1,3.37-2.1,5.55,5.55,0,0,0,1.64-1.29,2.09,2.09,0,0,0-.87-3.42,2.36,2.36,0,0,0-2.13.39A11.15,11.15,0,0,0,100,57.55a22.14,22.14,0,0,1-2.77,2.62,1.55,1.55,0,0,1-1.1.4,1.32,1.32,0,0,0-1,.34.33.33,0,0,1-.56-.06c-.1-.11-.21-.21-.32-.32A28.06,28.06,0,0,0,83.77,54a28.65,28.65,0,0,0-6.19-1.42c-.38,0-.62-.12-.57-.56a.83.83,0,0,0-.32-.72,1.53,1.53,0,0,1-.43-1.16A23.24,23.24,0,0,1,76.64,46a8.5,8.5,0,0,0,.18-2,2.45,2.45,0,0,0-1.14-2.08,2.12,2.12,0,0,0-3.16,1.77,7,7,0,0,0,.07,1.94A23.67,23.67,0,0,1,73,49.26Z"/><path class="cls-5" d="M73,49.26a23.67,23.67,0,0,0-.42-3.66,7,7,0,0,1-.07-1.94,2.12,2.12,0,0,1,3.16-1.77A2.45,2.45,0,0,1,76.82,44a8.5,8.5,0,0,1-.18,2,23.24,23.24,0,0,0-.38,4.16,1.53,1.53,0,0,0,.43,1.16A.83.83,0,0,1,77,52c-.05.44.19.52.57.56A28.65,28.65,0,0,1,83.77,54a28.06,28.06,0,0,1,10.46,6.53c.11.11.22.21.32.32a.33.33,0,0,0,.56.06,1.32,1.32,0,0,1,1-.34,1.55,1.55,0,0,0,1.1-.4A22.14,22.14,0,0,0,100,57.55a11.15,11.15,0,0,1,1.79-1.71,2.36,2.36,0,0,1,2.13-.39,2.09,2.09,0,0,1,.87,3.42,5.55,5.55,0,0,1-1.64,1.29,27.89,27.89,0,0,0-3.37,2.1c-.28.21-.55.44-.8.67a1.09,1.09,0,0,0-.38.72,1,1,0,0,1-.47.88c-.35.23-.25.46-.07.74a27,27,0,0,1,2.42,4.65,28.06,28.06,0,0,1,2,12.32c0,.5-.09,1-.14,1.49,0,.26.05.43.32.49a1.16,1.16,0,0,1,.77.54,1.55,1.55,0,0,0,1,.63,22.68,22.68,0,0,0,3.93.55,9.88,9.88,0,0,1,2.36.33,2.33,2.33,0,0,1,1.73,2,2.06,2.06,0,0,1-1.93,2.24A5.15,5.15,0,0,1,108,90a26.16,26.16,0,0,0-4.11-1.39,1.77,1.77,0,0,0-1.58.19.58.58,0,0,1-.57.07c-.43-.14-.61.06-.74.46a25.94,25.94,0,0,1-2.8,5.87,27.81,27.81,0,0,1-8.59,8.65c-.13.08-.25.17-.39.24a.39.39,0,0,0-.22.6,1.11,1.11,0,0,1,0,.93,1.54,1.54,0,0,0,.17,1.23,23.74,23.74,0,0,0,2.2,3.65,8,8,0,0,1,.92,1.54,4.83,4.83,0,0,1,.22.64,2.21,2.21,0,0,1-1.08,2.49,2.16,2.16,0,0,1-2.58-.58,4.83,4.83,0,0,1-1-1.93,30.84,30.84,0,0,0-1.39-3.95c-.28-.65-.57-1.29-1.36-1.48-.19,0-.26-.23-.35-.37-.31-.47-.31-.47-.87-.28a28.52,28.52,0,0,1-3.75,1,27.61,27.61,0,0,1-14.69-1l-.35-.13c-.24-.12-.44-.1-.55.17a1.22,1.22,0,0,1-.86.76,1.11,1.11,0,0,0-.59.54,7,7,0,0,0-.7,1.49c-.36,1.06-.78,2.11-1.06,3.2a5.62,5.62,0,0,1-.8,1.76,2.12,2.12,0,0,1-3.59.07,2.33,2.33,0,0,1-.14-2.16,8,8,0,0,1,1-1.75,24.59,24.59,0,0,0,2.23-3.72,1.47,1.47,0,0,0,.11-1.29.86.86,0,0,1,0-.72c.32-.64.13-.63-.34-.93a27.35,27.35,0,0,1-5-4,27.65,27.65,0,0,1-6.49-10.31c0-.14-.11-.28-.15-.42s-.21-.34-.44-.26a1.18,1.18,0,0,1-1.06-.15,1.55,1.55,0,0,0-1.16-.11,23.8,23.8,0,0,0-3.78,1.22,10.44,10.44,0,0,1-2.2.7,2.44,2.44,0,0,1-1.11-.05,2.06,2.06,0,0,1-1.57-1.55,2,2,0,0,1,.69-2,3.19,3.19,0,0,1,1.76-.74A13.68,13.68,0,0,1,40.94,86a25.8,25.8,0,0,0,3.71-.48,2,2,0,0,0,1.25-.74,1,1,0,0,1,.72-.49c.4,0,.44-.32.39-.65a15.71,15.71,0,0,1-.17-1.94,26.92,26.92,0,0,1,1.65-11,27.71,27.71,0,0,1,2.6-5.3c.31-.49.33-.51-.09-.9a1.24,1.24,0,0,1-.34-.73,1.64,1.64,0,0,0-.62-1,22.39,22.39,0,0,0-3.43-2.27,9.25,9.25,0,0,1-1.91-1.31,2.31,2.31,0,0,1-.77-1.95,2.07,2.07,0,0,1,2.64-1.75,3.94,3.94,0,0,1,1.85,1.22c.78.81,1.52,1.66,2.35,2.42.34.32.7.63,1.06.95a1.82,1.82,0,0,0,1.56.56.68.68,0,0,1,.62.22c.28.27.48.2.74-.07a24.6,24.6,0,0,1,2.9-2.59,27.32,27.32,0,0,1,13.42-5.51l.44-.08c.65-.09.65-.09.81-.75a.7.7,0,0,1,.14-.34,2.29,2.29,0,0,0,.55-2ZM86.65,98.93c3.66-2,8.75-8.47,8.76-11.13l-.21,0-8.78-1.49a16.75,16.75,0,0,0-2.22-.33,1.84,1.84,0,0,0-1.91,2.38,4.55,4.55,0,0,0,.28.78l2.74,6.63C85.75,96.78,86.19,97.84,86.65,98.93ZM59.18,64.42a.77.77,0,0,0,.32.3l8.43,6a4,4,0,0,0,.77.45A1.85,1.85,0,0,0,71.14,70a3.72,3.72,0,0,0,.17-.87c.11-1.67.2-3.34.3-5,.08-1.5.18-3,.26-4.48a5,5,0,0,0,0-1.4C67.28,58.74,61,61.76,59.18,64.42Zm-3.46,4.26c-2.93,4.44-3.78,10.95-3,13.81a1.5,1.5,0,0,0,.22,0L63,79.56a4.8,4.8,0,0,0,.63-.24,1.83,1.83,0,0,0,.69-2.88,4.7,4.7,0,0,0-.61-.65L58.38,71Zm37.82,0-5.63,5c-.91.82-1.82,1.64-2.71,2.47a1.78,1.78,0,0,0-.54,2,2.2,2.2,0,0,0,1.67,1.34L96,82.32c.22.06.45.22.72.08A22.59,22.59,0,0,0,93.54,68.65ZM62.67,98.92c.28-.65.51-1.22.75-1.8q1.67-4,3.32-8a2.88,2.88,0,0,0,.32-1.52A2,2,0,0,0,64.6,86l-9.95,1.7c-.87.15-.87.16-.54,1A22.11,22.11,0,0,0,59,96,20.47,20.47,0,0,0,62.67,98.92Zm5,2.33a1.37,1.37,0,0,0,.68.29,23,23,0,0,0,4,.8,22.35,22.35,0,0,0,8.87-.85c.53-.15.54-.18.28-.65q-2.49-4.53-5-9a2.1,2.1,0,0,0-1.86-1.3,2.13,2.13,0,0,0-1.88,1.37c-1.59,2.91-3.21,5.81-4.81,8.71A1.65,1.65,0,0,0,67.65,101.25Zm9.72-43c.2,3.64.38,7.17.58,10.7a6,6,0,0,0,.09.74,1.84,1.84,0,0,0,2.49,1.42,4.29,4.29,0,0,0,1-.56l8.06-5.71c.17-.13.4-.21.51-.5A22.32,22.32,0,0,0,77.37,58.25Zm-2.7,18.51c-.42,0-.85,0-1.27,0a.89.89,0,0,0-.82.41c-.46.62-.93,1.23-1.45,1.81a1,1,0,0,0-.21,1,16.47,16.47,0,0,1,.41,1.82,1.45,1.45,0,0,0,1.09,1.34,4.07,4.07,0,0,1,.67.31c.53.23,1,.7,1.56.66a4.62,4.62,0,0,0,1.5-.63,4.21,4.21,0,0,0,1.5-.79,4.12,4.12,0,0,0,.46-1.64,4.88,4.88,0,0,0,.31-1.6c-.08-.54-.68-.89-1-1.38A2.3,2.3,0,0,0,74.67,76.76Z"/><path class="cls-4" d="M86.65,98.93c-.46-1.09-.9-2.15-1.34-3.21l-2.74-6.63a4.55,4.55,0,0,1-.28-.78,1.84,1.84,0,0,1,1.91-2.38,16.75,16.75,0,0,1,2.22.33l8.78,1.49.21,0C95.4,90.46,90.31,97,86.65,98.93Z"/><path class="cls-4" d="M59.18,64.42c1.86-2.66,8.1-5.68,12.68-6.13a5,5,0,0,1,0,1.4c-.08,1.49-.18,3-.26,4.48-.1,1.66-.19,3.33-.3,5a3.72,3.72,0,0,1-.17.87,1.85,1.85,0,0,1-2.44,1.1,4,4,0,0,1-.77-.45l-8.43-6A.77.77,0,0,1,59.18,64.42Z"/><path class="cls-4" d="M55.72,68.68,58.38,71l5.31,4.75a4.7,4.7,0,0,1,.61.65,1.83,1.83,0,0,1-.69,2.88,4.8,4.8,0,0,1-.63.24L52.91,82.47a1.5,1.5,0,0,1-.22,0C51.94,79.63,52.79,73.12,55.72,68.68Z"/><path class="cls-4" d="M93.54,68.65A22.59,22.59,0,0,1,96.76,82.4c-.27.14-.5,0-.72-.08l-9.71-2.8a2.2,2.2,0,0,1-1.67-1.34,1.78,1.78,0,0,1,.54-2c.89-.83,1.8-1.65,2.71-2.47Z"/><path class="cls-4" d="M62.67,98.92A20.47,20.47,0,0,1,59,96a22.11,22.11,0,0,1-4.91-7.35c-.33-.8-.33-.81.54-1L64.6,86a2,2,0,0,1,2.46,1.59,2.88,2.88,0,0,1-.32,1.52q-1.65,4-3.32,8C63.18,97.7,63,98.27,62.67,98.92Z"/><path class="cls-4" d="M67.65,101.25a1.65,1.65,0,0,1,.31-.67c1.6-2.9,3.22-5.8,4.81-8.71a2.13,2.13,0,0,1,1.88-1.37,2.1,2.1,0,0,1,1.86,1.3q2.51,4.52,5,9c.26.47.25.5-.28.65a22.35,22.35,0,0,1-8.87.85,23,23,0,0,1-4-.8A1.37,1.37,0,0,1,67.65,101.25Z"/><path class="cls-4" d="M77.37,58.25a22.32,22.32,0,0,1,12.7,6.09c-.11.29-.34.37-.51.5L81.5,70.55a4.29,4.29,0,0,1-1,.56A1.84,1.84,0,0,1,78,69.69,6,6,0,0,1,78,69C77.75,65.42,77.57,61.89,77.37,58.25Z"/><path class="cls-4" d="M74.67,76.76a2.3,2.3,0,0,1,2.77,1.32c.3.49.9.84,1,1.38a4.88,4.88,0,0,1-.31,1.6,4.12,4.12,0,0,1-.46,1.64,4.21,4.21,0,0,1-1.5.79,4.62,4.62,0,0,1-1.5.63c-.54,0-1-.43-1.56-.66a4.07,4.07,0,0,0-.67-.31,1.45,1.45,0,0,1-1.09-1.34A16.47,16.47,0,0,0,70.92,80a1,1,0,0,1,.21-1c.52-.58,1-1.19,1.45-1.81a.89.89,0,0,1,.82-.41C73.82,76.78,74.25,76.76,74.67,76.76Z"/><circle class="cls-6" cx="111.8" cy="123.3" r="2.67"/><circle class="cls-6" cx="32.86" cy="33.3" r="2.54"/></svg>