<svg id="Layer_1" data-name="Layer 1" xmlns="http://www.w3.org/2000/svg" xmlns:xlink="http://www.w3.org/1999/xlink" viewBox="0 0 550 400"><defs><style>.cls-1{fill:#e9f0f2;}.cls-18,.cls-2,.cls-22,.cls-23{fill:none;}.cls-2{stroke:#1c1e21;stroke-width:2px;}.cls-2,.cls-22{stroke-miterlimit:10;}.cls-3{fill:#ffe01b;}.cls-4{fill:#d8b627;}.cls-5{fill:#3d2db2;}.cls-6{fill:#573bd3;}.cls-21,.cls-7{fill:#fff;}.cls-8{fill:#231f20;opacity:0.5;}.cls-9{fill:url(#linear-gradient);}.cls-10{fill:url(#linear-gradient-2);}.cls-11{fill:#f44545;}.cls-12{fill:#f1f2f2;}.cls-13{fill:#0562e8;}.cls-14{fill:#ed9a15;}.cls-15{fill:#a7a9ac;}.cls-16{fill:#a8c6cc;}.cls-17{fill:#3dba85;}.cls-18{stroke:#fff;stroke-width:3.25px;}.cls-18,.cls-23{stroke-linecap:round;stroke-linejoin:round;}.cls-19{fill:#3eb096;}.cls-20{fill:#17a388;}.cls-21{opacity:0.25;}.cls-22,.cls-23{stroke:#3f2d10;}.cls-22{stroke-width:2.62px;}.cls-23{stroke-width:1.56px;}.cls-24{fill:#f5df4d;}.cls-25{fill:#655fd6;}</style><linearGradient id="linear-gradient" x1="305.45" y1="273.04" x2="428.26" y2="273.04" gradientUnits="userSpaceOnUse"><stop offset="0" stop-color="#f4cd2a"/><stop offset="1" stop-color="#d28d0d"/></linearGradient><linearGradient id="linear-gradient-2" x1="305.45" y1="306.36" x2="428.26" y2="306.36" xlink:href="#linear-gradient"/></defs><rect class="cls-1" x="36.46" y="45.49" width="456.12" height="325.51"/><line class="cls-2" x1="492.59" y1="189.93" x2="492.59" y2="261.46"/><path class="cls-3" d="M389,158.34a57.63,57.63,0,0,1,8.79-100.77v59H445V57.94a57.62,57.62,0,0,1,8,100.36v59.94l64-37V70.35L421,14.91,325,70.35V181.24l64.07,37Z"/><polygon class="cls-4" points="517.03 167.13 517.03 181.24 453 218.24 453 205.05 517.03 167.13"/><polygon class="cls-4" points="389.03 205.38 389.03 218.24 324.97 181.24 324.97 70.35 335.01 64.56 335.01 173.91 389.03 205.38"/><path class="cls-5" d="M108.67,178.09H361.73a10.34,10.34,0,0,1,10.34,10.34V367.73a0,0,0,0,1,0,0H98.33a0,0,0,0,1,0,0V188.44A10.34,10.34,0,0,1,108.67,178.09Z"/><rect class="cls-5" x="16.8" y="367.73" width="355.27" height="10.43"/><rect class="cls-6" x="98.33" y="333.6" width="273.75" height="34.13"/><rect class="cls-7" x="109.49" y="191.07" width="251.42" height="167.61" rx="2.24"/><circle class="cls-7" cx="235.2" cy="185.41" r="2.34"/><path class="cls-8" d="M167.53,367.73h71.41a0,0,0,0,1,0,0V370a2.93,2.93,0,0,1-2.93,2.93H170.46a2.93,2.93,0,0,1-2.93-2.93v-2.28A0,0,0,0,1,167.53,367.73Z"/><rect class="cls-9" x="305.45" y="260.24" width="122.81" height="25.61"/><rect class="cls-10" x="305.45" y="293.55" width="122.81" height="25.61"/><rect class="cls-11" x="305.45" y="228.69" width="122.81" height="25.61"/><circle class="cls-12" cx="317.67" cy="273.04" r="7.73"/><circle class="cls-12" cx="339.14" cy="273.04" r="7.73"/><circle class="cls-12" cx="317.67" cy="306.83" r="7.73"/><circle class="cls-12" cx="339.14" cy="306.83" r="7.73"/><circle class="cls-12" cx="317.67" cy="241.44" r="7.73"/><circle class="cls-12" cx="339.14" cy="241.44" r="7.73"/><circle class="cls-13" cx="317.67" cy="273.04" r="4.15"/><circle class="cls-14" cx="339.14" cy="273.04" r="4.15"/><circle class="cls-15" cx="317.67" cy="306.83" r="4.15"/><circle class="cls-16" cx="317.67" cy="241.44" r="4.15"/><circle class="cls-13" cx="339.14" cy="306.83" r="4.15"/><circle class="cls-17" cx="339.14" cy="241.44" r="4.15"/><path class="cls-7" d="M365.65,270.69h27.84a2.28,2.28,0,0,1,2.28,2.28h0a2.29,2.29,0,0,1-2.28,2.29H365.65a2.29,2.29,0,0,1-2.29-2.29h0a2.29,2.29,0,0,1,2.28-2.29h0Z"/><path class="cls-7" d="M365.65,304.54h27.84a2.29,2.29,0,0,1,2.28,2.29h0a2.28,2.28,0,0,1-2.28,2.28H365.65a2.29,2.29,0,0,1-2.29-2.28h0A2.29,2.29,0,0,1,365.65,304.54Z"/><path class="cls-7" d="M402.94,304.54h15.78a2.29,2.29,0,0,1,2.28,2.29h0a2.28,2.28,0,0,1-2.28,2.28H402.94a2.28,2.28,0,0,1-2.29-2.28h0A2.28,2.28,0,0,1,402.94,304.54Z"/><path class="cls-7" d="M402.94,270.69h15.78A2.28,2.28,0,0,1,421,273h0a2.29,2.29,0,0,1-2.28,2.29H402.94a2.31,2.31,0,0,1-2.29-2.29h0A2.29,2.29,0,0,1,402.94,270.69Z"/><path class="cls-7" d="M402.94,239.22h15.78a2.29,2.29,0,0,1,2.28,2.29h0a2.26,2.26,0,0,1-2.27,2.28H402.94a2.28,2.28,0,0,1-2.29-2.28h0A2.28,2.28,0,0,1,402.94,239.22Z"/><path class="cls-7" d="M365.65,239.22h27.84a2.29,2.29,0,0,1,2.28,2.29h0a2.27,2.27,0,0,1-2.27,2.28H365.65a2.29,2.29,0,0,1-2.29-2.28h0a2.29,2.29,0,0,1,2.28-2.29Z"/><rect class="cls-6" x="132.47" y="208.89" width="141.53" height="43.3" rx="10.61" transform="translate(406.05 461.44) rotate(-179.9)"/><line class="cls-18" x1="194.64" y1="225.25" x2="246.55" y2="225.34"/><line class="cls-18" x1="194.62" y1="235.79" x2="260.41" y2="235.91"/><circle class="cls-7" cx="156.15" cy="228.07" r="6.18"/><rect class="cls-19" x="132.47" y="269.79" width="141.53" height="43.3" rx="10.61" transform="translate(405.94 583.25) rotate(-179.9)"/><line class="cls-18" x1="194.64" y1="286.15" x2="246.55" y2="286.25"/><line class="cls-18" x1="194.62" y1="296.7" x2="260.41" y2="296.81"/><circle class="cls-7" cx="156.15" cy="288.97" r="6.18"/><rect class="cls-20" x="38.63" y="235.88" width="90.71" height="55.65"/><polygon class="cls-21" points="38.63 235.88 83.99 263.7 129.34 235.88 38.63 235.88"/><polygon class="cls-6" points="260.41 129.9 260.41 113.91 246.55 105.91 232.7 113.91 232.7 129.9 246.55 137.9 260.41 129.9"/><line class="cls-22" x1="278.83" y1="121.9" x2="324.97" y2="121.9"/><polygon class="cls-6" points="517.03 319.46 517.03 291.23 492.58 277.11 468.14 291.23 468.14 319.46 492.58 333.57 517.03 319.46"/><polygon class="cls-23" points="84.98 84.97 138.76 84.99 113.36 147.54 110.53 110.08 84.98 84.97"/><line class="cls-23" x1="138.76" y1="84.99" x2="110.53" y2="110.08"/><ellipse class="cls-7" cx="137.47" cy="84.65" rx="5.81" ry="5.99" transform="translate(-13.06 26.31) rotate(-10.44)"/><ellipse class="cls-4" cx="109.81" cy="110.88" rx="5.81" ry="5.99" transform="translate(-18.27 21.74) rotate(-10.44)"/><ellipse class="cls-24" cx="109.81" cy="110.88" rx="3.64" ry="3.75" transform="translate(-18.27 21.74) rotate(-10.44)"/><ellipse class="cls-25" cx="85.27" cy="84.65" rx="5.81" ry="5.99" transform="translate(-13.93 16.85) rotate(-10.44)"/><ellipse class="cls-4" cx="113.36" cy="147.54" rx="5.81" ry="5.99" transform="matrix(0.98, -0.18, 0.18, 0.98, -24.86, 22.99)"/><ellipse class="cls-24" cx="113.36" cy="147.54" rx="3.68" ry="3.79" transform="translate(-24.86 22.99) rotate(-10.44)"/><circle class="cls-23" cx="173.84" cy="66.32" r="7.84"/><circle class="cls-23" cx="199.43" cy="66.32" r="7.84"/><circle class="cls-23" cx="225.02" cy="66.32" r="7.84"/><path class="cls-2" d="M532.13,327.76V286.48a3.79,3.79,0,0,0-1.9-3.28l-35.75-20.64a3.78,3.78,0,0,0-3.79,0L454.94,283.2a3.78,3.78,0,0,0-1.89,3.28v41.28a3.77,3.77,0,0,0,1.89,3.28l35.75,20.65a3.82,3.82,0,0,0,3.79,0L530.23,331A3.78,3.78,0,0,0,532.13,327.76Z"/><path class="cls-22" d="M278.56,138.62V105.19a3.06,3.06,0,0,0-1.53-2.65L248.09,85.83a3.06,3.06,0,0,0-3.07,0l-28.94,16.71a3.06,3.06,0,0,0-1.53,2.65v33.43a3.06,3.06,0,0,0,1.53,2.65L245,158a3.06,3.06,0,0,0,3.07,0L277,141.27A3.06,3.06,0,0,0,278.56,138.62Z"/><polyline class="cls-23" points="36.46 65.22 36.46 45.49 57.13 45.49"/><polyline class="cls-2" points="453 218.24 517.03 181.24 517.03 70.35 421 14.91 324.97 70.35"/><path class="cls-2" d="M389,194.91V158.34a57.63,57.63,0,0,1,8.79-100.77v59H445V57.94a57.62,57.62,0,0,1,8,100.36v59.94"/></svg>