<svg xmlns="http://www.w3.org/2000/svg" width="153.463" height="123.178" viewBox="0 0 153.463 123.178">
  <g id="Group_10231" data-name="Group 10231" transform="translate(-1484.537 -7523.913)">
    <path id="Path_31237" data-name="Path 31237" d="M91.138,35.75a55.092,55.092,0,0,1,16.886,24.626,14.248,14.248,0,0,0,4.573,6.755A42.99,42.99,0,0,1,89.1,143.12c-12.524,1.055-25.083.387-37.643.281a3.1,3.1,0,0,1-1.266-2.709c0-7.458-.246-14.881,0-22.339a3.518,3.518,0,0,1,.317-1.161c1.161-1.9,3.061-1.548,4.785-1.548H84.172a15.514,15.514,0,0,0,16.148-14.283A15.761,15.761,0,0,0,87.233,85.073c-1.935-.422-3.518-1.161-3.518-3.272.457-10.73-4.362-19.1-11.4-26.561a2.955,2.955,0,0,1,1.126-3.061C78.508,46.972,83.715,41.836,88.887,36.7a3.272,3.272,0,0,1,2.252-.95Z" transform="translate(1509.756 7503.374)" fill="#4284f5"/>
    <path id="Path_31238" data-name="Path 31238" d="M45.965,120.273a43.061,43.061,0,0,1-.879-68.32l2.463-1.935a18.751,18.751,0,0,1,9.639-5.945,43.623,43.623,0,0,1,23.641-1.618,45.98,45.98,0,0,1,24.063,14.072c2.463,2.814,2.568,3.518,0,6.3-4.679,4.785-9.428,9.5-14.072,14.072-2.709,2.6-3.518,2.533-6.051-.352-6.508-7.036-14.952-8.267-21.847-3.2a15.3,15.3,0,0,0-1.9,23.324c1.372,1.407,3.307,2.216,4.327,4.011.246,1.3-.6,2.146-1.407,2.955-5.1,5.171-10.273,10.308-15.444,15.409A3.061,3.061,0,0,1,45.965,120.273Z" transform="translate(1455.861 7517.917)" fill="#fabb05"/>
    <path id="Path_31239" data-name="Path 31239" d="M67.773,68.625a47.775,47.775,0,0,0-23.958,1.794A65.61,65.61,0,0,0,34,75.45a60.017,60.017,0,0,1,71.24-42.5,57.027,57.027,0,0,1,26.385,13.685L113.05,65.458c-1.407.528-2.357-.493-3.518-1.091-13.861-7.951-26.667-7.036-39.191,2.885A5.664,5.664,0,0,1,67.773,68.625Z" transform="translate(1469.269 7492.486)" fill="#ea4235"/>
    <path id="Path_31240" data-name="Path 31240" d="M33.59,77.955,52.622,58.817c2.463-1.091,4.925,0,7.388,0h27.9c1.724,0,3.518-.387,4.89,1.337V86.715c-11.926,0-23.817.317-35.708,0a39.3,39.3,0,0,1-23.5-8.76Z" transform="translate(1468.238 7560.236)" fill="#35a754"/>
  </g>
</svg>
