<svg id="Drop_Down_04_Platform-Compiance_Management" data-name="Drop Down_04 Platform-Compiance Management" xmlns="http://www.w3.org/2000/svg" xmlns:xlink="http://www.w3.org/1999/xlink" width="66.759" height="66.979" viewBox="0 0 66.759 66.979">
  <defs>
    <linearGradient id="linear-gradient" y1="0.5" x2="1.001" y2="0.5" gradientUnits="objectBoundingBox">
      <stop offset="0" stop-color="#3d2db2"/>
      <stop offset="1" stop-color="#1f1659"/>
    </linearGradient>
  </defs>
  <path id="Path_14194" data-name="Path 14194" d="M34.685,72.694c-.116-1.62-.378-3.147-.555-4.728A.694.694,0,0,0,33.6,67.3c-1.859-.771-3.679-1.481-5.5-2.314a.771.771,0,0,0-.91.123c-1.334,1.1-2.684,2.152-4.049,3.255l-.108.1A2.005,2.005,0,0,1,20.2,68.2l-5.785-5.823-.116-.093a2.005,2.005,0,0,1,0-2.815c1.057-1.3,2.09-2.684,3.255-4.034a.771.771,0,0,0,.108-.879c-.771-1.8-1.543-3.64-2.26-5.476a.7.7,0,0,0-.679-.532c-1.627-.177-3.155-.44-4.751-.571a2.622,2.622,0,0,1-2.383-1.5V36.729A2.622,2.622,0,0,1,10,35.232c1.62-.116,3.247-.363,4.79-.586a.872.872,0,0,0,.555-.47c.81-1.859,1.627-3.741,2.36-5.592a.686.686,0,0,0-.116-.818c-1.088-1.365-2.167-2.73-3.255-4.111l-.077-.093a1.982,1.982,0,0,1,.239-2.8h0L20.3,14.978a.517.517,0,0,1,.108-.116,1.982,1.982,0,0,1,2.807,0h0c1.365,1.08,2.715,2.167,4.049,3.247a.818.818,0,0,0,.941.1c1.789-.771,3.594-1.543,5.4-2.26a.717.717,0,0,0,.44-.663c.193-1.627.424-3.386.6-5.075a.678.678,0,0,1,0-.177,2.036,2.036,0,0,1,2.206-1.867H45.2a2.052,2.052,0,0,1,2.044,2.044h0c.193,1.712.424,3.417.617,5.121,0,.378.193.486.517.617q2.784,1.118,5.546,2.314a.663.663,0,0,0,.771,0l4.119-3.286.131-.116a1.967,1.967,0,0,1,2.769.262h0c1.951,1.921,3.856,3.856,5.785,5.785l.116.1a1.982,1.982,0,0,1,0,2.8h0c-1.057,1.365-2.113,2.738-3.255,4.065a.771.771,0,0,0-.093.879c.771,1.82,1.62,3.656,2.275,5.492.108.309.224.524.6.524,1.62.193,3.378.424,5.067.6h.278a2.075,2.075,0,0,1,1.851,2.275v8.276a2.036,2.036,0,0,1-2.013,2.052h0c-1.627.193-3.417.44-5.121.617a.648.648,0,0,0-.632.5c-.771,1.859-1.5,3.725-2.314,5.546a.725.725,0,0,0,.131.879c1.072,1.35,2.129,2.7,3.255,4.08l.108.116a2.028,2.028,0,0,1-.285,2.838L61.781,68.2l-.177.193a2,2,0,0,1-2.831,0h0c-1.35-1.057-2.715-2.113-4.049-3.247a.771.771,0,0,0-.895-.1c-1.8.771-3.64,1.543-5.476,2.275a.717.717,0,0,0-.555.663c-.162,1.627-.432,3.155-.548,4.751a2.615,2.615,0,0,1-1.512,2.406H35.981A2.63,2.63,0,0,1,34.685,72.694ZM62.729,41.549A21.689,21.689,0,1,0,41.072,63.261,21.689,21.689,0,0,0,62.729,41.549Z" transform="translate(-7.59 -8.16)" fill="url(#linear-gradient)"/>
  <path id="Path_14195" data-name="Path 14195" d="M37.735,39.349,30.03,45.928,44.692,56.834,68.756,27.51,44.129,46.923Z" transform="translate(-12.722 -12.586)" fill="#3eb096"/>
</svg>
