<svg id="Layer_1" data-name="Layer 1" xmlns="http://www.w3.org/2000/svg" xmlns:xlink="http://www.w3.org/1999/xlink" viewBox="0 0 150 150"><defs><style>.cls-1{fill:#3d2db2;}.cls-2{fill:#d8b627;}.cls-3{fill:#fbe104;}.cls-4{fill:#af9423;}.cls-5{fill:#fff;}.cls-6,.cls-9{fill:none;stroke-miterlimit:10;}.cls-6{stroke:#3f2d10;stroke-width:1.01px;}.cls-7{fill:url(#linear-gradient);}.cls-8{fill:#00816d;}.cls-9{stroke:#1c1e21;}.cls-10{fill:url(#linear-gradient-2);}.cls-11{fill:url(#linear-gradient-3);}</style><linearGradient id="linear-gradient" x1="116.83" y1="52.11" x2="122.14" y2="52.11" gradientUnits="userSpaceOnUse"><stop offset="0" stop-color="#f4cd2a"/><stop offset="1" stop-color="#d28d0d"/></linearGradient><linearGradient id="linear-gradient-2" x1="41.87" y1="119.06" x2="47.68" y2="119.06" xlink:href="#linear-gradient"/><linearGradient id="linear-gradient-3" x1="65.79" y1="128.02" x2="71.6" y2="128.02" xlink:href="#linear-gradient"/></defs><path class="cls-1" d="M111.83,38.13c3.19-1.22,6.41-2.42,9.59-3.71a1.3,1.3,0,0,1,1.92.59c1.19,1.92,2.43,3.82,3.7,5.68a1.3,1.3,0,0,1-.25,2c-2.27,2.1-4.44,4.32-6.72,6.42a1.22,1.22,0,0,0-.32,1.64c.88,2.13,1.74,4.28,2.48,6.47a1.45,1.45,0,0,0,1.6,1.12c3,.12,6,.33,9,.43,1.06,0,1.58.38,1.72,1.49.27,2.24.64,4.47,1,6.7.13.78-.14,1.14-.88,1.39-3,1-5.92,2.16-8.89,3.2a1.34,1.34,0,0,0-1,1.48c0,2.31-.18,4.62-.41,6.92a1.46,1.46,0,0,0,.93,1.71c2.69,1.33,5.34,2.74,8,4a1.49,1.49,0,0,1,1,2.06c-.64,2.07-1.22,4.16-1.76,6.26-.24.94-.7,1.23-1.67,1.14-3-.27-6-.39-9-.67a1.6,1.6,0,0,0-1.91,1.1c-1,2-2,4-3.15,6a1.34,1.34,0,0,0,.13,1.81c2,2.38,3.89,4.84,5.89,7.2a1.22,1.22,0,0,1,0,1.89q-2.22,2.57-4.35,5.2a1.3,1.3,0,0,1-2,.36c-2.65-1.51-5.38-2.87-8.05-4.34a1.56,1.56,0,0,0-2.07.23c-1.68,1.44-3.44,2.79-5.24,4.07a1.39,1.39,0,0,0-.63,1.82c.84,2.94,1.57,5.9,2.39,8.84.24.84.16,1.35-.72,1.75-2,.94-4.09,1.93-6.09,3-1,.53-1.55.26-2.18-.6-1.76-2.37-3.64-4.65-5.41-7a1.6,1.6,0,0,0-2.07-.72,48,48,0,0,1-6,1.47c-1.1.2-1.42.7-1.56,1.71-.41,3-.94,5.93-1.36,8.9-.11.76-.34,1.15-1.17,1.17-2.5,0-5,.12-7.51.22-.82,0-1.07-.39-1.25-1.11-.71-3-1.52-6-2.21-9A1.56,1.56,0,0,0,63.83,127c-2-.28-4-.64-5.94-1.1a1.49,1.49,0,0,0-1.9.82c-1.55,2.51-3.24,4.93-4.79,7.44a1.45,1.45,0,0,1-2.14.71c-2.12-.92-4.26-1.78-6.41-2.64a1.35,1.35,0,0,1-.94-1.8c.6-3,1-6,1.63-9a1.53,1.53,0,0,0-.82-1.9,46.81,46.81,0,0,1-4.74-3.26,1.4,1.4,0,0,0-1.94-.06c-2.71,1.8-5.44,3.55-8.17,5.32-.16.1-.35.15-.74.33-2-2.12-4-4.24-6-6.45a1.64,1.64,0,0,1,.06-1.49q2.57-4,5.27-7.84a1.44,1.44,0,0,0,0-2,47.83,47.83,0,0,1-2.8-4.52,1.59,1.59,0,0,0-2-1c-3,.54-6,1-9,1.48-.84.15-1.28,0-1.56-.84C10.07,96.83,9.2,94.43,8.28,92c-.33-.88,0-1.32.72-1.77,2.61-1.58,5.17-3.25,7.79-4.82a1.51,1.51,0,0,0,.88-1.87,46.4,46.4,0,0,1-.75-5.25,1.43,1.43,0,0,0-1.28-1.47c-3-.75-5.89-1.6-8.85-2.34-.94-.24-1.3-.67-1.23-1.63.2-2.5.36-5,.5-7.51.05-.92.48-1.23,1.36-1.34,3.08-.38,6.14-.86,9.22-1.25A1.38,1.38,0,0,0,18,61.57c.42-1.77.91-3.53,1.49-5.25a1.35,1.35,0,0,0-.58-1.72c-2.44-1.92-4.81-3.92-7.25-5.83a1.26,1.26,0,0,1-.47-1.85c1.2-2.25,2.38-4.52,3.52-6.81.42-.85,1-.91,1.79-.67,2.88.87,5.78,1.63,8.64,2.55a1.67,1.67,0,0,0,2.19-.76,46.36,46.36,0,0,1,3.27-4,1.34,1.34,0,0,0,.21-1.8c-1.62-3.09-3.18-6.21-4.87-9.54,2.41-1.91,4.78-3.82,7.2-5.64a1.5,1.5,0,0,1,1.34.23q3.6,2.93,7.12,6a1.49,1.49,0,0,0,2,.21c1.61-1,3.34-1.69,5-2.62a1.92,1.92,0,0,0,.85-1.4c-.09-3.1-.26-6.2-.47-9.29-.07-1,.13-1.53,1.18-1.79,2.39-.58,4.76-1.24,7.12-1.92a1.17,1.17,0,0,1,1.6.78c1.29,2.76,2.68,5.48,4,8.25a1.49,1.49,0,0,0,1.77,1.05c2-.23,3.93-.21,5.88-.42a2,2,0,0,0,1.36-.92q1.78-4.29,3.38-8.67c.34-.94.76-1.35,1.8-1.17,2.32.41,4.66.76,7,1.08,1,.13,1.27.61,1.29,1.56,0,3,.22,6,.26,9a1.49,1.49,0,0,0,1.21,1.67A54.27,54.27,0,0,1,92.48,24a1.53,1.53,0,0,0,2-.44c2.16-2.22,4.39-4.37,6.55-6.6a1.17,1.17,0,0,1,1.76-.22c2,1.33,4,2.65,6.08,3.9.84.52.79,1,.46,1.83-1.2,2.86-2.31,5.75-3.51,8.61a1.22,1.22,0,0,0,.38,1.63C108.1,34.41,109.89,36.23,111.83,38.13Z"/><polygon class="cls-2" points="42.36 61.12 56.97 67.85 41.87 113.78 94.97 118.33 87.63 70.47 104.7 67.53 42.36 61.12"/><polygon class="cls-3" points="62.2 106.01 61.16 62.92 42.36 61.12 77.27 24.51 104.7 67.53 84.74 65.63 74.46 107 62.2 106.01"/><polygon class="cls-4" points="74.46 107 62.2 106.01 41.93 113.74 95.07 118.27 74.46 107"/><path class="cls-5" d="M77.26,24.5l27.44,43L87.64,70.47,95,118.21v.11l-53.1-4.54L57,67.86,42.36,61.12,77.26,24.5m.32-3.23-1.76,1.85L40.91,59.74l-1.93,2,2.54,1.17,13,6L40,113.15l-.79,2.4,2.52.22,53.1,4.55,2.71.23-.57-2.61v0l-7-45.8L105,69.5l3-.51-1.62-2.53L79,23.43l-1.37-2.16Z"/><polygon class="cls-6" points="141.92 60.72 118.88 51.98 128.24 11.24 131.8 40 141.92 60.72"/><line class="cls-6" x1="118.88" y1="51.98" x2="131.8" y2="40"/><path class="cls-7" d="M119.48,49.38c3.54-.05,3.54,5.52,0,5.46S115.94,49.33,119.48,49.38Z"/><path class="cls-8" d="M132.12,36.89c3.54,0,3.54,5.52,0,5.46S128.58,36.84,132.12,36.89Z"/><path class="cls-8" d="M141.79,58.14c3.54,0,3.54,5.52,0,5.46S138.25,58.09,141.79,58.14Z"/><path class="cls-8" d="M128.24,8.51c3.54,0,3.54,5.52,0,5.46S124.7,8.46,128.24,8.51Z"/><path class="cls-9" d="M68.68,127.8,44.09,138.88,8.46,109.94C23.17,113.58,54.8,122.31,68.68,127.8Z"/><line class="cls-9" x1="44.09" y1="138.88" x2="44.81" y2="119.61"/><path class="cls-8" d="M44.66,135.52c3.87-.06,3.87,6,0,6S40.79,135.45,44.66,135.52Z"/><path class="cls-10" d="M44.77,116.08c3.87-.07,3.87,6,0,6S40.9,116,44.77,116.08Z"/><path class="cls-11" d="M68.7,125c3.87-.07,3.87,6,0,6S64.82,125,68.7,125Z"/><path class="cls-8" d="M8.46,107c3.87-.06,3.87,6,0,6S4.59,106.89,8.46,107Z"/></svg>