<?xml version="1.0" encoding="UTF-8"?><svg id="a" xmlns="http://www.w3.org/2000/svg" viewBox="0 0 100 100"><defs><style>.b,.c{fill:#4b3db6;}.d{fill:#f4cf19;}.c{opacity:.1;}.e{fill:none;stroke:#1c1e21;stroke-miterlimit:10;stroke-width:1.26px;}.f{fill:#ffe01b;}.g{fill:#2ea08a;}.h{fill:#34c6aa;}</style></defs><circle class="c" cx="50" cy="50.66" r="48.43"/><g><rect class="d" x="65.65" y="42.49" width="28.15" height="6.29" rx="1.7" ry="1.7"/><rect class="e" x="3.97" y="44.05" width="30.37" height="6.29" rx="3.15" ry="3.15"/><rect class="e" x="63.28" y="56.67" width="29.74" height="6.29" rx="3.15" ry="3.15"/><rect class="d" x="3.97" y="56.67" width="30.37" height="6.29" rx="1.7" ry="1.7"/><rect class="b" x="41.63" y="56.67" width="16.73" height="6.29" rx="1.7" ry="1.7"/></g><g><path class="h" d="M50,.8s-8.83,14.7-23.4,14.7c0,0-.22,24.38,23.4,39.17"/><path class="g" d="M50,.8s8.83,14.7,23.4,14.7c0,0,.22,24.38-23.4,39.17"/></g><rect class="b" x="7.14" y="67.72" width="27.85" height="27.85"/><rect class="f" x="37.8" y="67.72" width="27.85" height="27.85"/><rect class="b" x="68.45" y="67.72" width="27.85" height="27.85"/></svg>