<svg id="Layer_1" data-name="Layer 1" xmlns="http://www.w3.org/2000/svg" xmlns:xlink="http://www.w3.org/1999/xlink" viewBox="0 0 550 400"><defs><style>.cls-1{fill:#e9f0f2;}.cls-2{fill:url(#linear-gradient);}.cls-3{fill:#3eb096;}.cls-4{fill:#f13624;}.cls-17,.cls-18,.cls-5,.cls-6,.cls-7{fill:none;stroke-miterlimit:10;}.cls-5,.cls-7{stroke:#f13624;}.cls-6{stroke:#3eb096;stroke-width:2.18px;}.cls-7{stroke-width:1.36px;}.cls-11,.cls-8,.cls-9{fill:#fff;}.cls-9{opacity:0.9;}.cls-10{fill:#ffe01b;}.cls-11{opacity:0.5;}.cls-12{fill:#f44545;}.cls-13{fill:#3d2db2;}.cls-14{fill:#573bd3;}.cls-15{fill:#d8b627;}.cls-16{fill:url(#linear-gradient-2);}.cls-17{stroke:url(#linear-gradient-3);}.cls-18{stroke:url(#linear-gradient-4);}</style><linearGradient id="linear-gradient" x1="29.04" y1="45.31" x2="87.48" y2="179.92" gradientUnits="userSpaceOnUse"><stop offset="0.01" stop-color="#786ef4"/><stop offset="1" stop-color="#573bd3"/></linearGradient><linearGradient id="linear-gradient-2" x1="192.34" y1="30.42" x2="534.38" y2="30.42" xlink:href="#linear-gradient"/><linearGradient id="linear-gradient-3" x1="192.34" y1="228.75" x2="534.82" y2="228.75" xlink:href="#linear-gradient"/><linearGradient id="linear-gradient-4" x1="192.34" y1="243.83" x2="534.82" y2="243.83" xlink:href="#linear-gradient"/></defs><polygon class="cls-1" points="534.38 28.4 534.38 197.33 527.29 209.62 498.11 260.17 425.56 260.17 396.37 209.62 389.28 197.33 192.34 197.33 192.34 28.4 534.38 28.4"/><polygon class="cls-1" points="534.38 232.41 534.38 378.55 192.34 378.55 192.34 209.62 376.12 209.62 415.43 277.71 508.23 277.71 534.38 232.41"/><rect class="cls-2" x="15.45" y="28.4" width="164.5" height="350.14"/><polygon class="cls-3" points="448.19 60.61 456.76 44.5 440.11 44.53 448.19 60.61"/><polygon class="cls-3" points="427.58 60.65 436.15 44.54 419.5 44.58 427.58 60.65"/><polygon class="cls-3" points="374.43 60.76 383 44.65 366.35 44.68 374.43 60.76"/><path class="cls-3" d="M486.11,51.25l23.31,0a.63.63,0,0,1,.61.69h0a.67.67,0,0,1-.63.69l-23.31,0a.65.65,0,0,1-.61-.69h0A.67.67,0,0,1,486.11,51.25Z"/><path class="cls-3" d="M389.85,51.45l23.31-.05a.65.65,0,0,1,.61.69h0a.68.68,0,0,1-.63.7l-23.31,0a.63.63,0,0,1-.61-.69h0A.66.66,0,0,1,389.85,51.45Z"/><polygon class="cls-3" points="458.79 60.59 457.14 60.59 464.99 44.48 466.64 44.48 458.79 60.59"/><polygon class="cls-3" points="466.15 60.57 464.5 60.57 472.35 44.47 474 44.47 466.15 60.57"/><polygon class="cls-3" points="473.5 60.55 471.86 60.56 479.71 44.45 481.36 44.45 473.5 60.55"/><polygon class="cls-4" points="469.3 92.07 477.87 75.96 461.22 76 469.3 92.07"/><polygon class="cls-4" points="448.69 92.11 457.25 76 440.61 76.04 448.69 92.11"/><polygon class="cls-4" points="395.54 92.22 404.1 76.11 387.45 76.15 395.54 92.22"/><path class="cls-4" d="M411,82.91l23.31,0a.66.66,0,0,1,.61.7h0a.67.67,0,0,1-.63.69l-23.32,0a.65.65,0,0,1-.61-.69h0A.68.68,0,0,1,411,82.91Z"/><polygon class="cls-4" points="479.9 92.05 478.25 92.05 486.1 75.95 487.75 75.94 479.9 92.05"/><polygon class="cls-4" points="487.26 92.03 485.61 92.04 493.46 75.93 495.11 75.93 487.26 92.03"/><polyline class="cls-5" points="386.96 120.34 395.04 136.42 403.61 120.31"/><polyline class="cls-5" points="366.35 120.39 374.43 136.46 383 120.35"/><polygon class="cls-3" points="469.98 136.57 478.54 120.46 461.89 120.5 469.98 136.57"/><path class="cls-3" d="M485.39,127.26l23.32-.05a.65.65,0,0,1,.61.69h0a.68.68,0,0,1-.63.7l-23.32.05a.66.66,0,0,1-.61-.7h0A.67.67,0,0,1,485.39,127.26Z"/><polygon class="cls-3" points="405.64 136.4 403.99 136.4 411.84 120.3 413.49 120.29 405.64 136.4"/><polygon class="cls-3" points="413 136.38 411.35 136.38 419.2 120.28 420.85 120.28 413 136.38"/><polygon class="cls-3" points="487.79 170.19 496.35 154.08 479.7 154.12 487.79 170.19"/><polygon class="cls-3" points="434.64 170.3 443.2 154.19 426.55 154.22 434.64 170.3"/><polyline class="cls-6" points="396.3 154.29 404.38 170.36 412.95 154.25"/><polyline class="cls-6" points="373.4 154.33 381.49 170.4 390.05 154.3"/><path class="cls-3" d="M450.05,161l23.32-.05a.65.65,0,0,1,.61.69h0a.68.68,0,0,1-.63.7l-23.32,0a.66.66,0,0,1-.61-.7h0A.67.67,0,0,1,450.05,161Z"/><rect class="cls-5" x="361.04" y="67.76" width="148.99" height="31.65"/><polyline class="cls-5" points="361.04 87.08 320.97 127.16 299.55 127.16"/><polygon class="cls-7" points="276 86.37 228.91 86.37 205.36 127.16 228.91 167.94 276 167.94 299.55 127.16 276 86.37"/><path class="cls-4" d="M249,97.74l-25.5,44.15a4,4,0,0,0,3.48,6h51a4,4,0,0,0,3.48-6l-25.5-44.15A4,4,0,0,0,249,97.74Z"/><path class="cls-8" d="M249.32,138.67a3.11,3.11,0,0,1,3.13-3.29,3.29,3.29,0,0,1,0,6.58A3.11,3.11,0,0,1,249.32,138.67Zm1.33-7.59-.74-25.47H255l-.74,25.47Z"/><rect class="cls-9" x="15.45" y="223.33" width="164.5" height="33.31"/><polygon class="cls-10" points="168.41 219.3 136.93 219.38 136.92 208.82 168.39 208.74 168.41 219.3"/><rect class="cls-4" x="110.18" y="225.6" width="58.24" height="10.56" transform="translate(-0.47 0.28) rotate(-0.12)"/><rect class="cls-4" x="89.89" y="242.5" width="60.47" height="10.56" transform="translate(-0.37 0.18) rotate(-0.08)"/><rect class="cls-8" x="121.85" y="259.31" width="28.54" height="10.56" transform="translate(-0.39 0.2) rotate(-0.08)"/><polygon class="cls-10" points="162.07 276.12 169.78 276.07 169.79 286.63 162.09 286.68 162.07 276.12"/><rect class="cls-8" x="66.8" y="276.2" width="81.85" height="10.56" transform="translate(-0.42 0.16) rotate(-0.08)"/><polygon class="cls-8" points="169.82 303.47 155.18 303.52 155.17 292.96 169.8 292.91 169.82 303.47"/><rect class="cls-8" x="107.76" y="293.01" width="31.16" height="10.56" transform="translate(-0.44 0.18) rotate(-0.08)"/><polygon class="cls-11" points="89.97 303.62 37.96 303.69 37.87 293.14 89.88 293.06 89.97 303.62"/><polygon class="cls-11" points="169.84 320.31 162.14 320.36 162.13 309.8 169.83 309.76 169.84 320.31"/><rect class="cls-10" x="66.85" y="309.89" width="78.55" height="10.56" transform="translate(-0.47 0.16) rotate(-0.08)"/><polygon class="cls-10" points="169.87 337.17 162.16 337.21 162.15 326.65 169.85 326.61 169.87 337.17"/><rect class="cls-8" x="121.12" y="326.69" width="29.77" height="10.56" transform="translate(-0.49 0.2) rotate(-0.08)"/><rect class="cls-10" x="81.84" y="326.75" width="29.77" height="10.56" transform="translate(-0.49 0.14) rotate(-0.08)"/><rect class="cls-10" x="24.52" y="326.82" width="45.65" height="10.56" transform="translate(-0.49 0.07) rotate(-0.08)"/><rect class="cls-8" x="78.29" y="259.37" width="32.09" height="10.56" transform="translate(-0.39 0.14) rotate(-0.08)"/><rect class="cls-4" x="66.14" y="225.7" width="32.09" height="10.56" transform="translate(-0.34 0.12) rotate(-0.08)"/><rect class="cls-4" x="46.73" y="242.58" width="32.09" height="10.56" transform="translate(-0.37 0.09) rotate(-0.08)"/><polygon class="cls-11" points="47.12 220.06 31.42 220.06 31.29 203.73 46.99 203.73 47.12 220.06"/><polygon class="cls-8" points="168.61 354.25 137.13 354.33 137.12 343.77 168.59 343.69 168.61 354.25"/><rect class="cls-10" x="110.38" y="360.57" width="58.24" height="10.56" transform="translate(-0.74 0.28) rotate(-0.12)"/><rect class="cls-8" x="66.34" y="360.67" width="32.09" height="10.56" transform="translate(-0.54 0.12) rotate(-0.08)"/><polygon class="cls-11" points="168.41 49.07 136.93 49.15 136.92 38.6 168.39 38.52 168.41 49.07"/><rect class="cls-10" x="110.18" y="55.38" width="58.24" height="10.56" transform="translate(-0.12 0.28) rotate(-0.12)"/><rect class="cls-11" x="87.65" y="72.27" width="60.47" height="10.56" transform="translate(-0.11 0.17) rotate(-0.08)"/><rect class="cls-8" x="121.85" y="89.08" width="28.54" height="10.56" transform="translate(-0.14 0.2) rotate(-0.08)"/><polygon class="cls-11" points="162.07 105.9 169.78 105.85 169.79 116.41 162.09 116.45 162.07 105.9"/><rect class="cls-8" x="66.8" y="105.98" width="81.85" height="10.56" transform="translate(-0.16 0.16) rotate(-0.08)"/><polygon class="cls-8" points="169.82 133.24 155.18 133.3 155.17 122.74 169.8 122.69 169.82 133.24"/><rect class="cls-8" x="107.76" y="122.79" width="31.16" height="10.56" transform="translate(-0.19 0.18) rotate(-0.08)"/><rect class="cls-11" x="35.72" y="122.88" width="52" height="10.56" transform="translate(-0.19 0.09) rotate(-0.08)"/><polygon class="cls-11" points="169.84 150.09 162.14 150.14 162.13 139.58 169.83 139.54 169.84 150.09"/><rect class="cls-10" x="66.85" y="139.66" width="78.55" height="10.56" transform="matrix(1, 0, 0, 1, -0.21, 0.16)"/><polygon class="cls-10" points="169.87 166.94 162.16 166.99 162.15 156.43 169.85 156.39 169.87 166.94"/><rect class="cls-8" x="121.12" y="156.47" width="29.77" height="10.56" transform="translate(-0.24 0.2) rotate(-0.08)"/><rect class="cls-10" x="81.84" y="156.53" width="29.77" height="10.56" transform="translate(-0.24 0.14) rotate(-0.08)"/><rect class="cls-11" x="22.28" y="156.6" width="45.65" height="10.56" transform="translate(-0.24 0.07) rotate(-0.08)"/><rect class="cls-8" x="78.29" y="89.15" width="32.09" height="10.56" transform="translate(-0.14 0.14) rotate(-0.08)"/><rect class="cls-8" x="66.14" y="55.48" width="32.09" height="10.56" transform="translate(-0.09 0.12) rotate(-0.08)"/><rect class="cls-10" x="46.73" y="72.36" width="32.09" height="10.56" transform="translate(-0.11 0.09) rotate(-0.08)"/><rect class="cls-11" x="33.53" y="35.25" width="15.7" height="16.34" transform="translate(-0.69 0.67) rotate(-0.92)"/><polygon class="cls-8" points="168.61 184.03 137.13 184.1 137.12 173.55 168.59 173.47 168.61 184.03"/><rect class="cls-11" x="108.14" y="190.35" width="58.24" height="10.56" transform="translate(-0.4 0.28) rotate(-0.12)"/><rect class="cls-8" x="66.34" y="190.45" width="32.09" height="10.56" transform="translate(-0.29 0.12) rotate(-0.08)"/><path class="cls-12" d="M264.73,79.12l-23.3,0,.08-11.45a11.71,11.71,0,0,1,11.73-11.57,11.49,11.49,0,0,1,11.57,11.55Z"/><path class="cls-12" d="M253.3,50.36a.65.65,0,0,1-.65-.64l.07-6.58a.65.65,0,0,1,.65-.64h0a.65.65,0,0,1,.64.64l0,6.59a.64.64,0,0,1-.66.63Z"/><path class="cls-12" d="M231.12,64.11a.65.65,0,0,1,.65-.64h6.64a.64.64,0,0,1,.64.63.65.65,0,0,1-.64.65h-6.65A.65.65,0,0,1,231.12,64.11Z"/><path class="cls-12" d="M267.07,64.07a.65.65,0,0,1,.65-.62h6.64a.64.64,0,0,1,.64.64.65.65,0,0,1-.65.61h-6.64A.64.64,0,0,1,267.07,64.07Z"/><path class="cls-12" d="M237.65,48.7a.66.66,0,0,1,.91,0l4.67,4.66a.65.65,0,0,1-.92.92l-4.66-4.65A.67.67,0,0,1,237.65,48.7Z"/><path class="cls-12" d="M268.68,48.67a.65.65,0,0,1,0,.92l-4.73,4.68a.65.65,0,0,1-.91,0,.64.64,0,0,1,0-.91l4.73-4.68A.68.68,0,0,1,268.68,48.67Z"/><polygon class="cls-3" points="268.18 82.27 237.94 82.3 237.96 79.15 268.2 79.12 268.18 82.27"/><path class="cls-13" d="M261.22,348.77h-39a3,3,0,0,1-3-3V319.54a3,3,0,0,1,3-3h22.35a3,3,0,0,0,2.16-.92l2.82-3a3,3,0,0,1,2.16-.92h9.5a3,3,0,0,1,3,3v31.05A3,3,0,0,1,261.22,348.77Z"/><rect class="cls-14" x="219.25" y="322.27" width="44.95" height="32.2" rx="1.96"/><rect class="cls-10" x="228.2" y="329.24" width="26.24" height="3.88" rx="1.94"/><rect class="cls-10" x="228.2" y="336.43" width="26.24" height="3.88" rx="1.94"/><rect class="cls-10" x="228.2" y="343.62" width="26.24" height="3.88" rx="1.94"/><path class="cls-13" d="M321.48,348.77h-39a3,3,0,0,1-3-3V319.54a3,3,0,0,1,3-3h22.35a3,3,0,0,0,2.16-.92l2.83-3a3,3,0,0,1,2.15-.92h9.5a3,3,0,0,1,3,3v31.05A3,3,0,0,1,321.48,348.77Z"/><rect class="cls-14" x="279.52" y="322.27" width="44.95" height="32.2" rx="1.96"/><rect class="cls-10" x="288.46" y="329.24" width="26.24" height="3.88" rx="1.94"/><rect class="cls-10" x="288.46" y="336.43" width="26.24" height="3.88" rx="1.94"/><rect class="cls-10" x="288.46" y="343.62" width="26.24" height="3.88" rx="1.94"/><path class="cls-15" d="M381.74,348.77h-39a3,3,0,0,1-3-3V319.54a3,3,0,0,1,3-3h22.36a3,3,0,0,0,2.15-.92l2.83-3a3,3,0,0,1,2.15-.92h9.5a3,3,0,0,1,3,3v31.05A3,3,0,0,1,381.74,348.77Z"/><rect class="cls-10" x="339.78" y="322.27" width="44.95" height="32.2" rx="1.96"/><rect class="cls-8" x="348.72" y="329.24" width="26.24" height="3.88" rx="1.94"/><rect class="cls-8" x="348.72" y="336.43" width="26.24" height="3.88" rx="1.94"/><rect class="cls-8" x="348.72" y="343.62" width="26.24" height="3.88" rx="1.94"/><path class="cls-13" d="M261.22,285.6h-39a3,3,0,0,1-3-3V256.38a3,3,0,0,1,3-3h22.35a3,3,0,0,0,2.16-.93l2.82-2.95a3,3,0,0,1,2.16-.93h9.5a3,3,0,0,1,3,3v31A3,3,0,0,1,261.22,285.6Z"/><rect class="cls-14" x="219.25" y="259.1" width="44.95" height="32.2" rx="1.96"/><rect class="cls-10" x="228.2" y="266.07" width="26.24" height="3.88" rx="1.94"/><rect class="cls-10" x="228.2" y="273.27" width="26.24" height="3.88" rx="1.94"/><rect class="cls-10" x="228.2" y="280.46" width="26.24" height="3.88" rx="1.94"/><path class="cls-15" d="M321.48,285.6h-39a3,3,0,0,1-3-3V256.38a3,3,0,0,1,3-3h22.35a3,3,0,0,0,2.16-.93l2.83-2.95a3,3,0,0,1,2.15-.93h9.5a3,3,0,0,1,3,3v31A3,3,0,0,1,321.48,285.6Z"/><rect class="cls-10" x="279.52" y="259.1" width="44.95" height="32.2" rx="1.96"/><rect class="cls-8" x="288.46" y="266.07" width="26.24" height="3.88" rx="1.94"/><rect class="cls-8" x="288.46" y="273.27" width="26.24" height="3.88" rx="1.94"/><rect class="cls-8" x="288.46" y="280.46" width="26.24" height="3.88" rx="1.94"/><path class="cls-13" d="M381.74,285.6h-39a3,3,0,0,1-3-3V256.38a3,3,0,0,1,3-3h22.36a3,3,0,0,0,2.15-.93l2.83-2.95a3,3,0,0,1,2.15-.93h9.5a3,3,0,0,1,3,3v31A3,3,0,0,1,381.74,285.6Z"/><rect class="cls-14" x="339.78" y="259.1" width="44.95" height="32.2" rx="1.96"/><rect class="cls-10" x="348.72" y="266.07" width="26.24" height="3.88" rx="1.94"/><rect class="cls-10" x="348.72" y="273.27" width="26.24" height="3.88" rx="1.94"/><rect class="cls-10" x="348.72" y="280.46" width="26.24" height="3.88" rx="1.94"/><path class="cls-15" d="M442,348.77H403a3,3,0,0,1-3-3V319.54a3,3,0,0,1,3-3h22.36a3,3,0,0,0,2.15-.92l2.83-3a3,3,0,0,1,2.16-.92H442a3,3,0,0,1,3,3v31.05A3,3,0,0,1,442,348.77Z"/><rect class="cls-10" x="400.04" y="322.27" width="44.95" height="32.2" rx="1.96"/><rect class="cls-8" x="408.98" y="329.24" width="26.24" height="3.88" rx="1.94"/><rect class="cls-8" x="408.98" y="336.43" width="26.24" height="3.88" rx="1.94"/><rect class="cls-8" x="408.98" y="343.62" width="26.24" height="3.88" rx="1.94"/><path class="cls-15" d="M502.27,348.77h-39a3,3,0,0,1-3-3V319.54a3,3,0,0,1,3-3h22.36a3,3,0,0,0,2.16-.92l2.82-3a3,3,0,0,1,2.16-.92h9.49a3,3,0,0,1,3,3v31.05A3,3,0,0,1,502.27,348.77Z"/><rect class="cls-10" x="460.3" y="322.27" width="44.95" height="32.2" rx="1.96"/><rect class="cls-8" x="469.24" y="329.24" width="26.24" height="3.88" rx="1.94"/><rect class="cls-8" x="469.24" y="336.43" width="26.24" height="3.88" rx="1.94"/><rect class="cls-8" x="469.24" y="343.62" width="26.24" height="3.88" rx="1.94"/><polyline class="cls-5" points="361.84 253.4 361.84 229.65 251.79 229.65"/><line class="cls-5" x1="279.52" y1="338.37" x2="264.21" y2="338.37"/><polyline class="cls-5" points="219.25 337.21 208.67 337.21 208.67 239.99"/><rect class="cls-16" x="192.34" y="28.4" width="342.04" height="4.02"/><rect class="cls-10" x="192.34" y="374.92" width="342.04" height="4.02"/><polyline class="cls-17" points="192.34 197.33 389.28 197.33 425.56 260.17 498.11 260.17 534.38 197.33"/><polyline class="cls-18" points="192.34 209.62 376.68 209.62 416.1 278.04 508.23 278.04 534.38 232.41"/><polyline class="cls-5" points="179.96 239.99 252.46 239.99 252.46 167.05"/></svg>