<?xml version="1.0" encoding="UTF-8"?><svg id="a" xmlns="http://www.w3.org/2000/svg" viewBox="0 0 100 100"><defs><style>.b,.c{fill:#4b3db6;}.c{opacity:.1;}.d{fill:#ffe01b;}.e{fill:#fdfeff;}.f{fill:#2ea08a;}.g{fill:#34c6aa;}.h{fill:#336ce5;}.i{fill:none;stroke:#1c1e21;stroke-miterlimit:10;stroke-width:1.27px;}</style></defs><path class="c" d="M27.86,96.6V24.48c0-1.78,1.44-3.22,3.22-3.22H100V96.6H27.86Z"/><g><path class="g" d="M73.71,43.16s-8.37,13.92-22.17,13.92c0,0-.21,23.1,22.17,37.12"/><path class="f" d="M73.71,43.16s8.37,13.92,22.17,13.92c0,0,.21,23.1-22.17,37.12"/></g><polyline class="i" points="10.09 38.01 10.09 71.12 27.86 71.12"/><rect class="b" x="24.15" y="67.42" width="7.41" height="7.41"/><rect class="d" x="85.12" y="17.55" width="7.41" height="7.41"/><polyline class="i" points="36.07 8.62 88.82 8.62 88.82 17.55"/><g><path class="h" d="M29.65,56.34c-3.65,0-7.3,0-10.95,0-.48,0-.95-.03-1.42-.17-.82-.25-1.48-.73-2.01-1.39-1.39-1.73-2.78-3.46-4.17-5.19-3.18-3.96-6.36-7.92-9.56-11.88-.86-1.06-1.12-2.23-.82-3.55,1.63-7.08,3.26-14.15,4.88-21.23,.3-1.32,1.05-2.26,2.27-2.85C14.52,6.94,21.15,3.77,27.78,.6c1.23-.59,2.43-.53,3.65,.05,2.91,1.4,5.82,2.78,8.73,4.18,3.63,1.74,7.26,3.48,10.9,5.2,1.32,.62,2.11,1.59,2.43,3.01,1.37,6.04,2.78,12.08,4.17,18.11,.24,1.04,.47,2.08,.71,3.12,.29,1.25,.03,2.36-.76,3.36-1.07,1.34-2.14,2.67-3.22,4.01-3.52,4.38-7.04,8.75-10.55,13.13-.85,1.06-1.93,1.58-3.29,1.57-3.64-.01-7.27,0-10.91,0v.02Zm-1.02-44.51s0,.09,0,.16c.02,.4,0,.79-.31,1.09-.05,.04-.06,.12-.08,.19-.09,.37-.09,.37-.45,.42-.08,.01-.17,.03-.25,.04-2.79,.35-5.3,1.39-7.54,3.1-.58,.44-1.13,.93-1.63,1.46-.14,.15-.26,.19-.42,.04-.09-.09-.21-.15-.34-.12-.36,.07-.63-.1-.88-.32-.2-.17-.4-.35-.6-.53-.47-.43-.88-.91-1.32-1.36-.29-.3-.61-.58-1.04-.69-.72-.18-1.4,.26-1.48,.98-.04,.43,.12,.8,.43,1.1,.32,.31,.69,.52,1.07,.74,.68,.37,1.33,.78,1.93,1.28,.18,.15,.3,.32,.35,.56,.03,.15,.06,.29,.19,.41,.23,.22,.23,.23,.05,.51-.59,.94-1.09,1.93-1.47,2.98-.72,2-1.07,4.06-.93,6.2,.02,.36,.03,.73,.09,1.09,.03,.19,0,.34-.22,.37-.18,.02-.31,.13-.41,.27-.17,.25-.42,.36-.7,.42-.69,.14-1.38,.23-2.08,.27-.29,.02-.59,.03-.88,.08-.36,.06-.72,.15-.99,.42-.32,.31-.5,.68-.39,1.14,.11,.47,.43,.75,.88,.87,.21,.06,.41,.07,.62,.03,.43-.07,.84-.23,1.24-.4,.69-.28,1.39-.52,2.12-.69,.23-.05,.45-.05,.65,.06,.19,.11,.38,.16,.6,.08,.13-.05,.21,0,.25,.14,.02,.08,.05,.16,.08,.24,.79,2.2,2,4.13,3.65,5.8,.85,.86,1.8,1.61,2.83,2.25,.26,.16,.37,.16,.19,.52-.07,.13-.07,.27-.02,.4,.11,.25,.05,.49-.06,.73-.35,.74-.78,1.43-1.26,2.09-.22,.31-.42,.63-.56,.99-.16,.42-.16,.83,.08,1.21,.45,.73,1.49,.71,2.01-.04,.21-.3,.36-.64,.45-.99,.16-.61,.4-1.2,.6-1.8,.1-.29,.22-.58,.39-.84,.09-.13,.18-.27,.33-.31,.24-.06,.39-.2,.48-.42,.06-.15,.17-.17,.31-.1,.06,.03,.13,.05,.2,.07,2.7,.93,5.45,1.14,8.25,.58,.72-.14,1.42-.34,2.11-.58,.32-.11,.32-.11,.49,.15,.05,.08,.09,.18,.2,.21,.44,.11,.61,.47,.77,.83,.32,.72,.56,1.47,.78,2.22,.12,.39,.26,.77,.54,1.08,.39,.44,.97,.56,1.45,.32,.48-.24,.74-.82,.61-1.4-.03-.12-.08-.24-.13-.36-.13-.31-.32-.59-.51-.87-.47-.65-.89-1.33-1.24-2.05-.11-.22-.18-.45-.09-.69,.07-.19,.06-.35-.03-.52-.08-.16-.02-.26,.13-.34,.08-.04,.14-.09,.21-.13,1.97-1.26,3.58-2.88,4.83-4.86,.65-1.04,1.19-2.13,1.57-3.3,.08-.23,.17-.34,.42-.26,.11,.04,.22,.04,.32-.04,.27-.21,.58-.18,.89-.11,.79,.19,1.56,.47,2.31,.78,.44,.19,.9,.33,1.39,.28,.68-.07,1.14-.6,1.09-1.26-.04-.49-.42-.93-.97-1.1-.43-.14-.88-.16-1.33-.19-.74-.05-1.48-.13-2.2-.31-.23-.06-.42-.16-.55-.35-.11-.16-.24-.27-.43-.3-.15-.03-.2-.13-.18-.28,.03-.28,.06-.56,.08-.84,.15-2.39-.22-4.7-1.11-6.92-.37-.91-.82-1.79-1.36-2.61-.11-.16-.16-.29,.04-.42,.18-.11,.25-.28,.26-.5,0-.16,.09-.3,.21-.4,.14-.13,.29-.26,.45-.38,.6-.44,1.23-.83,1.89-1.18,.35-.19,.67-.42,.92-.72,.57-.7,.32-1.68-.49-1.92-.43-.13-.83-.04-1.2,.22-.38,.27-.69,.61-1,.96-.48,.53-.99,1.03-1.56,1.47-.19,.15-.39,.24-.62,.23-.23-.02-.41,.04-.58,.19-.12,.11-.22,.09-.32-.03-.05-.06-.12-.12-.18-.18-1.69-1.66-3.65-2.88-5.88-3.67-1.13-.4-2.29-.66-3.48-.8-.21-.03-.35-.07-.32-.32,.02-.16-.05-.29-.18-.41-.19-.17-.24-.4-.24-.65-.01-.79,.09-1.57,.21-2.34,.06-.37,.13-.75,.1-1.13-.03-.49-.21-.9-.64-1.17-.75-.46-1.7,.07-1.78,1-.03,.36-.03,.73,.04,1.09,.13,.66,.21,1.33,.24,2.06Z"/><path class="e" d="M28.63,11.83c-.03-.73-.11-1.39-.24-2.06-.07-.36-.07-.73-.04-1.09,.08-.92,1.03-1.45,1.78-1,.43,.26,.61,.68,.64,1.17,.03,.38-.04,.75-.1,1.13-.13,.78-.23,1.55-.21,2.34,0,.25,.06,.48,.24,.65,.12,.11,.19,.24,.18,.41-.03,.25,.11,.29,.32,.32,1.19,.14,2.35,.4,3.48,.8,2.23,.79,4.19,2.01,5.88,3.67,.06,.06,.12,.11,.18,.18,.1,.12,.2,.14,.32,.03,.16-.14,.35-.21,.58-.19,.23,.02,.43-.08,.62-.23,.56-.45,1.08-.94,1.56-1.47,.31-.34,.62-.69,1-.96,.37-.26,.77-.35,1.2-.22,.81,.24,1.06,1.23,.49,1.92-.25,.31-.58,.53-.92,.72-.66,.35-1.29,.74-1.89,1.18-.16,.12-.31,.24-.45,.38-.12,.11-.2,.24-.21,.4,0,.21-.09,.38-.26,.5-.2,.13-.14,.25-.04,.42,.54,.82,.99,1.7,1.36,2.61,.89,2.22,1.26,4.53,1.11,6.92-.02,.28-.05,.56-.08,.84-.02,.15,.03,.24,.18,.28,.19,.04,.33,.14,.43,.3,.13,.2,.32,.3,.55,.35,.72,.18,1.46,.26,2.2,.31,.45,.03,.9,.05,1.33,.19,.55,.17,.93,.61,.97,1.1,.05,.66-.41,1.19-1.09,1.26-.49,.05-.95-.09-1.39-.28-.75-.32-1.51-.59-2.31-.78-.31-.07-.61-.1-.89,.11-.1,.08-.21,.08-.32,.04-.24-.08-.34,.03-.42,.26-.38,1.16-.92,2.26-1.57,3.3-1.25,1.98-2.86,3.6-4.83,4.86-.07,.05-.14,.1-.21,.13-.15,.07-.21,.18-.13,.34,.08,.17,.1,.34,.03,.52-.09,.24-.01,.47,.09,.69,.35,.72,.77,1.4,1.24,2.05,.2,.27,.38,.56,.51,.87,.05,.12,.1,.23,.13,.36,.13,.57-.12,1.16-.61,1.4-.48,.24-1.06,.11-1.45-.32-.28-.31-.43-.69-.54-1.08-.22-.75-.46-1.5-.78-2.22-.16-.36-.32-.72-.77-.83-.1-.02-.14-.13-.2-.21-.17-.26-.17-.27-.49-.15-.69,.24-1.39,.44-2.11,.58-2.81,.57-5.55,.36-8.25-.58-.07-.02-.13-.04-.2-.07-.14-.07-.25-.05-.31,.1-.09,.22-.25,.36-.48,.42-.16,.04-.25,.18-.33,.31-.17,.26-.29,.54-.39,.84-.2,.6-.44,1.18-.6,1.8-.09,.35-.24,.69-.45,.99-.52,.75-1.57,.77-2.01,.04-.24-.39-.24-.79-.08-1.21,.14-.36,.34-.68,.56-.99,.47-.66,.9-1.35,1.26-2.09,.11-.24,.17-.47,.06-.73-.06-.14-.05-.27,.02-.4,.18-.36,.07-.36-.19-.52-1.03-.64-1.97-1.39-2.83-2.25-1.65-1.66-2.86-3.59-3.65-5.8-.03-.08-.06-.16-.08-.24-.03-.14-.12-.19-.25-.14-.22,.08-.41,.03-.6-.08-.2-.12-.42-.12-.65-.06-.73,.16-1.43,.41-2.12,.69-.4,.16-.81,.32-1.24,.4-.21,.04-.42,.03-.62-.03-.45-.13-.77-.41-.88-.87-.11-.46,.06-.82,.39-1.14,.28-.27,.63-.36,.99-.42,.29-.05,.59-.07,.88-.08,.7-.04,1.4-.13,2.08-.27,.29-.06,.53-.17,.7-.42,.1-.14,.22-.25,.41-.27,.22-.03,.25-.18,.22-.37-.06-.36-.07-.73-.09-1.09-.14-2.13,.2-4.19,.93-6.2,.38-1.05,.88-2.04,1.47-2.98,.17-.28,.18-.29-.05-.51-.13-.12-.16-.26-.19-.41-.05-.23-.17-.41-.35-.56-.6-.49-1.25-.9-1.93-1.28-.38-.21-.76-.43-1.07-.74-.31-.3-.48-.67-.43-1.1,.08-.72,.76-1.16,1.48-.98,.43,.11,.75,.38,1.04,.69,.44,.45,.85,.93,1.32,1.36,.2,.18,.4,.36,.6,.53,.25,.22,.52,.38,.88,.32,.14-.03,.25,.03,.34,.12,.16,.15,.27,.11,.42-.04,.5-.53,1.05-1.01,1.63-1.46,2.24-1.71,4.75-2.75,7.54-3.1,.08-.01,.17-.03,.25-.04,.36-.05,.36-.05,.45-.42,.02-.07,.03-.15,.08-.19,.32-.31,.33-.69,.31-1.09,0-.07,0-.14,0-.16Zm7.66,27.91c2.06-1.12,4.92-4.76,4.92-6.26-.04,0-.08-.02-.12-.03-1.64-.28-3.29-.56-4.93-.84-.41-.07-.82-.17-1.25-.18-.76-.02-1.26,.6-1.08,1.34,.04,.15,.1,.29,.16,.43,.51,1.24,1.03,2.49,1.54,3.73,.25,.59,.49,1.19,.75,1.81Zm-15.44-19.39c.04,.08,.11,.12,.18,.17,1.58,1.12,3.16,2.24,4.74,3.35,.14,.1,.28,.19,.43,.25,.54,.23,1.19-.06,1.37-.62,.05-.16,.08-.33,.1-.49,.06-.94,.11-1.87,.17-2.81,.05-.84,.1-1.68,.15-2.52,.01-.26,.05-.52,0-.78-2.57,.25-6.08,1.95-7.12,3.45Zm-1.94,2.39c-1.65,2.5-2.13,6.16-1.7,7.76,.04,0,.08,0,.12-.01,1.89-.54,3.77-1.09,5.65-1.64,.12-.04,.24-.08,.35-.13,.65-.31,.83-1.05,.39-1.62-.1-.13-.22-.25-.35-.36-.99-.89-1.99-1.78-2.98-2.67-.49-.44-.98-.87-1.5-1.33Zm21.25-.01c-1.09,.97-2.13,1.9-3.16,2.82-.51,.46-1.02,.92-1.53,1.39-.34,.31-.46,.69-.3,1.14,.16,.44,.52,.64,.94,.76,1.82,.52,3.63,1.05,5.45,1.57,.12,.04,.25,.12,.41,.05,.22-2.75-.36-5.31-1.81-7.73Zm-17.34,17.01c.15-.37,.29-.69,.42-1.01,.62-1.5,1.25-3,1.87-4.5,.11-.27,.22-.55,.18-.85-.1-.65-.65-1.02-1.38-.89-1.87,.31-3.73,.63-5.59,.96-.49,.08-.49,.09-.31,.54,.65,1.56,1.56,2.94,2.76,4.13,.61,.6,1.27,1.15,2.05,1.64Zm2.8,1.31c.11,.11,.25,.12,.38,.16,.74,.22,1.49,.37,2.26,.45,1.7,.19,3.36,0,4.99-.48,.3-.09,.3-.1,.16-.37-.93-1.69-1.87-3.38-2.81-5.08-.23-.42-.54-.73-1.05-.73-.53,0-.82,.34-1.06,.77-.89,1.64-1.8,3.26-2.7,4.9-.07,.12-.16,.23-.17,.38Zm5.46-24.17c.11,2.04,.22,4.03,.33,6.01,0,.14,.03,.28,.05,.42,.12,.66,.78,1.03,1.4,.8,.2-.07,.37-.19,.54-.32,1.51-1.07,3.02-2.14,4.53-3.21,.1-.07,.23-.11,.29-.28-1.99-1.9-4.35-3.04-7.13-3.42Zm-1.52,10.4c-.24,0-.48,.01-.71,0-.2-.01-.34,.07-.46,.23-.26,.35-.53,.69-.82,1.02-.16,.18-.18,.36-.12,.58,.09,.34,.18,.68,.23,1.02,.06,.39,.23,.64,.61,.75,.13,.04,.25,.12,.38,.18,.29,.13,.57,.39,.88,.37,.29-.02,.56-.23,.84-.36,.29-.14,.65-.21,.84-.45,.2-.24,.18-.61,.25-.92,.07-.3,.22-.61,.18-.9-.04-.31-.38-.5-.55-.78-.36-.59-.82-.95-1.56-.74Z"/><path class="h" d="M36.29,39.75c-.26-.62-.5-1.21-.75-1.81-.52-1.24-1.03-2.48-1.54-3.73-.06-.14-.12-.29-.16-.43-.18-.74,.32-1.36,1.08-1.34,.42,.01,.83,.12,1.25,.18,1.64,.28,3.29,.56,4.93,.84,.04,0,.08,.02,.12,.03,0,1.49-2.86,5.14-4.92,6.26Z"/><path class="h" d="M20.86,20.35c1.05-1.49,4.55-3.19,7.12-3.45,.06,.26,.02,.52,0,.78-.05,.84-.1,1.68-.15,2.52-.06,.94-.11,1.87-.17,2.81-.01,.17-.04,.34-.1,.49-.18,.55-.82,.84-1.37,.62-.15-.06-.3-.16-.43-.25-1.58-1.12-3.16-2.23-4.74-3.35-.07-.05-.14-.09-.18-.17Z"/><path class="h" d="M18.91,22.74c.51,.46,1.01,.89,1.5,1.33,.99,.89,1.99,1.78,2.98,2.67,.12,.11,.24,.23,.35,.36,.44,.57,.26,1.31-.39,1.62-.11,.05-.23,.1-.35,.13-1.88,.55-3.77,1.09-5.65,1.64-.04,.01-.08,0-.12,.01-.42-1.6,.06-5.27,1.7-7.76Z"/><path class="h" d="M40.16,22.73c1.45,2.42,2.03,4.97,1.81,7.73-.15,.08-.28-.01-.41-.05-1.82-.52-3.64-1.05-5.45-1.57-.42-.12-.78-.31-.94-.76-.16-.45-.03-.83,.3-1.14,.5-.47,1.01-.93,1.53-1.39,1.03-.93,2.07-1.85,3.16-2.82Z"/><path class="h" d="M22.82,39.74c-.79-.49-1.44-1.03-2.05-1.64-1.2-1.19-2.12-2.57-2.76-4.13-.18-.44-.18-.45,.31-.54,1.86-.32,3.73-.64,5.59-.96,.72-.12,1.28,.24,1.38,.89,.05,.3-.06,.58-.18,.85-.62,1.5-1.24,3-1.87,4.5-.13,.32-.27,.64-.42,1.01Z"/><path class="h" d="M25.61,41.05c.01-.15,.11-.26,.17-.38,.9-1.63,1.81-3.26,2.7-4.9,.24-.43,.53-.77,1.06-.77,.51,0,.82,.32,1.05,.73,.94,1.69,1.87,3.38,2.81,5.08,.15,.26,.14,.28-.16,.37-1.63,.48-3.29,.66-4.99,.48-.77-.08-1.52-.23-2.26-.45-.13-.04-.28-.05-.38-.16Z"/><path class="h" d="M31.08,16.88c2.78,.38,5.14,1.52,7.13,3.42-.06,.17-.19,.21-.29,.28-1.51,1.07-3.02,2.14-4.53,3.21-.17,.12-.35,.24-.54,.32-.62,.23-1.29-.14-1.4-.8-.02-.14-.04-.28-.05-.42-.11-1.98-.22-3.97-.33-6.01Z"/><path class="h" d="M29.56,27.29c.74-.21,1.2,.16,1.56,.74,.17,.27,.51,.47,.55,.78,.04,.28-.11,.6-.18,.9-.07,.31-.06,.68-.25,.92-.2,.24-.55,.31-.84,.45-.28,.13-.55,.34-.84,.36-.31,.02-.58-.24-.88-.37-.13-.06-.25-.14-.38-.18-.38-.11-.56-.36-.61-.75-.05-.35-.14-.69-.23-1.02-.06-.22-.04-.39,.12-.58,.29-.32,.55-.67,.82-1.02,.12-.16,.26-.24,.46-.23,.24,.01,.48,0,.71,0Z"/></g></svg>