<svg id="Layer_1" data-name="Layer 1" xmlns="http://www.w3.org/2000/svg" xmlns:xlink="http://www.w3.org/1999/xlink" viewBox="0 0 500 360"><defs><style>.cls-1{opacity:0.5;}.cls-2{fill:#a6ddce;}.cls-3{fill:#fbe104;}.cls-4{fill:#d1d3d4;}.cls-5{fill:#573bd3;}.cls-10,.cls-15,.cls-18,.cls-6{fill:none;}.cls-10,.cls-15,.cls-6{stroke:#fff;}.cls-10,.cls-18,.cls-6{stroke-miterlimit:10;}.cls-6{stroke-width:2.25px;}.cls-7{fill:#17a388;}.cls-8{fill:#34c6aa;}.cls-9{fill:#fff;}.cls-10,.cls-15{stroke-width:2.29px;}.cls-11{fill:url(#linear-gradient);}.cls-12{fill:url(#linear-gradient-2);}.cls-13{fill:url(#linear-gradient-3);}.cls-14{fill:url(#linear-gradient-4);}.cls-15{stroke-linecap:round;stroke-linejoin:round;}.cls-16{fill:#c4a422;}.cls-17{fill:#f5df4d;}.cls-18{stroke:#3f2d10;}.cls-19{fill:#326ce4;}.cls-20{fill:#fbfcfe;}</style><linearGradient id="linear-gradient" x1="5398.58" y1="200.51" x2="5474.54" y2="180.89" gradientTransform="matrix(-1, 0, 0, 1, 5762.14, 63.41)" gradientUnits="userSpaceOnUse"><stop offset="0" stop-color="#f4cd2a"/><stop offset="1" stop-color="#d28d0d"/></linearGradient><linearGradient id="linear-gradient-2" x1="5399.97" y1="205.88" x2="5475.92" y2="186.25" xlink:href="#linear-gradient"/><linearGradient id="linear-gradient-3" x1="5401.36" y1="211.24" x2="5477.31" y2="191.62" xlink:href="#linear-gradient"/><linearGradient id="linear-gradient-4" x1="5402.74" y1="216.61" x2="5478.7" y2="196.98" xlink:href="#linear-gradient"/></defs><g class="cls-1"><rect class="cls-2" x="87.21" y="171.61" width="60.38" height="6.35"/><rect class="cls-3" x="107.71" y="183.95" width="60.38" height="6.35"/><rect class="cls-4" x="87.21" y="196.29" width="105.22" height="6.35"/><rect class="cls-3" x="99.5" y="208.64" width="42.17" height="6.35"/><rect class="cls-4" x="156.89" y="208.64" width="42.17" height="6.35"/><rect class="cls-4" x="87.21" y="221" width="76.72" height="6.35"/><rect class="cls-2" x="113.17" y="233.34" width="60.38" height="6.35"/><rect class="cls-2" x="99.5" y="245.56" width="62.67" height="6.6"/><rect class="cls-4" x="180.21" y="245.56" width="18.85" height="6.6"/><rect class="cls-3" x="87.21" y="258.02" width="60.38" height="6.35"/><rect class="cls-3" x="162.24" y="258.02" width="23.35" height="6.35"/><rect class="cls-4" x="117.41" y="270.39" width="60.38" height="6.35"/><rect class="cls-3" x="103.55" y="282.73" width="60.38" height="6.35"/><rect class="cls-2" x="181.23" y="282.73" width="9.44" height="6.35"/><rect class="cls-4" x="87.21" y="295.07" width="46.52" height="6.35"/><rect class="cls-2" x="133.73" y="307.41" width="53.36" height="6.35"/></g><path class="cls-5" d="M186.49,353.81V156.71a10.85,10.85,0,0,1,10.85-10.85H493.53v208Z"/><path class="cls-6" d="M186.49,353.81V156.71a10.85,10.85,0,0,1,10.85-10.85H493.53"/><path class="cls-7" d="M409.85,157.77S428.63,189,459.61,189c0,0,.47,51.85-49.76,83.3"/><path class="cls-8" d="M409.85,157.77S391.07,189,360.09,189c0,0-.47,51.85,49.76,83.3"/><path class="cls-9" d="M409.85,157.76S428.63,189,459.61,189c0,0,.47,51.84-49.76,83.3-50.23-31.46-49.76-83.3-49.76-83.3,31,0,49.76-31.25,49.76-31.25m0-3.88-1.71,2.85h0C408,157,389.55,187,360.09,187h-2l0,2c0,.55,0,13.52,6.16,30.56A107.28,107.28,0,0,0,408.79,274l1.06.66,1.06-.66a107.2,107.2,0,0,0,44.53-54.46c6.22-17,6.17-30,6.17-30.56l0-2h-2c-29.51,0-47.86-30-48.05-30.28l-1.71-2.85Z"/><rect class="cls-9" x="233.66" y="236.22" width="109.95" height="31.32" rx="15.66"/><rect class="cls-10" x="233.66" y="178.3" width="105.18" height="36.74" rx="18.37"/><path class="cls-11" d="M323.22,257l-2.7,1.76-2.87-4.43-2.86,4.59-2.7-1.84,3.42-4.14-5.16-1.41,1-3,4.84,2-.41-5.6h3.35l-.39,5.49,5-2,1,3-5.09,1.4Z"/><path class="cls-12" d="M301.08,257l-2.71,1.76-2.87-4.43-2.86,4.59-2.7-1.84,3.42-4.14-5.15-1.41,1-3,4.84,2-.4-5.6H297l-.39,5.49,5-2,1,3-5.09,1.4Z"/><path class="cls-13" d="M278.93,257l-2.7,1.76-2.88-4.43-2.85,4.59L267.79,257l3.43-4.14-5.16-1.41,1-3,4.84,2-.41-5.6h3.34l-.39,5.49,5-2,1,3-5.09,1.4Z"/><path class="cls-14" d="M256.78,257l-2.7,1.76-2.87-4.43-2.86,4.59-2.7-1.84,3.42-4.14-5.15-1.41,1-3,4.84,2-.4-5.6h3.34l-.39,5.49,5-2,1,3-5.09,1.4Z"/><line class="cls-15" x1="313.66" y1="196.67" x2="253.29" y2="196.67"/><rect class="cls-16" x="217.9" y="287.2" width="116.61" height="66.6"/><rect class="cls-17" x="228.2" y="294.76" width="12.45" height="58.74" rx="1"/><rect class="cls-17" x="254.53" y="294.76" width="12.45" height="58.74" rx="1"/><rect class="cls-17" x="280.87" y="294.76" width="12.45" height="58.74" rx="1"/><rect class="cls-17" x="307.79" y="294.76" width="12.45" height="58.74" rx="1"/><rect class="cls-16" x="351.55" y="287.2" width="116.61" height="66.6"/><rect class="cls-17" x="363.83" y="294.76" width="12.45" height="58.74" rx="1"/><rect class="cls-17" x="390.16" y="294.76" width="12.45" height="58.74" rx="1"/><rect class="cls-17" x="416.49" y="294.76" width="12.45" height="58.74" rx="1"/><rect class="cls-17" x="443.42" y="294.76" width="12.45" height="58.74" rx="1"/><path class="cls-18" d="M126.33,47.09H355.78A13.89,13.89,0,0,1,369.67,61v83.46"/><path class="cls-18" d="M186.32,321.82H80.22a13.89,13.89,0,0,1-13.89-13.89V148.71"/><path class="cls-19" d="M53,150.41a13.49,13.49,0,0,1-11.19-5.32C30,130.3,18,115.51,7.88,103A12.77,12.77,0,0,1,5.19,91.38c3.46-14.71,6.89-29.69,10.2-44.18l2-8.68a12.54,12.54,0,0,1,7.35-9C41.81,21.44,59.28,13.07,74.31,5.85A12.87,12.87,0,0,1,79.92,4.5a13.34,13.34,0,0,1,5.72,1.38c15.72,7.53,32.61,15.61,49.59,23.65a12.24,12.24,0,0,1,7.2,8.73l.88,3.85c3.74,16.39,7.61,33.34,11.5,50a11.35,11.35,0,0,1-2.28,10.13C142.39,114.9,132,127.74,122,140.16l-4.65,5.76c-2.41,3-5.7,4.45-10,4.45H64.46c-3.75,0-7.5,0-11.25.05Zm-14.1-60.2c3.62,0,5.21,2.7,6.09,4.73,1.82,4.2,4.56,8.13,8.89,12.77a10.52,10.52,0,0,0,2.36,1.69c2,1.16,4.42,2.62,4.74,6s-1.39,5.58-2.9,7.65a22.48,22.48,0,0,0-1.45,2.14c-.79,1.38-.72,2-.66,2.23a1.53,1.53,0,0,0,.86.76,1.75,1.75,0,0,0,.7.2c.67,0,1.25-1.17,1.53-1.86.36-.87.64-1.77.94-2.73a30.58,30.58,0,0,1,1.29-3.56c.53-1.17,1.94-4.29,5.48-4.29a8,8,0,0,1,2.47.44,35.26,35.26,0,0,0,10.93,1.78,33.56,33.56,0,0,0,10.54-1.71,8.06,8.06,0,0,1,2.52-.44c3.19,0,4.64,2.43,5.45,4.26a37.91,37.91,0,0,1,1.3,3.59c.27.84.53,1.63.83,2.4.36.94.92,2.05,1.56,2.05a1.94,1.94,0,0,0,.79-.23,1.45,1.45,0,0,0,.83-.72c.06-.22.12-.85-.71-2.24-.42-.7-.87-1.38-1.31-2.07a39.8,39.8,0,0,1-2.37-4c-2-4,0-6.43,2-7.77a37,37,0,0,0,13.61-16.74c.8-1.9,2.26-4.42,5.58-4.42a10,10,0,0,1,3,.51c.9.27,1.78.58,2.67.9,1.21.43,2.36.83,3.52,1.13a4.12,4.12,0,0,0,1,.14,1,1,0,0,0,1.18-.93,1.49,1.49,0,0,0-.08-1.12,2.39,2.39,0,0,0-1.56-.72c-1.28-.21-2.56-.33-3.91-.47l-1.94-.21c-4.82-.55-6.71-2.69-6.52-7.38a37.75,37.75,0,0,0-5.47-21.49,4.22,4.22,0,0,1-.12-4.5c1.3-2.77,3.63-4.05,5.69-5.18a22.46,22.46,0,0,0,2.22-1.33c2.14-1.53,2-2.05,1.4-2.92a.84.84,0,0,0-.77-.42,3.9,3.9,0,0,0-2.36,1.22c-.58.56-1.14,1.14-1.7,1.72a37.47,37.47,0,0,1-2.85,2.77,7,7,0,0,1-4.42,2,6.19,6.19,0,0,1-4.29-2,34.61,34.61,0,0,0-19.34-9.35c-4.89-.7-5.39-4.06-5.33-6.53A37.07,37.07,0,0,1,81.08,32c.14-1.07.28-2.08.32-3.08a3.12,3.12,0,0,0-.47-2.14,1.2,1.2,0,0,0-1-.31,1.23,1.23,0,0,0-1,.32,2.94,2.94,0,0,0-.46,2.09c.07,1.21.25,2.43.45,3.73.09.61.19,1.22.27,1.84l0,.28L79.2,35a8.75,8.75,0,0,0-.07,1.43c0,1.79,0,5.12-4.3,5.74A36.33,36.33,0,0,0,54,52.12a5.3,5.3,0,0,1-3.75,1.67,6.15,6.15,0,0,1-2.42-.55,14.52,14.52,0,0,1-5.06-4.13c-.31-.35-.63-.69-1-1-1.13-1.2-1.87-1.91-2.71-1.91a2.39,2.39,0,0,0-.66.11.87.87,0,0,0-.66.95c0,1.1.56,1.58,2.17,2.56l.24.15c.41.26.83.5,1.24.75a31.32,31.32,0,0,1,3.38,2.19c1.17.91,4.77,3.67,1.88,8.49a36.3,36.3,0,0,0-4.87,21c.23,4.11-1.68,6.39-5.82,7-1,.14-2,.24-3,.34-1.22.12-2.38.23-3.52.42a2.43,2.43,0,0,0-1.58.74,1.43,1.43,0,0,0-.09,1.12c.15.7.41.92,1.12.92a4.2,4.2,0,0,0,1-.14c1.11-.29,2.19-.68,3.34-1.09.84-.31,1.68-.61,2.54-.87A10.15,10.15,0,0,1,38.89,90.21Z"/><path class="cls-9" d="M79.92,6.19a11.45,11.45,0,0,1,5,1.22q24.77,11.86,49.6,23.64a10.61,10.61,0,0,1,6.27,7.59q6.15,26.94,12.38,53.85a9.62,9.62,0,0,1-1.95,8.69q-17.52,21.87-35.13,43.68c-2.25,2.78-5.26,3.82-8.74,3.82H79l-14.52,0c-3.75,0-7.5,0-11.25.05H53A11.77,11.77,0,0,1,43.12,144Q26.23,122.92,9.2,101.94A11,11,0,0,1,6.84,91.77C11,74.16,15,56.53,19,38.9A10.86,10.86,0,0,1,25.45,31Q50.29,19.31,75,7.37a11.21,11.21,0,0,1,4.88-1.18M50.29,52.1a4.51,4.51,0,0,1-1.76-.41c-2.28-1-3.77-3-5.44-4.77-1.13-1.2-2.29-2.44-3.94-2.44a3.6,3.6,0,0,0-1.17.2,2.53,2.53,0,0,0-1.84,2.49c-.08,2.3,1.6,3.21,3.21,4.21a51.25,51.25,0,0,1,4.47,2.84C46,55.86,47,57.6,45.29,60.5a37.77,37.77,0,0,0-5.1,21.92c.17,3.21-1.14,4.75-4.37,5.21-2.19.31-4.41.4-6.59.76s-3.55,1.57-3,3.89A2.6,2.6,0,0,0,29,94.53a5.39,5.39,0,0,0,1.41-.2c2-.52,4-1.36,5.95-2a9.09,9.09,0,0,1,2.57-.45c2.07,0,3.43,1.17,4.54,3.72a47,47,0,0,0,9.2,13.25c2.16,2.31,6.29,2.83,6.66,6.65.35,3.61-2.53,6-4.14,8.8-1.18,2.06-1.55,4.15.94,5.34a3.24,3.24,0,0,0,1.44.37c1.51,0,2.46-1.39,3.08-2.91.84-2,1.3-4.23,2.21-6.23s1.93-3.3,3.94-3.3a6.1,6.1,0,0,1,1.95.36,36.89,36.89,0,0,0,11.45,1.87A35.14,35.14,0,0,0,91.23,118a6.32,6.32,0,0,1,2-.36c2,0,3,1.31,3.9,3.26s1.35,4,2.1,5.91c.63,1.65,1.56,3.13,3.14,3.13a3.53,3.53,0,0,0,1.52-.39c2.53-1.21,2-3.35.84-5.36s-2.59-3.86-3.61-5.93-1-4,1.41-5.61a38.58,38.58,0,0,0,14.22-17.49c1-2.35,2.16-3.39,4-3.39a8.79,8.79,0,0,1,2.46.43c2.1.64,4.14,1.52,6.27,2.06a5.67,5.67,0,0,0,1.39.19,2.65,2.65,0,0,0,2.82-2.25c.53-2.31-.87-3.53-3-3.88-2-.32-3.95-.46-5.92-.68-3.89-.45-5.18-1.84-5-5.64A39.29,39.29,0,0,0,114,59.58a2.56,2.56,0,0,1,0-2.9c1.52-3.22,4.81-4,7.36-5.85,1.83-1.31,3.37-2.8,1.85-5.2a2.5,2.5,0,0,0-2.2-1.21,5.41,5.41,0,0,0-3.53,1.69c-1.51,1.45-2.88,3.07-4.47,4.42a5.3,5.3,0,0,1-3.33,1.56,4.57,4.57,0,0,1-3.13-1.53,36.42,36.42,0,0,0-20.26-9.79C83,40.29,82.35,38.51,82.41,36c0-2.31.57-4.6.68-6.91s-.63-4.23-3.13-4.23h0c-2.47,0-3.28,2-3.15,4.21.11,1.86.47,3.71.74,5.7-.43,2.17.84,5.27-3,5.81A38,38,0,0,0,52.86,50.91a3.6,3.6,0,0,1-2.57,1.19M79.92,2.81a14.53,14.53,0,0,0-6.34,1.52C57.82,11.89,41,20,24,28a14.35,14.35,0,0,0-8.28,10.16l-2,8.55C10.45,61.22,7,76.24,3.55,91a14.39,14.39,0,0,0,3,13.08c10.07,12.44,22,27.16,33.91,42.08A15.1,15.1,0,0,0,53,152.09h.24c3.26,0,6.83-.05,11.21-.05h42.9c4.83,0,8.65-1.71,11.37-5.08l4.81-6c10-12.35,20.24-25.12,30.33-37.72a13,13,0,0,0,2.6-11.57C152.55,75,148.66,58,144.91,41.53l-.83-3.64A14,14,0,0,0,136,28C119,20,102.12,11.91,86.37,4.36a14.86,14.86,0,0,0-6.45-1.55ZM50.29,55.48a6.93,6.93,0,0,0,4.93-2.15,34.72,34.72,0,0,1,19.85-9.45,6.07,6.07,0,0,0,5-3.25c1.07,1.92,3,3.09,5.78,3.49A32.87,32.87,0,0,1,104.22,53a7.89,7.89,0,0,0,5.46,2.46,6.81,6.81,0,0,0,1.21-.11,5.88,5.88,0,0,0,.26,6,36.08,36.08,0,0,1,5.22,20.54c-.12,3.07.59,5.33,2.21,6.85-3.19,1-4.47,4-5,5.13a35.43,35.43,0,0,1-13,16,7.26,7.26,0,0,0-3.54,5.6,6.57,6.57,0,0,0-3.88-1.18,9.65,9.65,0,0,0-3,.53,32,32,0,0,1-10,1.63,33.41,33.41,0,0,1-10.4-1.71,9.57,9.57,0,0,0-3-.52,6.69,6.69,0,0,0-4.08,1.32c0-.11,0-.22,0-.34-.41-4.19-3.51-6-5.57-7.25a9.61,9.61,0,0,1-2-1.38c-4.2-4.49-6.84-8.28-8.58-12.29-1.25-2.88-3-4.69-5.29-5.4a8,8,0,0,0,2.32-6.63,34.67,34.67,0,0,1,4.63-20A7.53,7.53,0,0,0,49,55.36a6.69,6.69,0,0,0,1.25.12Z"/><path class="cls-20" d="M77.55,34.72c-.27-2-.63-3.84-.74-5.7-.13-2.21.68-4.2,3.15-4.21S83.2,26.87,83.09,29s-.63,4.6-.68,6.91c-.06,2.56.54,4.34,3.88,4.82a36.42,36.42,0,0,1,20.26,9.79c2.44,2.33,4.39,1.72,6.46,0,1.59-1.35,3-3,4.47-4.42,2.14-2,4.59-2.28,5.73-.48,1.52,2.4,0,3.89-1.85,5.2-2.55,1.82-5.84,2.63-7.36,5.85a2.56,2.56,0,0,0,0,2.9A39.29,39.29,0,0,1,119.75,82c-.15,3.8,1.14,5.19,5,5.64,2,.22,4,.36,5.92.68,2.14.35,3.54,1.57,3,3.88s-2.35,2.53-4.21,2.06c-2.13-.54-4.17-1.42-6.27-2.06-3.43-1-5.11-.28-6.49,3a38.58,38.58,0,0,1-14.22,17.49c-2.41,1.61-2.46,3.49-1.41,5.61s2.42,4,3.61,5.93,1.69,4.15-.84,5.36-3.84-.62-4.66-2.74c-.75-2-1.25-4-2.1-5.91-1.11-2.52-2.59-4-5.89-2.9A35.56,35.56,0,0,1,68.71,118c-3.34-1.1-4.78.49-5.89,2.94-.91,2-1.37,4.2-2.21,6.23s-2.14,3.68-4.52,2.54-2.12-3.28-.94-5.34c1.61-2.83,4.49-5.19,4.14-8.8-.37-3.82-4.5-4.34-6.66-6.65a47,47,0,0,1-9.2-13.25c-1.51-3.47-3.48-4.38-7.11-3.27-2,.62-3.93,1.46-5.95,2-1.86.48-3.7.18-4.18-2s.93-3.54,3-3.89,4.4-.45,6.59-.76c3.23-.46,4.54-2,4.37-5.21a37.77,37.77,0,0,1,5.1-21.92c1.74-2.9.67-4.64-1.47-6.28a51.25,51.25,0,0,0-4.47-2.84c-1.61-1-3.29-1.91-3.21-4.21A2.53,2.53,0,0,1,38,44.68c2.31-.75,3.73.77,5.11,2.24,1.67,1.76,3.16,3.8,5.44,4.77a3.55,3.55,0,0,0,4.33-.78A38,38,0,0,1,74.59,40.53C78.39,40,77.12,36.89,77.55,34.72ZM48.22,78.89c-.08,4.37,0,4.41,3.65,3.34S59,80.17,62.61,79.08s4.17-3.14,1.49-5.65c-3.12-2.93-6.43-5.68-9.54-8.64-1.42-1.36-2-1-2.81.56A34.1,34.1,0,0,0,48.22,78.89ZM75.84,52.05c.83-3.06-.28-3.79-3.25-2.95A35.66,35.66,0,0,0,59.4,55.75c-1.36,1.12-1.59,1.75.08,2.85,3.59,2.36,7,5,10.57,7.41,3,2,5,1,5.22-2.7S75.65,55.82,75.84,52.05Zm14.25,57.84c-2.58-4.65-4.91-9-7.39-13.26-1.65-2.84-3.82-2.82-5.47,0-2.21,3.8-4.25,7.7-6.46,11.5-.85,1.46-.59,2,1.08,2.38A31.68,31.68,0,0,0,90.09,109.89ZM102,57.34a32,32,0,0,0-16-8.47c-2.12-.47-2.17.36-2.07,1.94.28,4.3.41,8.61.74,12.91.24,3.24,2.27,4.2,5,2.35C93.76,63.29,97.76,60.36,102,57.34Zm9.7,22.7A36.78,36.78,0,0,0,108.38,66c-.91-1.77-1.85-2.32-3.5-.8-3,2.77-6.12,5.4-9.09,8.19-2.73,2.56-2.2,4.57,1.44,5.67s7.43,2,11.07,3.26C111,83.21,112.26,82.72,111.72,80Zm-16,8.29c-5,.87-6.19.17-3.78,5.86,1.47,3.45,3,6.9,4.32,10.39.56,1.45,1,2,2.5.9a32.25,32.25,0,0,0,10.35-13.12c.33-.77.87-1.72-.65-2Q102.12,89.38,95.75,88.33ZM53.11,90.56c-2.53-.33-2.81.59-2.08,2.23A31.62,31.62,0,0,0,61.34,105.5c.72.53,1.45,1.2,2-.22,1.84-4.6,3.81-9.15,5.53-13.79.62-1.7-.32-3.5-2.17-3.17-3,.54-6.24,0-9.15,1.43C56,90.49,54.2,89.81,53.11,90.56Zm27-14.9c-3.41,0-5.34,1.3-5.43,3.69-.1,2.83,2.62,5.94,5.23,6s5.23-2.88,5.29-5.59C85.26,77.31,83.21,75.67,80.12,75.66Z"/><path class="cls-19" d="M48.22,78.89a34.1,34.1,0,0,1,3.53-13.54c.79-1.54,1.39-1.92,2.81-.56,3.11,3,6.42,5.71,9.54,8.64,2.68,2.51,2.11,4.55-1.49,5.65s-7.16,2.11-10.74,3.15S48.14,83.26,48.22,78.89Z"/><path class="cls-19" d="M75.84,52.05c-.19,3.77-.32,7.52-.57,11.26s-2.2,4.75-5.22,2.7c-3.55-2.43-7-5.05-10.57-7.41-1.67-1.1-1.44-1.73-.08-2.85A35.66,35.66,0,0,1,72.59,49.1C75.56,48.26,76.67,49,75.84,52.05Z"/><path class="cls-19" d="M90.09,109.89a31.68,31.68,0,0,1-18.24.62c-1.67-.43-1.93-.92-1.08-2.38,2.21-3.8,4.25-7.7,6.46-11.5,1.65-2.82,3.82-2.84,5.47,0C85.18,100.89,87.51,105.24,90.09,109.89Z"/><path class="cls-19" d="M102,57.34c-4.26,3-8.26,5.95-12.35,8.73-2.73,1.85-4.76.89-5-2.35-.33-4.3-.46-8.61-.74-12.91-.1-1.58-.05-2.41,2.07-1.94A32,32,0,0,1,102,57.34Z"/><path class="cls-19" d="M111.72,80c.54,2.68-.69,3.17-3.42,2.24C104.66,81,100.91,80.14,97.23,79s-4.17-3.11-1.44-5.67c3-2.79,6.09-5.42,9.09-8.19,1.65-1.52,2.59-1,3.5.8A36.78,36.78,0,0,1,111.72,80Z"/><path class="cls-19" d="M95.75,88.33q6.38,1,12.74,2.07c1.52.24,1,1.19.65,2a32.25,32.25,0,0,1-10.35,13.12c-1.48,1.14-1.94.55-2.5-.9-1.35-3.49-2.85-6.94-4.32-10.39C89.56,88.5,90.79,89.2,95.75,88.33Z"/><path class="cls-19" d="M53.11,90.56c1.09-.75,2.93-.07,4.46-.81,2.91-1.41,6.11-.89,9.15-1.43,1.85-.33,2.79,1.47,2.17,3.17-1.72,4.64-3.69,9.19-5.53,13.79-.57,1.42-1.3.75-2,.22A31.62,31.62,0,0,1,51,92.79C50.3,91.15,50.58,90.23,53.11,90.56Z"/><path class="cls-19" d="M80.12,75.66c3.09,0,5.14,1.65,5.09,4.08-.06,2.71-2.82,5.63-5.29,5.59s-5.33-3.15-5.23-6C74.78,77,76.71,75.65,80.12,75.66Z"/><g class="cls-1"><rect class="cls-2" x="299.29" y="65.44" width="69.21" height="6.35"/><rect class="cls-3" x="308.12" y="77.78" width="60.38" height="6.35"/><rect class="cls-4" x="282.9" y="90.13" width="85.6" height="6.35"/><rect class="cls-3" x="288.61" y="102.47" width="42.17" height="6.35"/><rect class="cls-4" x="346.01" y="102.47" width="22.49" height="6.35"/><rect class="cls-4" x="250.21" y="114.83" width="118.29" height="6.35"/><rect class="cls-2" x="297.58" y="127.17" width="70.92" height="6.35"/><rect class="cls-2" x="193.76" y="65.44" width="62.67" height="6.6"/><rect class="cls-4" x="274.47" y="65.44" width="18.85" height="6.6"/><rect class="cls-3" x="181.47" y="77.91" width="60.38" height="6.35"/><rect class="cls-3" x="256.5" y="77.91" width="23.35" height="6.35"/><rect class="cls-4" x="211.67" y="90.27" width="60.38" height="6.35"/><rect class="cls-3" x="197.81" y="102.62" width="60.38" height="6.35"/><rect class="cls-2" x="270.78" y="102.62" width="9.44" height="6.35"/><rect class="cls-4" x="181.47" y="114.96" width="46.52" height="6.35"/><rect class="cls-2" x="227.99" y="127.3" width="53.36" height="6.35"/></g><circle class="cls-5" cx="244.33" cy="47.09" r="13.09"/><circle class="cls-8" cx="218.41" cy="47.09" r="5.22"/><circle class="cls-8" cx="269.42" cy="47.09" r="5.22"/><circle class="cls-5" cx="66.33" cy="227.76" r="13.09"/><circle class="cls-8" cx="66.33" cy="201.84" r="5.22"/><circle class="cls-8" cx="66.33" cy="252.86" r="5.22"/></svg>