<svg xmlns="http://www.w3.org/2000/svg" xmlns:xlink="http://www.w3.org/1999/xlink" width="58.6" height="58.6" viewBox="0 0 58.6 58.6">
  <defs>
    <linearGradient id="linear-gradient" x1="0.5" x2="0.5" y2="1" gradientUnits="objectBoundingBox">
      <stop offset="0" stop-color="#3d2db2"/>
      <stop offset="1" stop-color="#1f1659"/>
    </linearGradient>
  </defs>
  <g id="Group_10555" data-name="Group 10555" transform="translate(-342.4 -1295)">
    <circle id="Ellipse_1806" data-name="Ellipse 1806" cx="29.3" cy="29.3" r="29.3" transform="translate(342.4 1295)" fill="url(#linear-gradient)"/>
    <path id="Path_19610" data-name="Path 19610" d="M32,46.29H25.67c-.61,0-.61,0-.61-.63V24.89c0-.71,0-.71.72-.71h5.4c.4,0,.56.09.54.52v2.5c.23-.32.38-.54.54-.75a7.13,7.13,0,0,1,5.57-2.77,12.43,12.43,0,0,1,3.27.31A6.35,6.35,0,0,1,46,29.08a21,21,0,0,1,.54,5.3c0,3.78,0,7.55,0,11.33,0,.45-.1.6-.57.59h-5.9c-.45,0-.55-.16-.55-.57V35.03a12.9,12.9,0,0,0-.3-2.91,2.87,2.87,0,0,0-3.06-2.35c-1.59,0-2.92.43-3.58,2a6.06,6.06,0,0,0-.52,2.13C32,37.8,32,41.71,32,45.63Z" transform="translate(341.7 1294.539)" fill="#fff"/>
    <path id="Path_19611" data-name="Path 19611" d="M14,46.29V24.78c0-.59,0-.6.58-.6H20.2c.72,0,.73,0,.73.71V45.56c0,.73,0,.73-.7.73Z" transform="translate(341.7 1294.539)" fill="#fff"/>
    <path id="Path_19612" data-name="Path 19612" d="M13.42,17.25a4,4,0,1,1,1.142,2.88,4,4,0,0,1-1.142-2.88Z" transform="translate(341.7 1294.539)" fill="#fff"/>
  </g>
</svg>
