<?xml version="1.0" encoding="UTF-8"?><svg id="a" xmlns="http://www.w3.org/2000/svg" viewBox="0 0 100 100"><defs><style>.b{fill:none;stroke:#fff;stroke-linecap:round;stroke-linejoin:round;stroke-width:2.18px;}.c{fill:#4b3db6;}.d{fill:#ffe01b;}.e{fill:#2ea08a;}.f{fill:#34c6aa;}</style></defs><path class="d" d="M91.44,76.78c-1.11,.08-2.16,.26-3.24,.38-.22,0-.41,.16-.46,.37-.5,1.27-1.01,2.52-1.56,3.76-.12,.2-.09,.47,.08,.63,.75,.91,1.47,1.84,2.23,2.77l.07,.08c.48,.58,.4,1.44-.18,1.93l-3.99,3.96-.07,.08c-.53,.53-1.39,.53-1.93,0-.94-.72-1.86-1.45-2.78-2.23-.16-.16-.41-.19-.6-.08-1.24,.53-2.49,1.05-3.75,1.55-.21,.06-.36,.25-.37,.47-.12,1.11-.3,2.16-.39,3.25,0,.7-.4,1.34-1.02,1.64h-6.68c-.63-.3-1.03-.95-1.02-1.65-.08-1.11-.24-2.23-.4-3.29-.05-.17-.16-.31-.32-.38-1.27-.56-2.56-1.11-3.83-1.61-.18-.1-.41-.07-.56,.08-.94,.75-1.87,1.48-2.82,2.23l-.07,.06c-.57,.48-1.43,.41-1.91-.16h-.01l-3.96-3.98s-.06-.05-.08-.08c-.53-.53-.53-1.39,0-1.92h0c.74-.94,1.48-1.86,2.23-2.78,.16-.18,.18-.44,.07-.65-.55-1.22-1.05-2.46-1.55-3.71-.08-.18-.26-.3-.46-.3-1.11-.13-2.32-.29-3.47-.41-.04,0-.08,0-.12,0-.77-.06-1.35-.74-1.28-1.52h0v-5.7c0-.77,.64-1.4,1.41-1.39h0c1.17-.13,2.34-.29,3.51-.42,.26,0,.33-.13,.42-.36,.51-1.27,1.04-2.54,1.57-3.8,.13-.16,.13-.39,0-.56l-2.23-2.82-.08-.09c-.47-.57-.39-1.42,.18-1.9h0c1.31-1.34,2.63-2.66,3.96-3.97l.07-.08c.53-.53,1.39-.53,1.92,0h0c.94,.73,1.87,1.45,2.78,2.23,.17,.15,.41,.17,.6,.07,1.25-.55,2.51-1.11,3.76-1.56,.21-.08,.36-.16,.36-.41,.13-1.11,.29-2.32,.41-3.47v-.19c.08-.78,.78-1.35,1.56-1.27h5.65c.77,0,1.4,.61,1.4,1.38,0,0,0,.01,0,.02,.13,1.11,.3,2.34,.42,3.51,0,.21,.14,.39,.35,.43,1.27,.51,2.55,1.02,3.8,1.58,.2,.11,.45,.08,.6-.09,.92-.73,1.85-1.46,2.8-2.23l.08-.08c.59-.48,1.46-.39,1.95,.2l3.88,3.9,.13,.12c.54,.53,.54,1.4,.01,1.94h-.01c-.72,.94-1.45,1.87-2.23,2.78-.15,.17-.18,.42-.07,.61,.55,1.24,1.06,2.49,1.56,3.75,.05,.21,.24,.37,.46,.38,1.11,.11,2.16,.3,3.25,.38,.7,0,1.34,.39,1.64,1.02v6.68c-.34,.59-.99,.93-1.67,.89Zm-21.33-11.79c-4.11,0-7.43,3.34-7.43,7.44,0,4.11,3.34,7.43,7.44,7.43,4.1,0,7.43-3.33,7.43-7.43-.02-4.1-3.34-7.42-7.44-7.43Z"/><polygon class="c" points="9.1 99.14 13.46 81.72 1.15 57.53 1.15 26.1 79.82 10.05 98.85 24.9 98.85 51.23 27.28 83.09 23.59 99.14 9.1 99.14"/><polyline class="b" points="13.36 52.3 34.02 45.7 10.17 33.13 34.02 45.7 26.57 73.39 34.02 45.7 71.14 37.32 77.19 19.46 71.14 37.32 87.84 48.86 71.14 37.32 87.84 31.68"/><g><path class="f" d="M42.97,2.23s-9.63,16.02-25.51,16.02c0,0-.24,26.58,25.51,42.71"/><path class="e" d="M42.97,2.23s9.63,16.02,25.51,16.02c0,0,.24,26.58-25.51,42.71"/></g></svg>