<?xml version="1.0" encoding="UTF-8"?><svg id="a" xmlns="http://www.w3.org/2000/svg" viewBox="0 0 100 100"><defs><style>.b{stroke:#3eb096;stroke-width:2.06px;}.b,.c{fill:none;stroke-miterlimit:10;}.c{stroke:#1c1e21;stroke-width:1.28px;}.d,.e{fill:#4b3db6;}.e{opacity:.1;}.f{fill:#ffe01b;}.g{fill:#3eb096;}.h{fill:#2ea08a;}.i{fill:#34c6aa;}</style></defs><rect class="e" x="8.28" y="5.41" width="81.31" height="8.02"/><rect class="e" x="8.28" y="32.08" width="81.31" height="60.16"/><circle class="f" cx="72.03" cy="68.03" r="8.47"/><circle class="f" cx="72.03" cy="87.1" r="8.47"/><polyline class="c" points="96.78 22.27 96.78 97.91 1.95 97.91 1.95 25.65"/><polygon class="d" points="63.05 25.65 1.38 25.65 1.38 17.2 69.51 17.2 63.05 25.65"/><g><rect class="f" x="6" y="35.56" width="21.47" height="4.76" rx="2.38" ry="2.38"/><rect class="f" x="32.41" y="35.56" width="9.27" height="4.76" rx="2.38" ry="2.38"/><rect class="d" x="6" y="45.1" width="21.47" height="4.76" rx="2.38" ry="2.38"/><rect class="d" x="32.41" y="45.1" width="11.83" height="4.76" rx="2.38" ry="2.38"/></g><g><polygon class="g" points="15.52 57.29 5.9 73.94 25.13 73.94 15.52 57.29"/><polygon class="d" points="39.32 57.29 29.71 73.94 48.93 73.94 39.32 57.29"/><polygon class="d" points="15.62 79.64 6 96.29 25.23 96.29 15.62 79.64"/><polyline class="b" points="50.75 94.2 41.13 81.73 31.52 94.2"/></g><polygon class="d" points="66.9 58.88 60.17 67.68 72.8 74.58 87.77 50.78 72.19 66.02 66.9 58.88"/><polygon class="d" points="68.72 78.62 61.99 87.41 74.62 94.31 89.59 70.51 74.01 85.75 68.72 78.62"/><g><path class="i" d="M73.97,1.86s-9.05,15.05-23.97,15.05c0,0-.23,24.97,23.97,40.12"/><path class="h" d="M73.97,1.86s9.05,15.05,23.97,15.05c0,0,.23,24.97-23.97,40.12"/></g></svg>