<?xml version="1.0" encoding="UTF-8"?><svg id="a" xmlns="http://www.w3.org/2000/svg" viewBox="0 0 100 100"><defs><style>.b{fill:#fff;}.c{fill:#f3624f;}.d,.e{fill:#4b3db6;}.e{opacity:.1;}.f{fill:#ffe01b;}.g{fill:none;stroke:#1c1e21;stroke-miterlimit:10;stroke-width:1.3px;}</style></defs><circle class="e" cx="50" cy="49.99" r="49.21"/><rect class="d" x="66.93" y="56.26" width="9.25" height="29.74" rx="4.63" ry="4.63" transform="translate(-28.82 60.93) rotate(-39.02)"/><polyline class="g" points="3.2 65.62 17.33 65.62 22.24 59.56 31.89 78.63 34.57 65.62 41.02 70.51 49.17 65.62 56.15 73.94 60.59 70.51"/><polyline class="g" points="73.81 63.72 77.54 59.56 80.46 68.03 84.17 60.09 89.46 62.68 94.74 62.68"/><path class="d" d="M65.2,19.05c9.62,11.87,7.77,29.55-4.11,39.17s-29.55,7.77-39.17-4.1c-5.39-6.65-7.42-15.42-5.51-23.77l9.3,2.13c-1.21,5.29-.07,11.08,3.62,15.63,6.37,7.86,17.9,9.07,25.76,2.7s9.07-17.9,2.7-25.76l7.41-6.01Z"/><path class="f" d="M65.05,18.87l-7.36,6.07c-6.39-7.76-17.84-8.92-25.66-2.58-3.3,2.68-5.44,6.26-6.31,10.11l-9.3-2.14c1.39-6.05,4.77-11.47,9.6-15.39,11.8-9.57,29.37-7.8,39.03,3.92Z"/><polyline class="g" points="9.65 85.43 23.35 85.43 29.02 94.31 39.2 80.74 47.41 90.52 54.07 80.74 63.77 90.91 67.3 84.46 72.26 84.65"/><polyline class="g" points="93.59 89.74 91.24 78.63 87.63 83.87 84.85 83.87"/><g><circle class="c" cx="43.53" cy="36.55" r="11.36"/><path class="b" d="M41.98,37.15l-3.76-1.04,.75-2.18,3.68,1.51-.29-4.06h2.47l-.3,4.14,3.58-1.48,.75,2.2-3.81,1.04,2.53,3.06-2,1.36-2.11-3.39-2.12,3.28-2-1.3,2.63-3.14Z"/></g></svg>