<?xml version="1.0" encoding="UTF-8"?><svg id="a" xmlns="http://www.w3.org/2000/svg" xmlns:xlink="http://www.w3.org/1999/xlink" viewBox="0 0 100 100"><defs><style>.f{fill:url(#c);}.g{fill:#4b3db6;opacity:.1;}.h{fill:#ffe01b;}.i{fill:url(#b);}.j{fill:url(#d);}.k{fill:url(#e);}.l{fill:none;stroke:#1c1e21;stroke-miterlimit:10;stroke-width:1.3px;}.m{fill:#2ea08a;}.n{fill:#34c6aa;}.o{fill:#1c1e21;opacity:.5;}</style><linearGradient id="b" x1="-10.26" y1="91.95" x2="54.23" y2="91.95" gradientTransform="matrix(1, 0, 0, 1, 0, 0)" gradientUnits="userSpaceOnUse"><stop offset="0" stop-color="#786ef4"/><stop offset="1" stop-color="#573bd3"/></linearGradient><linearGradient id="c" x1="101.46" y1="92.05" x2="56" y2="92.05" xlink:href="#b"/><linearGradient id="d" x1="85.12" y1="89.57" x2="46.64" y2="89.57" xlink:href="#b"/><linearGradient id="e" x1="9.69" y1="83.84" x2="107.38" y2="83.84" xlink:href="#b"/></defs><circle class="g" cx="50" cy="50" r="49.21"/><path class="l" d="M86.29,50v39.57"/><path class="l" d="M25.37,30.2h-7.63c-4.93,0-8.93,4-8.93,8.93v52.81"/><g><path class="i" d="M26.88,98.33H4.98c-2.11,0-3.63-2.07-2.96-4.08,1.7-5.05,6.48-8.7,12.1-8.7,7.05,0,12.76,5.72,12.76,12.77Z"/><path class="f" d="M95.68,98.43h-21.9c0-7.05,5.71-12.77,12.76-12.77,5.62,0,10.4,3.64,12.1,8.7,.67,2-.85,4.08-2.96,4.08Z"/><path class="j" d="M86.54,98.43c0-9.78-7.93-17.71-17.71-17.71s-17.71,7.93-17.71,17.71"/><path class="k" d="M68.83,98.43c0-16.11-13.06-29.17-29.17-29.17s-29.17,13.06-29.17,29.17"/></g><path class="o" d="M35.12,69.61s12.86,14.13,23.05,16.55l3.26-1.89,2.01-2.71s-9.71-15.16-28.32-11.94Z"/><circle class="h" cx="8.8" cy="50" r="5.78"/><circle class="h" cx="86.29" cy="69.26" r="5.78"/><g><path class="n" d="M58.94,.1s-13.22,22-35.04,22c0,0-.33,36.51,35.04,58.65"/><path class="m" d="M58.94,.1s13.22,22,35.04,22c0,0,.33,36.51-35.04,58.65"/></g></svg>