<svg id="Layer_1" data-name="Layer 1" xmlns="http://www.w3.org/2000/svg" xmlns:xlink="http://www.w3.org/1999/xlink" viewBox="0 0 150 150"><defs><style>.cls-1,.cls-12,.cls-13,.cls-2,.cls-3{fill:none;}.cls-2{stroke:#1c1e21;}.cls-12,.cls-13,.cls-2,.cls-3{stroke-miterlimit:10;}.cls-3{stroke:#3f2d10;stroke-width:0.9px;}.cls-4{fill:#fbe104;}.cls-10,.cls-5{fill:#fff;}.cls-5,.cls-7{opacity:0.5;}.cls-6{fill:url(#linear-gradient);}.cls-14,.cls-7{fill:#231f20;}.cls-8{fill:#3eb096;}.cls-9{fill:#3d2db2;}.cls-11{clip-path:url(#clip-path);}.cls-12{stroke:#8997ad;}.cls-12,.cls-13{stroke-width:2.1px;}.cls-13{stroke:#b50051;}.cls-14{opacity:0.25;}</style><linearGradient id="linear-gradient" x1="3521.44" y1="2686.69" x2="3548.02" y2="2686.69" gradientTransform="translate(3643.39 2728.86) rotate(180)" gradientUnits="userSpaceOnUse"><stop offset="0" stop-color="#f4cd2a"/><stop offset="1" stop-color="#d28d0d"/></linearGradient><clipPath id="clip-path"><rect class="cls-1" x="28.14" y="96.91" width="39.53" height="26.35" rx="2.2"/></clipPath></defs><polygon class="cls-2" points="121.35 56.1 93.87 55.05 88.55 1.67 132.36 8.38 145.57 18.23 121.35 56.1"/><polyline class="cls-2" points="145.57 18.23 107.1 22.18 88.55 1.67"/><polyline class="cls-2" points="121.35 56.1 107.1 22.18 132.36 8.38"/><line class="cls-2" x1="93.87" y1="55.05" x2="107.1" y2="22.18"/><polygon class="cls-3" points="41.86 148.33 4.43 99.15 57.31 37.31 125.05 85.05 129.8 124.82 41.86 148.33"/><polyline class="cls-3" points="129.8 124.82 65.93 95.71 57.31 37.31"/><polyline class="cls-3" points="41.86 148.33 65.93 95.71 125.05 85.05"/><line class="cls-3" x1="4.43" y1="99.15" x2="65.93" y2="95.71"/><polygon class="cls-4" points="121.96 55.47 121.96 122.66 42.63 122.66 42.63 28.89 95.37 28.89 100.47 33.98 105.14 38.66 110.36 43.87 115.04 48.55 121.96 55.47"/><path class="cls-5" d="M105.14,38.66H47.52a.43.43,0,0,1-.43-.43V34.42a.43.43,0,0,1,.43-.44h53Z"/><path class="cls-5" d="M115,48.55H47.52a.43.43,0,0,1-.43-.43V44.3a.43.43,0,0,1,.43-.43h62.84Z"/><rect class="cls-5" x="79.95" y="20.9" width="4.68" height="70.4" rx="0.43" transform="translate(138.39 -26.19) rotate(90)"/><rect class="cls-5" x="79.95" y="30.79" width="4.68" height="70.4" rx="0.43" transform="translate(148.28 -16.3) rotate(90)"/><rect class="cls-5" x="79.95" y="40.68" width="4.68" height="70.4" rx="0.43" transform="translate(158.17 -6.42) rotate(90)"/><rect class="cls-5" x="79.95" y="50.56" width="4.68" height="70.4" rx="0.43" transform="translate(168.06 3.47) rotate(90)"/><rect class="cls-5" x="79.95" y="60.45" width="4.68" height="70.4" rx="0.43" transform="translate(177.94 13.36) rotate(90)"/><rect class="cls-5" x="79.95" y="70.34" width="4.68" height="70.4" rx="0.43" transform="translate(187.83 23.25) rotate(90)"/><rect class="cls-5" x="79.95" y="80.23" width="4.68" height="70.4" rx="0.43" transform="translate(197.72 33.14) rotate(90)"/><path class="cls-6" d="M95.37,55.47V28.89L122,55.47Z"/><path class="cls-7" d="M95.37,55.47V28.89L122,55.47Z"/><circle class="cls-8" cx="132.36" cy="38.61" r="6.42"/><circle class="cls-8" cx="78.5" cy="16.21" r="3.63"/><path class="cls-9" d="M80.62,113c1.67,1.06,3.43,2,5.33,3-1,2.82-2,5.61-3.11,8.37-.1.25-.78.44-1.14.38-1.75-.3-3.48-.76-5.23-1a2.23,2.23,0,0,0-1.65.63c-1.55,1.63-3,3.31-4.45,5a2.13,2.13,0,0,0-.41,1.7c.62,1.93,1.41,3.81,2.19,5.85l-8.31,4.76c-1.29-1.64-2.6-3.19-3.79-4.83a1.83,1.83,0,0,0-2.22-.82,53.4,53.4,0,0,1-6.19.93,1.52,1.52,0,0,0-1.55,1.2c-.47,1.6-1.08,3.17-1.57,4.77-.25.82-.58,1.22-1.55,1-2.41-.5-4.83-.92-7.25-1.32-.86-.15-1.1-.57-1-1.39.1-1.77.11-3.55.21-5.32a1.56,1.56,0,0,0-1-1.7c-1.88-1-3.65-2.23-5.53-3.25a2.15,2.15,0,0,0-1.73-.12c-1.89,1-3.69,2.15-5.62,3.31-1.9-2.28-3.76-4.47-5.53-6.72a1.53,1.53,0,0,1,.13-1.4c1.19-1.46,2.53-2.79,3.71-4.25a2,2,0,0,0,.24-1.6c-.65-2.14-1.39-4.27-2.2-6.36a2,2,0,0,0-1.21-1.06c-1.68-.37-3.4-.61-5.1-.83-.94-.12-1.37-.45-1.32-1.48.08-2.4.09-4.81,0-7.21,0-.86.26-1.22,1.12-1.32,1.71-.19,3.41-.5,5.13-.69A1.61,1.61,0,0,0,21.62,100c.65-2,1.44-4,2.28-6a1.52,1.52,0,0,0-.23-2c-1.15-1.21-2.19-2.52-3.32-3.75-.59-.64-.73-1.12-.07-1.85C21.9,84.69,23.45,82.84,25,81c.58-.71,1.05-.83,1.83-.3,1.38.95,2.84,1.76,4.24,2.69a1.55,1.55,0,0,0,1.95,0c1.89-1.2,3.85-2.31,5.86-3.32a1.48,1.48,0,0,0,1-1.65,49.46,49.46,0,0,1-.07-5,1.53,1.53,0,0,1,.87-1.11c2.76-.55,5.55-1,8.52-1.49.64,2,1.32,3.87,1.89,5.8.24.85.69,1.09,1.53,1.22A61.16,61.16,0,0,1,59,79a1.75,1.75,0,0,0,2.22-.75c1.07-1.48,2.28-2.86,3.55-4.42,2.6,1.53,5.17,3,7.68,4.56.24.15.31.92.17,1.3-.56,1.58-1.31,3.09-1.82,4.67a2.19,2.19,0,0,0,.37,1.72c1.38,1.83,2.91,3.55,4.27,5.4a1.5,1.5,0,0,0,1.78.76c1.88-.43,3.78-.76,5.82-1.16,1.08,3,2.13,6,3.24,9.06-1.89,1-3.68,1.88-5.37,2.9a2.18,2.18,0,0,0-.9,1.51c-.15,2.34-.18,4.69-.15,7A1.89,1.89,0,0,0,80.62,113Z"/><rect class="cls-10" x="28.14" y="96.91" width="39.53" height="26.35" rx="2.2"/><g class="cls-11"><path class="cls-12" d="M23.47,118.05s4.53-4.4,12.77-4.4,6.58,2.61,11.66,2.2S57,110.08,60,110.08s5.9,4,8.65,4"/><path class="cls-13" d="M39.42,113.82c4.7.57,4.19,2.38,8.48,2C53,115.44,57,110.08,60,110.08s5.9,4,8.65,4"/></g><circle class="cls-14" cx="67.11" cy="99.04" r="7.15"/><circle class="cls-4" cx="67.11" cy="97.65" r="7.15"/><polygon class="cls-10" points="64.17 95.41 62.51 97.63 66.28 100.67 71.72 94.63 65.99 97.96 64.17 95.41"/><rect class="cls-8" x="32.53" y="100.89" width="11.05" height="2.47" rx="1.24"/><rect class="cls-8" x="32.53" y="105.49" width="18.12" height="2.47" rx="1.24"/></svg>