<?xml version="1.0" encoding="UTF-8"?><svg id="a" xmlns="http://www.w3.org/2000/svg" xmlns:xlink="http://www.w3.org/1999/xlink" viewBox="0 0 100 100"><defs><style>.c{fill:#fff;}.d{fill:url(#b);opacity:.5;}.e{fill:#ffe01b;}.f{fill:#2ea08a;}.g{fill:#34c6aa;}.h{fill:none;stroke:#4b3db6;stroke-miterlimit:10;stroke-width:2px;}</style><linearGradient id="b" x1="14.42" y1="71" x2="76.39" y2="27.94" gradientTransform="matrix(1, 0, 0, 1, 0, 0)" gradientUnits="userSpaceOnUse"><stop offset="0" stop-color="#4b3db6" stop-opacity="0"/><stop offset="1" stop-color="#4b3db6"/></linearGradient></defs><g><path class="d" d="M71.72,71.68L82.22,5.9c-3.47-.55-6.98-.83-10.5-.83C35.18,5.07,5.11,35.14,5.11,71.68c0,6.69,1.01,13.33,2.99,19.72l63.62-19.72Z"/><path class="h" d="M12.27,100c-4.24-8.72-6.62-18.51-6.62-28.85C5.65,34.65,35.23,5.07,71.72,5.07c10.12,0,19.71,2.28,28.28,6.35"/><path class="h" d="M42.87,100c-7.38-7.39-11.95-17.59-11.95-28.85,0-22.54,18.27-40.81,40.8-40.81,10.98,0,20.95,4.34,28.28,11.4"/></g><g><g><path class="g" d="M70.3,44.25s-8.38,13.94-22.2,13.94c0,0-.21,23.12,22.2,37.15"/><path class="f" d="M70.3,44.25s8.38,13.94,22.2,13.94c0,0,.21,23.12-22.2,37.15"/></g><path class="c" d="M70.31,44.25s8.37,13.94,22.19,13.94c0,0,.21,23.13-22.19,37.16-22.41-14.02-22.2-37.16-22.2-37.16,13.82,0,22.2-13.94,22.2-13.94m0-4.23l-1.87,3.1c-.11,.18-7.97,12.88-20.33,12.88h-2.17l-.02,2.17c0,.99,.05,24.52,23.23,39.03l1.16,.73,1.16-.73c23.17-14.51,23.23-38.03,23.22-39.03l-.02-2.17h-2.17c-12.38,0-20.24-12.75-20.32-12.88l-1.88-3.1h0Z"/></g><circle class="e" cx="8.59" cy="88.51" r="6.86"/><circle class="e" cx="60.73" cy="33.05" r="6.86"/></svg>