<svg id="Layer_1" data-name="Layer 1" xmlns="http://www.w3.org/2000/svg" viewBox="0 0 100 100"><defs><style>.cls-1,.cls-3,.cls-9{fill:none;stroke-miterlimit:10;}.cls-1{stroke:#3e2e16;stroke-width:0.44px;}.cls-2{fill:#ffe01b;stroke-width:1.4px;}.cls-2,.cls-3{stroke:#3f2d10;}.cls-3{stroke-width:1.3px;}.cls-4{fill:#3eb096;}.cls-5{fill:#113f32;}.cls-6{fill:#786ef4;}.cls-7{fill:#573bd3;}.cls-8{fill:#64b9ee;}.cls-9{stroke:#64b9ee;stroke-width:1.03px;}</style></defs><polygon class="cls-1" points="25.96 39.44 14 38.98 11.69 15.74 30.76 18.66 36.52 22.95 25.96 39.44"/><polyline class="cls-1" points="36.52 22.95 19.76 24.67 11.69 15.74"/><polyline class="cls-1" points="25.96 39.44 19.76 24.67 30.76 18.66"/><line class="cls-1" x1="14" y1="38.98" x2="19.76" y2="24.67"/><path class="cls-2" d="M33.58,96.86H7.29v-40A16.13,16.13,0,0,1,23.42,40.73h40A2.72,2.72,0,0,0,66.16,38h0V3.14H92.45V51.92A15.1,15.1,0,0,1,77.34,67H36.28a2.72,2.72,0,0,0-2.72,2.72h0Z"/><path class="cls-3" d="M7.29,96.86v-40A16.13,16.13,0,0,1,23.42,40.73h40A2.72,2.72,0,0,0,66.16,38h0V3.14"/><path class="cls-3" d="M92.43,3.14V51.92A15.11,15.11,0,0,1,77.32,67h-41a2.72,2.72,0,0,0-2.72,2.72h0V96.86"/><polygon class="cls-4" points="4.26 73.63 37 73.63 36.71 87.52 3.98 87.52 4.26 73.63"/><rect class="cls-4" x="63.29" y="14.83" width="32.73" height="13.9"/><path class="cls-5" d="M51.84,18.26S43.16,27,23.7,23.08c0,0-1.71,34.67,28.13,55.46"/><path class="cls-5" d="M51.84,18.26S60.51,30.48,80,34.4c0,0,1.7,35.37-28.13,44.14"/><path class="cls-6" d="M47.89,19.86s-8.67,8.7-28.13,4.81c0,0-1.71,34.68,28.13,55.5"/><path class="cls-7" d="M47.89,19.86S56.56,32.08,76,36c0,0,1.7,35.37-28.13,44.15"/><polygon class="cls-8" points="55.95 83.38 51.78 90.61 60.13 90.61 55.95 83.38"/><polyline class="cls-9" points="75.3 90.61 71.13 83.38 66.95 90.61"/><polyline class="cls-9" points="86.78 90.61 82.61 83.38 78.43 90.61"/></svg>