<svg id="Layer_1" data-name="Layer 1" xmlns="http://www.w3.org/2000/svg" viewBox="0 0 550 400"><defs><style>.cls-1{fill:#ffe01b;}.cls-2{fill:#573bd3;}.cls-12,.cls-3{fill:none;}.cls-12,.cls-3,.cls-6{stroke:#3f2d10;stroke-miterlimit:10;}.cls-3{stroke-width:2.6px;}.cls-4{fill:#3f2d10;}.cls-5,.cls-7{fill:#00816d;}.cls-14,.cls-6{fill:#fbe104;}.cls-6{stroke-width:1.14px;}.cls-7{opacity:0.25;}.cls-8{fill:#2ea08a;}.cls-9{fill:#6accba;}.cls-10{fill:#34c6aa;}.cls-11{fill:#fff;}.cls-12{stroke-width:1.39px;}.cls-13{fill:#a6ddce;}.cls-15{fill:#d1d3d4;}.cls-16{fill:#655fd6;}.cls-17{fill:#4b3db6;}</style></defs><path class="cls-1" d="M132.27,57.85c-3.37-.33-6.74-.65-10.1-1a.54.54,0,0,1-.4-.3,41.56,41.56,0,0,0-4.55-9.15c-.22-.3-.06-.48.08-.69q3.2-5.09,6.4-10.17l.42-.68Q116,28.69,108,21.53l-4.58,3.62c-1.87,1.48-3.73,3-5.58,4.44a.55.55,0,0,1-.65.08,50.69,50.69,0,0,0-9.6-3.24.49.49,0,0,1-.42-.43q-1.42-6-2.86-12c0-.14-.08-.27-.14-.43l-10.7.72,1.3,19.3A39.28,39.28,0,0,1,80,112h0l1.28,18.91,11-.74.54-5.73c.21-2.26.45-4.54.66-6.8a.8.8,0,0,1,.62-.82,49.54,49.54,0,0,0,8.8-4.4.59.59,0,0,1,.74,0L114.3,119l.43.25,14.1-16.16-2.26-2.76c-2-2.41-3.95-4.84-5.93-7.25a.62.62,0,0,1-.1-.77,43.46,43.46,0,0,0,3.2-9.51c.07-.32.26-.39.53-.45l8-1.75,4.37-1-1.45-21.46Z"/><path class="cls-2" d="M69.27,11.23s-18.07,35-51.5,37.21c0,0,3.13,56,59.54,86.4"/><path class="cls-1" d="M518.78,296.89c-3.34-.33-6.66-.65-10-1a.56.56,0,0,1-.4-.3,40.09,40.09,0,0,0-4.5-9c-.2-.31,0-.48.09-.69q3.15-5,6.32-10.05c.13-.2.25-.41.41-.67l-16-14.16-4.53,3.58c-1.84,1.47-3.68,2.92-5.51,4.39a.54.54,0,0,1-.64.08,49.44,49.44,0,0,0-9.48-3.2.5.5,0,0,1-.42-.43q-1.4-5.91-2.83-11.82a2.93,2.93,0,0,0-.13-.43l-10.57.71L462,273a38.81,38.81,0,0,1,5.23,77.44h0l1.26,18.69,10.89-.73c.18-1.9.35-3.78.53-5.67.22-2.23.45-4.48.65-6.71a.81.81,0,0,1,.62-.82,48,48,0,0,0,8.69-4.34.57.57,0,0,1,.73,0L501,357.27c.15.09.29.18.41.24,4.64-5.3,9.27-10.62,13.94-16l-2.23-2.73q-2.92-3.57-5.86-7.15a.62.62,0,0,1-.1-.77,43.07,43.07,0,0,0,3.16-9.39c.07-.32.26-.39.52-.45l7.86-1.72,4.32-1-1.43-21.2Z"/><path class="cls-2" d="M456.54,250.83s-17.85,34.61-50.88,36.76c0,0,3.09,55.3,58.82,85.35"/><polyline class="cls-3" points="410.73 315.95 96.53 315.95 96.53 342.04 389.41 342.04 389.41 368.13 37.34 368.13 37.34 284.85 235.47 284.85 235.47 219.62 517.37 219.62 517.37 186.51 217.38 186.51 217.38 242.88 61.85 242.88 61.85 184.5 184.93 184.5 184.93 148.38 512.74 148.38 512.74 30.98 152.66 30.98 152.66 54.06 465.7 54.06 465.7 85.17 434.92 85.17 434.92 120.37 217.04 120.37 216.37 85.17 99.31 85.17"/><circle class="cls-4" cx="415.05" cy="315.95" r="6.86"/><circle class="cls-4" cx="93.54" cy="85.17" r="6.52"/><circle class="cls-5" cx="445.04" cy="69.5" r="6.65"/><circle class="cls-5" cx="417.85" cy="69.5" r="6.65"/><circle class="cls-5" cx="390.65" cy="69.5" r="6.65"/><circle class="cls-5" cx="170" cy="329.46" r="6.65"/><circle class="cls-5" cx="142.81" cy="329.46" r="6.65"/><circle class="cls-5" cx="115.61" cy="329.46" r="6.65"/><rect class="cls-6" x="72.76" y="192.42" width="54.39" height="8.22"/><rect class="cls-1" x="72.76" y="227.35" width="54.39" height="8.22"/><rect class="cls-6" x="72.76" y="209.83" width="34.74" height="8.22"/><rect class="cls-1" x="116.59" y="209.83" width="34.74" height="8.22"/><polygon class="cls-1" points="506.76 260.15 477.3 243.15 506.76 226.14 536.22 243.15 506.76 260.15"/><path class="cls-7" d="M506.76,249.62a2.21,2.21,0,0,1-1.12-.3l-29.46-17a2.23,2.23,0,0,1,0-3.87l29.46-17a2.22,2.22,0,0,1,2.23,0l29.46,17a2.22,2.22,0,0,1,0,3.87l-29.45,17A2.27,2.27,0,0,1,506.76,249.62Zm-25-19.25,25,14.43,25-14.43-25-14.42Z"/><polygon class="cls-8" points="536.22 217.09 506.76 234.09 506.76 200.08 536.22 183.07 536.22 217.09"/><polygon class="cls-9" points="506.76 200.08 477.3 183.07 506.76 166.06 536.22 183.07 506.76 200.08"/><polygon class="cls-10" points="506.76 234.09 477.3 217.09 477.3 183.07 506.76 200.08 506.76 234.09"/><polygon class="cls-11" points="496.15 215.72 487.91 210.96 487.91 201.45 496.15 206.2 496.15 215.72"/><polygon class="cls-11" points="498.52 183.17 506.7 178.31 515 182.97 506.81 187.83 498.52 183.17"/><polygon class="cls-1" points="39.37 376.51 9.91 359.5 39.37 342.49 68.83 359.5 39.37 376.51"/><path class="cls-7" d="M39.37,366a2.22,2.22,0,0,1-1.12-.31l-29.46-17a2.24,2.24,0,0,1,0-3.88l29.46-17a2.24,2.24,0,0,1,2.24,0l29.46,17a2.24,2.24,0,0,1,0,3.88l-29.46,17A2.25,2.25,0,0,1,39.37,366Zm-25-19.25,25,14.42,25-14.42-25-14.42Z"/><polygon class="cls-8" points="68.83 333.44 39.37 350.45 39.37 316.43 68.83 299.42 68.83 333.44"/><polygon class="cls-9" points="39.37 316.43 9.91 299.42 39.37 282.42 68.83 299.42 39.37 316.43"/><polygon class="cls-10" points="39.37 350.45 9.91 333.44 9.91 299.42 39.37 316.43 39.37 350.45"/><polygon class="cls-11" points="28.76 332.07 20.52 327.31 20.52 317.8 28.76 322.56 28.76 332.07"/><polygon class="cls-11" points="31.13 299.52 39.31 294.67 47.61 299.32 39.42 304.18 31.13 299.52"/><line class="cls-12" x1="411.78" y1="246.4" x2="269.7" y2="246.4"/><rect class="cls-13" x="276.49" y="118.4" width="71.69" height="6.78"/><rect class="cls-14" x="300.82" y="131.58" width="71.69" height="6.78"/><rect class="cls-15" x="276.49" y="144.75" width="124.92" height="6.78"/><rect class="cls-14" x="291.08" y="157.93" width="50.07" height="6.78"/><rect class="cls-15" x="359.22" y="157.93" width="50.07" height="6.78"/><rect class="cls-15" x="276.49" y="171.14" width="91.09" height="6.78"/><rect class="cls-13" x="307.31" y="184.32" width="71.69" height="6.78"/><rect class="cls-13" x="291.08" y="197.36" width="74.41" height="7.05"/><rect class="cls-15" x="384.35" y="197.36" width="22.38" height="7.05"/><rect class="cls-14" x="276.49" y="210.67" width="71.69" height="6.78"/><rect class="cls-14" x="365.58" y="210.67" width="27.73" height="6.78"/><rect class="cls-15" x="312.34" y="223.88" width="71.69" height="6.78"/><rect class="cls-14" x="295.89" y="237.05" width="71.69" height="6.78"/><rect class="cls-13" x="388.12" y="237.05" width="11.2" height="6.78"/><rect class="cls-15" x="276.49" y="250.23" width="55.23" height="6.78"/><rect class="cls-13" x="331.72" y="263.41" width="63.36" height="6.78"/><path class="cls-16" d="M233.07,91.48s-33.85,56.32-89.69,56.32c0,0-.85,93.44,89.69,150.13"/><path class="cls-17" d="M233.07,91.48s33.84,56.32,89.69,56.32c0,0,.85,93.44-89.69,150.13"/></svg>