<svg id="Layer_1" data-name="Layer 1" xmlns="http://www.w3.org/2000/svg" xmlns:xlink="http://www.w3.org/1999/xlink" viewBox="0 0 100 100"><defs><style>.cls-1{fill:#132529;}.cls-1,.cls-4,.cls-5,.cls-6{fill-rule:evenodd;}.cls-2{fill:#573bd3;}.cls-3{fill:#3d2db2;}.cls-4{fill-opacity:0;fill:url(#linear-gradient);}.cls-5,.cls-7{opacity:0.5;}.cls-10,.cls-6,.cls-8{fill:#fff;}.cls-8{stroke:#c9c9c9;}.cls-9{fill:#ffe01b;}.cls-11{fill:#34c6aa;}.cls-12{fill:#4b3db6;}.cls-13{fill:#f4ce2a;}</style><linearGradient id="linear-gradient" x1="-258.51" y1="100" x2="-259.67" y2="99.9" gradientTransform="matrix(81.1, 0, 0, -47.37, 21056.57, 4792.75)" gradientUnits="userSpaceOnUse"><stop offset="0" stop-color="#ffdf00"/><stop offset="0.44" stop-color="#d39010"/><stop offset="1" stop-color="#f6dd35"/></linearGradient></defs><g id="Page-1"><g id="Release-Integrity"><g id="Group"><path id="Fill-93" class="cls-1" d="M46.87,28.49a1.67,1.67,0,0,1-.06-.61,1.67,1.67,0,0,1,.06-.61,1.36,1.36,0,0,1,.07.61,1.36,1.36,0,0,1-.07.61"/><path id="Fill-142" class="cls-2" d="M91.23,93.7H8.73a3.57,3.57,0,0,1-3.59-3.54v-60a3.57,3.57,0,0,1,3.59-3.55h82.5a3.57,3.57,0,0,1,3.59,3.55V90.16a3.57,3.57,0,0,1-3.59,3.54"/><path id="Fill-143" class="cls-3" d="M94.16,94.49H5.78a4.36,4.36,0,0,1-4.39-4.33v-.79H98.55v.79a4.36,4.36,0,0,1-4.39,4.33"/><polygon id="Fill-144" class="cls-4" points="7.55 86.92 92.16 86.92 92.16 28.89 7.55 28.89 7.55 86.92"/><polygon id="Fill-145" class="cls-5" points="42.35 91.26 59.31 91.26 60.43 89.37 41.14 89.37 42.35 91.26"/><path id="Fill-147" class="cls-6" d="M9.29,86.77h81.3V31.1a.74.74,0,0,0-.75-.75H10.05a.75.75,0,0,0-.76.75Z"/></g></g></g><g id="Group-12-Copy-2" class="cls-7"><rect id="Rectangle" x="13.13" y="26.56" width="75.31" height="52.25"/></g><rect id="Rectangle-2" data-name="Rectangle" class="cls-8" x="16.4" y="11.45" width="68.76" height="63.84"/><path id="Path" class="cls-9" d="M17,7.26H84.6a.57.57,0,0,1,.57.57v3.63H16.4V7.82A.57.57,0,0,1,17,7.26Z"/><circle id="Oval" class="cls-10" cx="82.79" cy="9.35" r="1.11"/><circle id="Oval-2" data-name="Oval" class="cls-10" cx="79.68" cy="9.35" r="1.11"/><circle id="Oval-3" data-name="Oval" class="cls-10" cx="76.57" cy="9.35" r="1.11"/><g id="Group-13-Copy"><path id="Path_31716" data-name="Path 31716" class="cls-9" d="M21.65,41.5H38.32a2,2,0,0,1,2,2h0a2,2,0,0,1-2,1.93H21.65a2,2,0,0,1-1.42-.57,1.92,1.92,0,0,1-.59-1.38h0a2,2,0,0,1,2-1.93Z"/><path id="Path_31717" data-name="Path 31717" class="cls-11" d="M42.26,54.61H58.93a2,2,0,0,1,2,2h0a2,2,0,0,1-2,1.95H42.26a2,2,0,0,1-1.43-.57,2,2,0,0,1-.59-1.38h0a1.94,1.94,0,0,1,.59-1.38,2,2,0,0,1,1.43-.57Z"/><path id="Path_31717-Copy" data-name="Path 31717-Copy" class="cls-11" d="M25.09,60.56H41.76a2,2,0,0,1,2,1.95h0a2,2,0,0,1-2,1.95H25.09a2,2,0,0,1-1.43-.57,1.94,1.94,0,0,1-.59-1.38h0a2,2,0,0,1,.59-1.38,2.08,2.08,0,0,1,1.43-.57Z"/><path id="Path_31717-Copy-2" data-name="Path 31717-Copy-2" class="cls-2" d="M50.84,62.27H67.51a2,2,0,0,1,2,1.94h0a2,2,0,0,1-2,2H50.84a2,2,0,0,1-1.42-.58,1.9,1.9,0,0,1-.59-1.38h0a1.93,1.93,0,0,1,.59-1.38,2,2,0,0,1,1.42-.56Z"/><path id="Path_31718" data-name="Path 31718" class="cls-11" d="M47.45,45.37h18.3a2,2,0,0,1,1.42.57,1.9,1.9,0,0,1,.59,1.38h0a2,2,0,0,1-2,2H47.45a2,2,0,0,1-2-2h0a2,2,0,0,1,2-2Z"/><path id="Path_31721" data-name="Path 31721" class="cls-12" d="M24.27,48.93h18.3a2,2,0,0,1,2,2A1.9,1.9,0,0,1,44,52.26a2,2,0,0,1-1.42.57H24.27a2,2,0,1,1,0-3.9Z"/></g><path class="cls-13" d="M85.17,30.41V42.76L74.32,45.09c-.06-.15-.1-.27-.16-.4q-1.18-3-2.38-6c0-.12-.07-.25-.27-.26a21.16,21.16,0,0,1-5.41-.93.34.34,0,0,0-.26.08c-1.22,1.35-2.43,2.71-3.65,4.07l-1,1.15L51.38,36.6c.33-.75.64-1.47,1-2.21.58-1.33,1.18-2.68,1.77-4a.3.3,0,0,0,0-.37A23.4,23.4,0,0,1,51,25.6a.34.34,0,0,0-.37-.21l-5,.27-1.92.11C42.82,22,42,18.25,41.14,14.51l.24-.11,6.21-2.53a.32.32,0,0,0,.25-.31.37.37,0,0,1,0-.11h4.22A21.05,21.05,0,0,0,61.8,30.89,21.25,21.25,0,0,0,85.17,30.41Z"/><path class="cls-13" d="M16.4,21.31v6.43L22.05,29c0-.07.05-.14.08-.2.41-1.05.83-2.09,1.24-3.13,0-.07,0-.13.14-.14A10.82,10.82,0,0,0,26.33,25a.16.16,0,0,1,.13,0c.64.7,1.27,1.41,1.9,2.12.18.2.37.4.54.6L34,24.53c-.18-.39-.34-.76-.51-1.15-.3-.69-.61-1.39-.92-2.08,0-.07-.05-.12,0-.19a12.24,12.24,0,0,0,1.62-2.3.18.18,0,0,1,.19-.11l2.62.14,1,.06c.44-2,.87-3.91,1.31-5.86l-.12,0L36,11.67a.16.16,0,0,1-.13-.16.13.13,0,0,0,0-.06H33.63A11,11,0,0,1,16.4,21.31Z"/></svg>