<svg id="Layer_1" data-name="Layer 1" xmlns="http://www.w3.org/2000/svg" viewBox="0 0 100 100"><defs><style>.cls-1{fill:#f7eee5;}.cls-2{fill:#f44545;}.cls-3{fill:#f5df4d;}.cls-4{fill:#573bd3;}.cls-5,.cls-6,.cls-7{fill:none;stroke-miterlimit:10;}.cls-5,.cls-6{stroke:#3f2d10;}.cls-5{stroke-width:1.23px;}.cls-6{stroke-width:1.55px;}.cls-7{stroke:#fff;stroke-width:1.9px;opacity:0.5;}.cls-8{fill:#3eb096;}</style></defs><circle class="cls-1" cx="39.83" cy="65.83" r="33.04"/><path class="cls-2" d="M62,58l-40.06.39V38.71A20.15,20.15,0,0,1,41.87,18.64,19.73,19.73,0,0,1,61.94,38c0,.1,0,.2,0,.3Z"/><path class="cls-3" d="M42.18,15A1.16,1.16,0,0,1,41,13.89V2.25a1.14,1.14,0,0,1,1.15-1.11h0a1.13,1.13,0,0,1,1.14,1.11V13.92A1.14,1.14,0,0,1,42.16,15h0Z"/><path class="cls-3" d="M3.19,39.68a1.12,1.12,0,0,1,1.12-1.14h0l11.79-.12a1.13,1.13,0,0,1,1.1,1.11,1.16,1.16,0,0,1-1.1,1.16L4.36,40.8a1.14,1.14,0,0,1-1.17-1.12Z"/><path class="cls-3" d="M66.76,39a1.13,1.13,0,0,1,1.13-1.1l11.75-.12a1.11,1.11,0,0,1,0,2.22h0l-11.75.11A1.12,1.12,0,0,1,66.76,39Z"/><path class="cls-3" d="M14.49,12.33a1.13,1.13,0,0,1,1.61,0l8.33,8.16a1.15,1.15,0,0,1-1.61,1.63L14.5,14a1.16,1.16,0,0,1,0-1.64Z"/><path class="cls-3" d="M69.4,11.78a1.15,1.15,0,0,1,0,1.61h0l-8.29,8.36a1.18,1.18,0,0,1-1.62,0,1.16,1.16,0,0,1,0-1.62h0l8.3-8.35A1.17,1.17,0,0,1,69.4,11.78Z"/><polygon class="cls-4" points="67.96 63.33 15.98 63.85 15.97 58.44 67.95 57.92 67.96 63.33"/><polyline class="cls-5" points="96.81 56.58 67.96 59.65 52.65 48.17"/><polyline class="cls-6" points="80.99 94.49 65.59 58.11 88.17 36.84"/><line class="cls-5" x1="56.66" y1="87.72" x2="67.96" y2="59.65"/><polyline class="cls-5" points="55.57 76.81 52 81.68 49.8 65.66 46.34 78.24 44.3 76.09 41.12 78.24 39.83 76.09 35.35 81.58 31.25 76.09 28.83 92.48 19.04 65.83 13.92 79.91 10.62 75.39 8.61 76.63"/><path class="cls-7" d="M63.07,40.07A13,13,0,0,1,48.21,19"/><path class="cls-7" d="M22.27,35a5.7,5.7,0,0,1,1.25-.12,6.57,6.57,0,1,1,0,13.13,6.22,6.22,0,0,1-1.63-.21"/><polygon class="cls-5" points="80.13 88.61 56.66 87.72 52.65 48.17 85.8 42.71 96.81 56.58 80.13 88.61"/><circle class="cls-8" cx="89.53" cy="73.69" r="5.49"/><circle class="cls-4" cx="85.07" cy="42.71" r="3.1"/></svg>