<svg id="Layer_1" data-name="Layer 1" xmlns="http://www.w3.org/2000/svg" viewBox="0 0 100 100"><defs><style>.cls-1{fill:#34c6aa;}.cls-2{fill:#2ea08a;}.cls-3{fill:#2d1d0b;}.cls-4{fill:#fff;}.cls-5{fill:#f7f7eb;}.cls-6{fill:#4b3db6;}.cls-7{fill:#00816d;}.cls-8{fill:#f4ce2a;}.cls-9{fill:#afae94;}</style></defs><g id="Group-19"><path id="Path" class="cls-1" d="M98.89,75.05c0,2.14-6.8,3.88-15.18,3.88s-15.19-1.74-15.19-3.88,6.8-3.88,15.19-3.88S98.89,72.91,98.89,75.05Z"/><path id="Path-2" data-name="Path" class="cls-2" d="M98.89,75.05V95.41c0,2.14-6.8,3.87-15.18,3.87s-15.19-1.73-15.19-3.87V75.05c0,2.14,6.8,3.88,15.19,3.88S98.89,77.18,98.89,75.05Z"/><path id="Path-3" data-name="Path" class="cls-3" d="M93.27,65.66V75.1c0,.33-.73.59-1.63.59S90,75.44,90,75.12V65.66a6.3,6.3,0,1,0-12.59,0V75.1c0,.33-.73.59-1.63.59s-1.62-.26-1.62-.59V65.66a9.56,9.56,0,0,1,19.11,0Z"/><path id="Path-4" data-name="Path" class="cls-4" d="M98.89,80.22v.57c0,2.14-6.8,3.88-15.18,3.88s-15.19-1.74-15.19-3.88v-.57c0,2.14,6.8,3.88,15.19,3.88S98.89,82.36,98.89,80.22Z"/><path id="Path-5" data-name="Path" class="cls-4" d="M98.89,86v.57c0,2.14-6.8,3.88-15.18,3.88s-15.19-1.74-15.19-3.88V86c0,2.14,6.8,3.88,15.19,3.88S98.89,88.1,98.89,86Z"/><path id="Path-6" data-name="Path" class="cls-4" d="M98.89,91.24v.57c0,2.14-6.8,3.88-15.18,3.88S68.52,94,68.52,91.81v-.57c0,2.14,6.8,3.88,15.19,3.88S98.89,93.38,98.89,91.24Z"/><path id="Path-7" data-name="Path" class="cls-3" d="M93.27,65.66V75.1c0,.33-.73.59-1.63.59S90,75.44,90,75.12V65.66a6.3,6.3,0,1,0-12.59,0V75.1c0,.33-.73.59-1.63.59s-1.62-.26-1.62-.59V65.66a9.56,9.56,0,0,1,19.11,0Z"/></g><g id="Page-1"><g id="Artboard"><g id="Group"><g id="akirastack-cloud-security"><rect id="Rectangle" class="cls-5" x="1.07" y="12.47" width="90.41" height="54.8"/><path id="Path-8" data-name="Path" class="cls-6" d="M6.34,3.7H86.2a5.24,5.24,0,0,1,5.26,5.21v3.56H1.07V8.91A5.25,5.25,0,0,1,6.34,3.7Z"/><rect id="Rectangle-2" data-name="Rectangle" class="cls-7" x="49.1" y="16.21" width="30.1" height="24.12"/><rect id="Rectangle-3" data-name="Rectangle" class="cls-8" x="10.58" y="16.21" width="30.1" height="24.12"/><rect id="Rectangle-4" data-name="Rectangle" class="cls-6" x="10.58" y="44.89" width="68.61" height="5.11" rx="2.56"/><rect id="Rectangle-5" data-name="Rectangle" class="cls-6" x="10.58" y="54.77" width="68.61" height="5.11" rx="2.56"/><ellipse id="Oval" class="cls-4" cx="84.09" cy="8.71" rx="2.88" ry="2.84"/><ellipse id="Oval-2" data-name="Oval" class="cls-4" cx="75.78" cy="8.71" rx="2.88" ry="2.84"/><ellipse id="Oval-3" data-name="Oval" class="cls-4" cx="67.47" cy="8.71" rx="2.88" ry="2.84"/></g></g></g></g><ellipse id="Oval-4" data-name="Oval" class="cls-9" cx="86.38" cy="58.61" rx="2.67" ry="3.57"/><path id="Path-9" data-name="Path" class="cls-3" d="M93.27,65.64v9.45c0,.32-.73.59-1.63.59S90,75.42,90,75.1V65.64a6.3,6.3,0,0,0-6.29-6.3V59a5.73,5.73,0,0,1,.69-2.81,9.54,9.54,0,0,1,8.86,9.52Z"/><g id="Group-13-Copy"><path id="Path_31716" data-name="Path 31716" class="cls-8" d="M10.7,72.72H27.37a2,2,0,0,1,2,1.94h0a2,2,0,0,1-2,1.94H10.7A2,2,0,0,1,9.28,76a1.92,1.92,0,0,1-.59-1.38h0a2,2,0,0,1,2-1.93Z"/><path id="Path_31717" data-name="Path 31717" class="cls-8" d="M31.3,85.83H48a2,2,0,0,1,2,2h0a2,2,0,0,1-2,2H31.3a2.07,2.07,0,0,1-1.42-.57,1.93,1.93,0,0,1-.59-1.38h0a1.9,1.9,0,0,1,.59-1.38,2,2,0,0,1,1.42-.57Z"/><path id="Path_31717-Copy" data-name="Path 31717-Copy" class="cls-8" d="M14.13,91.78H30.8a2,2,0,0,1,2,2h0a2,2,0,0,1-2,2H14.13a2,2,0,0,1-1.42-.57,1.9,1.9,0,0,1-.59-1.38h0a1.92,1.92,0,0,1,.59-1.38,2.07,2.07,0,0,1,1.42-.57Z"/><path id="Path_31717-Copy-2" data-name="Path 31717-Copy-2" class="cls-8" d="M39.89,93.48H56.56a2,2,0,0,1,2,2h0a2,2,0,0,1-2,1.95H39.89a2,2,0,0,1-1.43-.57,1.94,1.94,0,0,1-.59-1.38h0a2,2,0,0,1,.59-1.38,2.08,2.08,0,0,1,1.43-.57Z"/><path id="Path_31718" data-name="Path 31718" class="cls-8" d="M36.49,76.59h18.3a2,2,0,0,1,1.43.57,1.94,1.94,0,0,1,.59,1.38h0a2,2,0,0,1-2,1.95H36.49a2,2,0,0,1-2-1.95h0a2,2,0,0,1,2-2Z"/><path id="Path_31721" data-name="Path 31721" class="cls-8" d="M13.32,80.15H31.61a2,2,0,0,1,2,1.95A1.94,1.94,0,0,1,33,83.48a2,2,0,0,1-1.43.57H13.32a2,2,0,1,1,0-3.9Z"/></g></svg>