<svg id="Layer_1" data-name="Layer 1" xmlns="http://www.w3.org/2000/svg" viewBox="0 0 500 360"><defs><style>.cls-1{opacity:0.5;}.cls-2{fill:#573bd3;}.cls-3{fill:#fbe104;}.cls-4{fill:#d1d3d4;}.cls-5{fill:#a6ddce;}.cls-6{fill:#e9f0f2;}.cls-7{fill:#2678fe;}.cls-8{fill:#198afd;}.cls-9{fill:#4063da;}.cls-10{fill:#3d56da;}.cls-11{fill:#1f82fe;}.cls-12{fill:#3e57da;}.cls-13{fill:#4265da;}.cls-14{fill:#326ce4;}.cls-15{fill:#fff;}.cls-16{fill:#fbfcfe;}</style></defs><g class="cls-1"><rect class="cls-2" x="177.91" y="331.05" width="101.92" height="7.18"/><rect class="cls-3" x="187.88" y="317.11" width="91.94" height="7.18"/><rect class="cls-4" x="119.67" y="303.16" width="111.96" height="7.18"/><rect class="cls-2" x="126.13" y="289.21" width="47.65" height="7.18"/><rect class="cls-2" x="190.98" y="289.21" width="25.42" height="7.18"/><rect class="cls-4" x="82.72" y="275.24" width="133.68" height="7.18"/><rect class="cls-2" x="136.26" y="261.3" width="80.15" height="7.18"/><rect class="cls-2" x="18.93" y="330.77" width="70.82" height="7.46"/><rect class="cls-3" x="110.14" y="330.77" width="61.02" height="7.46"/><rect class="cls-2" x="5.04" y="316.96" width="68.23" height="7.18"/><rect class="cls-3" x="89.84" y="316.96" width="91.2" height="7.18"/><rect class="cls-2" x="39.17" y="302.99" width="68.23" height="7.18"/><rect class="cls-2" x="23.51" y="289.05" width="68.23" height="7.18"/><rect class="cls-5" x="105.97" y="289.05" width="10.66" height="7.18"/><rect class="cls-2" x="5.04" y="275.1" width="52.57" height="7.18"/><rect class="cls-5" x="57.61" y="261.15" width="60.31" height="7.18"/></g><g class="cls-1"><rect class="cls-2" x="5.04" y="88.24" width="101.92" height="7.18"/><rect class="cls-3" x="5.04" y="74.29" width="91.94" height="7.18"/><rect class="cls-4" x="53.25" y="60.35" width="111.96" height="7.18"/><rect class="cls-2" x="111.09" y="46.4" width="47.65" height="7.18"/><rect class="cls-2" x="68.47" y="46.4" width="25.42" height="7.18"/><rect class="cls-4" x="68.47" y="32.43" width="133.68" height="7.18"/><rect class="cls-2" x="68.47" y="18.48" width="80.15" height="7.18"/><rect class="cls-2" x="195.12" y="87.95" width="70.82" height="7.46"/><rect class="cls-3" x="113.71" y="87.95" width="61.02" height="7.46"/><rect class="cls-2" x="211.59" y="74.15" width="68.23" height="7.18"/><rect class="cls-3" x="103.83" y="74.15" width="91.2" height="7.18"/><rect class="cls-2" x="177.47" y="60.18" width="68.23" height="7.18"/><rect class="cls-2" x="193.13" y="46.23" width="68.23" height="7.18"/><rect class="cls-5" x="168.23" y="46.23" width="10.66" height="7.18"/><rect class="cls-2" x="227.26" y="32.29" width="52.57" height="7.18"/><rect class="cls-5" x="166.95" y="18.34" width="60.31" height="7.18"/></g><circle class="cls-6" cx="330.43" cy="180" r="164.52"/><path class="cls-7" d="M298.34,225.45C308.62,231.28,319,237,329.15,243c3.3,2,5.88,2,9.19,0,12.45-7.43,25.14-14.45,37.58-21.89,3.62-2.17,6.49-2.68,10.33-.35,11.25,6.82,22.71,13.31,34.16,19.79,4.57,2.59,4.74,4.57,0,7.28q-41.51,23.81-82.88,47.83c-2.21,1.27-4.28,2-6.86.51q-39.19-23-78.49-45.89c6.69-2.59,13.43-4.85,19.86-8.3C281.24,237,290.38,232.24,298.34,225.45Z"/><path class="cls-8" d="M235,211.36a235.54,235.54,0,0,1,.05-28.12,17,17,0,0,0,0-14.78c-.1-12.91-.15-25.81-.34-38.71,0-2.84,1.22-4.45,3.57-5.8Q280,100,321.61,76c4.62-2.67,6-.76,6,3.76,0,13.58-.14,27.17.08,40.74.06,3.88-2.06,5.46-4.9,7.08-12,6.82-23.79,14-36,20.52-5.4,2.88-8.09,6.24-7.21,12.46.43,3-.1,6.21-.2,9.31-12.52,4.34-22.8,12.89-34.74,18.34-4.88,2.23-6.79,6-6.32,11.28a30.47,30.47,0,0,1-.19,8C237.84,209.2,238.06,211.7,235,211.36Z"/><path class="cls-9" d="M432.49,135.07q.13,46,.27,92c0,4.13-1.66,5.18-5.39,3q-18.15-10.58-36.43-21a5.45,5.45,0,0,1-3.09-5.35c.15-13.55.21-27.11.3-40.66a23.06,23.06,0,0,0,0-11.81c-1-4.34.6-7.81,4.37-9.5,7.8-3.48,14.18-9.24,22-12.78C425.42,124,427.47,124.51,432.49,135.07Z"/><path class="cls-10" d="M432.49,135.07c-8.72-8.46-8.61-8.22-20.19-2.85-6.86,3.18-11.94,9.17-19.43,11.34-3.11.89-3.37,4.17-3.53,7.25-.21,4.1,1.34,8.42-1.19,12.3,1.49-8.65-3.1-13-10.38-16.75-11.5-5.88-22.41-12.89-33.7-19.19-3.14-1.76-4.34-3.82-4.29-7.41.19-13.15,0-26.3.09-39.46,0-6.39,1.34-7.1,7.09-3.8,27.25,15.68,54.4,31.53,81.74,47C434,126.55,432.76,130.74,432.49,135.07Z"/><path class="cls-11" d="M235,211.36c3.08-5,1.15-10.39,1.39-15.58.16-3.46.93-5.64,4.24-7.4,10.79-5.73,21.35-11.86,32-17.83,2.16-1.21,4.33-2.49,6.81-.73.08,12.9.35,25.8.14,38.69-.08,4.4,1.36,7,5.24,8.92,4.68,2.37,9.05,5.33,13.56,8-.27,3.52-2.65,5.57-5.39,7.13-9.82,5.6-19.7,11.08-29.59,16.56-3.53,2-7.46.48-11.16,1.11-4.81-2.63-9.59-5.32-14.45-7.86a5.3,5.3,0,0,1-3.09-5.31C234.81,228.51,234.86,219.93,235,211.36Z"/><path class="cls-12" d="M313,203.26c-.11-16-.13-32-.41-48-.07-3.65,1.29-4.43,4.64-4.42s4.82,1,4.71,4.53c-.21,6.81-.06,13.63-.06,21.95,7.57-7.55,14.51-13.7,20.47-20.68,4.67-5.48,9.84-6.62,17.22-5-8.32,8.53-16,16.83-24.13,24.57-4.13,3.91-3.95,6.78.16,10.08-.71,2.93-1.84,5.51-5.18,6.29q-3.37-4-6.77-7.93c-4.25.84-1.93,4.22-1.84,6.06C322.18,197.4,318.48,200.84,313,203.26Z"/><path class="cls-13" d="M330.43,192.55c1.53-2.26,1.7-5.63,5.18-6.29,9.16,8.64,17,18.44,25.77,28.21-7.06,1.68-12,.58-16.05-4.78C340.75,203.68,335.43,198.24,330.43,192.55Z"/><path class="cls-13" d="M313,203.26c3.84-5.4,10.12-9.62,8.13-17.8-.36-1.51,1.07-2.28,2.52-.84-3,1.17-1.64,3.75-1.69,5.7-.17,6.39-.15,12.79,0,19.18.06,3.46-.22,5.84-4.85,5.81-4.41,0-4.51-2.35-4.34-5.45C312.86,207.66,312.92,205.46,313,203.26Z"/><path class="cls-11" d="M235,168.46c4,4.54,4,10.23,0,14.78Z"/><path class="cls-14" d="M92.44,257.66a14.14,14.14,0,0,1-11.71-5.56c-12.6-15.76-25.17-31.31-35.81-44.45a13.36,13.36,0,0,1-2.81-12.16c3.66-15.58,7.29-31.46,10.8-46.81l2.06-9a13.15,13.15,0,0,1,7.69-9.42c17.83-8.42,35.64-17,52.36-25a13.59,13.59,0,0,1,5.86-1.41,13.79,13.79,0,0,1,6,1.45c16.6,8,34.43,16.48,52.37,25a12.81,12.81,0,0,1,7.53,9.13l.8,3.51c4,17.49,8.12,35.58,12.27,53.34a11.88,11.88,0,0,1-2.38,10.58c-10.74,13.41-21.69,27-32.29,40.15l-4.81,6c-2.53,3.13-6,4.65-10.52,4.65H104.59c-4.66,0-8.45,0-11.92.06ZM77.55,194.37c3.74,0,5.39,2.8,6.31,4.91,1.93,4.44,4.83,8.61,9.42,13.53a11.48,11.48,0,0,0,2.52,1.8c2,1.21,4.6,2.73,4.94,6.19s-1.46,5.82-3,8a24.08,24.08,0,0,0-1.54,2.28c-.83,1.45-.8,2.16-.71,2.46a1.73,1.73,0,0,0,1,.88,1.93,1.93,0,0,0,.8.23c.74,0,1.35-1.12,1.74-2s.68-1.88,1-2.89a32.3,32.3,0,0,1,1.35-3.74c.55-1.22,2-4.45,5.67-4.45a8.33,8.33,0,0,1,2.56.45,37.08,37.08,0,0,0,11.58,1.89A35.84,35.84,0,0,0,132.31,222a8.44,8.44,0,0,1,2.61-.47c3.3,0,4.79,2.53,5.63,4.43a35.69,35.69,0,0,1,1.37,3.77c.29.89.56,1.72.88,2.55.57,1.49,1.17,2.25,1.78,2.25a2.12,2.12,0,0,0,.89-.26,1.6,1.6,0,0,0,.94-.85c.09-.3.11-1-.76-2.47-.44-.74-.91-1.46-1.38-2.18a41.18,41.18,0,0,1-2.5-4.2c-2-4.14,0-6.65,2.06-8a39.34,39.34,0,0,0,14.41-17.74c.84-2,2.35-4.59,5.77-4.59a10.58,10.58,0,0,1,3.08.53c1,.29,1.9.62,2.81.95,1.28.45,2.5.88,3.74,1.2a4.35,4.35,0,0,0,1.06.15,1.2,1.2,0,0,0,1.38-1.09,1.69,1.69,0,0,0-.1-1.28,2.58,2.58,0,0,0-1.74-.82c-1.36-.22-2.79-.37-4.16-.51-.67-.06-1.35-.13-2-.21-5-.57-7-2.79-6.77-7.66a40,40,0,0,0-5.79-22.77,4.34,4.34,0,0,1-.13-4.62c1.36-2.88,3.8-4.22,5.95-5.4a23,23,0,0,0,2.36-1.42c2.23-1.59,2.18-2.22,1.52-3.26a1,1,0,0,0-.93-.51,4.17,4.17,0,0,0-2.59,1.33c-.61.59-1.2,1.2-1.79,1.82-.95,1-1.92,2-3,2.91a7.32,7.32,0,0,1-4.59,2,6.39,6.39,0,0,1-4.44-2.06,36.65,36.65,0,0,0-20.48-9.9c-5-.72-5.58-4-5.52-6.76a38.39,38.39,0,0,1,.38-4.08c.15-1.13.29-2.19.34-3.26a3.28,3.28,0,0,0-.54-2.36,1.38,1.38,0,0,0-1.11-.37,1.4,1.4,0,0,0-1.16.39,3.18,3.18,0,0,0-.53,2.3c.08,1.28.28,2.57.48,3.94.1.64.2,1.29.29,1.95l0,.27L120,136a8.89,8.89,0,0,0-.08,1.53c0,1.85,0,5.29-4.42,5.93a38.59,38.59,0,0,0-22,10.5,5.47,5.47,0,0,1-3.86,1.73,6.42,6.42,0,0,1-2.51-.57,15.27,15.27,0,0,1-5.3-4.33c-.33-.37-.66-.73-1-1.09-1.22-1.3-2-2.06-3-2.06a2.21,2.21,0,0,0-.73.13,1,1,0,0,0-.8,1.12c0,1.24.61,1.76,2.36,2.83l.25.15c.44.28.88.54,1.33.8a33.25,33.25,0,0,1,3.53,2.3c2.12,1.63,4.63,4.32,2,8.79a38.41,38.41,0,0,0-5.16,22.21c.23,4.25-1.74,6.61-6,7.22-1.07.15-2.14.25-3.18.35-1.29.13-2.52.25-3.74.45a2.64,2.64,0,0,0-1.75.83,1.67,1.67,0,0,0-.12,1.29c.18.81.51,1.08,1.32,1.08a4.5,4.5,0,0,0,1.08-.15c1.17-.3,2.32-.72,3.53-1.15.87-.32,1.77-.64,2.68-.92A10.85,10.85,0,0,1,77.55,194.37Z"/><path class="cls-15" d="M120.88,105.51a12,12,0,0,1,5.26,1.28q26.17,12.54,52.38,25a11.18,11.18,0,0,1,6.63,8q6.49,28.46,13.07,56.87a10.17,10.17,0,0,1-2.06,9.17q-18.49,23.1-37.1,46.13c-2.37,2.94-5.55,4-9.23,4h-30l-15.33,0c-4,0-7.92,0-11.88.06h-.21A12.46,12.46,0,0,1,82,251.07Q64.2,228.78,46.2,206.62a11.7,11.7,0,0,1-2.49-10.75c4.37-18.59,8.61-37.21,12.87-55.82a11.49,11.49,0,0,1,6.79-8.3q26.22-12.39,52.36-25a11.74,11.74,0,0,1,5.15-1.25M89.6,154a4.86,4.86,0,0,1-1.87-.44c-2.4-1-4-3.17-5.74-5-1.2-1.26-2.42-2.57-4.16-2.57a4.08,4.08,0,0,0-1.24.21,2.68,2.68,0,0,0-1.94,2.63c-.09,2.43,1.69,3.4,3.4,4.45s3.24,1.86,4.72,3c2.25,1.74,3.38,3.58,1.55,6.64A40,40,0,0,0,78.92,186c.19,3.39-1.19,5-4.61,5.49-2.31.33-4.65.43-7,.81s-3.75,1.65-3.22,4.1a2.75,2.75,0,0,0,2.93,2.38,5.64,5.64,0,0,0,1.49-.21c2.13-.54,4.18-1.44,6.29-2.09a9.35,9.35,0,0,1,2.7-.47c2.2,0,3.63,1.23,4.8,3.92a49.56,49.56,0,0,0,9.72,14c2.28,2.45,6.63,3,7,7,.37,3.81-2.67,6.3-4.38,9.28-1.24,2.19-1.63,4.39,1,5.65a3.45,3.45,0,0,0,1.51.39c1.6,0,2.6-1.47,3.27-3.08.88-2.14,1.36-4.46,2.32-6.57s2-3.48,4.17-3.48a6.46,6.46,0,0,1,2.05.37,38.93,38.93,0,0,0,12.09,2,37.28,37.28,0,0,0,11.69-1.89,6.6,6.6,0,0,1,2.11-.39c2.07,0,3.21,1.39,4.12,3.44s1.42,4.19,2.21,6.25c.67,1.74,1.65,3.31,3.32,3.31a3.74,3.74,0,0,0,1.61-.42c2.66-1.28,2.14-3.54.88-5.66s-2.74-4.07-3.82-6.26-1.05-4.23,1.49-5.92a40.71,40.71,0,0,0,15-18.47c1.06-2.48,2.28-3.58,4.25-3.58a8.81,8.81,0,0,1,2.6.46c2.23.67,4.38,1.6,6.62,2.17a6.38,6.38,0,0,0,1.47.19,2.79,2.79,0,0,0,3-2.36c.56-2.45-.92-3.73-3.18-4.1-2.07-.34-4.17-.49-6.25-.73-4.11-.47-5.47-1.94-5.31-5.95a41.42,41.42,0,0,0-6-23.69,2.73,2.73,0,0,1,0-3.07c1.61-3.4,5.09-4.25,7.78-6.17,1.93-1.38,3.55-3,2-5.49a2.62,2.62,0,0,0-2.32-1.28,5.64,5.64,0,0,0-3.72,1.79c-1.61,1.52-3.05,3.23-4.73,4.66A5.59,5.59,0,0,1,152.3,154a4.84,4.84,0,0,1-3.3-1.6A38.45,38.45,0,0,0,127.61,142c-3.53-.5-4.16-2.39-4.1-5.08,0-2.44.6-4.86.72-7.3.11-2.29-.67-4.46-3.3-4.46h0c-2.61,0-3.46,2.1-3.32,4.44.11,2,.49,3.92.77,6-.44,2.29.9,5.57-3.12,6.14a40.14,40.14,0,0,0-22.94,11A3.82,3.82,0,0,1,89.6,154m31.28-51.78a15,15,0,0,0-6.57,1.58c-16.67,8-34.43,16.51-52.35,25a14.73,14.73,0,0,0-8.6,10.55l-2,9c-3.51,15.35-7.14,31.23-10.81,46.82a14.93,14.93,0,0,0,3.14,13.57c10.65,13.15,23.23,28.71,35.8,44.44a15.71,15.71,0,0,0,13,6.18h.25c3.45,0,7.21-.05,11.84-.05h45.3c5,0,9-1.77,11.8-5.26l5.07-6.29c10.51-13.05,21.38-26.54,32-39.85a13.42,13.42,0,0,0,2.69-12c-4.12-17.64-8.22-35.61-12.18-53l-.89-3.87a14.55,14.55,0,0,0-8.43-10.26c-17.9-8.46-35.74-17-52.36-25a15.39,15.39,0,0,0-6.69-1.61Zm0,27.61,0-.4a3.27,3.27,0,0,1,0-.73,4.48,4.48,0,0,1,0,.79c0,.11,0,.23,0,.34ZM89.6,157.29a7.06,7.06,0,0,0,5-2.2A37,37,0,0,1,115.72,145c3.16-.45,4.61-2.09,5.27-3.78,1,2.24,3.09,3.59,6.15,4a35.05,35.05,0,0,1,19.59,9.46,8.06,8.06,0,0,0,5.57,2.52,7.14,7.14,0,0,0,1.77-.23c-.07.12-.13.25-.19.38a5.93,5.93,0,0,0,.21,6.18,38.35,38.35,0,0,1,5.55,21.85c-.13,3.37.72,5.79,2.64,7.34-3.61.84-5,4.2-5.55,5.4a37.65,37.65,0,0,1-13.81,17,7.31,7.31,0,0,0-3.63,6.21,6.74,6.74,0,0,0-4.36-1.5,10,10,0,0,0-3.14.55,34,34,0,0,1-10.66,1.73,35.57,35.57,0,0,1-11.06-1.81,9.83,9.83,0,0,0-3.08-.53,6.78,6.78,0,0,0-4.56,1.67c0-.29,0-.58-.05-.88-.42-4.29-3.62-6.19-5.74-7.45a10.42,10.42,0,0,1-2.16-1.51c-4.45-4.77-7.26-8.79-9.11-13.05C84,195.47,82,193.57,79.5,193c2-1.54,2.89-3.94,2.72-7.12a36.82,36.82,0,0,1,4.93-21.28,7.59,7.59,0,0,0,.64-7.5,7.21,7.21,0,0,0,1.81.24Z"/><path class="cls-16" d="M118.37,135.63c-.28-2.09-.66-4-.77-6-.14-2.34.71-4.44,3.32-4.44s3.42,2.16,3.31,4.46-.67,4.86-.72,7.3c-.06,2.69.57,4.58,4.1,5.08A38.45,38.45,0,0,1,149,152.37c2.58,2.45,4.64,1.81,6.82,0,1.68-1.43,3.12-3.14,4.73-4.66,2.25-2.16,4.84-2.42,6-.51,1.6,2.53,0,4.11-2,5.49-2.69,1.92-6.17,2.77-7.78,6.17a2.73,2.73,0,0,0,0,3.07,41.42,41.42,0,0,1,6,23.69c-.16,4,1.2,5.48,5.31,5.95,2.08.24,4.18.39,6.25.73,2.26.37,3.74,1.65,3.18,4.1s-2.49,2.66-4.44,2.17c-2.25-.57-4.4-1.5-6.63-2.17-3.62-1.1-5.39-.3-6.85,3.12a40.71,40.71,0,0,1-15,18.47c-2.54,1.69-2.59,3.68-1.49,5.92s2.56,4.17,3.82,6.26,1.78,4.38-.88,5.66-4.07-.65-4.93-2.89c-.79-2.06-1.32-4.23-2.21-6.25-1.18-2.65-2.74-4.2-6.23-3.05a37.5,37.5,0,0,1-23.78-.08c-3.52-1.16-5,.52-6.22,3.11-1,2.11-1.44,4.43-2.32,6.57s-2.27,3.9-4.78,2.69-2.24-3.46-1-5.65c1.71-3,4.75-5.47,4.38-9.28-.4-4-4.75-4.58-7-7a49.56,49.56,0,0,1-9.72-14c-1.59-3.66-3.68-4.62-7.5-3.45-2.11.65-4.16,1.55-6.29,2.09-2,.51-3.91.19-4.42-2.17s1-3.73,3.22-4.1,4.64-.48,7-.8c3.42-.49,4.8-2.11,4.61-5.5a40,40,0,0,1,5.4-23.15c1.83-3.06.7-4.9-1.55-6.64-1.48-1.13-3.14-2-4.72-3s-3.49-2-3.4-4.45a2.68,2.68,0,0,1,1.94-2.63c2.44-.79,3.94.82,5.4,2.37,1.76,1.86,3.34,4,5.74,5a3.74,3.74,0,0,0,4.58-.82,40.14,40.14,0,0,1,22.94-11C119.27,141.2,117.93,137.92,118.37,135.63Zm-31,46.65c-.08,4.62,0,4.65,3.86,3.52s7.58-2.17,11.35-3.32,4.39-3.32,1.57-6c-3.3-3.1-6.8-6-10.08-9.13-1.5-1.43-2.13-1-3,.6A36,36,0,0,0,87.4,182.28Zm29.17-28.34c.88-3.24-.29-4-3.43-3.12a37.72,37.72,0,0,0-13.93,7c-1.44,1.18-1.67,1.85.08,3,3.8,2.49,7.42,5.26,11.17,7.82,3.19,2.17,5.25,1.11,5.51-2.84S116.38,157.91,116.57,153.94ZM131.62,215c-2.72-4.9-5.18-9.5-7.81-14-1.74-3-4-3-5.77,0-2.34,4-4.49,8.13-6.82,12.14-.9,1.55-.62,2.07,1.13,2.52A33.58,33.58,0,0,0,131.62,215Zm12.6-55.49a33.81,33.81,0,0,0-16.92-8.94c-2.24-.5-2.29.38-2.18,2,.29,4.54.43,9.09.77,13.63.26,3.42,2.4,4.43,5.28,2.48C135.5,165.8,139.72,162.71,144.22,159.52Zm10.24,24a38.91,38.91,0,0,0-3.53-14.87c-1-1.87-2-2.45-3.69-.84-3.17,2.92-6.46,5.7-9.6,8.65-2.88,2.7-2.33,4.82,1.51,6s7.86,2.12,11.7,3.43C153.73,186.84,155,186.33,154.46,183.49Zm-16.86,8.75c-5.24.92-6.54.19-4,6.2,1.55,3.64,3.13,7.27,4.56,11,.59,1.53,1.08,2.14,2.64.94a34,34,0,0,0,10.93-13.85c.34-.82.91-1.82-.69-2.07C146.56,193.72,142.08,193,137.6,192.24Zm-45,2.36c-2.68-.35-3,.62-2.19,2.36a33.24,33.24,0,0,0,10.88,13.41c.76.56,1.54,1.27,2.14-.23,1.94-4.85,4-9.66,5.83-14.56.66-1.79-.33-3.69-2.29-3.34-3.21.57-6.58,0-9.66,1.51C95.66,194.53,93.72,193.81,92.57,194.6Zm28.52-15.74c-3.6,0-5.64,1.38-5.73,3.9-.11,3,2.77,6.28,5.52,6.32s5.52-3,5.58-5.91C126.52,180.61,124.35,178.87,121.09,178.86Z"/><path class="cls-14" d="M87.4,182.28A36,36,0,0,1,91.14,168c.83-1.63,1.46-2,3-.6,3.28,3.13,6.78,6,10.08,9.13,2.82,2.65,2.23,4.81-1.57,6s-7.56,2.22-11.35,3.32S87.32,186.9,87.4,182.28Z"/><path class="cls-14" d="M116.57,153.94c-.19,4-.33,7.93-.6,11.89s-2.32,5-5.51,2.84c-3.75-2.56-7.37-5.33-11.17-7.82-1.75-1.16-1.52-1.83-.08-3a37.72,37.72,0,0,1,13.93-7C116.28,149.94,117.45,150.7,116.57,153.94Z"/><path class="cls-14" d="M131.62,215a33.58,33.58,0,0,1-19.27.66c-1.75-.45-2-1-1.13-2.52,2.33-4,4.48-8.13,6.82-12.14,1.74-3,4-3,5.77,0C126.44,205.51,128.9,210.11,131.62,215Z"/><path class="cls-14" d="M144.22,159.52c-4.5,3.19-8.72,6.28-13.05,9.22-2.88,1.95-5,.94-5.28-2.48-.34-4.54-.48-9.09-.77-13.63-.11-1.67-.06-2.55,2.18-2A33.81,33.81,0,0,1,144.22,159.52Z"/><path class="cls-14" d="M154.46,183.49c.57,2.84-.73,3.35-3.61,2.36-3.84-1.31-7.81-2.25-11.7-3.43s-4.39-3.29-1.51-6c3.14-3,6.43-5.73,9.6-8.65,1.74-1.61,2.73-1,3.69.84A38.91,38.91,0,0,1,154.46,183.49Z"/><path class="cls-14" d="M137.6,192.25c4.48.73,9,1.47,13.45,2.18,1.6.25,1,1.25.69,2.07a34,34,0,0,1-10.93,13.85c-1.56,1.2-2.05.59-2.64-.94-1.43-3.7-3-7.33-4.56-11C131.06,192.43,132.36,193.16,137.6,192.25Z"/><path class="cls-14" d="M92.57,194.6c1.15-.79,3.09-.07,4.71-.85,3.08-1.49,6.45-.94,9.66-1.51,2-.35,3,1.55,2.29,3.34-1.81,4.9-3.89,9.71-5.83,14.56-.6,1.5-1.38.79-2.14.23A33.24,33.24,0,0,1,90.38,197C89.6,195.22,89.89,194.25,92.57,194.6Z"/><path class="cls-14" d="M121.09,178.86c3.26,0,5.43,1.75,5.37,4.31-.06,2.87-3,6-5.58,5.91s-5.63-3.33-5.52-6.32C115.45,180.24,117.49,178.85,121.09,178.86Z"/></svg>