<?xml version="1.0" encoding="UTF-8"?><svg id="a" xmlns="http://www.w3.org/2000/svg" viewBox="0 0 100 100"><defs><style>.b{fill:#fff;}.c{fill:#a7a9ac;}.d{fill:#a8c6cc;}.e,.f{fill:#4b3db6;}.g{fill:#ffe01b;}.h{fill:#f1f2f2;}.f{opacity:.33;}.i{fill:#3dba85;}.j{fill:#0562e8;}.k{fill:#f44545;}</style></defs><g><rect class="f" x="1.14" y="36.48" width="97.72" height="27.55" rx="13.77" ry="13.77"/><rect class="e" x="1.14" y="66.67" width="97.72" height="27.55" rx="13.77" ry="13.77"/><rect class="g" x="1.14" y="6.69" width="97.72" height="27.55" rx="13.77" ry="13.77"/><circle class="b" cx="14.29" cy="50.26" r="8.32"/><circle class="b" cx="37.39" cy="50.26" r="8.32"/><circle class="h" cx="14.29" cy="80.95" r="8.32"/><circle class="h" cx="37.39" cy="80.95" r="8.32"/><circle class="h" cx="14.29" cy="20.4" r="8.32"/><circle class="h" cx="37.39" cy="20.4" r="8.32"/><circle class="j" cx="14.29" cy="50.26" r="4.47"/><circle class="g" cx="37.39" cy="50.26" r="4.47"/><circle class="c" cx="14.29" cy="80.95" r="4.47"/><circle class="d" cx="14.29" cy="20.4" r="4.47"/><circle class="j" cx="37.39" cy="80.95" r="4.47"/><circle class="i" cx="37.39" cy="20.4" r="4.47"/><path class="b" d="M54.41,47.72h7.04c1.36,0,2.45,1.1,2.45,2.46h0c0,1.36-1.1,2.46-2.45,2.46h-7.04c-1.36,0-2.46-1.1-2.46-2.46h0c0-1.36,1.1-2.46,2.45-2.47h0Z"/><path class="b" d="M54.41,78.49h7.04c1.36,0,2.45,1.1,2.45,2.46h0c0,1.36-1.1,2.46-2.45,2.46h-7.04c-1.36,0-2.46-1.1-2.46-2.46h0c0-1.36,1.1-2.46,2.46-2.46Z"/><path class="b" d="M71.62,78.49h16.98c1.36,0,2.45,1.1,2.45,2.46h0c0,1.36-1.1,2.46-2.45,2.46h-16.98c-1.36,0-2.46-1.1-2.46-2.46h0c0-1.36,1.1-2.46,2.46-2.46Z"/><path class="b" d="M71.62,47.72h16.98c1.36,0,2.45,1.1,2.45,2.46h0c0,1.36-1.1,2.46-2.45,2.46h-16.98c-1.36,0-2.45-1.1-2.46-2.46h0c0-1.36,1.1-2.46,2.46-2.46Z"/><path class="b" d="M71.62,18.01h16.98c1.36,0,2.45,1.1,2.45,2.46h0c0,1.36-1.09,2.46-2.45,2.46h-16.99c-1.36,0-2.46-1.1-2.46-2.46h0c0-1.36,1.1-2.46,2.46-2.46Z"/><path class="b" d="M54.41,18.01h7.04c1.36,0,2.45,1.1,2.45,2.46h0c0,1.36-1.09,2.46-2.45,2.46h-7.05c-1.36,0-2.46-1.1-2.46-2.45h0c0-1.36,1.1-2.46,2.45-2.47h0Z"/></g><polygon class="k" points="88.7 89.75 79.77 96.76 11.3 9.47 20.23 2.47 88.7 89.75"/></svg>