<svg id="Layer_1" data-name="Layer 1" xmlns="http://www.w3.org/2000/svg" viewBox="0 0 100 100"><defs><style>.cls-1{fill:#e9e9f4;}.cls-2{fill:#786ef4;}.cls-3{fill:#573bd3;}.cls-4,.cls-7,.cls-9{fill:none;}.cls-4,.cls-5,.cls-7,.cls-9{stroke:#3f2d10;}.cls-4{stroke-miterlimit:10;stroke-width:1.3px;stroke-dasharray:3.18 3.18;opacity:0.15;}.cls-5{fill:#ffe01b;stroke-width:0.65px;}.cls-6{fill:#4ea3ce;}.cls-7{stroke-width:0.92px;}.cls-8{fill:#34c6aa;}.cls-9{stroke-width:0.77px;}</style></defs><path class="cls-1" d="M49.91,2.33A48.56,48.56,0,1,0,98.46,50.88,48.55,48.55,0,0,0,49.91,2.33Zm0,71.9A23.35,23.35,0,1,1,73.26,50.88,23.35,23.35,0,0,1,49.91,74.23Z"/><path class="cls-2" d="M49.82,27.41s-6.2,9.17-20.49,11.52c0,0-.7,27.46,21.44,35.43"/><path class="cls-3" d="M49.82,27.41s6.53,7.12,20.81,4.79c0,0,1.8,27.06-19.86,42.14"/><path class="cls-4" d="M49.91,85.87a35,35,0,1,1,35-35A35,35,0,0,1,49.91,85.87Z"/><circle class="cls-5" cx="9.39" cy="24.18" r="2.75"/><path class="cls-5" d="M14,32.53a4.64,4.64,0,0,0-9.28,0"/><circle class="cls-5" cx="27.78" cy="24.18" r="2.75"/><path class="cls-5" d="M32.42,32.53a4.64,4.64,0,0,0-9.28,0"/><circle class="cls-5" cx="19.23" cy="21.52" r="5.46"/><path class="cls-5" d="M28.43,38.09a9.2,9.2,0,1,0-18.39,0"/><path class="cls-6" d="M72.28,9.14h8.87c.59,0,.88.27.88.86V25.54a.77.77,0,0,1-.86.87h-7.7a.76.76,0,0,1-.87-.74,3.39,3.39,0,0,0-3.66-2.87,3.33,3.33,0,0,0-3.28,3,.73.73,0,0,1-.73.63c-.55,0-1.1,0-1.66,0a.72.72,0,0,1-.71-.67,2.26,2.26,0,0,1,0-.26V10.08c0-.68.26-.94,1-.94Z"/><path class="cls-6" d="M83.9,19.49v-6a.76.76,0,0,1,.24-.68,1,1,0,0,1,.55-.2h4.55a.82.82,0,0,1,.65.31C91.58,15,93.28,17,95,19a1,1,0,0,1,.21.59c0,2,0,4,0,6a.76.76,0,0,1-.82.84h-.46a.77.77,0,0,1-.89-.75,3.29,3.29,0,0,0-2.8-2.81,3.43,3.43,0,0,0-4.14,2.87.74.74,0,0,1-.8.69h-.6a.75.75,0,0,1-.76-.73,1.76,1.76,0,0,1,0-.23Zm4.71-1.2h2.64a.54.54,0,0,0,.53-.29.55.55,0,0,0-.11-.62l-2.52-3a.68.68,0,0,0-.57-.28H86a.54.54,0,0,0-.62.62v2.94c0,.44.18.63.62.63Z"/><path class="cls-6" d="M91.58,26.56a2,2,0,1,1-2-2A2.06,2.06,0,0,1,91.58,26.56Zm-1.55,0a.5.5,0,1,0-.49.5A.5.5,0,0,0,90,26.55Z"/><path class="cls-6" d="M71.34,26.56a2.21,2.21,0,1,1-2.2-2.22A2.21,2.21,0,0,1,71.34,26.56Zm-1.67,0a.54.54,0,1,0-.53.54A.55.55,0,0,0,69.67,26.55Z"/><path class="cls-7" d="M72.28,9.65h8.87a.77.77,0,0,1,.88.87V26.06a.76.76,0,0,1-.86.86h-7.7a.76.76,0,0,1-.87-.74,3.39,3.39,0,0,0-3.66-2.87,3.34,3.34,0,0,0-3.28,3,.74.74,0,0,1-.73.64H63.27a.73.73,0,0,1-.71-.68,2.09,2.09,0,0,1,0-.25V10.59c0-.68.26-.94,1-.94Z"/><rect class="cls-8" x="36.05" y="75.34" width="6.41" height="21.05"/><polygon class="cls-8" points="42.46 79.95 65.91 84.93 65.91 96.39 42.46 96.39 42.46 79.95"/><rect class="cls-8" x="56.25" y="78.83" width="3.11" height="6.73"/><rect class="cls-8" x="60.5" y="78.83" width="3.11" height="6.73"/><polyline class="cls-9" points="35.63 96.39 35.63 75.34 42.04 75.34 42.04 79.95 55.83 82.88 55.83 78.83 58.95 78.83 58.95 83.55 60.09 83.79 60.09 78.83 63.2 78.83 63.2 84.45 65.49 84.94 65.49 96.39"/><rect class="cls-9" x="39.11" y="87.13" width="4.76" height="4.76"/><rect class="cls-9" x="46.82" y="87.13" width="4.76" height="4.76" transform="translate(138.7 40.31) rotate(90)"/><circle class="cls-6" cx="89.53" cy="62.11" r="3.88"/><circle class="cls-3" cx="12.14" cy="63.85" r="2.77"/><circle class="cls-8" cx="49.2" cy="15.04" r="4.99"/></svg>