<svg id="Layer_1" data-name="Layer 1" xmlns="http://www.w3.org/2000/svg" viewBox="0 0 500 360"><defs><style>.cls-1{fill:#573bd3;}.cls-2{fill:#ffe01b;}.cls-3{fill:#fff;opacity:0.14;}.cls-4{fill:#2854a0;}.cls-5{fill:#6685bb;}.cls-6{fill:#7994c4;}.cls-7{fill:#b9c7e0;}.cls-8{fill:#2495ec;}.cls-9{fill:#fefefe;}.cls-10{fill:#2854a1;}.cls-11{fill:#2856a3;}.cls-12{fill:#2855a2;}.cls-13{fill:#2857a4;}.cls-14{fill:#2954a1;}.cls-15{fill:none;stroke:#3f2d10;stroke-miterlimit:10;}</style></defs><rect class="cls-1" x="-11.06" y="69.34" width="259.46" height="219.5" transform="translate(297.76 60.41) rotate(90)"/><rect class="cls-2" x="221.81" y="42.75" width="13.21" height="13.21" transform="translate(277.77 -179.06) rotate(90)"/><rect class="cls-2" x="221.81" y="302.21" width="13.21" height="13.21" transform="translate(537.23 80.4) rotate(90)"/><rect class="cls-2" x="2.32" y="42.75" width="13.21" height="13.21" transform="translate(58.28 40.43) rotate(90)"/><rect class="cls-3" x="112.2" y="-27.46" width="12.94" height="194.79" rx="1.19" transform="translate(188.61 -48.74) rotate(90)"/><rect class="cls-3" x="112.2" y="-0.1" width="12.94" height="194.79" rx="1.19" transform="translate(215.97 -21.38) rotate(90)"/><rect class="cls-3" x="112.2" y="27.26" width="12.94" height="194.79" rx="1.19" transform="translate(243.33 5.99) rotate(90)"/><rect class="cls-3" x="112.2" y="54.62" width="12.94" height="194.79" rx="1.19" transform="translate(270.69 33.35) rotate(90)"/><rect class="cls-3" x="112.2" y="81.98" width="12.94" height="194.79" rx="1.19" transform="translate(298.05 60.71) rotate(90)"/><rect class="cls-3" x="112.2" y="109.34" width="12.94" height="194.79" rx="1.19" transform="translate(325.41 88.07) rotate(90)"/><rect class="cls-3" x="112.2" y="136.7" width="12.94" height="194.79" rx="1.19" transform="translate(352.77 115.43) rotate(90)"/><rect class="cls-3" x="112.2" y="164.07" width="12.94" height="194.79" rx="1.19" transform="translate(380.13 142.79) rotate(90)"/><rect class="cls-3" x="112.2" y="191.43" width="12.94" height="194.79" rx="1.19" transform="translate(407.5 170.15) rotate(90)"/><rect class="cls-2" x="2.32" y="302.21" width="13.21" height="13.21" transform="translate(317.74 299.89) rotate(90)"/><rect class="cls-1" x="251.6" y="69.34" width="259.46" height="219.5" transform="translate(560.41 -202.24) rotate(90)"/><rect class="cls-2" x="484.47" y="42.75" width="13.21" height="13.21" transform="translate(540.43 -441.72) rotate(90)"/><rect class="cls-2" x="484.47" y="302.21" width="13.21" height="13.21" transform="translate(799.89 -182.26) rotate(90)"/><rect class="cls-2" x="264.97" y="42.75" width="13.21" height="13.21" transform="translate(320.94 -222.23) rotate(90)"/><rect class="cls-3" x="374.86" y="-27.46" width="12.94" height="194.79" rx="1.19" transform="translate(451.26 -311.39) rotate(90)"/><rect class="cls-3" x="374.86" y="-0.1" width="12.94" height="194.79" rx="1.19" transform="translate(478.62 -284.03) rotate(90)"/><rect class="cls-3" x="374.86" y="27.26" width="12.94" height="194.79" rx="1.19" transform="translate(505.99 -256.67) rotate(90)"/><rect class="cls-3" x="374.86" y="54.62" width="12.94" height="194.79" rx="1.19" transform="translate(533.35 -229.31) rotate(90)"/><rect class="cls-3" x="374.86" y="81.98" width="12.94" height="194.79" rx="1.19" transform="translate(560.71 -201.95) rotate(90)"/><rect class="cls-3" x="374.86" y="109.34" width="12.94" height="194.79" rx="1.19" transform="translate(588.07 -174.59) rotate(90)"/><rect class="cls-3" x="374.86" y="136.7" width="12.94" height="194.79" rx="1.19" transform="translate(615.43 -147.23) rotate(90)"/><rect class="cls-3" x="374.86" y="164.07" width="12.94" height="194.79" rx="1.19" transform="translate(642.79 -119.87) rotate(90)"/><rect class="cls-3" x="374.86" y="191.43" width="12.94" height="194.79" rx="1.19" transform="translate(670.15 -92.5) rotate(90)"/><rect class="cls-2" x="264.97" y="302.21" width="13.21" height="13.21" transform="translate(580.4 37.23) rotate(90)"/><path class="cls-4" d="M109.52,182.77c1.72-4.71,4.69-8,10-8.5a38.82,38.82,0,0,1,6.1,0c1.59.1,2-.41,2-2-.09-7.46-.05-14.93,0-22.39,0-4.31,2.21-6.49,6.57-6.5,8.07,0,16.15-.07,24.22,0,1.94,0,2.34-.59,2.32-2.4-.11-7.24-.06-14.48,0-21.72,0-4.43,2.22-6.64,6.67-6.64,19.24,0,38.48,0,57.72,0,1.86,0,2.42-.43,2.39-2.34-.12-7.09-.06-14.17,0-21.26,0-5,2.14-7.17,7.14-7.17h24c5.38,0,7.39,1.9,7.41,7.33.05,17.12.07,34.23,0,51.34,0,2.32.59,2.88,2.87,2.83,8-.15,16-.07,24-.05,4.39,0,6.56,2,6.62,6.47.11,7.38.1,14.77,0,22.16,0,1.66.26,2.19,2.13,1.9a53.68,53.68,0,0,0,14.14-3.73c.88-.4,1.28-.7.67-1.77-7.67-13.52-6.14-27,.28-40.42a54.52,54.52,0,0,1,4.35-7.13c.64-.93,1.08-1.28,2.28-.59,11.41,6.48,19,15.81,21.68,28.82.36,1.74,1.23,1.64,2.54,1.44,8.15-1.2,16.23-1,24.16,1.5a26.38,26.38,0,0,1,8.7,4.67,2,2,0,0,1,.77,2.63c-4.27,11.9-12.86,19.18-24.66,23a43.46,43.46,0,0,1-14.95,1.94,2.28,2.28,0,0,0-2.6,1.76c-5.69,14.24-12.54,27.85-21.8,40.16-18.32,24.33-42.76,39.09-72.13,46.18a166,166,0,0,1-28.14,4.17c-1.49.44-3.08-.2-4.56.38h-14c-1.44-.52-2.93-.1-4.38-.23a108.47,108.47,0,0,1-38.69-6.94c-15.43-5.63-26.31-16.34-33.8-30.69a108.88,108.88,0,0,1-11.3-37.87,56.41,56.41,0,0,1-.33-9c-.12-1.61.27-3.24-.23-4.82Z"/><path class="cls-5" d="M109.91,192.36a.86.86,0,0,1-.39-.09v-5C110.36,188.93,109.93,190.66,109.91,192.36Z"/><path class="cls-6" d="M193.72,276.86a2.57,2.57,0,0,0-.08-.38c1.55,0,3.13-.45,4.61.38Z"/><path class="cls-7" d="M212.28,276.86a10.22,10.22,0,0,1,4.56-.38,2.43,2.43,0,0,0,0,.38Z"/><path class="cls-8" d="M180.67,243.28a2.39,2.39,0,0,0,.89-3.64c-1-1.52-2.26-1.34-3.71-.48-12.28,7.25-25.62,9.5-39.72,8.81-4.65-.23-6.79-2.91-8.9-6.32-7.46-12.12-11.48-25.38-13.42-39.38a117.3,117.3,0,0,1-1.32-17.05c0-4.08,2-6.07,6.12-6.07q88,0,176.06-.05a50.34,50.34,0,0,0,21.83-4.87c.34-.17.68-.33,1-.51,4.3-2.41,4.4-2.48,1.77-6.53a31.49,31.49,0,0,1-5.2-16.8,43.09,43.09,0,0,1,6.54-23.12c.67-1.12,1.31-1.07,2.16-.43,8.2,6.22,14,14,15.63,24.42.1.67.28,1.32.38,2,.46,3.4.44,3.35,3.89,2.68,9.21-1.79,18.35-2,27.31,1.41,4.08,1.56,4.32,1.9,2.06,5.65-5.4,8.93-13.51,13.87-23.66,15.71a49,49,0,0,1-11.66.44c-1.8-.11-2.62.45-3.28,2.17-5.63,14.75-12.47,28.9-22,41.56a115.07,115.07,0,0,1-51.5,39,141.27,141.27,0,0,1-35.12,8.65c-3.8.43-7.59.82-11.39,1.23.14-1-.76-.78-1.2-.94a69.6,69.6,0,0,1-25.67-17.19A47.66,47.66,0,0,1,180.67,243.28Z"/><path class="cls-9" d="M180.67,243.28a1.61,1.61,0,0,1,1,.82,69.3,69.3,0,0,0,34.86,27c-.17.63-.84.29-1.11.66-10,.25-20.06.37-30.05-.8-11.58-1.35-22.91-3.61-33.52-8.64a48.69,48.69,0,0,1-13.51-9.47C153.75,253.94,167.75,250.86,180.67,243.28Z"/><path class="cls-8" d="M180,117.65c3.54,0,7.08,0,10.62,0,2.11,0,3.46,1.18,3.48,3.29q.12,9.6,0,19.19a3.05,3.05,0,0,1-3.34,3.23q-10.95.07-21.92,0a2.91,2.91,0,0,1-3.15-3.11q-.09-9.72,0-19.42c0-2.16,1.06-3.15,3.24-3.18C172.62,117.61,176.31,117.65,180,117.65Z"/><path class="cls-8" d="M179.94,148.4c3.55,0,7.09,0,10.64,0,2.57,0,3.54,1,3.55,3.56q0,9.15,0,18.31c0,2.68-1.19,3.84-3.89,3.85q-10.29,0-20.58,0c-2.85,0-4-1.15-4-3.94q0-8.93,0-17.86c0-3,.89-3.91,3.87-3.92C173,148.39,176.48,148.4,179.94,148.4Z"/><path class="cls-8" d="M213.5,117.65c3.47,0,6.94,0,10.41,0,2.76,0,3.74.93,3.75,3.59q0,9.27,0,18.53c0,2.68-1,3.61-3.74,3.61q-10.29,0-20.58,0c-3,0-4.12-1.11-4.13-4.07q0-8.81,0-17.62c0-3,1.14-4,4.12-4Q208.42,117.64,213.5,117.65Z"/><path class="cls-8" d="M213.58,148.4c3.55,0,7.09,0,10.63,0,2.45,0,3.43,1,3.44,3.43q0,9.38,0,18.76a3.19,3.19,0,0,1-3.48,3.52q-10.74.07-21.48,0c-2.27,0-3.46-1.25-3.48-3.56q-.08-9.27,0-18.53c0-2.75,1-3.61,3.74-3.62C206.5,148.38,210,148.4,213.58,148.4Z"/><path class="cls-8" d="M146.9,148.4c3.55,0,7.09,0,10.63,0,2,0,3.05.8,3.22,2.9a129.4,129.4,0,0,1,0,20.27,2.6,2.6,0,0,1-2.89,2.54q-11,.09-21.94,0c-2.1,0-3.27-1.38-3.28-3.49q0-9.37,0-18.76c0-2.45,1-3.42,3.42-3.44C139.66,148.37,143.28,148.4,146.9,148.4Z"/><path class="cls-8" d="M246.92,117.65c3.47,0,6.93,0,10.39,0,2.52,0,3.41.92,3.41,3.38q0,9.49,0,19c0,2.45-.89,3.35-3.43,3.37q-10.62,0-21.24,0c-2.53,0-3.4-.91-3.41-3.39q0-9.48,0-19c0-2.45.91-3.35,3.44-3.37C239.69,117.62,243.31,117.65,246.92,117.65Z"/><path class="cls-8" d="M246.65,148.4c3.54,0,7.08,0,10.62,0,2.6,0,3.45.8,3.45,3.3q0,9.5,0,19c0,2.47-1,3.44-3.41,3.45q-10.62,0-21.24,0c-2.52,0-3.42-.93-3.43-3.38q0-9.48,0-19c0-2.54.84-3.36,3.39-3.37C239.57,148.38,243.11,148.4,246.65,148.4Z"/><path class="cls-8" d="M280.12,148.4c3.62,0,7.23,0,10.85,0,2.39,0,3.24.87,3.25,3.27q0,9.5,0,19c0,2.48-.94,3.46-3.38,3.47q-10.62,0-21.25,0c-2.6,0-3.45-.93-3.45-3.58q0-9.36,0-18.74c0-2.56.83-3.39,3.36-3.4C273,148.38,276.58,148.4,280.12,148.4Z"/><path class="cls-8" d="M246.7,112.65c-3.54,0-7.08,0-10.62,0-2.53,0-3.43-.93-3.44-3.37q0-9.49,0-19c0-2.48.88-3.37,3.42-3.38q10.6,0,21.23,0c2.54,0,3.43.91,3.43,3.36q0,9.48,0,19c0,2.46-.88,3.36-3.41,3.39C253.78,112.68,250.23,112.65,246.7,112.65Z"/><path class="cls-9" d="M196.88,233.08a8.9,8.9,0,1,1,8.88-8.92A8.86,8.86,0,0,1,196.88,233.08Z"/><path class="cls-4" d="M173.37,130.57v5.87c0,.77,0,1.54-1.09,1.58s-1.24-.58-1.24-1.44q0-6.09,0-12.19c0-.75.15-1.32,1.09-1.35s1.24.57,1.23,1.43C173.36,126.5,173.37,128.54,173.37,130.57Z"/><path class="cls-4" d="M181.07,130.63c0,2,0,3.91,0,5.87,0,.81-.07,1.51-1.15,1.52s-1.18-.68-1.18-1.5q0-6,0-12c0-.81.06-1.52,1.15-1.53s1.18.68,1.18,1.5C181.06,126.56,181.07,128.6,181.07,130.63Z"/><path class="cls-4" d="M186.44,130.44v-5.87c0-.8,0-1.52,1.14-1.54s1.19.66,1.18,1.49v12c0,.81,0,1.53-1.14,1.54s-1.19-.66-1.18-1.49C186.45,134.5,186.44,132.47,186.44,130.44Z"/><path class="cls-10" d="M173.37,161.21v5.87c0,.84.07,1.72-1.2,1.68s-1.12-1-1.12-1.77c0-3.84,0-7.67,0-11.51,0-.9-.12-2,1.2-2s1.11,1.19,1.12,2.06C173.39,157.45,173.37,159.33,173.37,161.21Z"/><path class="cls-10" d="M181.06,161.27c0,2,0,4.07,0,6.1,0,.88-.23,1.44-1.27,1.39s-1.06-.65-1.06-1.38c0-4.14,0-8.28,0-12.41,0-.86.28-1.53,1.27-1.47s1.05.72,1.05,1.46Z"/><path class="cls-10" d="M188.76,161.33v5.87c0,.77,0,1.53-1.09,1.57s-1.24-.6-1.24-1.45q0-6.09,0-12.18c0-.8.09-1.61,1.1-1.64,1.17,0,1.22.87,1.22,1.74Z"/><path class="cls-11" d="M204.56,130.31c0-1.88,0-3.76,0-5.65,0-.75-.1-1.55,1-1.63a1.27,1.27,0,0,1,1.53,1.28c.05,4.13.06,8.27,0,12.41a1.26,1.26,0,0,1-1.51,1.3c-1.12-.06-1.06-.84-1.06-1.6C204.56,134.38,204.56,132.35,204.56,130.31Z"/><path class="cls-11" d="M212.26,130.44c0-2,0-3.92,0-5.88,0-.81.05-1.51,1.15-1.54a1.3,1.3,0,0,1,1.45,1.39q.09,6.09,0,12.19a1.33,1.33,0,0,1-1.65,1.41c-1.14-.13-.94-1-.95-1.7C212.24,134.35,212.26,132.39,212.26,130.44Z"/><path class="cls-11" d="M222.64,130.49c0,1.88,0,3.77,0,5.65,0,.9-.18,1.86-1.46,1.88-1.47,0-1.19-1.06-1.2-1.91q0-5.55,0-11.08c0-.83-.35-2,1.11-2s1.52,1,1.55,2C222.68,126.87,222.64,128.68,222.64,130.49Z"/><path class="cls-11" d="M220,161.26c0-1.95,0-3.9,0-5.84,0-.83-.11-1.81,1-1.92s1.56.93,1.58,1.79c.08,4,.06,8.09,0,12.14,0,.89-.52,1.32-1.44,1.34s-1.23-.58-1.23-1.44C220,165.31,220,163.28,220,161.26Z"/><path class="cls-11" d="M204.56,161.08v-5.85c0-.77,0-1.6,1-1.73s1.48.72,1.57,1.53a38.86,38.86,0,0,1,.12,4c0,2.7,0,5.4,0,8.09,0,1-.34,1.57-1.43,1.61s-1.27-.73-1.26-1.62C204.57,165.12,204.56,163.1,204.56,161.08Z"/><path class="cls-11" d="M212.26,161.19c0-2,0-4.05,0-6.07,0-.81.12-1.57,1.11-1.64a1.34,1.34,0,0,1,1.42,1.44q.14,6.41.08,12.8c0,.81-.7,1.05-1.46,1.05s-1.15-.5-1.15-1.29C212.27,165.39,212.26,163.29,212.26,161.19Z"/><path class="cls-11" d="M148,161.29c0,2,0,4.05,0,6.08,0,.88-.23,1.44-1.26,1.4s-1.41-.49-1.41-1.38q0-6.3,0-12.6a1.21,1.21,0,0,1,1.43-1.34c.95.06,1.24.67,1.24,1.54C148,157.09,148,159.19,148,161.29Z"/><path class="cls-11" d="M140.31,161.17q0,3,0,6.08c0,.8,0,1.52-1.14,1.52s-1.54-.48-1.54-1.49c0-4.13,0-8.25,0-12.38,0-.87.36-1.45,1.32-1.45s1.36.7,1.36,1.65C140.3,157.12,140.31,159.15,140.31,161.17Z"/><path class="cls-11" d="M153,160.84c0-1.88,0-3.76,0-5.63,0-.89.12-1.71,1.25-1.76s1.45.78,1.44,1.79c0,4,0,7.95,0,11.93,0,.91-.07,1.66-1.28,1.6s-1.4-.69-1.4-1.63Q153,164,153,160.84Z"/><path class="cls-12" d="M253,130.41c0-1.88,0-3.77,0-5.65,0-1,.08-1.78,1.41-1.75s1.31.71,1.31,1.63q0,5.88,0,11.76c0,.93-.11,1.61-1.3,1.64-1.34,0-1.43-.74-1.42-1.75C253.05,134.33,253,132.37,253,130.41Z"/><path class="cls-13" d="M245.33,130.3c0-2,0-3.9,0-5.84,0-.88.22-1.42,1.24-1.45s1.49.39,1.48,1.45q0,6.08,0,12.14c0,1.06-.44,1.46-1.49,1.44s-1.24-.58-1.23-1.45C245.35,134.49,245.33,132.39,245.33,130.3Z"/><path class="cls-11" d="M240.34,130.38c0,2,0,4.05,0,6.07,0,1-.18,1.58-1.34,1.59s-1.39-.54-1.38-1.53q0-6,0-11.91c0-.95.17-1.58,1.33-1.59s1.41.54,1.39,1.53C240.32,126.49,240.34,128.44,240.34,130.38Z"/><path class="cls-11" d="M240.34,161.08c0,2,0,4.07,0,6.1,0,.95-.16,1.6-1.34,1.61s-1.39-.56-1.38-1.55c0-4.07,0-8.14,0-12.21,0-1,.37-1.62,1.44-1.58s1.27.66,1.27,1.52C240.33,157,240.34,159,240.34,161.08Z"/><path class="cls-13" d="M248,161.28c0,2,0,4.05,0,6.07,0,.88-.24,1.41-1.25,1.43s-1.48-.4-1.47-1.45c0-4.12,0-8.24,0-12.36,0-.86.3-1.48,1.25-1.52S248,154,248,155Q248,158.14,248,161.28Z"/><path class="cls-11" d="M253,161.08c0-2,0-3.92,0-5.88,0-.91.15-1.7,1.27-1.75s1.45.79,1.45,1.8c0,4,0,8,0,12,0,1-.25,1.56-1.39,1.56s-1.34-.65-1.33-1.6C253.05,165.15,253,163.12,253,161.08Z"/><path class="cls-12" d="M271.14,161.2c0-2,0-4.07,0-6.1,0-1,.27-1.65,1.37-1.65s1.34.75,1.34,1.68q0,6.1,0,12.21c0,.88-.24,1.42-1.26,1.44s-1.47-.43-1.45-1.47C271.16,165.27,271.14,163.24,271.14,161.2Z"/><path class="cls-12" d="M281.53,161.3c0,2,0,3.92,0,5.88,0,.95-.16,1.6-1.33,1.61s-1.4-.56-1.39-1.55c0-4.07,0-8.14,0-12.21,0-1,.36-1.62,1.43-1.58s1.27.66,1.27,1.52Z"/><path class="cls-12" d="M289.23,161.27c0,2,0,3.92,0,5.88,0,.93-.11,1.62-1.31,1.64s-1.42-.51-1.41-1.52q0-6.11,0-12.21c0-1,.33-1.64,1.41-1.61s1.31.8,1.3,1.72Z"/><path class="cls-11" d="M237.64,99.82c0-2,0-4.07,0-6.11,0-.88.23-1.42,1.26-1.44s1.47.42,1.46,1.47c0,4.07,0,8.14,0,12.21,0,1-.26,1.66-1.37,1.65s-1.35-.73-1.34-1.68C237.65,103.89,237.64,101.85,237.64,99.82Z"/><path class="cls-13" d="M245.33,100c0-2,0-4.07,0-6.11,0-.93.13-1.61,1.32-1.61s1.41.53,1.41,1.53c0,4,0,8,0,12,0,1-.17,1.87-1.43,1.81s-1.29-1-1.28-2C245.34,103.76,245.33,101.87,245.33,100Z"/><path class="cls-12" d="M255.73,99.77c0,2,0,3.92,0,5.88,0,.94,0,1.9-1.3,1.94s-1.42-.81-1.42-1.82q0-5.88,0-11.75c0-1,.08-1.78,1.41-1.76s1.31.94,1.3,1.86Z"/><path class="cls-14" d="M201.71,223.11c.44,3.3-1.12,5.68-4.06,6.18a5.12,5.12,0,0,1-5.76-3.93,5,5,0,0,1,3.89-6.14c1.11-.24,2.24-.7,1.84,1.46S199,223.68,201.71,223.11Z"/><polyline class="cls-15" points="104.26 48.62 104.26 23.64 381.33 23.64 381.33 48.62"/><polyline class="cls-15" points="381.33 308.81 381.33 336.36 104.26 336.36 104.26 308.81"/><circle class="cls-2" cx="247.11" cy="23.64" r="13.31"/><circle class="cls-1" cx="220.75" cy="23.64" r="5.3"/><circle class="cls-1" cx="272.62" cy="23.64" r="5.3"/><circle class="cls-2" cx="247.11" cy="336.36" r="13.31"/><circle class="cls-1" cx="220.75" cy="336.36" r="5.3"/><circle class="cls-1" cx="272.62" cy="336.36" r="5.3"/></svg>