<svg xmlns="http://www.w3.org/2000/svg" xmlns:xlink="http://www.w3.org/1999/xlink" width="58.6" height="58.6" viewBox="0 0 58.6 58.6">
  <defs>
    <linearGradient id="linear-gradient" x1="0.5" x2="0.5" y2="1" gradientUnits="objectBoundingBox">
      <stop offset="0" stop-color="#3d2db2"/>
      <stop offset="1" stop-color="#1f1659"/>
    </linearGradient>
  </defs>
  <g id="Group_10554" data-name="Group 10554" transform="translate(-342.4 -1209)">
    <circle id="Ellipse_1805" data-name="Ellipse 1805" cx="29.3" cy="29.3" r="29.3" transform="translate(342.4 1209)" fill="url(#linear-gradient)"/>
    <path id="Path_19609" data-name="Path 19609" d="M22.85,40.21A7.59,7.59,0,0,1,15.94,35c.54,0,1.07.08,1.6.06a12.869,12.869,0,0,0,1.61-.2,7.68,7.68,0,0,1-5.9-7.48,8.43,8.43,0,0,0,3.38.84,7.58,7.58,0,0,1-2.31-10A21.6,21.6,0,0,0,29.89,26c0-.48-.11-.92-.13-1.35a7.56,7.56,0,0,1,9.07-7.78,7,7,0,0,1,3.76,2,.48.48,0,0,0,.52.15,15.47,15.47,0,0,0,4.21-1.61l.16-.08h.1a7.75,7.75,0,0,1-3.1,4,13.3,13.3,0,0,0,4.13-1.09,15.09,15.09,0,0,1-3.08,3.37l-.1.07A1.17,1.17,0,0,0,44.86,25a20.8,20.8,0,0,1-1.6,8.35,22,22,0,0,1-3.39,5.76,20.7,20.7,0,0,1-4,3.74,20.3,20.3,0,0,1-5.38,2.76,20.82,20.82,0,0,1-5.18,1.05A22.26,22.26,0,0,1,19,46.27a20.36,20.36,0,0,1-5.09-1.77c-.68-.35-1.35-.72-2-1.12a16.43,16.43,0,0,0,5.8-.53,14.3,14.3,0,0,0,5.14-2.64Z" transform="translate(341.7 1208.301)" fill="#fff"/>
  </g>
</svg>
