<svg id="Layer_1" data-name="Layer 1" xmlns="http://www.w3.org/2000/svg" xmlns:xlink="http://www.w3.org/1999/xlink" viewBox="0 0 100 100"><defs><style>.cls-1{fill:#ffe01b;}.cls-2{fill:none;stroke:#3f2d10;stroke-miterlimit:10;stroke-width:1.47px;}.cls-3{fill:url(#linear-gradient);}.cls-4{fill:url(#linear-gradient-2);}.cls-5{fill:url(#linear-gradient-3);}.cls-6{fill:url(#linear-gradient-4);}.cls-7{fill:url(#linear-gradient-5);}.cls-8{fill:url(#linear-gradient-6);}.cls-9{fill:url(#linear-gradient-7);}.cls-10{fill:url(#linear-gradient-8);}</style><linearGradient id="linear-gradient" x1="8.09" y1="87.9" x2="55.61" y2="87.9" gradientUnits="userSpaceOnUse"><stop offset="0.01" stop-color="#786ef4"/><stop offset="1" stop-color="#573bd3"/></linearGradient><linearGradient id="linear-gradient-2" x1="90.41" y1="87.98" x2="56.91" y2="87.98" xlink:href="#linear-gradient"/><linearGradient id="linear-gradient-3" x1="78.37" y1="86.16" x2="50.02" y2="86.16" xlink:href="#linear-gradient"/><linearGradient id="linear-gradient-4" x1="22.79" y1="81.93" x2="94.77" y2="81.93" xlink:href="#linear-gradient"/><linearGradient id="linear-gradient-5" x1="853.32" y1="22.91" x2="888.77" y2="22.91" gradientTransform="matrix(-1, 0, 0, 1, 948.43, 0)" xlink:href="#linear-gradient"/><linearGradient id="linear-gradient-6" x1="914.74" y1="22.97" x2="889.74" y2="22.97" gradientTransform="matrix(-1, 0, 0, 1, 948.43, 0)" xlink:href="#linear-gradient"/><linearGradient id="linear-gradient-7" x1="905.75" y1="21.61" x2="884.6" y2="21.61" gradientTransform="matrix(-1, 0, 0, 1, 948.43, 0)" xlink:href="#linear-gradient"/><linearGradient id="linear-gradient-8" x1="864.28" y1="18.45" x2="917.99" y2="18.45" gradientTransform="matrix(-1, 0, 0, 1, 948.43, 0)" xlink:href="#linear-gradient"/></defs><circle class="cls-1" cx="67.67" cy="53.52" r="15.09"/><path class="cls-2" d="M96.14,72.53a10.43,10.43,0,0,1-2,6.12H7.9A14.28,14.28,0,0,1,14,55a25.64,25.64,0,0,1,51-.5,13.78,13.78,0,0,1,1.71-.1,14.3,14.3,0,0,1,13.36,9.21,10.49,10.49,0,0,1,16,8.9Z"/><path class="cls-3" d="M35.46,92.61H19.32a2.29,2.29,0,0,1-2.18-3,9.41,9.41,0,0,1,18.32,3Z"/><path class="cls-4" d="M86.15,92.68H70a9.4,9.4,0,0,1,18.32-3A2.28,2.28,0,0,1,86.15,92.68Z"/><path class="cls-5" d="M79.42,92.68a13.06,13.06,0,0,0-26.11,0"/><path class="cls-6" d="M66.36,92.68a21.5,21.5,0,1,0-43,0"/><path class="cls-7" d="M74.69,26.42h12a1.71,1.71,0,0,0,1.62-2.24,7,7,0,0,0-13.67,2.24Z"/><path class="cls-8" d="M36.87,26.48h12a7,7,0,0,0-13.67-2.24A1.71,1.71,0,0,0,36.87,26.48Z"/><path class="cls-9" d="M41.9,26.47a9.74,9.74,0,0,1,19.47,0"/><path class="cls-10" d="M51.63,26.47a16,16,0,1,1,32.08,0"/></svg>