<svg id="Layer_1" data-name="Layer 1" xmlns="http://www.w3.org/2000/svg" viewBox="0 0 100 100"><defs><style>.cls-1{fill:#4b3db6;opacity:0.25;}.cls-2{fill:none;stroke:#3f2d10;stroke-miterlimit:10;stroke-width:1.47px;}.cls-3{fill:#ffe01b;}.cls-4{fill:#2075b8;}</style></defs><circle class="cls-1" cx="38.37" cy="75.13" r="15.09"/><path class="cls-2" d="M95.76,89.43a10.34,10.34,0,0,1-2,6.12H7.52a14.13,14.13,0,0,1-4-9.94A14.28,14.28,0,0,1,13.65,71.93a25.64,25.64,0,0,1,51-.5,14.06,14.06,0,0,1,1.72-.11,14.3,14.3,0,0,1,13.36,9.22,10.46,10.46,0,0,1,16,8.89Z"/><circle class="cls-3" cx="66.85" cy="84.85" r="7.17"/><polygon class="cls-4" points="40.72 31.66 49.18 8.24 76.86 56.38 25.73 56.69 57.18 51.08 40.72 31.66"/><polygon class="cls-4" points="46.53 4.63 25.26 50.85 9.95 50.85 27.03 21.16 46.53 4.63"/></svg>