<svg id="Layer_1" data-name="Layer 1" xmlns="http://www.w3.org/2000/svg" viewBox="0 0 100 100"><defs><style>.cls-1{fill:#4b3db6;}.cls-2{fill:none;stroke:#3f2d10;stroke-miterlimit:10;stroke-width:1.47px;}.cls-3{fill:#34c6aa;}.cls-4{fill:#2ea08a;}</style></defs><path class="cls-1" d="M39.07,83c-.88.07-1.72.21-2.58.3a.39.39,0,0,0-.36.3c-.4,1-.81,2-1.25,3a.44.44,0,0,0,.06.51c.6.73,1.18,1.46,1.78,2.21l.05.06a1.09,1.09,0,0,1-.14,1.54l-3.18,3.16-.05.06a1.1,1.1,0,0,1-1.54,0c-.74-.58-1.48-1.15-2.22-1.77a.39.39,0,0,0-.48-.07c-1,.43-2,.84-3,1.24a.4.4,0,0,0-.3.37c-.09.89-.23,1.72-.31,2.59a1.43,1.43,0,0,1-.81,1.31H19.42a1.42,1.42,0,0,1-.82-1.31c-.06-.89-.2-1.78-.32-2.62a.48.48,0,0,0-.26-.31c-1-.44-2-.88-3-1.28a.36.36,0,0,0-.45.06l-2.24,1.77-.06.05a1.09,1.09,0,0,1-1.53-.13h0L7.52,90.87a.17.17,0,0,1-.06-.06,1.08,1.08,0,0,1,0-1.53h0c.59-.75,1.19-1.49,1.78-2.22a.45.45,0,0,0,0-.51c-.43-1-.83-2-1.23-3a.4.4,0,0,0-.37-.24L4.92,83a.17.17,0,0,1-.1,0,1.12,1.12,0,0,1-1-1.21h0V77.27a1.12,1.12,0,0,1,1.13-1.11h0c.93-.11,1.86-.24,2.8-.34.2,0,.26-.11.33-.29q.62-1.52,1.26-3a.36.36,0,0,0,0-.44L7.54,69.81l-.06-.07a1.07,1.07,0,0,1,.14-1.51h0q1.58-1.59,3.16-3.16l.06-.06a1.08,1.08,0,0,1,1.53,0h0c.75.58,1.49,1.15,2.22,1.77a.43.43,0,0,0,.48.06c1-.44,2-.89,3-1.25.17-.06.29-.12.29-.32.11-.89.23-1.85.33-2.78v-.15a1.13,1.13,0,0,1,1.24-1h4.5a1.11,1.11,0,0,1,1.12,1.1v0c.11.89.24,1.87.34,2.8a.35.35,0,0,0,.28.34c1,.41,2,.82,3,1.27a.39.39,0,0,0,.48-.08L31.92,65l.06-.06a1.1,1.1,0,0,1,1.55.16l3.09,3.11.11.09a1.1,1.1,0,0,1,0,1.55h0c-.58.73-1.15,1.48-1.78,2.21a.42.42,0,0,0-.05.49c.44,1,.84,2,1.24,3a.38.38,0,0,0,.37.3c.89.09,1.72.24,2.59.31a1.43,1.43,0,0,1,1.31.81V82.3A1.44,1.44,0,0,1,39.07,83Zm-17-9.4A5.93,5.93,0,1,0,28,79.54,5.93,5.93,0,0,0,22.06,73.61Z"/><path class="cls-2" d="M90.28,56.66c-1.73-.49-3.41-.79-5.11-1.19a.78.78,0,0,0-.9.31c-1.45,1.65-2.9,3.26-4.41,4.85a.86.86,0,0,0-.22,1c.63,1.79,1.22,3.58,1.86,5.41l.06.16A2.2,2.2,0,0,1,80.24,70L72,73.86,71.9,74a2.21,2.21,0,0,1-2.92-1c-1-1.61-2-3.21-3-4.89a.82.82,0,0,0-.87-.45c-2.17.14-4.35.23-6.53.31a.77.77,0,0,0-.81.5C57,70,56.14,71.48,55.41,73.09A2.91,2.91,0,0,1,53,75L42.84,71.38a2.93,2.93,0,0,1-.66-3.06c.49-1.73.85-3.51,1.19-5.19a1,1,0,0,0-.29-.75c-1.62-1.54-3.27-3.09-4.92-4.54a.75.75,0,0,0-.89-.18L31.79,59.5l-.13,0a2.19,2.19,0,0,1-2.81-1.29v0L25,50.07a.4.4,0,0,1-.08-.16A2.19,2.19,0,0,1,26,47h0c1.63-1,3.26-2,4.88-3a.92.92,0,0,0,.46-1c-.16-2.15-.25-4.29-.33-6.46a.8.8,0,0,0-.53-.7c-1.61-.81-3.35-1.7-5-2.52a.55.55,0,0,1-.18-.06,2.26,2.26,0,0,1-1.12-3h0l3.1-8.62a2.26,2.26,0,0,1,2.9-1.34h0c1.85.43,3.7.83,5.55,1.27.39.14.58,0,.83-.31,1.47-1.65,3-3.29,4.45-4.9a.74.74,0,0,0,.3-.85l-1.84-5.48-.07-.17a2.17,2.17,0,0,1,1.31-2.78h0c2.72-1.31,5.43-2.58,8.17-3.85L49,3.18a2.2,2.2,0,0,1,2.92,1h0c1,1.61,2.05,3.21,3,4.89a.84.84,0,0,0,.87.43c2.19-.15,4.4-.33,6.55-.32.37,0,.63,0,.77-.43.81-1.61,1.7-3.35,2.51-5l.11-.28a2.29,2.29,0,0,1,3-1.08l8.55,3.08a2.23,2.23,0,0,1,1.38,2.85v0c-.41,1.76-.82,3.71-1.27,5.55a.71.71,0,0,0,.28.85c1.65,1.46,3.31,2.94,4.9,4.46a.78.78,0,0,0,1,.19c1.8-.61,3.59-1.2,5.44-1.85l.16-.08A2.25,2.25,0,0,1,92,18.85l3.75,8,.13.26a2.2,2.2,0,0,1-1,2.94h0c-1.6,1-3.2,2-4.88,3a.83.83,0,0,0-.43.89c.15,2.17.24,4.36.32,6.54a.77.77,0,0,0,.48.82c1.63.77,3.11,1.63,4.72,2.34a2.9,2.9,0,0,1,1.92,2.45L93.3,56.22A2.93,2.93,0,0,1,90.28,56.66Z"/><path class="cls-3" d="M59.37,16.75S52.06,28.92,40,28.92A40.47,40.47,0,0,0,59.37,61.36"/><path class="cls-4" d="M59.37,16.75s7.31,12.17,19.38,12.17A40.47,40.47,0,0,1,59.37,61.36"/><line class="cls-2" x1="47.83" y1="94.34" x2="77.57" y2="73.21"/><line class="cls-2" x1="8.87" y1="55.68" x2="23.89" y2="22.43"/></svg>