<svg id="Layer_1" data-name="Layer 1" xmlns="http://www.w3.org/2000/svg" xmlns:xlink="http://www.w3.org/1999/xlink" viewBox="0 0 100 100"><defs><style>.cls-1{fill:none;stroke:#3f2d10;stroke-miterlimit:10;stroke-width:1.47px;}.cls-2{fill:#ffe01b;}.cls-3{fill:#f1f2f2;}.cls-4{fill:#a0bde0;}.cls-5{fill:#0562e8;}.cls-6{fill:#fff;}.cls-7{fill:url(#linear-gradient);}</style><linearGradient id="linear-gradient" x1="30.57" y1="68.4" x2="94.35" y2="68.4" gradientUnits="userSpaceOnUse"><stop offset="0.01" stop-color="#786ef4"/><stop offset="1" stop-color="#573bd3"/></linearGradient></defs><polyline class="cls-1" points="94.35 95.53 22.61 95.53 22.61 48.33 5.65 48.33 49.35 4.63 94.35 4.63"/><path class="cls-2" d="M43.38,25.58h51V51.21h-51A12.8,12.8,0,0,1,30.57,38.4h0A12.81,12.81,0,0,1,43.38,25.58Z"/><circle class="cls-3" cx="44.18" cy="38.4" r="7.74"/><circle class="cls-3" cx="65.67" cy="38.4" r="7.74"/><circle class="cls-4" cx="44.18" cy="38.4" r="4.15"/><circle class="cls-5" cx="65.67" cy="38.4" r="4.15"/><path class="cls-6" d="M81.51,36.11h6.55a2.29,2.29,0,0,1,2.28,2.29h0a2.29,2.29,0,0,1-2.28,2.29H81.51a2.3,2.3,0,0,1-2.29-2.29h0A2.29,2.29,0,0,1,81.51,36.11Z"/><path class="cls-7" d="M43.38,55.58h51V81.21h-51A12.81,12.81,0,0,1,30.57,68.4h0A12.81,12.81,0,0,1,43.38,55.58Z"/><circle class="cls-3" cx="44.18" cy="68.4" r="7.74"/><circle class="cls-3" cx="65.67" cy="68.4" r="7.74"/><circle class="cls-4" cx="44.18" cy="68.4" r="4.15"/><circle class="cls-5" cx="65.67" cy="68.4" r="4.15"/><path class="cls-6" d="M81.51,66.11h6.55a2.28,2.28,0,0,1,2.28,2.29h0a2.28,2.28,0,0,1-2.28,2.28H81.51a2.29,2.29,0,0,1-2.29-2.28h0A2.29,2.29,0,0,1,81.51,66.11Z"/></svg>