<svg id="Layer_1" data-name="Layer 1" xmlns="http://www.w3.org/2000/svg" viewBox="0 0 100 100"><defs><style>.cls-1{fill:#ffe01b;}.cls-2{fill:none;stroke:#3f2d10;stroke-miterlimit:10;stroke-width:1.47px;}.cls-3{fill:#fc9b04;}.cls-4{fill:#262f3f;}.cls-5{fill:#4b3db6;}</style></defs><circle class="cls-1" cx="71.06" cy="72.09" r="15.09"/><path class="cls-2" d="M95.83,89.43a10.34,10.34,0,0,1-2,6.12H7.58a14.28,14.28,0,0,1,6.14-23.62,25.64,25.64,0,0,1,51-.5,13.77,13.77,0,0,1,1.71-.11,14.29,14.29,0,0,1,13.36,9.22,10.47,10.47,0,0,1,16,8.89Z"/><path class="cls-3" d="M48.82,54.4a55.7,55.7,0,0,1-17.56-3.23,54.29,54.29,0,0,1-17.9-10.59,3.24,3.24,0,0,1-.43-.4c-.18-.24-.35-.51-.14-.83a.64.64,0,0,1,.88-.2c.65.32,1.27.68,1.91,1a74,74,0,0,0,26.28,8.32,72.52,72.52,0,0,0,32-3.17c1.71-.56,3.38-1.24,5.06-1.86.21-.08.41-.18.62-.25a1.12,1.12,0,0,1,1.44.5c.31.58,0,1.06-.47,1.43a34.75,34.75,0,0,1-5,3.12,55.77,55.77,0,0,1-22.76,6.08C51.42,54.41,50.12,54.38,48.82,54.4Z"/><path class="cls-4" d="M51.17,15.06c-.5,2.06-.94,3.93-1.39,5.8Q48.55,26,47.31,31.09c-.27,1.09-.5,1.26-1.6,1.27H44c-1.21,0-1.42-.15-1.78-1.3q-1.83-6-3.64-12-1.12-3.69-2.24-7.38c-.39-1.31-.27-1.46,1.06-1.46h1.33c1.43,0,1.63.14,2,1.55q1.6,6.3,3.19,12.61a26.13,26.13,0,0,0,1,3.28c.38-1.6.77-3.19,1.14-4.78l2.67-11.3c.28-1.18.5-1.35,1.7-1.37h1.41c1.39,0,1.58.17,1.9,1.55q1.86,7.95,3.73,15.9a2.13,2.13,0,0,0,.19.39c.75-2.91,1.48-5.71,2.21-8.52.68-2.65,1.35-5.3,2-7.95.3-1.16.59-1.36,1.81-1.37h1.67c.9,0,1.1.23.84,1.12-.53,1.86-1.11,3.7-1.69,5.54q-2.14,6.88-4.3,13.76c-.5,1.62-.57,1.67-2.25,1.67-2.92,0-2.58.25-3.27-2.62q-1.7-7-3.37-14C51.34,15.56,51.28,15.41,51.17,15.06Z"/><path class="cls-4" d="M29.94,29.49a8.94,8.94,0,0,1-5.64,3.28c-2.4.34-4.74.2-6.61-1.61-3.57-3.45-2-9.64,2.83-11.3a14.92,14.92,0,0,1,7.79-.11c1.4.27,1.4.29,1.39-1.15,0-.44,0-.88-.05-1.33-.18-2.74-1.4-4-4.16-4.19a14.11,14.11,0,0,0-6.32,1.1c-1.84.72-1.89.66-1.9-1.34a1.6,1.6,0,0,1,1.05-1.67,15.73,15.73,0,0,1,10-1.16c3.34.72,5.1,2.86,5.38,6.27.22,2.77.1,5.54.1,8.31A9.77,9.77,0,0,0,34.89,30a.83.83,0,0,1-.28,1.22c-.38.28-.77.53-1.16.8-1.11.74-1.5.65-2.32-.44C30.67,30.91,30.37,30.2,29.94,29.49Zm-4.19-7.27a8.09,8.09,0,0,0-3.52.49q-2.32,1-2.06,4a3,3,0,0,0,2.47,2.85,5.8,5.8,0,0,0,7.15-6.4c0-.38-.23-.43-.52-.5A21.39,21.39,0,0,0,25.75,22.22Z"/><path class="cls-4" d="M75.82,33a17.06,17.06,0,0,1-6.06-1.16,2.42,2.42,0,0,1-1.55-3.26A.56.56,0,0,1,69,28.2a7.17,7.17,0,0,1,1,.37,13.6,13.6,0,0,0,7.32.95,5,5,0,0,0,1.93-.72,2.67,2.67,0,0,0-.13-4.61,23.24,23.24,0,0,0-4.59-1.64,16.2,16.2,0,0,1-3-1.2,5.92,5.92,0,0,1-.43-10.15c2.33-1.63,5-1.78,7.65-1.41a11,11,0,0,1,3.42,1,2.48,2.48,0,0,1,1.1,3.12c-.26.57-.69.36-1.06.2A12.62,12.62,0,0,0,78.29,13a9.37,9.37,0,0,0-3.94.35,2.45,2.45,0,0,0-1.79,2.07,2.48,2.48,0,0,0,1.28,2.66A27.63,27.63,0,0,0,79.12,20c.73.26,1.46.5,2.17.83,4.26,2,4.1,7.51,1.12,10A10.37,10.37,0,0,1,75.82,33Z"/><path class="cls-3" d="M80,40.5a42.06,42.06,0,0,0-5.38.39c-.33,0-.7.17-.87-.23s.19-.66.48-.86a11.79,11.79,0,0,1,4.73-1.91,17.55,17.55,0,0,1,6.85,0c1.62.34,2,.79,1.89,2.43a16.24,16.24,0,0,1-4.41,10.3,3.8,3.8,0,0,1-.37.33c-.31.2-.58.63-1,.32s-.09-.65,0-1a43.73,43.73,0,0,0,2.14-6.53c.49-2.41-.07-3.17-2.5-3.27C81,40.49,80.49,40.5,80,40.5Z"/><circle class="cls-5" cx="16.04" cy="84.85" r="7.17"/></svg>