<svg xmlns="http://www.w3.org/2000/svg" width="154.467" height="123.18" viewBox="0 0 154.467 123.18">
  <g id="xenonstack-azure-multicloud-solutions" transform="translate(-40.35 -46.358)">
    <path id="Path_31251" data-name="Path 31251" d="M38.94,149.5l16.648-2.884c7.63-1.351,15.26-2.629,22.927-3.906l23.986-4.089,7.3-1.314.621-.292c-.84-1.059-1.57-2.081-2.373-3.067Q90.928,112.374,73.732,90.907a2.081,2.081,0,0,1,0-2.191q6.973-19.5,13.837-38.954l5-14.092a5.331,5.331,0,0,1,.584.694l32.164,57.391,30.411,54.178.84,1.643Z" transform="translate(38.247 19.962)" fill="#0072c6"/>
    <path id="Path_31252" data-name="Path 31252" d="M112.673,33.13c-4.746,10.441-9.31,20.591-13.873,30.74L66.6,135.207l-2.629,5.768a1.314,1.314,0,0,1-1.387.986H29.4a2.921,2.921,0,0,1-.548,0,4.491,4.491,0,0,1,.438-.949l26.176-47.1c3.359-5.987,6.791-11.938,10-18a22.307,22.307,0,0,1,5.622-6.754Q87.081,55.364,103,41.49Z" transform="translate(11.5 13.229)" fill="#0072c6"/>
  </g>
</svg>
