<svg xmlns="http://www.w3.org/2000/svg" width="140.887" height="136.728" viewBox="0 0 140.887 136.728">
  <g id="xenonstack-kubernetes-security" transform="translate(-1.002 -46.83)">
    <path id="Path_31222" data-name="Path 31222" d="M71.413,160.324H44.649a9.766,9.766,0,0,1-8.046-3.866q-16.7-20.79-33.423-41.487a9.526,9.526,0,0,1-1.85-8.545q5.216-23.139,10.543-46.24l1.332-5.752a9.415,9.415,0,0,1,5.382-6.64l19.144-9.156q14.649-6.9,29.279-13.983a9.637,9.637,0,0,1,8.767,0l42.874,20.457c1.646.8,3.274,1.628,4.957,2.349a10.3,10.3,0,0,1,6.215,7.75q5.16,22.769,10.45,45.519c.518,2.238,1.073,4.458,1.48,6.714a8.73,8.73,0,0,1-2.035,7.288L131.489,125q-12.522,15.648-25.062,31.3a10.006,10.006,0,0,1-6.474,3.94,12.731,12.731,0,0,1-1.85,0Z" transform="translate(0 23.23)" fill="#326be3"/>
    <path id="Path_31223" data-name="Path 31223" d="M100.941,86.669a29.259,29.259,0,0,1-.277,4.18c0,.407,0,.7.5.758a1.221,1.221,0,0,1,.962.629c.629,1.036,1.85,1.054,2.756,1.239,1.961.388,3.958.425,5.937.629a5.105,5.105,0,0,1,2.331.758,2.941,2.941,0,0,1,1.184,3.477,3.218,3.218,0,0,1-3.292,1.85,23.342,23.342,0,0,1-4.458-1.48,29.025,29.025,0,0,0-3.977-1.2,2.035,2.035,0,0,0-1.85.314.98.98,0,0,1-.98,0c-.444-.129-.629,0-.758.425A37.992,37.992,0,0,1,93.468,108.9a37.51,37.51,0,0,1-10.617,9.729c-.425.259-.61.462-.333.925a1.128,1.128,0,0,1,0,1.184,1.85,1.85,0,0,0,.148,1.517,30.983,30.983,0,0,0,3.089,5.16,8.415,8.415,0,0,1,1.572,3.052,2.959,2.959,0,0,1-1.85,3.5,3.144,3.144,0,0,1-3.7-1.554,10.987,10.987,0,0,1-1-2.515,35.55,35.55,0,0,0-2.072-5.549,2.182,2.182,0,0,0-1.48-1.313c-.462,0-.518-.518-.7-.832s-.3-.351-.61-.24a35.882,35.882,0,0,1-9.008,2.109,38.158,38.158,0,0,1-17.164-2.109c-.333-.129-.536-.111-.647.24a1.683,1.683,0,0,1-1.2,1.054c-.481.129-.721.555-.943.98a30.594,30.594,0,0,0-2.035,5.4,14.428,14.428,0,0,1-1.11,2.848,3.181,3.181,0,0,1-2.294,1.7,2.867,2.867,0,0,1-3.144-3.884,8.9,8.9,0,0,1,1.35-2.552,35.938,35.938,0,0,0,3.237-5.364,1.85,1.85,0,0,0,.148-1.517,1.5,1.5,0,0,1,.129-1.424c.185-.333.129-.536-.24-.758A37.936,37.936,0,0,1,26.7,98.34c-.129-.407-.314-.518-.684-.407a1.5,1.5,0,0,1-1.369-.185,2.275,2.275,0,0,0-1.85-.129,36.385,36.385,0,0,0-5.142,1.7,9.248,9.248,0,0,1-3.4.925A3.033,3.033,0,0,1,11.142,97.9a3.107,3.107,0,0,1,2.053-3.329,13.983,13.983,0,0,1,3.921-.592,29.687,29.687,0,0,0,4.883-.7,2.053,2.053,0,0,0,1.369-.888,1.517,1.517,0,0,1,1.073-.721c.481,0,.592-.333.518-.777a25.58,25.58,0,0,1-.333-4.273,37.769,37.769,0,0,1,6.085-21.086c.222-.333.277-.573-.111-.814a1.443,1.443,0,0,1-.666-1.091,2.109,2.109,0,0,0-.869-1.461,35.144,35.144,0,0,0-4.883-3.2A11.634,11.634,0,0,1,22,57.408a3.015,3.015,0,0,1-.222-4.569,3.126,3.126,0,0,1,3.81-.111,12.078,12.078,0,0,1,2.2,2.035,34.236,34.236,0,0,0,4.051,3.9,2.257,2.257,0,0,0,1.961.555,1.209,1.209,0,0,1,.832.37.573.573,0,0,0,.906,0,36.419,36.419,0,0,1,11.745-8.212,37.178,37.178,0,0,1,10.524-2.959l.777-.092c.962,0,.962,0,1.017-.98a.7.7,0,0,1,.185-.5,3.311,3.311,0,0,0,.832-2.83,57.335,57.335,0,0,0-.721-6.178,6.1,6.1,0,0,1,0-2.09,3.033,3.033,0,0,1,3.015-2.478,3.089,3.089,0,0,1,2.774,2.793,15.315,15.315,0,0,1-.3,3.9,29.3,29.3,0,0,0-.425,4.92,2.183,2.183,0,0,0,.74,1.85c.37.277.314.684.314,1.054s.092.5.462.536A38.01,38.01,0,0,1,90.01,59.59c.3.3.518.407.851,0a1.665,1.665,0,0,1,1.424-.481,1.85,1.85,0,0,0,1.387-.444,32.368,32.368,0,0,0,4.162-3.977,14.519,14.519,0,0,1,1.979-1.85,3.2,3.2,0,0,1,3.921-.148,3.033,3.033,0,0,1,0,4.661,13.242,13.242,0,0,1-2.386,1.628A30.518,30.518,0,0,0,96.465,62.2a2.016,2.016,0,0,0-.851,1.646c0,.462-.407.629-.666.869a.554.554,0,0,0-.129.832,37.751,37.751,0,0,1,5.845,15.685,35.7,35.7,0,0,1,.277,5.438Z" transform="translate(8.593 31.446)" fill="#fefefe"/>
    <path id="Path_31224" data-name="Path 31224" d="M44.68,68.676a2.608,2.608,0,0,1,3.366-2.534l14.261,2.4c.481,0,.61.2.407.721A30.334,30.334,0,0,1,51.191,83.676c-.351.24-.481.2-.647-.185L44.995,69.952A2.959,2.959,0,0,1,44.68,68.676Z" transform="translate(37.11 59.279)" fill="#326ce4"/>
    <path id="Path_31225" data-name="Path 31225" d="M45.062,46.228c-.277,4.791-.536,9.581-.814,14.353a2.719,2.719,0,0,1-2.257,2.793,2.645,2.645,0,0,1-2.053-.555L27.861,54.292c-.407-.3-.222-.444,0-.666a30.149,30.149,0,0,1,14.575-7.6c.647-.148,1.295-.24,1.961-.37S45.247,45.6,45.062,46.228Z" transform="translate(22.615 41.923)" fill="#326ce4"/>
    <path id="Path_31226" data-name="Path 31226" d="M22.7,68.954a29.427,29.427,0,0,1,4.069-15.241c.24-.388.333-.5.74-.129L38.2,63.165a2.941,2.941,0,0,1,1.2,2.09c.092,1.48-.684,2.4-2.4,2.9l-13.077,3.7c-1.128.333-1.147.333-1.221-.869C22.661,70.36,22.7,69.657,22.7,68.954Z" transform="translate(18.419 48.513)" fill="#326ce4"/>
    <path id="Path_31227" data-name="Path 31227" d="M63.224,69.3a23.212,23.212,0,0,1-.092,2.534c0,.3,0,.407-.425.314L48.594,68.06a2.978,2.978,0,0,1-1.739-1.128,2.5,2.5,0,0,1,.259-3.218c1.461-1.5,3.089-2.83,4.643-4.217l6.511-5.863c.333-.3.462-.333.721.092A30.944,30.944,0,0,1,63,65.6,27.042,27.042,0,0,1,63.224,69.3Z" transform="translate(38.56 48.556)" fill="#326ce4"/>
    <path id="Path_31228" data-name="Path 31228" d="M43.815,85.831a31.924,31.924,0,0,1-9.526-1.443c-.444-.129-.481-.259-.259-.666,2.349-4.2,4.661-8.4,6.973-12.614a2.7,2.7,0,0,1,2.645-1.646,2.756,2.756,0,0,1,2.294,1.628l7.066,12.744c.185.333.129.444-.2.555A30.869,30.869,0,0,1,45.961,85.7a17.308,17.308,0,0,1-2.146.129Z" transform="translate(27.949 62.192)" fill="#326ce4"/>
    <path id="Path_31229" data-name="Path 31229" d="M39.08,66.08a2.571,2.571,0,0,1,2.552,3.144,44.391,44.391,0,0,1-2.109,5.382c-1.165,2.9-2.4,5.789-3.57,8.693-.2.5-.37.5-.777.222A30.371,30.371,0,0,1,23.839,69.391c-.277-.684-.277-.7.425-.832l14.261-2.4Z" transform="translate(19.256 59.322)" fill="#326ce4"/>
    <path id="Path_31230" data-name="Path 31230" d="M44.58,63.327a2.552,2.552,0,0,1-2.608-2.478c0-1.739-.222-3.5-.314-5.234-.185-3.107-.351-6.233-.518-9.341,0-.7,0-.721.684-.61a30.445,30.445,0,0,1,16.314,8.064c.333.314.314.444,0,.684L46.43,62.606A2.922,2.922,0,0,1,44.58,63.327Z" transform="translate(34.102 41.933)" fill="#326ce4"/>
    <path id="Path_31231" data-name="Path 31231" d="M41.479,59.305a3.107,3.107,0,0,0,.721,0,2.349,2.349,0,0,1,2.645,1.332,21.863,21.863,0,0,0,1.628,2.09.684.684,0,0,1,.185.647c-.314,1.276-.61,2.534-.888,3.81a.721.721,0,0,1-.444.573L41.886,69.4a.8.8,0,0,1-.832,0c-1.128-.573-2.275-1.11-3.422-1.646a.832.832,0,0,1-.5-.61l-.832-3.7a.888.888,0,0,1,.185-.869c.8-.943,1.572-1.85,2.312-2.867a.869.869,0,0,1,.814-.388Z" transform="translate(29.953 53.52)" fill="#326ce4"/>
  </g>
</svg>
